<svg xmlns="http://www.w3.org/2000/svg" viewBox="0 0 226.87 236.47"><defs><style>.cls-1{fill:#d0dbd6;}.cls-2{fill:#954e55;}.cls-3{fill:#b48081;}.cls-4{fill:#6c353b;}.cls-5{fill:#a9b7c7;}.cls-6{fill:#e5eae8;}.cls-7{fill:#fff;}.cls-8{fill:#c3342e;}.cls-9{fill:#f37458;}.cls-10{fill:#a91e15;}.cls-11{fill:#4c1f25;}.cls-12{fill:#6e7984;}.cls-13{fill:#8c98a6;}.cls-14{fill:#c59e9d;}</style></defs><g id="Calque_2" data-name="Calque 2"><g id="Calque_3" data-name="Calque 3"><path class="cls-1" d="M66.6,183.77l-6.73,10.56-4.16,8.8s1.71,14.42-.38,20.88a20.86,20.86,0,0,1-7.24,10s-6.18,2.88-11.54-1.12a31.19,31.19,0,0,1-7.9-8.44l-3-6.56-1.48-9.48-3.31-3.24-10.5-3.58s-7.16-3.44-8.94-6.49a4.91,4.91,0,0,1,.55-5.62s2.34-6.18,11.59-8.69,14.38-1.89,14.38-1.89l3.33.14,11.11-12.88s4.13-5.7,8.72-1,4,9.27,5.83,11.29S68.42,179.6,66.6,183.77Z"/><path class="cls-2" d="M199.76,132.05,190,136s-10,4.74-12.1,8.11-9.58,15.13-13.95,17.44-19.55,8.51-19.55,8.51-16.43,2.68-27.72,3.4-36.41-.75-36.41-.75L67.37,183.09A34.58,34.58,0,0,1,62,181.67a11.47,11.47,0,0,1-3.06-2.43s-3.59.6-4.86-1.87-.74-6-.74-6l-.74-4A8.26,8.26,0,0,0,47,165.15a15,15,0,0,0-7.45,1.95l3.89-7,2.35-7.21L51,138l5.7-9.65S56.5,114.63,64.07,92,75.25,67.28,75.25,67.28l6.46-8.78,9.81-10.2,1.82-4.69L97,38.37s.6,28.74,4.13,39.49,12.42,24,20.32,31.89,23,20.31,31.16,23.36a72.38,72.38,0,0,0,16.64,3.8l6.68-1.26,7.22-5.86s2.07-2.85,7.18-.69A49.42,49.42,0,0,0,199.76,132.05Z"/><path class="cls-1" d="M204.93,82.81s-5.29-15.36-11.64-26.19a58,58,0,0,0-14.78-16.75s-8.68-5.18-13.56-5.5a75.19,75.19,0,0,0-12.57.82s-10.26.84-14.86-1.78-10.74-5.42-15.87-6-14.38,2.41-14.38,2.41-8.47,2.35-9,11.06a115.14,115.14,0,0,0,.16,16.29s.42,15.55,6,26.55,15.74,26.17,26,34.63a149.49,149.49,0,0,0,22.23,14.8l13.06,3.37,10.26-.83,6.69-4.37a10.37,10.37,0,0,1,9.5-1.7c5.64,1.71,9,.3,9,.3s7.23-8.44,7.28-17.21S204.93,82.81,204.93,82.81Z"/><path class="cls-3" d="M199.76,132.05s-4.91-1.56-7.68-2.47a34.74,34.74,0,0,0-6.91-1.19l-7.25,7.27s-19.79,20.08-27.24,23.59c-4.53,2.13-10.31,2.58-15.31,3.34-6.42,1-14.47,3.33-21-.31-8.73-4.86.43-9.91,4.06-13.13,2.45-2.18,6.42-4.75,7.62-7.94a9.08,9.08,0,0,0-3.89,1.64C107.46,151.43,87.48,166,87.48,166l-9,7.06,26.23-.38,31.47-.19s24.29-6.55,30.89-13.69,7.06-10.6,7.06-10.6a68,68,0,0,1,13.61-11.13C195,132.86,199.76,132.05,199.76,132.05Z"/><path class="cls-4" d="M62.33,170.24s7.06-11.48,7.75-17.78,7-33.28,12.72-44c2.66-5,6-12.71,13-12,4,.42,7.66,3,10.89,5.71a83.36,83.36,0,0,1,19.14,23.32,8.79,8.79,0,0,1,1.46,4.52,7,7,0,0,1-1.49,3.45,65.83,65.83,0,0,1-15.14,15.74,37.71,37.71,0,0,0,12.48-7.37c2.32-2.06,4.45-4.47,7.36-5.64,7.09-2.84,15.59,2.65,22.33,5.85,1.41.67,3,1.7,3.15,3.22a3.29,3.29,0,0,1-.48,1.82c-2.09,4-3.13,8.8-6.7,11.82,9.22-7.79,19-14.76,28.49-22.3-9,.68-18.33-1.89-27-5.92-16.79-7.84-31.55-19.13-40.35-36.16-5.59-10.83-8.63-17.76-8.63-17.76L98.2,55.46S93.71,74.3,91.11,71.78s-2.32-15.46-2.32-15.46A181,181,0,0,1,80,74.19c-5.08,8.85-15.22,22.6-17.46,32.9s-7,41.64-8.37,47.2-.79,17.05-.79,17.05S64.36,122.06,62.33,170.24Z"/><path class="cls-5" d="M53.34,175.1l-12.29,9.09-5.89-3.12-3.93-2,8.38-9.74,2.73-3.14s5.82-1.78,8.64.54S53.34,175.1,53.34,175.1Z"/><path class="cls-5" d="M32.62,214.38l7.18,8.51a8.94,8.94,0,0,0,2.68,2.42A4.59,4.59,0,0,0,48,223.85,11,11,0,0,0,49.86,218a42.17,42.17,0,0,0,0-7.62,28.52,28.52,0,0,1-.14,14,14.24,14.24,0,0,1-3.23,6.24A7.79,7.79,0,0,1,40.07,233c-3.94-.43-7.11-4-9.36-7.51a51.69,51.69,0,0,1-7.43-19.07,30.65,30.65,0,0,1,10.93,10.45Z"/><path class="cls-6" d="M30.24,190.18c2.32.23,11.78,4.89,9.05-1-1.37-2.93-6.77-4-9.41-4.51a34.38,34.38,0,0,0-4.94-.46c-7-.32-14.69-.16-19.2,4.7a5.48,5.48,0,0,0-1.68,3.57c0,2.22,1.9,4.36,4.06,5.08a8.55,8.55,0,0,0,6.33-.63,51.81,51.81,0,0,0,5.34-3.34,27.89,27.89,0,0,1,5-2.48A12.06,12.06,0,0,1,30.24,190.18Z"/><path class="cls-7" d="M14.94,193c1.74-.3,2.3-2.74,1.27-4.36a5.37,5.37,0,0,0-4.86-2.21,6.23,6.23,0,0,0-5.27,3.72,4.45,4.45,0,0,0,.31,4.35A4.37,4.37,0,0,0,11,195.89a10.33,10.33,0,0,0,4-2.67Z"/><path class="cls-5" d="M185.66,81.68c-8.67-8-18.28-14.83-27.89-21.57C149,54,139.47,47.63,129.43,47.71c-5.38,0-10.36,2-15,4.2-2.72,1.3-5.76,2.74-8.83,1.67a8.83,8.83,0,0,1-3.07-1.94c-4.62-4.36-5.07-11.86-2.08-16.74s8.61-7.47,14.38-8.41a22,22,0,0,1,7.56-.09c5.88,1.08,11.08,5.26,16.84,7.17,9.3,3.08,18.91,0,28.38,1.94,7.29,1.51,14.08,6,19.38,11.71a70.73,70.73,0,0,1,12.33,19.56c5.24,11.72,6.91,24.43,8.24,36.76a27.67,27.67,0,0,1,.09,8.17c-1.1-.27-1.67-1.55-2.09-2.63C201.49,98.61,193.9,89.3,185.66,81.68Z"/><path class="cls-8" d="M195.61,70.59s-4.86-9.11-7.71-13.72A40.55,40.55,0,0,0,180,48.23s-6-4.3-12.8-4.84-12.29-1.19-12.29-1.19l-9,0s-1.65.62-.84,2.92S147.92,52,147.92,52a47.36,47.36,0,0,1,2,8.08c.52,3.91,1.31,9.23,1.31,9.23s1.87,5.73,3.37,6.6a25.54,25.54,0,0,1,2.18,1.36A4.63,4.63,0,0,1,161,77a24.12,24.12,0,0,1,4.36,3l2.75-3.79s4.8-2.87,9.57-2.16L187,75.47S194.34,76.63,195.61,70.59Z"/><path class="cls-8" d="M196.5,80.46a141.55,141.55,0,0,1,4.42,15.25,76.32,76.32,0,0,1,1.3,11.71l-.88,9.25s-2.22,5.51-6.72,5.11a14,14,0,0,1-7.63-3.39,36.77,36.77,0,0,1-3.92-6.66c-1.89-4.08-3.24-7.27-3.24-7.27a12.48,12.48,0,0,0-2.71-3.35c-1.49-1.14-4.49-2.87-4.89-4.71a11,11,0,0,1,.44-4.49s.16-3.69-.38-5.13a4.7,4.7,0,0,1,0-3.85,10.69,10.69,0,0,1,1.93-2.25,17.09,17.09,0,0,1,7.92-.15,34.31,34.31,0,0,1,6,2.1S194.58,82.71,196.5,80.46Z"/><path class="cls-8" d="M180.69,121.21s1.38-1.49.3-4.37a72.67,72.67,0,0,0-3.51-7.29s-3.8-4.31-5.7-5.36a5.41,5.41,0,0,0-3-.91s-5.34,2.52-8.07,2.19a27.74,27.74,0,0,1-6.27-1.85l-5.72-3.71-6.38-6.13-4.79,1.49s-3.7,2.17-5.89,2.46-5.33.6-5.33.6-3.43,2.2-1.94,5.27a33.09,33.09,0,0,0,4.88,6.63s7.87,7.83,12.63,11a69.86,69.86,0,0,0,9.53,5.27l4.63,1.65,5.05,1.85s6.56-.87,8.21-2.87,3-3.77,3-3.77l4.24-1.55Z"/><path class="cls-8" d="M147.78,74.21s-.39-2.11-4.35-3-6.15.5-6.15.5-3.84,3.66-3.73,7.67a9.17,9.17,0,0,0,2.15,6,2.68,2.68,0,0,1-1.39,3.69,43.58,43.58,0,0,1-7.12,2.17s-4.92,1.34-7.64-.09A24.55,24.55,0,0,1,114,86.53l-3.78-6.23-3.38-6.59-2.14-6.86-1.06-6.18.72-5.83,1.25-3s2.07-4.29,7.24-.37a35.58,35.58,0,0,1,8,8.52s5.3,4.35,8.71,4.62a26.15,26.15,0,0,0,6.69-.44s7,1,8.32,2.79S147.78,74.21,147.78,74.21Z"/><path class="cls-8" d="M143.77,60.53s-3.13-1.89-5.73-1.79a71.19,71.19,0,0,0-7.79,1.13s-5.6.57-8.31-3.61a48.92,48.92,0,0,0-5.29-6.82A20.81,20.81,0,0,0,111.07,47c-2.32-.41-4.1-.21-4.77-1.81a8.15,8.15,0,0,1-.25-3.88,12.37,12.37,0,0,1,6.85-4.13,64.52,64.52,0,0,1,8.62-1.58A21.07,21.07,0,0,1,133,38.33c5.58,3.28,8.55,10.24,8.55,10.24S144.88,57.91,143.77,60.53Z"/><path class="cls-9" d="M174.32,121.68a4.24,4.24,0,0,1,.5-.18c2.21-.73,5-.22,6.72-1.75,2.08-1.86-6.93-12.65-8.08-13.8s-2.47-2.25-4-2.33-2.78,1-3.87,2c1.6-1.14,4.07-.71,5.76.66,2.31,1.86,6.36,11.19,1.47,11.42-.8,0-1.63-.28-2.42-.2-1.57.16-2.41,1.79-2.82,3.31-2.27,8.44-10.47,4.34-16.84,1.43-7.17-3.31-13-8.27-19.12-13.36a5.54,5.54,0,0,1-1.76-2c-.33-.83-.06-1.91.75-2.08a2.23,2.23,0,0,1,1.39.32,59.59,59.59,0,0,1,6.4,4.19c6.6,4.37,14.33,6.06,21.83,7.38a14.69,14.69,0,0,1-3.41-.8c-6.16-2-12.66-4.2-17.19-9.11-1.09-1.2-2.1-2.92-1.42-4.22,1.36-2.64,5.47-.53,7.38.56a30.09,30.09,0,0,0,13.24,4,46.76,46.76,0,0,1-12.41-7.79c-1.46-1.28-3-2.71-4.78-3.13-2.72-.63-4.13,1.2-6.35,2s-4.88.72-7.27,1a4.3,4.3,0,0,0-2.49.9c-1.36,1.33-.41,3.85.76,5.64,7.3,11.23,20.66,18.55,32.74,22.15,2.18.65,4.5,1.22,6.57.63C169.24,127.36,170.93,123.13,174.32,121.68Z"/><path class="cls-9" d="M146.14,71.15c-.75-3.86-5.38-5.93-9.2-6.14s-7.73.57-11.38-1c-5.84-2.54-8.63-10.09-14.4-12.83a4.14,4.14,0,0,0-3.08-.43,3.8,3.8,0,0,0-1.84,1.81c-4.55,7.66-1.91,18.56,3.51,26.79-3.58-6-4.39-13.42-2.11-19.42.53-1.4,1.4-2.86,2.9-3.06a4.24,4.24,0,0,1,2.66.74c2.45,1.49,4,4.08,5.77,6.39s4,4.63,6.73,4.94c1.14.12,2.25-.11,3.38,0a2.92,2.92,0,0,1,2.55,2.1c.3,2-2.12,3.87-2.17,6.07-.06,3,2.46,10.66-3.69,7.93a10.24,10.24,0,0,1-4-3.85A32.36,32.36,0,0,1,116.54,68a29.53,29.53,0,0,0,3.08,11.11c.85,1.69,1.88,3.39,2.07,5.22s-.87,3.81-2.66,3.79c-1.38,0-2.6-1.15-3.63-2.2l-2.15-2.18c3.13,3.18,5.37,8.34,10.55,8.61,3.35.18,7.7-2.46,10.56-3.67.86-.36,1.81-.85,1.92-1.8a2.8,2.8,0,0,0-.22-1.26c-1.36-3.82-3.59-6.42-2.4-10.59C135,70.42,141,68.32,145.48,71c.4.24.89.51,1.25.29s-.14-1-.39-.68c.6,1,1.2,2,1.79,3Z"/><path class="cls-9" d="M199,88.87A10.9,10.9,0,0,0,196.09,81c-2.1,2.44-6,2.34-9.36,1.52s-6.8-2.21-10.08-1.73c-1.62.23-3.28,1.12-3.57,2.75s.92,3.44.75,5.13c-.14,1.45-1.28,2.52-1.52,3.94-.47,2.73,2.27,5.14,4.24,7.37,2.45,2.77,4,6.15,5.69,9.42s3.57,6.57,6.44,8.88,6.93,3.4,9.78,1.72c-4.31.37-8.33-3.6-10.54-7.68s-3.5-8.66-6.47-12.26a43,43,0,0,1-3-3.53c-1.65-2.5-1.87-5.91-.21-8a5.36,5.36,0,0,1,7.51-.53,10,10,0,0,1,2.63,4.46,39.27,39.27,0,0,1,1.94,8.53c.39-1.91-.18-4-.73-6s-1.11-4.07-.67-6,2.22-3.5,4.19-3,3.21,3,3.82,5.18a56.52,56.52,0,0,1,2.11,19.2,2.52,2.52,0,0,1-.33,1.32c-.56.78-1.89.59-2.68-.13a6.44,6.44,0,0,1-1.55-2.74,13.41,13.41,0,0,1,1.26,7.79c-.19,1.25-1.17,2.7-2.34,2.07a5.13,5.13,0,0,0,6.77-.13c1.44-1.54,1.61-4,1.64-6.19a95.61,95.61,0,0,0-4.16-28.73Z"/><path class="cls-9" d="M195.17,71.68c-.11-3.15-2-6.11-3.9-8.85-3.4-5-6.91-10.15-11.74-13.77-9.25-6.92-21.13-6.83-31.94-6.4-1,0-2.24.22-2.52,1.19a3.18,3.18,0,0,0,.62,2.21,43,43,0,0,1,5.38,17.84l-.45-13.1a7.14,7.14,0,0,1,.48-3.62c1.12-2.1,4-2.29,6.48-2,11.64,1.26,23.19,8,30.63,17.85,1.18,1.55,2.26,3.8,1.09,5.09-1.52,1.67-4.38-.42-6.15-2.22A42.49,42.49,0,0,0,167,55.55,45,45,0,0,1,180.64,65c1.35,1.36,2.68,3.55,1.55,4.84-.77.89-2.22.69-3.44.4a62.65,62.65,0,0,1-16.17-6.44c3.83,2.39,9,9.18,1.45,9.43a18.7,18.7,0,0,1-12.25-4.34,8.72,8.72,0,0,0,6.86,7.82,26.17,26.17,0,0,1,2.8.38,12.19,12.19,0,0,1,3.78,2.24,1.19,1.19,0,0,0,.83.34.92.92,0,0,0,.54-.43,8.71,8.71,0,0,0,1.21-2.49,3.46,3.46,0,0,1,.67-1.48,3,3,0,0,1,1.7-.64c2.34-.35,4.52-1.23,6.86-1.3,3-.08,6.19,1.21,9.19,1.56,3.89.46,8.35-.54,9.64-4.09Z"/><path class="cls-9" d="M138.44,44.18c-3.3-4.91-8.31-8.37-13.91-8.36a37.47,37.47,0,0,0-15.75,3.41,53.09,53.09,0,0,1,14.83-1.17c3,.18,6.14.66,8.68,2.54,2.29,1.71,10.28,10.76,4.94,12.42-2,.63-4.07-1.55-5.71-3.24a22.32,22.32,0,0,0-5.29-4c1.6,1.26,5.66,4,6,6.18.25,1.63-2.1,4.82-3.5,5.18-1.9.49-4-1.12-5.18-2.92s-1.92-3.88-3.34-5.51a9.77,9.77,0,0,0-6-3.1,14.87,14.87,0,0,0-6.44.68c6.93-2.13,11.55,7.52,15.49,11.46a9.51,9.51,0,0,0,3.91,2.6c2.92.81,5.55-1,8.3-1.8a12.76,12.76,0,0,1,8.49.64A33.4,33.4,0,0,0,138.44,44.18Z"/><path class="cls-7" d="M165,100.63A7.53,7.53,0,0,0,170,92c-1-6.34-5.08-9-10.21-12.34,4.79,3.11,8.39,9.13,5.75,14.21a5.94,5.94,0,0,1-6.89,3.27c-3.94-.8-7.16-.91-10.44-3.67a26.19,26.19,0,0,0-6.89-4.21c5.08,4,9.79,9.44,15.94,11.49A11.59,11.59,0,0,0,165,100.63Z"/><path class="cls-7" d="M196.27,122.46c5-.37,5.65-8.12,5.8-12.25a1.58,1.58,0,0,0-.45-1.39c-.07,6.77-6.92,14.06-13,6.85a18.11,18.11,0,0,1-1.77-2.4c-.53-.91-.91-1.88-1.35-2.83a23.71,23.71,0,0,0-10.32-10.75,34.42,34.42,0,0,1,7,9.34C184.87,114.32,189.25,123,196.27,122.46Z"/><path class="cls-7" d="M135,103.85a11.26,11.26,0,0,1,.19-1.42,3,3,0,0,1,3-1.91,10.92,10.92,0,0,1,3.88,1l4.14,1.6c.19.07.43.32.28.43a5.51,5.51,0,0,1-3.19-.68,8.14,8.14,0,0,0-3.17-1A2,2,0,0,0,138,103.7c0,1.09,1.07,1.94,2,2.6,2.57,1.84,4.83,3.68,7.54,5.27a69.4,69.4,0,0,0,12.35,5.8c-7-.44-12.13-4.18-18.5-7.13l-10-4.61a2.48,2.48,0,0,0,3.51-1.4C135,104.11,135,104,135,103.85Z"/><path class="cls-7" d="M106.1,72.2c.25.75.53,1.5.84,2.24a32.62,32.62,0,0,0,9.29,12.68c1.15,1,2.68,1.88,3.92,1.34A2.73,2.73,0,0,0,121.41,87a6.68,6.68,0,0,0-.66-6.27,4.22,4.22,0,0,1,0,3.59,2.7,2.7,0,0,1-3,1.34,5.48,5.48,0,0,1-2.56-1.94c-5.49-6.47-8.5-16.09-11.1-23.84.68,2,.21,4.91.62,7.06A37.33,37.33,0,0,0,106.1,72.2Z"/><path class="cls-7" d="M174.54,45.34a17,17,0,0,0-7.43-1.77c1.75,0,5.73,3.47,7.52,4.36a19.81,19.81,0,0,1,5.86,4.23c5.13,5.19,11.57,12.1,12.21,19.52a2,2,0,0,1-.16,1.19c-.44.73-1.73.72-1.91,1.58l2.23-.16a2.69,2.69,0,0,0,1.78-.55c.66-.66.47-1.83.18-2.81a46.29,46.29,0,0,0-16.45-23.32A24.74,24.74,0,0,0,174.54,45.34Z"/><path class="cls-10" d="M196,71c-3.32-10.15-11.46-21.85-21.54-26.24A37.16,37.16,0,0,0,161.05,42,113.69,113.69,0,0,0,146.29,42c-2.74.24-2.53,1.89-1.35,4.27a48.25,48.25,0,0,1,4.94,15.55c.67,4.6,1.3,10.25,4.25,14.32.71,1,1.15,1.48,2.3,1.61.64.07,1.19-.42,1.76-.47,3.4-.31,4.8,1.11,6.82,3.44a.44.44,0,0,0,.77-.12c3.6-9.31,14.61-4.9,22.48-4.57,4,.17,8.32-1.74,7.58-6.44-.07-.43-.74-.41-.73,0,.16,9-13.39,4-19,4.06a15.35,15.35,0,0,0-6.78,1.3,8.51,8.51,0,0,0-2.64,2,13.82,13.82,0,0,1-1.3,2c-1,.34-2.44-1.75-3.8-2.37-1.56-.71-2.38,0-3.82-.14-6.43-.41-6.84-13.13-7.56-17.52a39.85,39.85,0,0,0-1.74-7.23c-1-2.82-5.43-7.45-1-9,1.6-.55,5,0,6.83,0,3.18,0,6.37-.07,9.58.21,6.94.61,13.59,3,18.87,8.29,5.7,5.77,9.34,12.83,12.66,20,.17.36.75.2.62-.18Z"/><path class="cls-10" d="M195.82,79.91a15.87,15.87,0,0,1-5.35,2.17c-2.7.33-4.82-.94-7.37-1.61a18.67,18.67,0,0,0-6.66-.61c-3.76.39-5.52,2-4.84,6,.15.9.47,1.81.59,2.72.29,2.07-.85,3.39-.89,5.21a5.93,5.93,0,0,0,1.25,3.87c2.25,3.14,5.59,4.69,7.48,8.3,1.36,2.61,2.16,5.42,3.44,8.06,4.05,8.33,15.65,12.45,18.88,2.59,1.7-5.19.26-12-.46-17.52-.86-6.65-2.17-13.45-5.1-19.75-.29-.62-1.32-.34-1.08.31a99.41,99.41,0,0,1,5.84,30.38c.24,6.82-3.83,14.38-11.71,9.68-4.85-2.89-6-8.43-8.18-13.12a20.15,20.15,0,0,0-2.68-4.41c-1.36-1.61-3.47-2.67-4.72-4.3-2.23-2.92-.64-5.3-.75-8a27.1,27.1,0,0,0-.72-3.74c-.87-4.65,3.91-5.6,7.58-5.21,2.23.23,4.27,1.18,6.44,1.74,3.69,1,6.57-.28,9.43-2.2.3-.2-.09-.76-.42-.6Z"/><path class="cls-10" d="M181.78,120.12c-.05-3.86-1.88-7.6-4.21-10.84-1.84-2.56-5.11-6.79-8.5-6.64a7.39,7.39,0,0,0-3,1.19,9.91,9.91,0,0,1-8,.49c-6.25-2-11.41-7-16.08-11.58a.64.64,0,0,0-.87-.11c-2.7,1.81-5.52,3.59-8.84,4.22-2.08.39-4.48-.21-6.48.39-2.37.7-2.9,2.84-2.25,5.28,1.09,4,4.89,7.83,7.8,10.75a68.76,68.76,0,0,0,11.24,9.08c6.13,4,16.26,9.67,23.25,7.66a8.39,8.39,0,0,0,4-3c2.13-2.46,3.25-4,6.69-4.45,2.7-.37,5.85-.18,6.61-3.26a.68.68,0,0,0-1.26-.48c-1.13,2.7-5.32,1.88-7.74,2.53a7.53,7.53,0,0,0-4,2.67c-2.9,3.33-4.59,5.36-9.74,4.49a38.28,38.28,0,0,1-8.75-2.86,63.28,63.28,0,0,1-17.21-11.3,59.32,59.32,0,0,1-6.36-6.71c-.93-1.16-4.2-5.19-3.44-6.83s3.74-2.12,5.17-2.34a23.63,23.63,0,0,0,6.69-1.55c1.15-.52,2.19-1.45,3.36-1.9,1.94-.74,1.55-.86,3.44.6,4.4,3.39,8,7.36,13.28,9.36a11.91,11.91,0,0,0,10.43-.36c7.36-3.29,13,9.88,14.23,15.49.07.33.57.32.56,0Z"/><path class="cls-10" d="M149.32,75.82c-.86-3.83-4.9-6.27-8.5-6.07a8.12,8.12,0,0,0-7.49,7,13.67,13.67,0,0,0,.71,6.84c.48,1.36,1.74,2.81.83,4.2-.5.78-3,1.18-4,1.52-4.85,1.69-9.56,3.75-14.16-1A46.33,46.33,0,0,1,110,78.85c-3.3-5.92-5.6-12.65-5.42-19.16.09-3.19.55-10.23,5.43-9,3.53.9,6.22,5.06,8.5,7.69,3.73,4.31,8.11,6.82,13.54,6.94,2.9.06,5.86-.8,8.78.36,4.66,1.86,5.61,7.23,7.7,11.15.47.89,1.77.31,1.29-.58-2.26-4.23-3.3-9.48-8.08-11.7s-9.64.18-14.49-1.44c-6.44-2.15-8.93-8.7-14.3-12.35-2.7-1.84-5.87-2.74-7.74,0-4.53,6.68-1.31,18.4,2.12,25.65,2.26,4.77,5.47,10.14,9.45,13.76,3.45,3.13,6.8,2.82,10.63,1.7,2.78-.8,10.67-1.61,9-6-1.43-3.82-3.08-7.59-1.11-11.29,2.43-4.55,11.16-5.43,12.94,1.32.18.67,1.16.53,1-.15Z"/><path class="cls-10" d="M144.36,59.52c-.56-8.73-4.42-18.82-13.2-22.9a22.47,22.47,0,0,0-12.7-1.53c-3.83.54-9.25,1.43-12,4.13a5,5,0,0,0-.57,6.72c1,1.25,2.34,1.41,3.75,1.57,3.9.44,5.75,1.25,8.32,4.71,2.45,3.28,4.56,7.09,8.72,8.15,5.83,1.49,10.68-3.13,16.5.48.74.46,1.29-.49.63-1.05-6.2-5.2-13.25,2.31-19.49-2.17-3.31-2.37-4.77-6.22-7.71-9-2.35-2.21-3.82-1.71-6.44-2.49l-1,0L106.72,41c.43-1.09,2.5-2,3.56-2.46a30.19,30.19,0,0,1,6.12-1.81,24.54,24.54,0,0,1,12.19,0c10,2.92,14.09,13.62,15.37,22.76,0,.23.41.23.4,0Z"/><path class="cls-11" d="M92.42,46.71C80.07,56.87,71.24,70.78,65.39,86a154.65,154.65,0,0,0-7.07,24.49c-1.67,8.1-3.9,17.34-3.37,25.89,0,.6.92.9,1.07.27,1.89-7.79,2-16.29,3.6-24.22a159.88,159.88,0,0,1,6.63-24C72.09,72.56,80.77,58.49,92.86,47.2c.28-.26-.15-.74-.44-.49Z"/><path class="cls-11" d="M56,126.38c-2.84,4.64-4.85,9.93-6.93,15-2.27,5.53-4.56,11.12-6.32,16.89-.21.72.88,1.11,1.14.44,2.11-5.35,3.95-10.84,6.07-16.18s4.67-10.47,6.44-15.95c.07-.22-.28-.4-.4-.21Z"/><path class="cls-2" d="M78,174l-.25.2c24-1.91,50.17,3.69,72.57-4.81,5.85-2.22,11.85-5,16.51-9.12,4.86-4.29,7.71-10.47,12-15.28,4.08-4.56,9-6.71,14.57-9.12,4.21-1.84,9.15-3.93,11.15-8.37.7-1.55-1.7-3.24-2.41-1.67-2.2,4.93-8.46,6.77-13.09,8.77A32.3,32.3,0,0,0,177,142.86c-4.28,4.82-7.12,11.07-11.93,15.37s-11,7.1-17,9.28c-21.76,7.86-46.67,2-69.54,5.32A1.27,1.27,0,0,1,78,174Z"/><path class="cls-11" d="M68.32,159.21c-1.85,3.79-4.62,7-6.85,10.49-1.74,2.75-4,6-4,9.55a.78.78,0,0,0,1.38.53c2.19-3.12,3.58-7.09,5.55-10.44a47.73,47.73,0,0,0,4.37-9.87c.09-.27-.36-.53-.49-.26Z"/><path class="cls-11" d="M39.51,167.36c3.15-2.23,11.6-3.25,13.17,2.22.48,1.67.07,3.63.4,5.36.59,3.06,1.78,4.47,4.85,4.83.57.07.57-.82,0-.89-7.86-.9-1.51-10.6-6.28-13.48-1.79-1.07-4.76-.47-6.53-.3-2.23.22-4.27.49-6,1.8-.28.21.12.66.41.46Z"/><path class="cls-11" d="M39.43,167.06c2.17-2.5,4.66-5.6,5-9.21,0-.35-.49-.54-.65-.25-.84,1.48-1.25,3.21-2,4.74a31.1,31.1,0,0,1-2.61,4.42c-.14.18.2.48.35.3Z"/><path class="cls-12" d="M42.89,165.51A50.63,50.63,0,0,0,30.49,179c-.27.43.39,1,.76.67,4.2-4.28,8.3-9.07,12.09-13.75.2-.25-.22-.58-.45-.4Z"/><path class="cls-13" d="M45.84,236.19c13.14-2.35,12.2-21.52,12-32.29-.07-3.25,2.22-7.26,3.6-10,1.81-3.53,4.88-6.78,5.93-10.66.1-.38-.36-.86-.73-.65-3.63,2-5.83,6.77-7.71,10.37-3.46,6.61-4.23,11.82-4.16,19.54.06,7.45-1,17.06-8.25,20.2-6.13,2.65-12.56-2.44-16.13-7.81a41.69,41.69,0,0,1-6.2-17.19c-.09-.63-1.11-.62-1.07,0C23.73,219.1,31.27,239.05,45.84,236.19Z"/><path class="cls-11" d="M98.7,35.18C96,38.71,92.62,42.56,91.23,47c-1.82,5.76-4.2,11.84-5.08,17.92-.05.38.51.79.7.37,2.36-5,3.48-10.95,5.08-16.37a22.33,22.33,0,0,1,4-7.51,18.17,18.17,0,0,0,3.28-5.9.31.31,0,0,0-.54-.28Z"/><path class="cls-11" d="M161.24,151.54c4.19-3.9,8.4-7.73,12.93-11.23,4.16-3.22,8.93-6.29,12-10.67.47-.68-.59-1.59-1.2-1.07-8.23,7.17-17.06,14.2-24,22.69-.14.16.16.42.31.28Z"/><path class="cls-12" d="M35.19,180.63A30.46,30.46,0,0,0,15,179.13c-5.43,1.51-11.86,5-14.36,10.3-2.37,5,2.05,9.73,6.72,11.82,4.39,2,9,2.61,13.24,5.1a68.49,68.49,0,0,1,17.72,14.46c-4.66-6.51-11.25-13.33-18.26-17C15,201.12.16,199.64,2.18,191.23c1.24-5.16,8.32-8.91,12.86-10.43,6.47-2.16,13.11-1.7,20,.41C35.42,181.33,35.57,180.8,35.19,180.63Z"/><path class="cls-14" d="M66.39,183.44a6.36,6.36,0,0,0,3.74-.72c3.78-2.08,6.34-6.09,9.61-8.82,4.46-3.71,8.8-7.64,13.78-10.69.51-.32.07-1.22-.49-.94-3,1.49-7,2.63-9.08,5.23-2.29,2.8-5.65,4.85-8.47,7.08a30.32,30.32,0,0,1-4.7,3.26,22.43,22.43,0,0,1-5.55,1.88,7.65,7.65,0,0,1-4.59-.06c-.4-.18-1.64-1.69-2-1.53-1,.44,1.62,2.65,2,2.9A11.68,11.68,0,0,0,66.39,183.44Z"/><path class="cls-13" d="M174.52,136.15c2.57-1.12,4.57-2.88,6.83-4.48,4-2.83,7.14-2,11.85-.84,5,1.27,8.92-.26,11.52-4.36,5.82-9.19,5.14-21.8,3.09-32.81-2.5-13.43-5.79-27.41-13.67-39.33-6.5-9.85-16.71-18.82-28.18-20.84-5.12-.9-10.19-.12-15.2.19a34.58,34.58,0,0,1-7.93-.2c-3.62-.61-6.36-2.55-9.63-4.28-8.4-4.43-19.55-4.32-27.44-1-3.75,1.57-7.17,4.22-8.65,8.15-2,5.44-.35,13-.09,18.92.28,6.44.24,13,1.87,19.44,1.7,6.67,5.45,13.12,9.13,19C116,106.5,126,118,138.37,126.53c9.88,6.86,25.46,15.23,36.43,10.17,1-.46.38-2.3-.77-2-10.09,2.46-22.8-3.53-31.77-9.33a100.16,100.16,0,0,1-26-24.91c-8.09-11-14.76-22.72-15.66-36-.4-5.89-.56-11.77-.87-17.65s-.32-11,4.76-14.3c7-4.57,18.55-4.92,26.83-1.07,4.63,2.16,8,4.71,13.07,5.2,4.21.41,8.34-.15,12.46-.44C168.34,35.38,178.57,40,187,49.31c8.7,9.64,13.17,21.94,16.08,34,3.08,12.77,5.9,26.24,1.39,38.17-1.61,4.24-4.13,8-9.3,7.65-2.4-.16-4.77-1.41-7.18-1.61-6.34-.52-9.14,5.16-13.89,7.77C173.58,135.56,174,136.38,174.52,136.15Z"/><path class="cls-1" d="M161,94.9l13.4-14.11,11-9.78s17.1-4.46,25.08-10.34a51.09,51.09,0,0,0,12.77-14.52s4.13-9.74-.08-15.13A19.45,19.45,0,0,0,214,24.26l-7.54-1-11.2,2.45-3.52-3-3.14-12.56s-3.34-8.1-6.81-9.07-6.8,3.38-6.8,3.38-7.67,6.09-11.69,19.83-3.86,20.4-3.86,20.4l-.19,4.45L142.53,70.27s-7.3,8.3-2.19,12.32,10.67,1.14,12.9,2.6S155.8,99.33,161,94.9Z"/><path class="cls-5" d="M152.06,81l12.26-21-3.1-6.51-2-4.38-12.62,16-4.05,5.18s-2.79,8.74-.31,11.48S152.06,81,152.06,81Z"/><path class="cls-5" d="M201.45,34.39l9.43,5.73a5.79,5.79,0,0,1,2.61,2.5c1,2.24-.31,5.79-2.37,8.24a21.34,21.34,0,0,1-7.25,5.24,56.72,56.72,0,0,1-9.14,3.56,39,39,0,0,0,16.76-6.75,31.94,31.94,0,0,0,7.84-7.33c2.2-3,3.73-6.66,3.67-9.86-.09-5.14-4-7.77-8-9.16A41.38,41.38,0,0,0,193,25.45a19.65,19.65,0,0,0,11.33,9.91Z"/><path class="cls-6" d="M172.69,42.54c0,3,4.57,13.69-2.19,12.75-3.37-.47-4.08-7.3-4.38-10.64a48.58,48.58,0,0,1,0-6.5c.39-9.31,1.42-19.85,7.75-28.27a11.92,11.92,0,0,1,4.47-4c2.67-1.09,5,.53,5.64,3.12s-.16,5.88-1.45,8.89-3.06,5.88-4.59,8.82a67.79,67.79,0,0,0-3.53,8A23.32,23.32,0,0,0,172.69,42.54Z"/><path class="cls-7" d="M177.76,20.44c-.55,2.51-3.54,4.42-5.36,3.77s-2.47-3.08-2.12-5.55a15.08,15.08,0,0,1,5-8.91c1.67-1.4,3.75-2.3,5.19-1.62,1.61.78,1.86,3.33,1.14,5.67A25.62,25.62,0,0,1,178,20.42Z"/><path class="cls-12" d="M141.7,71.32a128,128,0,0,1,17.53-23.18c.55-.56,1.23,0,.73.72-5.6,7.71-11.8,15.53-17.83,22.88-.32.4-.66,0-.43-.42Z"/><path class="cls-13" d="M226.17,42.06C221.89,61,199,68.75,186.11,73.5c-3.88,1.43-8.94,6.43-12.33,9.58-4.43,4.11-8.66,9.8-13.44,13-.47.32-1-.08-.7-.67,2.81-5.88,8.77-11.1,13.29-15.35,8.31-7.81,14.65-11.31,23.89-14.84,8.94-3.42,20.58-9.34,25.15-20.7,3.85-9.57-1.54-15.9-7.59-18.23S201.5,24.42,194.43,26c-.74.17-.61-1.22.13-1.46C208.09,20.1,231.2,21,226.17,42.06Z"/><path class="cls-12" d="M160.68,53.75c-2.73-7.44-2.37-17.27.43-26.67C163.52,19,168.43,8.62,175,2.74,181.3-2.82,186.48,1,188.48,6.3c1.88,5,2.14,11,4.66,15.58,3.76,6.89,9,13.44,15.39,17.25-7.29-3.26-14.74-9-18.4-16.79C187.49,16.72,187.35-2.74,177,4c-6.34,4.11-11.61,15.48-13.92,22.36a49.49,49.49,0,0,0-1.71,26.93C161.51,53.73,160.85,54.19,160.68,53.75Z"/></g></g></svg>