<svg xmlns="http://www.w3.org/2000/svg" xmlns:xlink="http://www.w3.org/1999/xlink" viewBox="0 0 816.65 907.34"><defs><style>.cls-1{fill:url(#Poussière_d_or);}.cls-2{fill:url(#Poussière_d_or-2);}.cls-3{fill:url(#Poussière_d_or-3);}.cls-4{fill:url(#Poussière_d_or-4);}.cls-5{fill:url(#Poussière_d_or-5);}.cls-6{fill:url(#Poussière_d_or-6);}.cls-7{fill:url(#Poussière_d_or-7);}.cls-8{fill:url(#Poussière_d_or-8);}.cls-9{fill:url(#Poussière_d_or-9);}.cls-10{fill:#fff;}</style><linearGradient id="Poussière_d_or" x1="-2.9" y1="637.54" x2="816.76" y2="637.54" gradientUnits="userSpaceOnUse"><stop offset="0" stop-color="#ff7300"/><stop offset="0.18" stop-color="#f97c01"/><stop offset="0.47" stop-color="#ea9602"/><stop offset="0.55" stop-color="#e59e03"/><stop offset="0.87" stop-color="#e5c500"/><stop offset="0.99" stop-color="#bf6f00"/></linearGradient><linearGradient id="Poussière_d_or-2" x1="5.14" y1="459.34" x2="218.99" y2="459.34" xlink:href="#Poussière_d_or"/><linearGradient id="Poussière_d_or-3" x1="171.1" y1="285.8" x2="416.18" y2="285.8" xlink:href="#Poussière_d_or"/><linearGradient id="Poussière_d_or-4" x1="397.72" y1="286.52" x2="641.18" y2="286.52" xlink:href="#Poussière_d_or"/><linearGradient id="Poussière_d_or-5" x1="595.25" y1="459.34" x2="809.02" y2="459.34" xlink:href="#Poussière_d_or"/><linearGradient id="Poussière_d_or-6" x1="226.27" y1="88.2" x2="358.28" y2="88.2" xlink:href="#Poussière_d_or"/><linearGradient id="Poussière_d_or-7" x1="33.1" y1="236.38" x2="162.33" y2="236.38" xlink:href="#Poussière_d_or"/><linearGradient id="Poussière_d_or-8" x1="451.39" y1="87.56" x2="583.33" y2="87.56" xlink:href="#Poussière_d_or"/><linearGradient id="Poussière_d_or-9" x1="630.23" y1="241.26" x2="761.96" y2="241.26" xlink:href="#Poussière_d_or"/></defs><g id="Calque_2" data-name="Calque 2"><g id="Calque_3" data-name="Calque 3"><path d="M416.89,904.36c-13,.09-33.77-2.39-65.66-9.3-45.3-10-81.23-37.34-88.63-43-2.13-1.13-7.07-3.68-13.41-6.48l-1.57-.69-.58-.41c-8.2-3.51-51.5-15.09-104.16-30.08-17.54-5-45.54-16.37-46.7-16.84l-.16-.06C94,796.62,22.94,766.1,7.38,719-6.3,673.64,33.73,646.93,58,625.92L60.33,624c23.67-21.25,93-52.24,107.51-59.95Q187,553,205.25,541.48q17.42-13.29,33.89-26.9,11.81-11,23-22.05c5.24-5.78,36.81-42.56,59.54-65.17,35.44-35.05,58.53-52.95,83.37-53,13.86-.06,27.2,5.48,38.09,10.45,31.72,15.86,82.68,78.66,87.54,82.83,62.49,68.74,99.83,88.13,149,113.8,6.64,3.35,13.56,6.77,20.92,10.36,66.26,31.84,92.83,65.17,95.07,70.53,19.71,27.75,17.94,54.68-5.52,82.92C755.29,786.83,688.63,818.49,658.41,823a67.25,67.25,0,0,1-8.11.8l-.68,0-.66,0a61.92,61.92,0,0,0-11.79.86c-33.71,5-92.2,25.55-106.15,38.67C507.6,885.89,441.1,901.51,428,903.37A59.44,59.44,0,0,1,416.89,904.36Z"/><path class="cls-1" d="M416.91,907.34a174,174,0,0,1-21-1.49c-6.93-.83-13.79-2-20.63-3.17s-13.63-2.56-20.42-4c-1.69-.37-3.38-.69-5.09-1.12l-5.11-1.25-2.55-.63-2.52-.74-5-1.48c-1.68-.51-3.32-1.12-5-1.68s-3.33-1.08-4.95-1.75c-3.26-1.27-6.54-2.48-9.73-3.91-6.45-2.7-12.72-5.81-18.89-9.06a265.36,265.36,0,0,1-35.3-22.52l.43.28c-2.39-1.25-4.85-2.46-7.32-3.63s-4.93-2.26-7.49-3.37l-.27-.11-.28-.2-.57-.39.58.32-1.88-.71-2-.67-4.12-1.31c-2.79-.85-5.59-1.67-8.4-2.48l-16.91-4.77-33.94-9.36-34-9.39c-2.8-.78-5.73-1.6-8.56-2.49s-5.66-1.82-8.46-2.76c-5.61-1.91-11.16-3.92-16.69-6s-11-4.16-16.55-6.4c-2.87-1.22-5.51-2.47-8.22-3.78s-5.33-2.66-8-4.05a250.62,250.62,0,0,1-30.41-18.87A164.17,164.17,0,0,1,20.8,750.27,102.63,102.63,0,0,1,10,735.4c-.83-1.29-1.53-2.69-2.26-4.06-.36-.69-.75-1.36-1.07-2.07l-1-2.13c-.32-.71-.65-1.42-1-2.14l-.83-2.23-.83-2.23c-.23-.76-.43-1.53-.64-2.29A65.71,65.71,0,0,1,0,699.5,59.91,59.91,0,0,1,3.5,680.83a73.06,73.06,0,0,1,8.6-16.67A111.4,111.4,0,0,1,23.74,650c8.39-8.77,17.67-16.32,26.57-23.87,2.2-1.84,4.45-3.87,6.68-5.66l3.5-2.92L62.25,616l1.83-1.35,3.68-2.7c1.22-.89,2.49-1.69,3.73-2.54l3.74-2.5,3.8-2.37c10.14-6.29,20.5-12,30.93-17.56s21-10.82,31.52-16l15.79-7.79,3.9-2c1.32-.66,2.46-1.28,3.7-1.92,2.48-1.47,5-3,7.45-4.54l29.81-18.27-.43.3q10.47-8.1,20.74-16.42L232.66,512l2.41-2,2.35-2.27,4.7-4.54,9.39-9.09,4.7-4.53,1.18-1.14c.42-.38.66-.73,1-1.1l2.12-2.42L278,464.87c11.78-13.34,23.66-26.57,36.25-39.38,6.33-6.39,12.69-12.59,19.29-18.72s13.37-12.09,20.61-17.7a128.61,128.61,0,0,1,23.72-14.93c1.06-.54,2.19-1,3.32-1.44s2.24-.92,3.39-1.33a70.52,70.52,0,0,1,7.1-2.05c1.21-.25,2.4-.6,3.64-.76l3.71-.5a16.64,16.64,0,0,1,1.87-.16l1.87-.08c1.24-.06,2.49-.12,3.74-.06a68.21,68.21,0,0,1,14.52,2,105.73,105.73,0,0,1,13.5,4.31c2.15.85,4.29,1.75,6.37,2.68l3.12,1.42,1.61.74c.54.25,1.1.59,1.65.88,1.11.59,2.22,1.2,3.21,1.83s2.06,1.22,3,1.89,2,1.3,2.92,2l2.82,2A221.45,221.45,0,0,1,480,405.33c6.52,6.22,12.76,12.66,18.84,19.22s12,13.21,17.87,19.93l8.7,10.11,4.32,5,2.15,2.46,1,1.16.5.54.32.33.42.4,6.9,7.66c2.3,2.55,4.59,5.12,7,7.59l7.09,7.47c2.38,2.48,4.83,4.88,7.24,7.32,9.69,9.72,19.79,19,30.35,27.72,2.58,2.25,5.32,4.3,8,6.42s5.44,4.15,8.2,6.17c1.38,1,2.74,2,4.14,3l4.22,2.91c1.42,1,2.82,1.94,4.25,2.88l4.31,2.76c11.51,7.39,23.52,14,35.75,20.29,6.11,3.16,12.29,6.23,18.44,9.3s12.44,5.9,18.64,8.85l9.4,4.48,4.73,2.26,2.36,1.14,2.34,1.21,9.32,4.87L736,604c3,1.77,6,3.63,9,5.46s5.89,3.86,8.85,5.78,5.77,4,8.67,6.07,5.65,4.26,8.42,6.46c5.53,4.43,10.9,9.1,16.06,14.09l3.8,3.83c1.23,1.35,2.48,2.65,3.69,4s2.42,2.77,3.58,4.32l.88,1.14.89,1.29.44.65a7,7,0,0,1,.47.74c.35.62.68,1.26,1,1.91l-.7-1.27,2.38,3.53,1.19,1.77c.39.6.73,1.23,1.1,1.85l2.15,3.73c.66,1.28,1.29,2.59,1.93,3.89l1,2,.82,2c.53,1.36,1.13,2.7,1.6,4.11l1.31,4.26a17.23,17.23,0,0,1,.55,2.17l.46,2.2a53.82,53.82,0,0,1,.69,18,62.47,62.47,0,0,1-4.85,17.19l-.85,2-1,2-2,3.88-2.24,3.69-1.13,1.84-1.23,1.75-2.46,3.49c-.84,1.14-1.75,2.22-2.62,3.33s-1.73,2.26-2.68,3.27l-2.81,3.08c-3.67,4.22-7.73,7.93-11.68,11.79-4.16,3.58-8.22,7.29-12.58,10.57l-3.23,2.53-1.61,1.26-1.67,1.19-6.64,4.76c-2.23,1.56-4.53,3-6.79,4.51l-3.4,2.24-3.48,2.11a303.1,303.1,0,0,1-28.55,15.54c-2.46,1.14-4.87,2.37-7.37,3.44l-7.47,3.23-7.59,3c-2.53,1-5.14,1.83-7.7,2.75-5.18,1.75-10.47,3.28-15.9,4.54-.66.18-1.35.31-2,.43l-2.09.37c-1.39.24-2.8.53-4.16.71s-2.83.34-4.27.46c-.72,0-1.44.1-2.17.13l-2.13.06h-.46c-.72-.05-1.12-.08-1.69-.09s-1.11,0-1.69,0c-1.15,0-2.35.11-3.57.21-2.43.2-4.88.55-7.36.92-5,.78-10,1.78-15,2.9-10,2.26-19.87,5-29.67,8s-19.5,6.46-29,10.3c-4.74,1.93-9.42,4-13.95,6.2a76.28,76.28,0,0,0-12.6,7.51l-1.27,1.08L532,867.66c-1,1-2.15,1.74-3.21,2.61s-2.22,1.61-3.33,2.4-2.26,1.49-3.41,2.2a139.87,139.87,0,0,1-14.13,7.51,264.67,264.67,0,0,1-29.44,11.35c-10,3.25-20,6.08-30.2,8.56-5.09,1.23-10.19,2.37-15.38,3.35-1.28.24-2.65.48-3.91.66s-2.64.46-4,.6A71.77,71.77,0,0,1,416.91,907.34Zm0-6a67.14,67.14,0,0,0,7.42-.5c1.24-.15,2.33-.37,3.71-.61s2.49-.44,3.76-.69c5-1,10-2.2,15-3.48,10-2.57,19.87-5.5,29.6-8.82a253.64,253.64,0,0,0,28.44-11.54A132.14,132.14,0,0,0,518,868.42c1-.67,2.07-1.39,3.1-2.08s2-1.45,2.95-2.2,1.92-1.51,2.78-2.35l1.33-1.23,1.65-1.48a83.28,83.28,0,0,1,13.88-8.77c4.73-2.47,9.52-4.68,14.36-6.78,9.67-4.18,19.5-7.87,29.43-11.23s20-6.37,30.24-8.94c5.12-1.27,10.28-2.44,15.54-3.39,2.64-.47,5.32-.91,8.05-1.21,1.38-.15,2.76-.28,4.2-.35.72,0,1.44-.06,2.2-.06s1.63,0,2.21.06h-.47c9.69-.37,19.58-3.35,29.27-6.83,2.41-.93,4.85-1.77,7.24-2.78l7.17-3,7.08-3.28c2.36-1.07,4.66-2.32,7-3.46a307.31,307.31,0,0,0,27.08-15.54l3.29-2.09,3.21-2.21c2.12-1.49,4.3-2.91,6.39-4.44l6.22-4.65,1.55-1.17,1.5-1.22,3-2.45c4.07-3.19,7.78-6.75,11.62-10.15,3.59-3.64,7.33-7.15,10.56-11l2.52-2.84c.86-.94,1.54-2,2.32-2.94s1.54-1.95,2.26-3l2.07-3.06,1-1.53.92-1.58,1.85-3.14,1.6-3.24.79-1.61.65-1.65a53.24,53.24,0,0,0,3.66-13.42,47.85,47.85,0,0,0,.1-13.68l-.24-1.72a11.29,11.29,0,0,0-.31-1.72l-.81-3.42c-.31-1.14-.76-2.24-1.12-3.37l-.58-1.69-.74-1.65c-.51-1.1-1-2.21-1.5-3.29l-1.79-3.21c-.3-.53-.57-1.07-.9-1.59l-1-1.56-2-3.11-.7-1.26a1.79,1.79,0,0,1-.22-.38,2.34,2.34,0,0,0-.22-.35l-.28-.43-.57-.86-.69-.92c-.88-1.23-2-2.47-3-3.71s-2.19-2.43-3.27-3.65L778,651c-4.73-4.67-9.76-9.12-15-13.38a316.55,316.55,0,0,0-33.2-23.36L721.1,609l-8.92-5L710,602.74l-2.28-1.18-4.54-2.36L694,594.43c-6.16-3.22-12.36-6.36-18.47-9.65s-12.17-6.66-18.23-10c-3-1.71-6.07-3.38-9.07-5.16s-6-3.45-9-5.28-6-3.58-8.91-5.48L625.84,556c-1.47-.93-2.91-1.92-4.37-2.87l-4.37-2.9c-1.45-1-2.86-2-4.29-3l-4.3-3c-1.43-1-2.82-2.07-4.22-3.1-2.81-2.08-5.64-4.13-8.35-6.33l-4.12-3.23c-1.39-1.06-2.74-2.16-4.08-3.28-2.67-2.24-5.39-4.43-8-6.7l-7.86-6.9c-2.61-2.31-5.11-4.72-7.69-7.07l-3.84-3.54-3.75-3.63c-2.5-2.42-5-4.81-7.49-7.27l-7.33-7.42c-2.47-2.45-4.86-5-7.26-7.49l-7.19-7.54.41.4-.88-.82-.65-.66L525,468.41l-2.29-2.49-4.5-4.92-9-9.75q-9-9.71-18.27-19.08T472,414q-4.84-4.38-9.85-8.52c-3.34-2.72-6.72-5.36-10.16-7.83l-2.6-1.8c-.87-.59-1.75-1.13-2.62-1.7s-1.77-1.06-2.64-1.59-1.75-1-2.6-1.42c-.43-.22-.82-.45-1.29-.66l-1.42-.62-3-1.27c-2-.85-3.95-1.62-5.92-2.38-7.86-3-15.85-5.11-23.62-5.21a25.65,25.65,0,0,0-2.91.08l-1.45.07a10,10,0,0,0-1.44.13l-2.88.4c-1,.11-1.9.42-2.85.61a55.26,55.26,0,0,0-5.67,1.63c-.94.34-1.86.74-2.8,1.11s-1.86.73-2.77,1.2a115.26,115.26,0,0,0-21.17,13.39c-6.77,5.24-13.29,11-19.72,16.92s-12.77,12.07-18.94,18.24-12.2,12.62-18.2,19.07-11.94,13-17.85,19.56L270,493.23l-2.28,2.55c-.42.44-.85,1-1.25,1.34l-1.23,1.17-4.9,4.65-9.81,9.31-4.9,4.65-2.46,2.32-2.72,2.23q-5.19,4.21-10.43,8.36-10.5,8.3-21.17,16.33l-.27.2-.16.1L177.9,564.58c-2.55,1.51-5.05,3-7.64,4.53-1.38.69-2.83,1.44-4.14,2.07l-4,1.94-15.9,7.6c-10.55,5.07-21,10.21-31.41,15.57S94.2,607.18,84.32,613.17l-3.69,2.25L77,617.77c-1.19.8-2.43,1.55-3.58,2.38L70,622.63l-1.72,1.24-1.63,1.33-3.29,2.69c-2.36,1.87-4.49,3.75-6.81,5.65C52,637.31,47.47,641,43.1,644.77s-8.6,7.65-12.53,11.74c-7.86,8.14-14.64,17.24-18.3,27.45a50.5,50.5,0,0,0-3,15.78,57.25,57.25,0,0,0,2,16.06,63.74,63.74,0,0,0,6.53,15,94.13,94.13,0,0,0,9.79,13.62,158.54,158.54,0,0,0,25.2,23.07A243.65,243.65,0,0,0,82,786c5.06,2.74,10.3,5.39,15.43,7.67s10.8,4.37,16.22,6.46c10.92,4.19,21.82,8.23,33,11.38l33.83,9.72L214.29,831l16.93,4.95c2.82.85,5.65,1.71,8.47,2.6,1.42.46,2.83.9,4.25,1.39l2.15.74,2.23.88.27.11.31.21.57.41-.55-.31c2.52,1.12,5.11,2.3,7.63,3.52s5,2.5,7.52,3.84l.24.13.19.15a255.11,255.11,0,0,0,34.25,22.34c6,3.21,12.12,6.28,18.4,9,3.1,1.41,6.29,2.6,9.46,3.85,1.57.66,3.2,1.15,4.8,1.73s3.21,1.15,4.83,1.65A196.36,196.36,0,0,0,356,893.23c6.73,1.4,13.48,2.72,20.24,3.9s13.54,2.21,20.33,3A169.54,169.54,0,0,0,416.87,901.39Z"/><path d="M100.27,584c-27.22-1.26-47.07-17.57-59.91-31.88-12.9-14.62-18.78-27.23-19.16-28.39l-.15-.34-.12-.35c-1.77-3.92-20.87-59.62,5.74-104.12,23.8-44.52,35.5-66.5,55.44-78.06,10.16-5.87,17.67-8.5,25.2-8.65,8.58-.18,17.12,3.11,27.15,9.94a.71.71,0,0,1,.14.1l.14.1c.71.33,16.26,12.69,35.8,38.68,16.79,24.12,44,60,40.66,114.3,0,.52-.07,1-.11,1.56l-.66,1.51c-.47,1.45-7.66,16.84-23.42,36.26-15.63,19-39.83,42-71.1,48.15A71.42,71.42,0,0,1,100.27,584Z"/><path class="cls-2" d="M100,589.3,96.55,589l-1.74-.18c-.58-.08-1.15-.19-1.73-.28l-3.44-.6c-1.13-.25-2.26-.54-3.39-.81l-1.69-.41-1.66-.52-3.31-1c-2.15-.85-4.34-1.59-6.41-2.6a83,83,0,0,1-12-6.64,99,99,0,0,1-10.82-8.22,119,119,0,0,1-9.69-9.35A128.8,128.8,0,0,1,32.05,548q-4-5.32-7.57-11c-1.16-1.91-2.32-3.82-3.39-5.79-.53-1-1.06-2-1.57-3-.25-.51-.51-1-.75-1.55l-.37-.82-.19-.44-.24-.63.11.28a8.34,8.34,0,0,1-.35-.9l.1.25-.25-.62-.2-.53-.36-1c-.24-.68-.44-1.35-.65-2-.41-1.34-.8-2.69-1.16-4-.73-2.69-1.37-5.4-1.93-8.11a157.61,157.61,0,0,1-2.58-16.43A140.91,140.91,0,0,1,11,458.4a109.14,109.14,0,0,1,9.18-32L22,422.71c.63-1.24,1.35-2.41,2-3.62,1.37-2.39,2.59-4.76,3.9-7.14l7.77-14.35c2.59-4.79,5.25-9.56,7.92-14.32s5.45-9.49,8.41-14.12a144,144,0,0,1,9.56-13.54,78.25,78.25,0,0,1,11.78-12l3.4-2.55c1.18-.8,2.39-1.55,3.58-2.32,2.39-1.46,4.82-2.79,7.34-4.06a50.18,50.18,0,0,1,16.4-5.28,36.15,36.15,0,0,1,8.88.07,41.73,41.73,0,0,1,8.56,2.13,59.27,59.27,0,0,1,7.85,3.57c1.26.67,2.48,1.38,3.69,2.12.59.37,1.21.73,1.79,1.12l.88.57c.3.2.56.36,1,.65l-.58-.34a7.23,7.23,0,0,1,.84.51l.35.25.62.48c.39.31.79.62,1.15.93.75.62,1.48,1.24,2.2,1.87,1.45,1.25,2.85,2.53,4.23,3.83,2.77,2.59,5.43,5.27,8.06,8,5.21,5.46,10.17,11.13,14.94,17,1.2,1.44,2.38,2.94,3.56,4.44l1.76,2.25,1.65,2.29c2.2,3.07,4.38,6.05,6.53,9.14,4.32,6.14,8.54,12.42,12.37,19a175.87,175.87,0,0,1,10.4,20.38l1.16,2.63,1,2.69c.68,1.8,1.38,3.59,2,5.39l1.74,5.51c.29.92.6,1.83.86,2.75l.71,2.81,1.4,5.61,1.07,5.69.53,2.84c.16.95.24,1.92.37,2.87l.69,5.76a27.93,27.93,0,0,1,.23,2.88l.16,2.9c.09,1.92.22,3.85.28,5.79l-.06,5.8c-.05,1.93,0,3.9-.15,5.79l-.07.93-.39.94-.63,1.53.19-.51-.19.53-.18.46-.27.64-.53,1.18c-.35.75-.7,1.49-1.06,2.21-.71,1.45-1.45,2.86-2.21,4.26q-2.26,4.19-4.73,8.22c-3.27,5.39-6.78,10.61-10.48,15.69a188.8,188.8,0,0,1-11.9,14.74A182.13,182.13,0,0,1,171,561.67a124.76,124.76,0,0,1-32.17,21.48,74.79,74.79,0,0,1-9.21,3.54,67.58,67.58,0,0,1-9.72,2l-2.46.35c-.83.1-1.7.16-2.51.22-1.66.11-3.31.19-5,.21s-3.31.06-5,0S101.74,589.4,100,589.3Zm.45-10.66a46.64,46.64,0,0,0,16.48-3l2-.69a18.92,18.92,0,0,0,2-.73c1.31-.53,2.62-1,3.94-1.5,2.59-1.13,5.24-2,7.8-3.27,10.34-4.59,19.89-11.19,28.8-18.67a166.78,166.78,0,0,0,12.77-12.07c4.07-4.28,8-8.66,11.67-13.3s7.24-9.4,10.51-14.33c1.63-2.46,3.19-5,4.67-7.49.75-1.26,1.47-2.54,2.15-3.8.35-.64.66-1.27,1-1.89l.45-.9.19-.4,0-.08h0l.19-.51.68-1.49-.46,1.86a133.69,133.69,0,0,0-2.93-42.61l-.58-2.63c-.22-.87-.49-1.72-.73-2.59l-1.48-5.17-1.76-5.1-.89-2.55-1-2.51a164.82,164.82,0,0,0-9.33-19.6c-3.49-6.39-7.41-12.57-11.48-18.72-2-3.07-4.14-6.16-6.19-9.19l-1.54-2.28-1.62-2.19c-1.08-1.45-2.16-2.91-3.3-4.36q-6.72-8.73-14.14-16.86c-2.48-2.69-5-5.34-7.61-7.89-1.3-1.28-2.62-2.54-3.95-3.75-.67-.61-1.34-1.21-2-1.79-.34-.3-.67-.56-1-.85l-.47-.38-.21-.16a.62.62,0,0,0,.26.12l-.58-.34c-.14-.11-.45-.32-.72-.5l-.81-.56-1.65-1.08c-1.1-.7-2.21-1.38-3.34-2a51.54,51.54,0,0,0-6.91-3.33,31.47,31.47,0,0,0-14.59-2.2,44.52,44.52,0,0,0-14.6,4.39c-2.36,1.12-4.74,2.36-7,3.68-1.1.68-2.22,1.34-3.32,2l-3.17,2.27a74.12,74.12,0,0,0-11.26,11,128.55,128.55,0,0,0-9.51,12.91c-5.92,9-11.22,18.47-16.43,28-2.62,4.76-5.15,9.55-7.71,14.38-1.28,2.4-2.54,4.87-3.85,7.21-.63,1.18-1.34,2.34-1.91,3.53l-1.73,3.59A101.51,101.51,0,0,0,16.14,459a135.66,135.66,0,0,0,.52,31.9,155.44,155.44,0,0,0,2.86,15.74c.6,2.59,1.28,5.17,2,7.71.38,1.27.78,2.53,1.19,3.78.21.61.42,1.24.64,1.84l.33.88.17.41.14.33.08.18,0,.07c.06.17.13.33.2.49l.11.28.52,1.09c.21.44.46.9.7,1.35.48.92,1,1.83,1.51,2.73,1.05,1.81,2.17,3.6,3.33,5.36Q34,538.41,38,543.34a123.64,123.64,0,0,0,8.43,9.39,107.18,107.18,0,0,0,9.32,8.41A86.07,86.07,0,0,0,66,568.24a74.4,74.4,0,0,0,11,5.47c1.87.82,3.83,1.38,5.74,2l2.92.79,1.47.39,1.48.29c1,.19,2,.4,3,.58l3,.38c.5.06,1,.14,1.5.19l1.5.08Z"/><path d="M244.19,415.76c-6.52-.59-29.39-6.71-47.49-30.35C175,357,171.81,323,192.56,273.82c17.22-41.11,42.55-76.15,66.78-100.28,19.19-19,33.48-23.89,39.32-23.71a8.2,8.2,0,0,1,2.51.41c20.53,3.28,29.41,12.86,37.84,22.2a48.53,48.53,0,0,0,4.12,4.29c9.56,8.68,28.65,41.4,36.72,54.39.16.28.32.55.49.82,9.88,23.07,19.53,45.5,28.31,66.95q.15,12.76-.34,25.69l-.45,1.3c-11,31.33-14.33,35.44-29.25,48.26-1.85,1.59-4,3.4-6.33,5.51-10.52,9.18-35.45,21.24-61,28.27-25.59,7.39-51.83,9.76-65.7,8-.45-.05-.91-.1-1.38-.17Z"/><path class="cls-3" d="M241.24,422.66a.64.64,0,0,0,.36.32l-1.51-.28c-1.08-.21-2.06-.48-3.09-.72s-2-.56-2.93-.87-1.91-.63-2.86-1a83.16,83.16,0,0,1-10.81-4.92,88.75,88.75,0,0,1-19-13.84,97.46,97.46,0,0,1-14.77-18,92.69,92.69,0,0,1-10-21,85.88,85.88,0,0,1-4.29-22.87,55.63,55.63,0,0,1-.13-5.77v-2.89c0-1,.12-1.9.17-2.86.16-1.9.26-3.81.46-5.7l.79-5.63c.22-1.89.66-3.72,1-5.57l.57-2.77c.18-.92.37-1.84.62-2.74,1-3.61,1.84-7.26,3-10.78.58-1.77,1.12-3.54,1.72-5.3l1.93-5.2c1.24-3.5,2.76-6.85,4.18-10.24.7-1.71,1.45-3.38,2.23-5l2.29-5,2.43-4.93,1.21-2.47,1.28-2.43,2.55-4.85,2.67-4.8c1.75-3.21,3.69-6.31,5.52-9.46a338.34,338.34,0,0,1,25.16-35.79c4.56-5.68,9.29-11.23,14.27-16.55,1.22-1.35,2.49-2.66,3.76-4s2.51-2.63,3.83-3.9,2.58-2.57,3.91-3.82,2.67-2.52,4.07-3.72a112.77,112.77,0,0,1,17.74-13.16,62.23,62.23,0,0,1,10.16-4.81,32.75,32.75,0,0,1,5.61-1.47,18.16,18.16,0,0,1,3.08-.22,10.43,10.43,0,0,1,3.3.55l-.34-.08a67.66,67.66,0,0,1,14.56,4.13,52.25,52.25,0,0,1,13,7.81,91.28,91.28,0,0,1,10.63,10.54l2.43,2.73c.4.44.8.87,1.21,1.27s.81.74,1.28,1.24l1.37,1.39c.46.46.84.95,1.26,1.42.84.95,1.62,1.93,2.38,2.91,6,7.9,11.35,16.16,16.68,24.41s10.54,16.55,16,24.75l0,.08.09.2c2.51,5.52,5.08,11,7.65,16.51L397.8,264l7.69,16.5c2.58,5.5,5,11,7.55,16.56l.32.69,0,1.05q.25,6.5.25,13c0,4.33,0,8.65-.17,13l0,.73-.26.75a223.56,223.56,0,0,1-9.41,24.05,71,71,0,0,1-6.9,11.66,63.93,63.93,0,0,1-9.42,9.78c-3.32,2.86-6.71,5.43-9.93,8.11l-2.44,2c-.79.66-1.77,1.39-2.65,2.07l-2.73,1.93L367,387.63a218.28,218.28,0,0,1-22.87,12.05c-7.8,3.57-15.71,6.9-23.78,9.9-4,1.57-8.1,2.88-12.17,4.3s-8.25,2.65-12.43,3.76a184.76,184.76,0,0,1-25.59,5.21c-2.18.26-4.36.51-6.57.67-1.09.1-2.2.16-3.31.22s-2.22.12-3.34.13c-2.24.05-4.5.06-6.79-.06-1.16-.07-2.31-.11-3.46-.24l-1.73-.17-.87-.1-.44-.05-.22,0h-.16C242.35,423,245.13,423.73,241.24,422.66Zm5.9-13.79c-3.86-1.07-1-.3-1.89-.53h.13l.17,0,.35.05.71.08,1.42.15c.95.12,1.91.15,2.86.22,1.92.1,3.89.19,5.88.19,4,0,8-.09,12.09-.29,8.13-.45,16.34-1.17,24.52-2.33,4.09-.57,8.16-1.27,12.24-2.05,2-.43,4.07-.86,6.1-1.32l3.06-.69,3-.75a175.21,175.21,0,0,0,23.66-7.92,129.05,129.05,0,0,0,21.94-11.54l2.49-1.76c.79-.61,1.6-1.22,2.35-1.86s1.44-1.23,2.23-2l2.34-2.16c3.13-2.9,6.22-5.76,9.09-8.64a55.74,55.74,0,0,0,7.47-9.08,71.16,71.16,0,0,0,5.34-10.49c3.1-7.48,5.86-15.46,8.7-23.29l-.28,1.48c.21-4.24.34-8.48.48-12.72s.22-8.48.29-12.73l.35,1.75c-2.2-5.64-4.46-11.25-6.6-16.92l-6.47-17-6.43-17q-3.21-8.51-6.51-17l.15.28c-4.85-8.5-9.73-17-14.83-25.36a248.82,248.82,0,0,0-16.46-24.13c-.75-.94-1.51-1.87-2.31-2.75-.4-.43-.78-.91-1.19-1.31l-1.23-1.21c-.37-.39-.92-.84-1.38-1.29s-.91-.91-1.34-1.37l-2.5-2.73a87,87,0,0,0-10.36-10,52.58,52.58,0,0,0-26-10.65l-.14,0-.19-.06a9.21,9.21,0,0,0-4.32,0,28.6,28.6,0,0,0-4.79,1.4,57.7,57.7,0,0,0-9.23,4.7,107.13,107.13,0,0,0-16.58,13c-1.31,1.18-2.53,2.48-3.79,3.71s-2.45,2.58-3.68,3.87-2.41,2.62-3.6,4-2.39,2.65-3.53,4c-4.68,5.39-9.1,11-13.36,16.7a316.09,316.09,0,0,0-41.06,74.49c-1.22,3.31-2.55,6.59-3.57,9.94l-1.65,5c-.5,1.68-.95,3.37-1.43,5-1,3.35-1.68,6.75-2.46,10.13a24.73,24.73,0,0,0-.49,2.54l-.43,2.55c-.27,1.7-.62,3.39-.74,5.09l-.54,5.1c-.11,1.7-.14,3.39-.21,5.08,0,.85-.11,1.7-.07,2.54l.09,2.52c.08,1.68,0,3.37.27,5A72.9,72.9,0,0,0,189.48,358a78.42,78.42,0,0,0,9,17.67c1.94,2.72,3.88,5.47,6,8,1,1.31,2.2,2.48,3.31,3.7s2.35,2.33,3.53,3.49a74.12,74.12,0,0,0,16,11.39,67.23,67.23,0,0,0,8.89,3.91l2.27.74c.75.24,1.5.42,2.25.64s1.5.36,2.19.48l1.15.2A22.56,22.56,0,0,1,247.14,408.87Z"/><path d="M567.46,417.37a21.34,21.34,0,0,1-8.85-.55l-.17-.05c-5.34.24-29.79-2.13-34.82-3.12l-.54-.08c-13.36-3.18-26.78-7.06-40.23-11.49l-.35-.14C466,395.65,437.05,381.07,430,369a46.42,46.42,0,0,0-3.83-4.84c-8.25-10-23.08-26.28-20.73-61.69,0-.5.07-1,.11-1.49,10.31-23.87,21.64-49.09,33.06-75.08,1.71-3.94,28.34-64.68,64.65-74.06a41.5,41.5,0,0,1,7-.85c30.55-.58,56.89,35.91,59.92,38.43,1.41,3.28,40.63,47.33,57.26,100.63,13.86,49.72.51,73.72-2.41,79.87-2.36,5.14-18,37.23-46.36,44.12A47,47,0,0,1,567.46,417.37Z"/><path class="cls-4" d="M568.47,424.8a30,30,0,0,1-6,.22,25,25,0,0,1-3.1-.38c-.51-.09-1-.19-1.5-.31l-1.23-.31,2.15.22-1.48,0-1.27,0c-.86,0-1.6-.07-2.4-.1-1.55-.09-3.08-.19-4.59-.31-3-.23-6-.49-9-.78s-6-.59-9-.94l-4.54-.55-2.35-.33L523,421l-.59-.1-.38-.06-.32,0-.32-.08q-11.1-2.67-22-5.9-5.47-1.6-10.89-3.32L483,409.77l-1.45-.48-.73-.24c-.24-.09-.46-.15-.8-.29l-2.74-1.11a222.89,222.89,0,0,1-20.94-9.95c-3.41-1.84-6.78-3.76-10.1-5.83-1.67-1-3.31-2.13-4.95-3.21s-3.27-2.25-4.86-3.53a55.48,55.48,0,0,1-9.33-8.66,14,14,0,0,1-1.1-1.35l-1-1.54c-.93-1.39-.72-1.15-1.27-1.89-.91-1.21-2.18-2.65-3.4-4.16-4.8-5.82-9.8-12.5-13.25-19.92a76.91,76.91,0,0,1-6.88-23.3,109.15,109.15,0,0,1-.41-23.74l.08-1.05.38-.82,27.46-60,6.87-15c2.37-5.15,4.93-10.1,7.64-15a215.33,215.33,0,0,1,18.41-28.08c7-8.8,14.76-17.18,24.28-23.72a56.08,56.08,0,0,1,15.73-7.62c.74-.21,1.41-.44,2.21-.61s1.47-.27,2.22-.37a43.45,43.45,0,0,1,4.42-.4,42.7,42.7,0,0,1,8.86.72,47.87,47.87,0,0,1,8.42,2.33c1.37.47,2.68,1.08,4,1.64s2.6,1.22,3.85,1.92A87,87,0,0,1,548.7,164,132.13,132.13,0,0,1,561,175.48c1.93,2,3.8,4.09,5.62,6.18l2.7,3.15,1.33,1.55.64.73.3.33c.08.08.13.12.19.19l.67.9c.12.16.24.33.35.51l.08.14.15.2.29.4,1.2,1.62,2.48,3.29c1.67,2.19,3.32,4.41,5,6.64q4.9,6.69,9.61,13.53c6.25,9.13,12.13,18.54,17.52,28.22a273.16,273.16,0,0,1,14.34,30l1.52,3.88c.5,1.29,1,2.57,1.46,3.9l2.72,7.91c1.51,5.36,2.94,10.77,4,16.22a145.92,145.92,0,0,1,3.48,33.46,91.9,91.9,0,0,1-1.77,17.1c-.27,1.43-.65,2.84-1,4.26s-.78,2.82-1.23,4.21-.94,2.79-1.48,4.15-1.11,2.73-1.59,3.89a106.36,106.36,0,0,1-7.84,15.51A95.93,95.93,0,0,1,611.3,401.7a72.15,72.15,0,0,1-13.67,11.89,56.88,56.88,0,0,1-8.17,4.54,60,60,0,0,1-9,3.17l1-.34A54.78,54.78,0,0,1,568.47,424.8Zm-2-14.86a41,41,0,0,0,9.47-2.76l.58-.24.46-.1c9-2,17.49-7.38,24.83-14.36A94.36,94.36,0,0,0,612.05,381a103.54,103.54,0,0,0,8.52-13.14c.72-1.31,1.35-2.42,1.94-3.57s1.15-2.31,1.69-3.48,1-2.38,1.48-3.58.9-2.44,1.28-3.69.77-2.5,1.09-3.77l.92-3.85c.46-2.6,1-5.21,1.21-7.87A114.54,114.54,0,0,0,629,305.77l-.75-4-.37-2c-.14-.67-.31-1.33-.46-2l-1-3.95-.49-2a16.77,16.77,0,0,0-.55-2l-2.61-7.72c-.42-1.3-1-2.55-1.46-3.82l-1.52-3.8a267.6,267.6,0,0,0-14.29-29.47c-5.38-9.53-11.23-18.79-17.47-27.79-1.53-2.26-3.16-4.47-4.74-6.7s-3.27-4.4-4.92-6.58-3.34-4.35-5-6.51l-2.54-3.25-1.29-1.69-.32-.42-.16-.21-.2-.3q-.39-.62-.75-1.23l.66.89-.55-.52-.41-.42-.73-.81L565.65,188l-2.72-3.06q-2.71-3-5.56-5.93a127.34,127.34,0,0,0-12-10.8A82,82,0,0,0,532,159.52c-1.16-.63-2.37-1.13-3.56-1.68s-2.41-1-3.65-1.38a42.12,42.12,0,0,0-7.49-1.88,37.68,37.68,0,0,0-7.54-.43,37.08,37.08,0,0,0-3.78.44c-.61.1-1.29.23-1.83.35s-1.17.37-1.75.55a49.66,49.66,0,0,0-13.62,7.06c-8.47,6.15-15.69,14.18-22.05,22.8a205.82,205.82,0,0,0-16.87,27.52c-2.47,4.79-4.81,9.68-6.88,14.58l-6.41,15.17-25.66,60.7.46-1.87a96.91,96.91,0,0,0,.88,21.05,64.36,64.36,0,0,0,6.26,19.44c.73,1.54,1.63,3,2.48,4.46s1.84,2.87,2.87,4.26c2,2.8,4.28,5.51,6.67,8.34,1.15,1.39,2.39,2.73,3.77,4.48.63.72,1.78,2.58,1.93,2.72l.54.78a6.08,6.08,0,0,0,.69.81,43.64,43.64,0,0,0,7.24,6.42,138.36,138.36,0,0,0,18.22,11.06,215,215,0,0,0,19.76,9l2.48,1,2.35.75,5.27,1.67q5.29,1.64,10.61,3.17,10.63,3.06,21.38,5.59l-.64-.12.72.11.5.08c.34.06.67.12,1,.16l2,.28,4.29.5c2.88.31,5.79.6,8.7.86s5.81.5,8.7.7c1.44.1,2.87.19,4.27.26.68,0,1.42.07,2,.08l1,0h.74l1.21,0,.94.23,1,.25.74.14a11.23,11.23,0,0,0,1.42.17A16.15,16.15,0,0,0,566.46,409.94Z"/><path d="M717.09,582.45c-2.45.12-4.93.14-7.38,0-30.18-1.41-48.32-12.94-80.28-43.88-34.67-33.17-26.12-81.52-24.77-85.67-.58-3.8,13.51-47.51,53.45-89.32,25.15-27.4,40.12-33.52,50.61-33a23.18,23.18,0,0,1,9.89,2.48c20.4,10.09,25,17.45,42.52,42.65q1.74,2.46,3.73,5.21c22.86,30.46,36.75,85.11,36.24,87.45,0,.17.07.34.1.5s0,.35,0,.52a183,183,0,0,1-3.85,48.48c-6.36,27.8-35.89,49.48-37,50.1a86.5,86.5,0,0,1-43.33,14.45Z"/><path class="cls-5" d="M717.41,589.92c-2.1.12-4.39.18-6.58.14-.54,0-1.12,0-1.67,0l-1.62-.1c-1.08,0-2.16-.15-3.24-.23-2.16-.2-4.32-.53-6.48-.79l-3.23-.61c-1.08-.22-2.16-.38-3.23-.68a90.53,90.53,0,0,1-24.43-9.8,143.25,143.25,0,0,1-20.6-15c-6.35-5.43-12.27-11.15-18.07-16.9-1.46-1.46-2.87-2.82-4.39-4.44-.74-.79-1.51-1.54-2.22-2.36l-2.11-2.47A84.88,84.88,0,0,1,612,526.07a92.4,92.4,0,0,1-10-23.65,107.34,107.34,0,0,1-3.6-25.12,110.77,110.77,0,0,1,.37-12.62c.17-2.1.43-4.2.74-6.3.16-1.05.33-2.1.55-3.17.1-.53.21-1.07.34-1.62s.26-1.1.5-1.87l-.15,1.82c0-.3,0-.61,0-.91,0-.14,0-.33,0-.42l0-.25c0-.32.07-.72.13-1,.1-.54.21-1.08.34-1.55.24-1,.5-1.88.79-2.78.55-1.8,1.18-3.53,1.83-5.24,1.3-3.42,2.73-6.75,4.25-10,3-6.56,6.44-12.91,10-19.12a259.76,259.76,0,0,1,24.74-35.16c4.56-5.51,9.4-10.82,14.36-15.93s10-10.2,15.4-15a96.09,96.09,0,0,1,17.61-12.69,44.57,44.57,0,0,1,10.35-4.09l1.38-.32,1.41-.22a24.39,24.39,0,0,1,2.84-.29,30.18,30.18,0,0,1,5.7.29,26.64,26.64,0,0,1,5.57,1.48,24.71,24.71,0,0,1,2.58,1.2l2.4,1.21a92.55,92.55,0,0,1,9.37,5.51,65.58,65.58,0,0,1,8.53,6.91,86.81,86.81,0,0,1,7.26,8.13c4.47,5.66,8.58,11.46,12.69,17.24,2,2.9,4.11,5.75,6.19,8.58s4.28,5.83,6.19,8.88a231.72,231.72,0,0,1,19.21,38.51q4,10,7.41,20.17c1.13,3.41,2.21,6.83,3.22,10.3.49,1.73,1,3.47,1.44,5.24.23.89.45,1.78.66,2.71.1.46.2.94.3,1.46l.07.39.06.48,0,.24,0,.13s0,.08,0,.21a6.86,6.86,0,0,1-.08,1.36l0-1.61.11.51,0,.14,0,.34a175.64,175.64,0,0,1,.53,20.36,190.12,190.12,0,0,1-1.65,20.32l-.77,5.07c-.33,1.7-.61,3.36-1,5.08L801,524.74l-1.83,5.09a87.75,87.75,0,0,1-10.46,18.45A126.32,126.32,0,0,1,775,564c-2.5,2.43-5,4.77-7.77,7-.69.56-1.38,1.13-2.14,1.71l-.28.22-.49.35-.52.34a.8.8,0,0,0-.14.11l-.9.61c-1.47,1-3,2-4.56,2.87a86.91,86.91,0,0,1-9.57,4.87c-1.62.75-3.3,1.37-5,2s-3.36,1.22-5.09,1.71l-2.57.78-2.6.67c-1.73.48-3.5.78-5.25,1.15s-3.54.58-5.32.86S719.13,589.74,717.41,589.92ZM716.76,575l4.44-.31c1.5-.19,3-.31,4.51-.56s3-.46,4.48-.82l2.23-.48,2.21-.58c1.48-.36,2.92-.87,4.38-1.31s2.89-1,4.29-1.57a73.15,73.15,0,0,0,8.28-3.84c1.33-.73,2.63-1.47,3.93-2.28l1.18-.74.38-.24h0l.21-.15c.58-.4,1.19-.86,1.8-1.32,2.46-1.86,4.88-3.9,7.23-6a114.42,114.42,0,0,0,12.95-13.67,78.33,78.33,0,0,0,9.84-15.6l1.74-4.18,1.33-4.28c.41-1.5.75-3.09,1.12-4.63l1-4.71a183,183,0,0,0,2.47-19.19,167,167,0,0,0,.41-19.35l.06.48-.08-.51,0-1.61a1.79,1.79,0,0,0-.07.69V468l0-.27c0-.36-.11-.75-.18-1.16-.14-.8-.31-1.65-.49-2.48-.35-1.68-.76-3.38-1.17-5.07-.83-3.39-1.74-6.77-2.7-10.15-1.94-6.74-4.08-13.44-6.45-20.05s-5-13.13-7.88-19.51c-1.45-3.19-2.95-6.36-4.56-9.46s-3.3-6.16-5.11-9.14-3.76-5.83-5.81-8.69-4.11-5.86-6.09-8.79c-4-5.85-7.93-11.75-12.25-17.24a83.52,83.52,0,0,0-6.86-7.77,60.48,60.48,0,0,0-7.93-6.51,88.58,88.58,0,0,0-8.94-5.33c-1.56-.77-3.14-1.69-4.57-2.26a20.8,20.8,0,0,0-4.69-1.25,27.81,27.81,0,0,0-4.91-.22,22.2,22.2,0,0,0-2.44.27l-1.22.19-1.21.3a40.39,40.39,0,0,0-9.35,3.78,75.5,75.5,0,0,0-8.68,5.61c-2.77,2.11-5.47,4.3-8.08,6.64s-5.13,4.76-7.61,7.25l-3.66,3.78-3.59,3.9c-4.83,5.16-9.45,10.43-13.83,15.93s-8.48,11.2-12.35,17.05-7.5,11.86-10.83,18a201.62,201.62,0,0,0-9,18.89c-1.34,3.21-2.58,6.45-3.68,9.71-.54,1.63-1.06,3.26-1.49,4.87-.22.8-.42,1.61-.57,2.36-.09.39-.13.73-.19,1.06s0,.23,0,.36v.08a.55.55,0,0,0,0-.09.72.72,0,0,0,0-.25l-.15,1.82c0,.21-.15.65-.22,1.08s-.16.89-.23,1.36c-.14.93-.26,1.88-.36,2.84-.19,1.91-.35,3.84-.41,5.78a100.62,100.62,0,0,0,.18,11.65,98,98,0,0,0,4.29,22.71,81.82,81.82,0,0,0,9.79,20.53,76.72,76.72,0,0,0,6.93,8.91l1.93,2.06c.64.69,1.35,1.32,2,2,1.3,1.29,2.86,2.68,4.32,4,5.92,5.42,11.88,10.71,18.06,15.57a134.19,134.19,0,0,0,19.08,12.91,75.55,75.55,0,0,0,20.76,7.53c1.8.4,3.66.59,5.47.94,1.87.18,3.72.45,5.59.58.94.07,1.88.11,2.82.19l1.41.12,1.36.07C713.06,575.06,714.82,575.06,716.76,575Z"/><path d="M296.52,173.31c-15.93.41-27.25-3.37-34.64-8.12-20.49-12.75-26.57-34.6-27-36.63-.25-1-.49-2-.72-3,.42-.85.84-1.7,1.27-2.55.22-.39,29.43-57.23,49.85-82.93,18.56-26.63,20.88-27.5,22.76-28.23,3.12-1.23,6.14-2.29,9.05-3.14,12.31,44,25.64,87,33.56,125.39l-.18,1.42c-.13,1.45-2.56,15.38-18,28.5l-1.62,1.35-1.85.89a56.58,56.58,0,0,1-11.27,4.07A99,99,0,0,1,296.52,173.31Z"/><path class="cls-6" d="M296.57,175.1a75.77,75.77,0,0,1-21.74-2.41,52.49,52.49,0,0,1-10.33-4,39.61,39.61,0,0,1-4.75-2.86l-2.29-1.54c-.75-.52-1.45-1.13-2.18-1.69a65.56,65.56,0,0,1-14.59-16.39,74.11,74.11,0,0,1-5.15-9.73c-.74-1.69-1.42-3.4-2-5.17-.15-.44-.29-.9-.42-1.36s-.26-1-.36-1.39l-.65-2.58-.18-.71.35-.73c2.64-5.55,5.4-10.93,8.17-16.37S246,97.34,248.84,92s5.69-10.79,8.61-16.15a56.17,56.17,0,0,0,3.95-8.32c1.14-2.9,2-6,3.16-8.88,2.14-6,5.88-10.91,9.49-16l1.37-1.91,1.4-1.83,2.8-3.63,5.29-7.25c1.8-2.49,3.71-4.91,5.61-7.35s3.86-4.88,6-7.3c1.11-1.23,2.17-2.43,3.54-3.74.32-.32.74-.68,1.11-1,.18-.16.44-.36.66-.54a9.37,9.37,0,0,1,.76-.57c.3-.21.55-.39.91-.6a11.37,11.37,0,0,1,1.09-.58l.57-.25.39-.15.6-.21c3-1,6.08-2,9.23-2.78l6.19-1.57L323,7l3.75,15.78,3.91,15.75L338.75,70c2.68,10.5,5.29,21,7.74,31.61s4.7,21.21,6.73,31.9l.09.46-.06.39-.16,1.13-.1.68-.13.68c-.18.88-.4,1.7-.64,2.52a44.38,44.38,0,0,1-1.76,4.72,50.87,50.87,0,0,1-4.85,8.65,63.26,63.26,0,0,1-6.24,7.59c-.57.59-1.17,1.15-1.75,1.72s-1.17,1.14-1.79,1.67L334,165.37c-.62.52-1.23,1-1.85,1.52l-.2.16-.2.1c-1.34.62-2.7,1.29-4.12,1.88s-2.84,1.14-4.29,1.63-2.91.92-4.42,1.29-2.92.72-4.39,1A99.21,99.21,0,0,1,296.57,175.1Zm-.09-3.58a96.62,96.62,0,0,0,17.25-2.21c1.43-.31,2.8-.67,4.25-1s2.73-.8,4.08-1.29,2.68-1,4-1.59,2.59-1.23,3.92-1.89l-.4.26a70.66,70.66,0,0,0,6.7-6.32,60.22,60.22,0,0,0,5.55-7.22,46.06,46.06,0,0,0,4.16-8,38.52,38.52,0,0,0,1.41-4.21c.18-.7.35-1.41.46-2.08l.08-.49.05-.5.14-1.22,0,.85c-2.36-10.5-5.13-20.92-8-31.32s-6-20.73-9.11-31.07-6.36-20.66-9.64-31L311.28,10.3l7.55,4.18c-2.67.92-5.33,2-8,3.16l-.46.21-.13.06h0s.07,0,.1,0,0,0,0,0l-.34.34c-.17.2-.32.34-.52.58-.77.84-1.65,2-2.49,3.08-3.44,4.56-6.84,9.56-10.23,14.5l-5.21,7.64c-.88,1.27-1.78,2.43-2.69,3.64l-1.35,1.8-1.27,1.81-2.55,3.6-2.49,3.69a52.63,52.63,0,0,1-5.73,6.94l-3.26,3.27c-1.08,1.1-2.18,2.19-3.21,3.33a50.92,50.92,0,0,0-5.42,7.3q-4.85,7.68-9.55,15.45c-6.21,10.39-12.32,20.92-18,31.58l.17-1.44.58,2.64c.11.48.17.8.28,1.21s.21.8.34,1.21c.48,1.64,1.08,3.27,1.72,4.87a63.78,63.78,0,0,0,4.69,9.3,64.75,64.75,0,0,0,6.11,8.42,57.18,57.18,0,0,0,7.48,7.2c.69.53,1.34,1.1,2,1.61l2.15,1.46a37.84,37.84,0,0,0,4.43,2.65,48.92,48.92,0,0,0,9.65,3.69A72.05,72.05,0,0,0,296.48,171.52Z"/><path d="M121.13,315.52c-1.44.24-2.51.35-3,.39-7.09,2.06-40.11.23-55-13.06C43.73,288.11,41,267.25,41,265.09c-.08-1-.16-2-.23-3,.57-.79,1.13-1.59,1.7-2.4s9.92-13.49,21.81-30.4c11.89-16.57,26.22-37.47,36.54-47.35,19.6-22.76,21.75-21.59,23.74-22.09a71.38,71.38,0,0,1,9.33-.18c11.91,41.63,19.32,82.78,20.89,123-.13.48-.26,1-.4,1.45-.35,1.38-4.85,15.91-21.32,27.43l-1.73,1.17-1.88.66A51.06,51.06,0,0,1,121.13,315.52Z"/><path class="cls-7" d="M121.42,317.29l-3.16.4.34-.06a33.48,33.48,0,0,1-7.66.76c-1.24,0-2.48,0-3.71-.06s-2.45-.1-3.68-.21A113.25,113.25,0,0,1,89,316.05a88.87,88.87,0,0,1-14.16-4.24,46.08,46.08,0,0,1-13-7.58l.11.09A67.21,67.21,0,0,1,52.9,296a62.43,62.43,0,0,1-7.25-10.05,60.81,60.81,0,0,1-5.11-11.33,57.67,57.67,0,0,1-1.65-6.07,25.76,25.76,0,0,1-.5-3.3l-.3-2.91-.09-.88.59-.88,1.62-2.43-.19.33c.11-.2.24-.42.35-.6l.23-.35.44-.66.86-1.28L43.63,253l3.42-5,6.79-10.07c1.11-1.69,2.28-3.34,3.27-5.12a53.51,53.51,0,0,0,2.69-5.54,97.39,97.39,0,0,1,5.08-11.32,52.17,52.17,0,0,1,3.36-5.1l3.57-5c2.41-3.3,4.85-6.6,7.41-9.85s5.12-6.5,7.91-9.65a110.42,110.42,0,0,1,9-9.32l-.44.47c1.9-2,3.78-4,5.73-6s3.91-4,5.94-6,4.11-3.91,6.43-5.83a41.66,41.66,0,0,1,3.88-2.89c.39-.24.76-.48,1.24-.73l.68-.36.82-.36a11.63,11.63,0,0,1,1.84-.58,4.53,4.53,0,0,1,1-.16l.87-.15a81.83,81.83,0,0,1,10,.16l3.82.32.8,3.35,3.69,15.32,1.74,7.68,1.66,7.7q3.21,15.42,5.59,31t3.75,31.25c.92,10.44,1.59,20.91,1.82,31.39V283l-.09.29-.33,1.16-.19.64-.22.64c-.29.84-.61,1.63-.95,2.42-.69,1.56-1.46,3.07-2.28,4.54a55.78,55.78,0,0,1-5.68,8.32,64.36,64.36,0,0,1-7,7.23,71.44,71.44,0,0,1-7.94,6.05l-.22.14-.19.07-2.55.86c-.87.28-1.74.54-2.63.78A51.08,51.08,0,0,1,121.42,317.29Zm-.58-3.53a49.76,49.76,0,0,0,5-1.12c.82-.23,1.64-.48,2.45-.75l2.46-.86-.41.2a66.48,66.48,0,0,0,7.47-5.8,57.92,57.92,0,0,0,6.4-6.89,53.07,53.07,0,0,0,5.14-7.83,45.79,45.79,0,0,0,2-4.21c.27-.71.54-1.43.76-2.14l.15-.51.14-.54.31-1.19-.08.67c-.59-10.35-1.52-20.68-2.88-31s-3.08-20.49-5.1-30.65-4.34-20.26-6.92-30.28l-2-7.51-2.1-7.47-2.2-7.45-2.35-7.4,4.62,3.66a64.42,64.42,0,0,0-8.64.52l.87-.14a9.55,9.55,0,0,0-1,.26c-.06,0,0,0-.09.08a.41.41,0,0,1-.11.07l-.21.15c-.12.08-.31.23-.49.37a33.05,33.05,0,0,0-2.5,2.25C119.72,170,118,172,116.21,174s-3.45,4.05-5.16,6.12-3.39,4.19-5.09,6.29l-.44.47c-2.48,2.63-5,5.58-7.36,8.66S93.36,201.74,91,205l-7,9.72-3.54,4.9a53.31,53.31,0,0,1-3.7,4.8c-2.65,3.09-6,5.73-9,8.49a54.33,54.33,0,0,0-4.34,4.38c-1.36,1.53-2.55,3.18-3.79,4.78l-7.46,9.65-3.73,4.81L45,261l-.2.33L43,263.67l.5-1.77.15,3.07a22,22,0,0,0,.26,2.63,47.6,47.6,0,0,0,1.24,5.55,56.14,56.14,0,0,0,4.29,10.67,59.13,59.13,0,0,0,6.48,9.54l1.91,2.17c.66.71,1.37,1.36,2.06,2l1,1,1.12.93,2.22,1.86.11.09a40.51,40.51,0,0,0,11.84,7.08,80.2,80.2,0,0,0,13.54,4.1,109.5,109.5,0,0,0,14.09,1.95c1.19.11,2.37.16,3.55.2s2.36,0,3.54,0,2.33-.08,3.48-.14l1.69-.19c.54-.08,1-.21,1.54-.3l.34-.07Z"/><path d="M512.22,173.28a99.41,99.41,0,0,1-20.11-2.86,56.86,56.86,0,0,1-11.28-4l-1.85-.88-1.63-1.34c-15.52-13.07-18-27-18.17-28.47-.06-.48-.13-.95-.19-1.42,7.66-38.44,20.75-81.38,33.06-125.37,2.91.82,5.92,1.84,9.05,3,1.89.72,4.19,1.51,22.81,28,20.43,25.56,50,82.38,50.22,82.74l1.29,2.54c-.23,1-.46,2-.7,3-.38,2-6.33,23.86-26.78,36.7C540.4,169.88,528.72,173.8,512.22,173.28Z"/><path class="cls-8" d="M512.16,175.07a100.08,100.08,0,0,1-17.35-2.21l-2.14-.49-2.12-.52c-1.44-.38-2.85-.81-4.24-1.3a70.22,70.22,0,0,1-8.09-3.45L478,167l-.16-.14a81.43,81.43,0,0,1-7.16-6.54,62.5,62.5,0,0,1-6.14-7.61,51.31,51.31,0,0,1-4.77-8.58,42.63,42.63,0,0,1-1.72-4.66c-.24-.81-.46-1.62-.63-2.47l-.12-.66-.1-.65-.17-1.15,0-.3.06-.33,1.54-8,1.64-8c1.09-5.31,2.25-10.6,3.44-15.89s2.38-10.57,3.63-15.85l3.75-15.81c.61-2.64,1.34-5.24,1.79-7.93a63.24,63.24,0,0,0,.79-8.21c.15-2.76.21-5.56.59-8.26A49.26,49.26,0,0,1,476,38.07c2.91-10.41,6-20.75,9.19-31.06l2.16-7L494,2.07c3.08,1,6,2,8.95,3.23l.55.23.36.15.45.2c.37.18.74.36,1.1.57l.53.33.44.31a17.45,17.45,0,0,1,1.47,1.19c.4.38.73.72,1.09,1.08,1.28,1.36,2.3,2.62,3.29,3.89,3.86,5,7.16,10,10.49,15L525.17,32l2.36,3.67c1.58,2.47,3.45,4.86,5.11,7.38s3.36,5.07,5,7.62L540,54.52l2.34,3.86c6.24,10.28,12.13,20.69,17.81,31.2q4.25,7.89,8.39,15.83l4.1,8,2,4,1,2,.5,1,.2.4.11.28.22.37L578,124l.48,1-.24.94-.66,2.59c-.1.38-.24,1-.38,1.45s-.28.95-.44,1.4c-.6,1.82-1.3,3.57-2.05,5.29a69.76,69.76,0,0,1-12.13,18.84c-.63.69-1.3,1.35-1.95,2l-1,1c-.34.33-.7.63-1,.95l-2.09,1.87c-.72.6-1.48,1.16-2.21,1.74-1.45,1.19-3,2.17-4.59,3.22a41.46,41.46,0,0,1-4.9,2.81,54.72,54.72,0,0,1-10.56,3.83A78.32,78.32,0,0,1,512.16,175.07Zm.12-3.58a74.44,74.44,0,0,0,21-2.24,50.27,50.27,0,0,0,9.74-3.74,37.35,37.35,0,0,0,4.45-2.66,47.76,47.76,0,0,0,4.22-3.11c.67-.56,1.35-1.1,2-1.67l1.89-1.81c.31-.3.64-.6.94-.91l.88-1c.58-.65,1.19-1.28,1.75-1.94a64.38,64.38,0,0,0,10.7-17.86,50.28,50.28,0,0,0,1.68-4.88c.12-.41.22-.81.32-1.21s.14-.69.25-1.19l.56-2.69.24,1.93L571.52,124l.23.37-4.58-8.08-4.42-7.72c-3-5.14-6-10.24-9-15.33-6.11-10.15-12.37-20.22-19-30l-2.49-3.64-2.55-3.59c-1.67-2.41-3.5-4.68-5.26-7s-3.74-4.52-5.59-6.91L516,38.54l-2.73-3.49c-3.64-4.62-7.37-9.26-11.1-13.4-.92-1-1.86-2-2.68-2.74l-.54-.44c-.13-.08-.29-.21-.29-.18h0s0,0,.05,0l.1.07s0,0-.06,0l-.16-.05-.5-.17c-2.67-.9-5.34-1.72-8-2.37l8.8-5q-4,15.77-8.48,31.33a49,49,0,0,1-2.7,7.65c-1.1,2.5-2.49,4.9-3.82,7.33a60.65,60.65,0,0,0-3.59,7.4c-1,2.52-1.71,5.13-2.54,7.7q-2.4,7.72-4.72,15.48t-4.45,15.55c-1.42,5.2-2.77,10.42-4.09,15.64s-2.47,10.49-3.62,15.75l0-.64.14,1.2.07.53.09.51c.12.7.31,1.42.5,2.14a41.44,41.44,0,0,0,1.5,4.26,45.91,45.91,0,0,0,4.32,8,59.64,59.64,0,0,0,5.72,7.18,70.42,70.42,0,0,0,6.83,6.27l-.35-.22a64.67,64.67,0,0,0,7.72,3.27c1.31.46,2.65.87,4,1.21l2.06.5,2.05.46A96.52,96.52,0,0,0,512.28,171.49Z"/><path d="M688.15,326.41A98.33,98.33,0,0,1,671.43,324a56.31,56.31,0,0,1-11.3-3.83l-1.85-.86L656.64,318c-15.65-12.89-18.42-26.93-18.59-28.37-.07-.47-.15-.95-.22-1.42,6.9-38.68,19.31-81.42,31.57-125.24,2.92.7,6,1.6,9.08,2.68,1.9.69,4.18,1.25,22.94,27.34,20.48,25.17,51,81.93,51.31,82.2.45.85.89,1.69,1.34,2.52-.21,1-.43,2-.64,3-.34,2.05-5.9,23.77-26.23,36.87-8,5.32-20.77,9.7-39.05,8.78Z"/><path class="cls-9" d="M688.16,328.2c-1.43-.08-2.73-.17-4-.3s-2.61-.28-3.91-.46q-3.9-.54-7.74-1.36l-1.9-.43c-.66-.15-1.31-.31-2-.49-1.28-.35-2.55-.74-3.8-1.18a68.53,68.53,0,0,1-7.29-3.05l-.19-.09-.17-.13a80.54,80.54,0,0,1-7.25-6.51,63.78,63.78,0,0,1-6.23-7.57,53.91,53.91,0,0,1-4.88-8.56,48.89,48.89,0,0,1-1.79-4.64c-.24-.81-.47-1.61-.66-2.46l-.14-.66-.1-.65-.19-1.15-.05-.3.06-.32,1.39-8,1.49-8c1-5.31,2-10.61,3.17-15.89,2.19-10.58,4.55-21.12,7-31.65,1.14-5.28,2.72-10.44,3-16,.19-2.74.22-5.53.39-8.28a48,48,0,0,1,1.15-8.08c1.36-5.22,2.85-10.4,4.33-15.57L662.44,161l2-6.85,6.6,1.77c3.13.84,6.15,1.83,9.1,2.92l.61.22.38.15.48.2a12.67,12.67,0,0,1,2.1,1.15,16.94,16.94,0,0,1,1.52,1.18c.38.35.76.71,1.11,1.06,1.34,1.36,2.35,2.6,3.38,3.85,3.94,5,7.29,9.89,10.67,14.87l2.5,3.72,2.39,3.63c1.64,2.46,3.48,4.83,5.16,7.34s3.41,5,5,7.57l2.44,3.8,2.38,3.82q9.44,15.3,18.09,30.91,4.33,7.82,8.57,15.67l4.21,7.86,2.08,3.94,1,2,.52,1,.13.24c0,.05,0,0-.06,0a.37.37,0,0,0-.26-.08l.76.93,1.28,2.54.51,1-.23,1-.63,2.69a28.31,28.31,0,0,1-.82,3,56.11,56.11,0,0,1-2.1,5.52,72.17,72.17,0,0,1-5.49,10.31,64.76,64.76,0,0,1-15.85,17l-2.41,1.64c-.79.55-1.6,1.09-2.44,1.59a43.66,43.66,0,0,1-5.2,2.73,56.7,56.7,0,0,1-11,3.65,73.85,73.85,0,0,1-11.42,1.68c-1,.07-1.91.13-2.87.15s-1.92.08-2.87.06-1.92,0-2.87,0Zm0-3.58,2.86.08c.92,0,1.84,0,2.76,0s1.84-.05,2.76-.08,1.83-.1,2.74-.18a68.85,68.85,0,0,0,10.82-1.7,53.35,53.35,0,0,0,10.24-3.59,43,43,0,0,0,4.71-2.59c1.53-.94,3-2.09,4.44-3.13a60.16,60.16,0,0,0,14.18-16.23,64.25,64.25,0,0,0,4.77-9.71,53,53,0,0,0,1.68-5.08,21.58,21.58,0,0,0,.56-2.46l.53-2.82.28,2-1.39-2.5.76.93a7.73,7.73,0,0,1-.83-1c-.12-.17-.27-.41-.33-.52l-.15-.25-.57-1-1.13-1.93L745.58,269l-4.53-7.64c-3-5.09-6.11-10.13-9.22-15.17-6.23-10-12.57-20-19.3-29.66-1.67-2.41-3.35-4.82-5.11-7.16s-3.53-4.64-5.32-6.93-3.77-4.47-5.64-6.81l-2.82-3.57-2.77-3.46c-3.68-4.55-7.44-9.13-11.2-13.2-.93-1-1.88-2-2.69-2.66l-.54-.43c-.1,0-.29-.2-.26-.15s.12.09.14.1h0l-.06,0-.14,0-.44-.13c-2.67-.82-5.35-1.53-8-2.07l8.65-5.08-4.11,15.62c-1.43,5.19-2.85,10.38-4.38,15.53a47.44,47.44,0,0,1-3.16,7.49c-1.27,2.44-2.65,4.84-3.88,7.29-2.55,4.88-3.77,10.11-5.36,15.25q-4.63,15.45-8.68,31c-2.66,10.4-5.07,20.86-7.08,31.4v-.62l.18,1.2.07.53.1.51c.14.71.34,1.43.54,2.15a41.94,41.94,0,0,0,1.57,4.26,45,45,0,0,0,4.45,8,60.18,60.18,0,0,0,5.82,7.15,72.15,72.15,0,0,0,6.92,6.21l-.35-.22a66.9,66.9,0,0,0,7,2.89q1.77.62,3.57,1.11c.6.16,1.21.31,1.8.44l1.88.42q3.71.79,7.47,1.29c1.25.17,2.51.32,3.77.43S687,324.55,688.14,324.62Z"/><path d="M425.46,884.81c-.13.66,74.19-15,95.66-35.88,21.21-19.73,103.15-45.24,131.28-44.2C691.07,801.94,839.32,730.5,784,658.28c.83-.36-21.07-32.59-86.39-63.06C635,564,595.72,548.26,523,468.74c-1,.26-51.61-62.68-81.48-77.65-34.43-14.95-55.76-21-114.44,39.74-23,23-57,62.94-57.11,62.86q-11.75,11.63-24.19,23.12-17.11,14.1-35.37,27.86-19.18,11.93-39.35,23.4c.88.5-80.52,35.82-101.62,55-23.89,20.62-61.86,44.26-49.28,86.47,14.05,42.82,80.74,70.75,80,70.46,0,0,28,11.32,44.77,16,16.75,5.2,102,27.45,109.2,32,9.49,4.17,16.06,7.81,16.06,7.81-.06-.21,36.55,30.32,83.51,40.68C400.68,886.51,417.48,886.23,425.46,884.81Z"/><path class="cls-10" d="M427.59,882.73c-1.55-1.18-1.42-.68-1.89-.87h-.26l.11,0,.38-.05.87-.16c9.21-1.82,18.39-4.15,27.43-6.65,19.09-5.48,38.66-11.58,55.75-21.64a50.89,50.89,0,0,0,8.94-6.7l.39-.34.78-.68a85.44,85.44,0,0,1,14.83-9.82c18.18-9.7,37.43-16.65,57-22.76,14.69-4.46,29.6-8.39,44.84-10.69,5.21-.71,11.53-1.4,15.39-1.19,9-.87,18.18-3.91,26.77-7,40.53-14.89,119.15-59.08,112.18-109.25-1.33-8.58-5.36-16.67-10.82-23.8l1.84-7.09c-3.09,1.5-2.92,5.14-2.78,4.41a4,4,0,0,0,.17,1c0,.14.15.42.13.39l.05.09,0,0c-7.29-10.38-17.24-18.63-27.17-26.49-32.1-24.94-70.66-38.88-106.23-58.08-49.11-24.84-91.07-62-127.93-102.32l6.23,1.85a6.62,6.62,0,0,1-4.77-.66,5.13,5.13,0,0,1-.71-.47l-.35-.27c-1.33-1.2-2.83-2.94-4-4.27-16.87-19-34.2-38.47-53.13-55.31-7.28-6.34-14.5-12.33-22.91-16.76-8.86-3.79-18.72-8-28-9.07-25-3.15-48.74,18.49-66.21,34.3-14.89,14-29.25,28.81-43.21,43.86-8,8.51-16.48,18-24.33,26.69-1,1.11-2.38,2.63-3.33,3.69a5,5,0,0,1-2.73,1.59,4.86,4.86,0,0,1-3.21-.5l5.56-.71-14.49,13.48c-2.67,2.46-8.24,7.84-10.9,10.11-11.53,9.25-23.22,18.38-35,27.23Q193.11,560,173.07,571.6v-7.07c4.09,9.42-.44,5.08.62,6.68-.2.17-.38.29-.41.32-1.71,1-3.32,1.75-5,2.63C145.1,585.4,121.67,597,99.48,609.88c-9.36,5.57-18.83,11.07-26.79,18.31l-2,1.78-4,3.39c-17,14.5-37.15,29.09-41.67,52.11-6.62,39.4,45.72,73.39,76.8,87.84l.55.25.28.13.13.06c-2.11,5.63,5.33-12.38-5,12.49l-.05.12-.76-.51-.25-.17a4.39,4.39,0,0,1-.48-.34c-.29-.46-.65,0-2.11-2.91-2.75-6.8,7.8-10.94,6.75-9.09a8.63,8.63,0,0,1,3.07.87c11.72,4.73,24.24,9.68,36.16,13.65,37.57,11.95,76.58,20.95,113.83,34.27a26.2,26.2,0,0,1,3.1,1.53l-.69-.37c4.84,2.2,9.65,4.55,14.34,7.07l1,.55.51.28.26.14.13.08,0,0a5.25,5.25,0,0,1,2.68,4.43l-9.81,1.44c14.39-11.66,4.63-2.84,7.73-5.5,26.61,21,57.89,36.82,91.33,43.07A402.52,402.52,0,0,0,405,881.73a94.1,94.1,0,0,0,17.51.45l1.75-.16a7.35,7.35,0,0,1,3.29.71Zm-4.26,4.16c0,.61.47,1.16.93,1.14l-.34.05c-13.44,1.57-27.05-.43-40.32-2.25-13.59-2.16-27.91-4.44-41.22-8-27.21-7.61-52.58-21-75.08-37.92,3.27-2.58-6.75,6.16,7.72-5.5l-9.81,1.43a5.05,5.05,0,0,0,2.47,4.32l-.11-.05-.23-.13c-5-2.6-10.12-5-15.27-7.19a28,28,0,0,0-4.34-1.78c-11-3.7-22.31-6.68-33.53-9.79-22.31-6.13-56.14-14.67-78.11-21.23-11.2-3.47-22.72-7.82-33.66-11.94l-2.38-.91-1.19-.46-.59-.24-.23-.09a6.06,6.06,0,0,0,1.93.41c-1.09,1.84,9.44-2.31,6.66-9.12-1.47-2.95-1.86-2.47-2.18-2.94a6,6,0,0,0-.54-.37,2.92,2.92,0,0,0-.41-.23l-.81-.39c-10.46,24.8-2.86,6.89-5.24,12.41l-.08,0-.16-.07-.32-.13-.63-.28c-31.07-14.08-75-41-83.47-76.41C3,667.67,34.33,643.38,62.87,620.71c9.42-8.32,20.35-14.59,31.24-20.45,23.76-12.71,48.47-23.38,72.9-34.62l1.1-.53.48-.25.14-.08-.08.06s-.13.09-.29.23c1.1,1.56-3.36-2.83.7,6.54v-7.07c6.63-3.72,13.26-7.45,19.8-11.34s13.07-7.79,19.5-11.85c10.15-7.67,23.27-18.12,34-27.16,6.48-6.11,17.88-17.46,24.33-23.78l5.56-.71a4.46,4.46,0,0,0-3.09-.6,4.56,4.56,0,0,0-2.48,1.32l.09-.09.16-.19.4-.47c3.55-4.2,9-10.58,12.52-14.79,15.63-18.46,31.62-36.77,48.54-54.16,21.76-21.73,50.5-50,83.81-45.9,11.72,1.48,21.66,5.74,32.08,10.21,9.6,4.87,18.14,12,26.05,18.93,19.48,17.4,36.77,37.15,53.84,56.83.67.78,2,2.33,2.75,3.07h0l-.12-.1a6.27,6.27,0,0,0-5.42-1.14l6.23,1.85c27.13,29.83,55.9,58.12,89.24,80.76,22.27,15.07,46.34,27.15,70.45,39.2,6.07,3,12,6.09,18.2,9a313.28,313.28,0,0,1,52.74,32.45,176,176,0,0,1,23.13,21.15c2.43,2.84,5,5.67,6.76,9.07a5.6,5.6,0,0,1,.45,1.85c.16-.68.3,3-2.82,4.55l1.85-7.08c52,69.58-64.06,134.63-120.2,150.08a85.37,85.37,0,0,1-15,2.77,87.55,87.55,0,0,0-14.74,1c-24.75,3.78-49,11.13-72.41,19.91-13.78,5.47-27.88,11.19-39.73,20-2,1.56-3.78,3.41-5.79,4.94-10.45,7.88-22.79,12.82-34.77,17.31a414.71,414.71,0,0,1-55.27,15.59c-1,.19-2.52.48-3.48.62l-.36,0-.29,0h-.33c-.5-.2-.43.31-2-.91Z"/><path d="M130.72,346.33c.53-.89,13.48,11.55,31.88,35C180,405,202.8,439.75,199.66,488.58c.07.18-6.31,14.15-20.7,32.28-14.26,17.67-36.54,39.51-65.09,45-28.49,5-49.16-10.24-62.48-24.18C38,527.35,32,514.28,32.13,514.19c-.81-1.39-20.3-56,4.53-97.54,23-43.64,32.43-61.86,48.45-71.12C101.29,336.2,112.42,333.72,130.72,346.33Z"/><path class="cls-10" d="M129.58,341.11a5.16,5.16,0,0,0-1.09.36,6,6,0,0,1,1.23-.41,5.55,5.55,0,0,1,3.41.39,8.81,8.81,0,0,1,1.89,1.17,71.35,71.35,0,0,1,7,6.82c14,15.41,26.78,31.86,37.43,49.71,8.85,15,15.92,31.1,19.75,48.11,3.13,12.81,4,32.18,2.92,41.53a4.37,4.37,0,0,1-.53,1.61c-8.46,16.5-19.78,31.47-32.53,44.9-27.63,28.9-65.56,47.27-102.71,23.38-14.18-9.13-25.57-22-34.44-36.28a50,50,0,0,1-3.69-6.93c-.39.08-.22-3.85,1.28-4.45l-.92,5.24A34.3,34.3,0,0,1,26.89,512a149.6,149.6,0,0,1-7.33-56.53,100,100,0,0,1,10-37.57c1-1.94,2.55-4.75,3.47-6.67C42.1,393.66,50.4,375,61.59,358.45c4.49-6.52,10.33-13.2,17.21-17.71,7.29-4.57,14-8.26,23-10,9.62-1.79,19.63,1.45,27.29,7.3l.82.6c.23.18.69.48.51.46a2.2,2.2,0,0,0-.51.61,3.07,3.07,0,0,0-.37,1.39Zm2.28,10.43a22.26,22.26,0,0,1-8.15-2.54c-1.45-.66-3.87-1.54-5.36-2.09-9.11-3.24-17-1.74-25.61,2.95-12.79,5.93-20.26,17-27.62,28.64-8.86,13.93-17.28,30.21-25.62,44.62-10.15,18.64-12,40.76-9.59,61.72a139.42,139.42,0,0,0,5.76,27c0,.19.26.63,0,.24l-.92,5.24c1.51-.57,1.68-4.46,1.3-4.34l0-.09s0-.12,0-.08l0,.09.13.31.32.69c9.86,19,25.17,36.86,45.09,45.58,26.5,11.24,53.63-.33,74.32-17.83a161,161,0,0,0,27.62-30.54,148.14,148.14,0,0,0,13.75-23.28c1.18-31.78-8-62.32-30.1-93-7.61-11.06-16.49-21.31-25.58-31.13-4.19-4.39-8.43-9.08-13.12-12.73a4.78,4.78,0,0,0,2.17.6,5.24,5.24,0,0,0,1.19-.11,5.42,5.42,0,0,0,1.15-.38,5.26,5.26,0,0,1-1.15.41Z"/><path d="M299.53,155.58c-1.18-.91-12,.12-30.53,16.93-18.12,16.31-43.94,48.39-65.8,98.1-20.25,47.95-13.65,77-1.08,97,12.87,19.57,31.72,30.15,43.11,30.75,14,2.09,39.33-.22,63.56-7.21,24.19-6.64,47.26-18,56-25.56,18.78-16.72,19.58-13.81,32-48.79q.46-11.42.42-22.69c-8.32-20.61-17.52-42.24-26.91-64.51-.17.31-24.32-41.93-32.43-49.71C329.36,172.71,325.26,159.63,299.53,155.58Z"/><path class="cls-10" d="M296.57,162.47a5,5,0,0,0,1.69.35s.12,0,.05,0a6.9,6.9,0,0,0-1.56.23c-18.86,5.69-38.94,28.46-51.13,43.95C214.68,249,170.37,321.72,207.59,371c7.49,9.94,17.34,18.53,29,23.19a30.31,30.31,0,0,0,8.91,2.13,77.61,77.61,0,0,0,11.36.8c33.93-.48,69.64-9.79,98.47-27.9a57.55,57.55,0,0,0,7.69-5.89l1.06-1,8.43-8a51.61,51.61,0,0,0,7.17-8.13c5.93-9.37,8.73-20.52,12.5-31.13l-.29,1.46c0-7.49,0-15,.18-22.46l.38,1.93c-6.74-16.12-12.41-32.65-18.58-49-2-5.46-4.19-10.86-6.41-16.24l5.67.3c-7.22,3.09-3.79-.06-5,.71a2.77,2.77,0,0,1-.23-.25c-.39-.49-.79-1.2-1.13-1.74-8.82-14.48-17.77-29.18-28.19-42.54a31.86,31.86,0,0,0-5.3-5.39c-1.29-1.19-2.63-2.5-3.82-3.78a72.58,72.58,0,0,0-7.92-7.52,36.77,36.77,0,0,0-17.19-7c-2.53-.38-5.22-.75-7.75-1.16Zm5.92-13.78c9,2.28,17.88,6.14,24.82,12.46a76.52,76.52,0,0,1,9.4,10.61c1,1.16,1.94,2.42,3,3.49a34.45,34.45,0,0,1,3.66,4.07c8.45,11.64,15.58,25,22.9,37.26,1.74,3,4.5,7.79,6.29,10.66l.2.31.07.11s0,0,0,0l-.08-.1-.2-.21c-1.18.78,2.26-2.35-4.94.73l5.66.31c2.28,5.36,4.6,10.71,7.06,16,7.28,15.91,15.06,31.61,21.79,47.77l.4.94,0,1c-.15,7.9-.4,15.81-.7,23.71-1.44,3.88-3,7.71-4.55,11.58-3.13,7.47-6.17,14.95-11.34,21.52s-11.84,10.67-18,15.86c-9.29,7.47-20.54,12.13-31.39,16.63-21.76,8.62-44.54,15-67.91,17.06-7.87.64-15.73,1-23.64-.1a35.79,35.79,0,0,1-9.84-2.24c-21.65-8.64-38.68-28.39-44.82-50.79-11.78-43.11,14.25-93.74,35.9-130.2,14.07-22.55,30.1-44.39,51.83-60.44,6-4.11,17-11,24.49-8Z"/><path d="M416.88,296.6c10-23.4,21-48.26,32.08-73.91-.3.81,23.4-57,55.24-65.37,31-6.51,57.85,33.8,58.71,33.15-1.29,0,37.42,43.44,53.52,95.34,14,51.77-2.58,73.64-2.1,74.05.17-.41-13.32,31.41-37.41,36.85-12.66,5.48-12.83,2.42-16.74,2.59-3.88.62-34.66-2.2-34.68-2.63-13.07-3-26.19-6.76-39.35-11.12,0,.47-40-16.94-45.81-27.21C434.92,348.48,414.62,337.09,416.88,296.6Z"/><path class="cls-10" d="M409.58,294.9c8.59-18.53,25.63-55.92,34.13-74.47l10.61,4.21c-19.55-11.26-6.64-1.11-10.57-4.29,0,0,0,0,0,0l0-.06.07-.14.13-.3.27-.58.54-1.17c11.21-23.2,31.12-56.75,57.07-64.64,11.6-3.15,24.37.73,34.07,6.85,11.38,7.08,20.33,16.79,28.7,27l.31.35s.07.07,0,0a.92.92,0,0,0-.21-.16,3.09,3.09,0,0,0-1.46-.55,3.61,3.61,0,0,0-2.46.67l2,6.26a3.46,3.46,0,0,0,3.5-3,3.42,3.42,0,0,0-.1-1.36c0-.1-.07-.21-.11-.31l-.06-.14L566,189s0,0,0,0c.67,1,2.22,3.07,3,4.07a362,362,0,0,1,34.44,54.3c10.77,20.92,19.05,43.42,20.64,67.08,1,13.75.07,28.09-5.28,41-.67,1.68-1.57,3.39-2.38,5,0,0,0,.07,0,0a1.94,1.94,0,0,0,.1-.49c.1.09-.12-1.46-.74-1.74l-3.41.81c7.85,3.61,2.23.89,4,1.7h0v0l0,.05,0,.11-.09.2-.19.4c-7.84,16-20.39,32.85-38.57,37.19-2.42,1.09-8.8,3.79-13.15,3.24-1.49-.15-2.64-.69-4-.64l.24,0c-6,.35-11.87-.45-17.86-.82-5.34-.44-11-1-16.36-1.65a6.11,6.11,0,0,1-1.65-.39,2.09,2.09,0,0,1-1.09-1.68l1.52,1.82c-13.35-3.1-26.52-6.88-39.57-11l2.76-2.15c-1.51,3.66-2,1.72-2.23,2.27l-.28,0-.24-.05-.22-.07-.3-.1-.5-.18c-4.38-1.75-9-3.77-13.28-5.76-9.4-4.48-18.61-8.85-27.22-15a25.13,25.13,0,0,1-6.63-6.58,40.27,40.27,0,0,0-4.1-5c-7.28-7.45-14.2-16.48-18-26.53a94.52,94.52,0,0,1-5.66-33.47Zm14.61,3.4c-1.69,12.32-1,25.42,4.55,36.72,2.61,5.53,6.12,10.11,10.09,15.16a46.37,46.37,0,0,1,4.57,6.71,20,20,0,0,0,4.41,4.73A96.26,96.26,0,0,0,460,370a225.5,225.5,0,0,0,26,13.28l.4.15.15.05h0l-.12,0-.22,0c-.26.55-.69-1.39-2.19,2.25l2.77-2.15q4.81,1.65,9.67,3.2c9.71,3.05,19.53,5.77,29.45,8l1.52,1.82a1.94,1.94,0,0,0-1.3-1.74h0l.18,0,.49.07c1.93.29,5.51.6,7.48.81,8.53.66,17.23,1.76,25.77,1.51a23.41,23.41,0,0,1,4.59.64,11,11,0,0,0,3.62-.32,58.27,58.27,0,0,0,8.16-2.89c16.6-4.1,27.89-19.67,35.21-34.24l.52-1.11.08-.19,0-.09,0,0v0c1.75.8-3.86-1.93,4,1.69l-3.42.81c-.62-.31-.85-1.89-.75-1.83a2.58,2.58,0,0,1,.18-.75c.34-.77.91-1.84,1.28-2.6,6-12.87,6.79-27.47,5.63-41.47a144.9,144.9,0,0,0-11.07-44.11C599.41,249.47,587.4,229.65,574,211c-3.82-5.35-8.18-10.9-12.22-16.1-1-1.45-2.56-2.83-2.31-4.87A3.5,3.5,0,0,1,563,187l8.91.18L565,193.25a3.64,3.64,0,0,1-2.53.68,4.79,4.79,0,0,1-3.06-2c-8-9.42-16.84-18.74-27.52-24.93-10.23-6.08-23-8.95-33.56-2.63-19.31,11.1-33.09,36.27-42.24,56.14-.56,1.25-1.31,3-1.83,4.27,0,0-.05.12-.06.16-3.94-3.17,8.94,7.05-10.6-4.25l10.61,4.21c-7.48,18.3-22.61,55.05-30,73.36Z"/><path d="M715.92,337.9c-1.28,0-16.64-12.19-51.38,27.75-37.77,39.89-49.94,82.07-48.67,82.27-.5.41-9.75,47.06,21.51,77,30.47,29.66,46.36,39.36,73.13,40.43a76.12,76.12,0,0,0,44-12.69c-.12.22,25.79-18.79,31.32-42.45a177.07,177.07,0,0,0,4-46.76c.95,0-12.15-54.07-33.26-82.55C736.94,352.81,735.6,347.61,715.92,337.9Z"/><path class="cls-10" d="M714.07,345.14c-1-.27-1.94-.69-2.88-1a13,13,0,0,0-6-.11c-7.66,1.59-13.87,6-20.32,11.18a155.8,155.8,0,0,0-15.4,14.9c-20.72,21.2-38.23,46.34-48.41,74.32a32.06,32.06,0,0,0-1,3.35v-.18a4.28,4.28,0,0,0-3.6-4l2.12,7.64a3.76,3.76,0,0,0,1.18-1.57c.13-.3.13-.44.09-.25s-.16.58-.22.92a91.34,91.34,0,0,0,4.17,49.28,71.72,71.72,0,0,0,18.4,26.48c14.2,13.61,29.07,28.21,48.25,34,19.88,6.06,42.32,3.52,60.06-7.44l1.38-.88.69-.45a7.94,7.94,0,0,1,.87-.55c1.21.78-2-2.1,3.08,1.7l-.26,1.17c.72-3.83-5.29-2.8-2.89-2.82l1-.79C768,539,780.87,524.45,784,506.82a169.85,169.85,0,0,0,2.79-41.62l0-.75,0-.37V464c0-.05,0,0,0,.1a1.42,1.42,0,0,0,0,.2,1.92,1.92,0,0,0,.32.73l2.76-4.69a3.23,3.23,0,0,0-2.71,1.55,2.67,2.67,0,0,0-.4,1.29v.19s0,0,0-.08c-.23-1.21-.49-2.45-.8-3.65A286.65,286.65,0,0,0,776,428.84c-6.67-17.24-14.55-33.78-26.07-48.15-7.33-9.51-13.61-20.07-22.65-27.86-3.79-3.2-8.78-5.44-13.21-7.69Zm3.7-14.48a70.13,70.13,0,0,1,18.33,12.27c5,4.73,8.78,10.31,12.41,15.88,6,9.63,15,22.31,20.11,32.21,8.9,17.09,14.92,35,20.14,53.33A164.61,164.61,0,0,1,793,462.56a5.77,5.77,0,0,1,0,1.18,3.23,3.23,0,0,1-3.18,2.9l2.75-4.69a5,5,0,0,1,.43,2.15c0,.61,0,1.83.06,2.44A183.68,183.68,0,0,1,788.21,511c-4.46,17.35-18.56,32.8-32.44,43.4l-.1.07-.08,0c2.47-.06-3.64,1-2.9-2.82l-.26,1.17c5,3.78,1.8.94,3,1.73l.06,0h0l-.14.09c-.71.49-1.83,1.16-2.55,1.61-18.81,11.4-42.38,14.05-63.41,7.86C676.07,560.27,664.4,552,654,543.37c-5.17-4.32-10.32-8.93-15.2-13.55a77.39,77.39,0,0,1-20.65-27.76,98.45,98.45,0,0,1-7.82-40.93,75.94,75.94,0,0,1,1.27-13.94,5.15,5.15,0,0,1,1.53-2.61l2.12,7.64a4.61,4.61,0,0,1-2.2-1,4.27,4.27,0,0,1-1.48-2.55,2.47,2.47,0,0,1,0-.34l0-.2,0-.4a24.57,24.57,0,0,1,1.12-5.88,135.4,135.4,0,0,1,5.1-14.55c10.28-25.08,25.4-48,43.67-68C671.92,347,687.16,331.56,704,328.89a24.67,24.67,0,0,1,14.44,2h0l-.06,0a2.72,2.72,0,0,0-.63-.2Z"/><path d="M310.62,17.43c10.1,39.21,21.56,77.6,28,111.25,0-.05-1.52,10.22-12.66,20a47.49,47.49,0,0,1-9.19,3.76c0-.16-9.15,3.17-19.94,3.43-10.8.56-23.25-2-30-6.88-15.76-10-20.55-28.71-20.43-28.45-.22,0,6.39-12.22,15.85-29.51,9.37-16.9,21.61-38.87,30.41-49.57C308.78,17.4,310.06,17.76,310.62,17.43Z"/><path class="cls-10" d="M311.3,15.78c1.89,4.11,3.3,10.63,4.47,15.13,8.32,32.5,18.65,64.42,26.36,97.1l-6.31-1.47a3.22,3.22,0,0,1,.52-.54,3.57,3.57,0,0,1,5.84,3c0,.38-.13.83-.19,1.21-1,4.23-2.19,8.24-3.54,12.42a26.1,26.1,0,0,1-8.19,12.28,56.52,56.52,0,0,1-10,4.31l-.72.22-.39.12a7.83,7.83,0,0,1-4.95-.08l-4.91-6.79c-.61,1.64,2.55,7,6.17,7.13s1.46,0,2.2,0a4.29,4.29,0,0,0,.81-.15h0l-.24.06c-18.35,5.35-41.79,4.6-57.09-8.17-9.14-7.52-15.34-18-18.65-29.22-.08-.33-.2-.76-.26-1.1,3.59-1.11-8.11,2,8-2.59l-3.8,6.09c-6.44-2.39-3.71-6-4.28-4.74a5.42,5.42,0,0,1,.7-2c.18-.4.86-1.57,1.08-2C254.79,97,265.83,77.62,277.49,59a186,186,0,0,1,13.31-18.8c4.32-6.2,8.63-12.41,13.27-18.4,1.73-2.05,3.24-4.46,5.58-5.9a2.08,2.08,0,0,1,1.65-.14Zm-1.36,3.31a1.54,1.54,0,0,0,1.34,0l-.07.06a1.73,1.73,0,0,0-.19.15c-6.29,7.16-11.16,15.51-16.48,23.41A113,113,0,0,0,288,52.11c-13,20.9-24.07,43.35-35.33,65.28-.51,1.07-1.67,3.28-2.15,4.37l-.1.24,0,0a3.31,3.31,0,0,0,.27-1.05c-.58,1.26,2.15-2.32-4.29-4.7l-3.79,6.09c16.14-4.58,4.45-1.44,8-2.55l0-.15v0l0,.1.08.26c4.15,11.92,12.92,23.11,25.25,27,9.19,2.73,19.54,2.51,29,.72a89.59,89.59,0,0,0,9.51-2.44,9,9,0,0,1,1.35-.28c.76,0-1.45-.14,2.25.05s6.81,5.49,6.22,7.13l-4.92-6.78a7.57,7.57,0,0,0-4.43-.23l.08,0,.21-.07.46-.14a48.24,48.24,0,0,0,6.78-2.88l-1.43,1c3.78-3.63,9-5.88,12.08-10.3a14.07,14.07,0,0,0,2-4.47,3.56,3.56,0,0,0,5.83,3.11,3.41,3.41,0,0,0,.52-.56l-6.31-1.48c-2.91-18.81-7-37.5-11.56-56-3.25-13.45-7.23-28.21-10.86-41.64-.93-3.37-2.71-9-2.8-12.62Z"/><path d="M126,167c9.84,37,15.86,73.5,16.75,109.09,0-.11-3,10.64-14.88,19.37a40.09,40.09,0,0,1-9.27,2.57,73.08,73.08,0,0,1-19.88.5c-10.73-1-23.06-5.43-29.37-10.93-14.92-11.48-16.84-29.3-16.72-29.17-.31.16,8.74-11.48,20.15-28.06,11.42-16.13,25.2-37.2,34.32-45.57C124.21,165,125.41,167.57,126,167Z"/><path class="cls-10" d="M126.53,165.27c2,4.1,3.41,10.25,4.43,14.76l1.55,6.75c6.65,29.37,11.8,59.13,13.76,89.21l-6.77-1.08c13.5,3.19,3.58,1.7,6.65,2.08v0l0,.06v0l0,.08,0,.13-.07.24c-.52,1.78-1.68,4.33-2.4,6.06-.88,2.1-1.72,4.27-2.67,6.46a26,26,0,0,1-9.35,12A48.41,48.41,0,0,1,120,305.39a7.6,7.6,0,0,0,5.09-3.6,7.33,7.33,0,0,0,1-3.75l-15,.62c-.27,1.7,2.24,6,5.44,6.58,3.53.54,1.77.15,2.29.27l.31,0a71.84,71.84,0,0,1-22.92-.23c-24.09-3.95-42.59-18.75-47.41-43.3a19.62,19.62,0,0,1-.44-3.82c1.94,1.72-5-2.74,7.25-2.69l-1.14,6.77c-11.15-3-4.12-4.87-5.91-5.12a3.4,3.4,0,0,1,.28-.67l.12-.22,0-.07c.24-.42.72-1,1-1.38,9-11.38,18-23.68,26.63-35.42,9.27-12.43,17.59-25.24,28.93-36.16l-.18.18c1.48-1.63,2.93-3.27,4.44-4.87a132.61,132.61,0,0,1,9.43-9.39c2.08-1.74,4.61-4,7.19-3.83Zm-1,3.44a1.5,1.5,0,0,0,1,0l-.14,0a5.09,5.09,0,0,0-2.19,1.12c-4.15,3.27-7.67,7.4-11.18,11.36-1.45,1.65-2.85,3.35-4.27,5a78.24,78.24,0,0,0-7.43,8.5c-14.82,19.73-27.61,41.36-42,61.44-.78,1.16-2.29,3.21-3,4.38l0-.06.12-.21c.11-.26-.11.32.26-.63-1.79-.24,5.23-2.12-5.9-5.09l-1.15,6.77c12.29.06,5.31-4.39,7.25-2.66a4.17,4.17,0,0,0,0-.5v.06l0,.22a39.57,39.57,0,0,0,14.27,23.64c12.09,9.37,31.29,11,46,8.49a9.52,9.52,0,0,1,1.06-.11c.54.12-1.2-.28,2.34.27,3.21.54,5.74,4.88,5.48,6.58l-15,.63a7.72,7.72,0,0,1,4.61-6.9,11.33,11.33,0,0,1,2.72-.66,38.09,38.09,0,0,0,6.62-1.95l-1.63.91c4.23-3.4,10-5.18,13.41-9.6a19.52,19.52,0,0,0,2.55-4.63c3.08.37-6.84-1.11,6.66,2.07l-6.77-1.08a355.62,355.62,0,0,0-3.52-54.83,391.69,391.69,0,0,0-7.88-40.58c-.79-3.16-2.53-8.7-2.36-12Z"/><path d="M498.6,17.64C488.52,56.81,477.27,95.13,471,128.87c0-.06,1.59,10.23,12.76,20a47.1,47.1,0,0,0,9.2,3.71c0-.16,9.15,3.12,19.94,3.31,10.8.49,23.24-2.1,30-7,15.72-10.09,20.4-28.75,20.28-28.49.22,0-6.48-12.19-16-29.45C537.72,74,525.41,52.07,516.59,41.45,500.44,17.53,499.17,18,498.6,17.64Z"/><path class="cls-10" d="M499.28,19.3c-.07,3.65-1.86,9.1-2.78,12.6-3.61,13.47-7.54,28.15-10.74,41.62-4.5,18.49-8.46,37.18-11.24,56l-6.3,1.52a3.66,3.66,0,0,0,.53.56,3.56,3.56,0,0,0,5.8-3.14,14.6,14.6,0,0,0,2,4.47c3.08,4.42,8.34,6.65,12.14,10.28l-1.44-1a47.37,47.37,0,0,0,6.78,2.84l.46.15.2.06.09,0h0a7.54,7.54,0,0,0-5.36.64l-4,6.33c-.56-1.64,2.56-6.94,6.17-7.08s1.52,0,2.26-.07a12.26,12.26,0,0,1,1.34.28,90.15,90.15,0,0,0,9.52,2.39c9.48,1.73,19.83,1.88,29-.9,12.29-3.92,21.06-15.14,25.14-27.07l.08-.25,0-.1h0v0l0,.18c3.59,1.09-8.08-2,8,2.54l-3.67-6.13c-6.69,2.44-3.73,5.92-4.38,4.71a3.84,3.84,0,0,0,.27,1.06s0,0,0,0l-.11-.24c-.52-1.07-1.61-3.27-2.18-4.36-6-11.59-12.41-24.06-18.57-35.51C531.09,68.47,524,54.9,514.87,42.89c-2.8-4.2-5.56-8.44-8.43-12.58-2.7-3.73-5.15-7.79-8.46-11l0,0h0l.13.05a1.51,1.51,0,0,0,1.2-.07ZM497.93,16a2.17,2.17,0,0,1,1.72.17c2.29,1.44,3.81,3.79,5.51,5.79,4.65,5.93,9,12.09,13.29,18.25A185.18,185.18,0,0,1,531.83,59c11.72,18.54,22.85,37.84,33.81,56.86.18.36.9,1.6,1.08,2a5.2,5.2,0,0,1,.72,2c-.64-1.19,2.32,2.3-4.38,4.76l-3.68-6.13c16.13,4.55,4.45,1.47,8,2.58-.06.35-.17.78-.26,1.13-4.32,15.09-14.43,29.46-29.14,35.88-14.8,6.15-31.22,6.18-46.41,1.87l-.24-.06h0a5.35,5.35,0,0,0,.8.14c.72-.05-1.46.14,2.22-.06s6.7-5.44,6.13-7.08l-4,6.33a7.75,7.75,0,0,1-5.84.51l-.39-.11-.73-.22a57.09,57.09,0,0,1-10-4.27,26.14,26.14,0,0,1-8.24-12.26c-1.36-4.18-2.58-8.19-3.6-12.42-.09-.37-.15-.83-.2-1.2a3.57,3.57,0,0,1,5.81-3.06,2.92,2.92,0,0,1,.53.55l-6.29,1.51C475,95.51,485.19,63.59,493.47,31.1c1.12-4.43,2.61-11,4.46-15.11Z"/><path d="M676.13,171.53c-10.07,39-20.68,77.14-26.25,111.12,0-.06,1.77,10.29,13,19.93a46.36,46.36,0,0,0,9.21,3.58c0-.15,9.16,3,20,3,10.8.3,23.24-2.53,29.94-7.55,15.64-10.29,20-28.85,19.86-28.61.24,0-6.76-12.09-16.56-29.28-9.72-16.8-22.23-38.66-31.09-49C678,171.19,676.7,171.9,676.13,171.53Z"/><path class="cls-10" d="M676.78,173.19c0,3.64-1.82,9.06-2.72,12.55-3.7,13.79-7.23,27.62-10.4,41.53a560.8,560.8,0,0,0-10.28,56l-6.46,1.37a3.81,3.81,0,0,0,.43.54c.32.09.67,1.31,3.44.95,2.82-1.14,2.49-2.89,2.62-3.1a3.28,3.28,0,0,0,0-.77v-.09s0,0,0,0l0,.1a14,14,0,0,0,2.06,4.41c3.14,4.41,8.46,6.6,12.31,10.22l-1.46-1a45.55,45.55,0,0,0,6.76,2.74l.46.14.21.05.08,0h0a7.43,7.43,0,0,0-4.87.47l-4.37,6.52c-.54-1.66,2.5-6.87,6.08-7.07s1.55,0,2.28-.08a8.41,8.41,0,0,1,1.31.25,86.81,86.81,0,0,0,9.51,2.22c9.51,1.57,19.82,1.52,29-1.39,12.21-4.06,20.92-15.27,24.8-27.26l.08-.25,0-.1h0v.05l0,.2c3.57,1.08-8-1.91,8,2.5l-3.36-6.19c-7.41,2.62-3.78,5.78-4.64,4.76a3.3,3.3,0,0,0,.28,1c-.59-1.2-1.74-3.37-2.38-4.57-6.2-11.49-12.82-23.89-19.11-35.27C709,221.55,701.85,208,692.53,196.12c-2.81-4.11-5.58-8.24-8.47-12.28-2.71-3.61-5.16-7.6-8.52-10.6l0,0s-.1,0,.14.06a1.52,1.52,0,0,0,1.13-.09Zm-1.3-3.33a2.85,2.85,0,0,1,2.54.72c3.61,3.17,6.34,7.15,9.29,10.88,3,3.94,5.88,7.92,8.76,11.92A184.1,184.1,0,0,1,709.66,212c11.9,18.43,23.24,37.6,34.56,56.39.18.39.94,1.57,1.12,2a5.19,5.19,0,0,1,.77,2.05c-.86-1,2.77,2.17-4.65,4.8L738.1,271c16.06,4.42,4.44,1.45,8,2.54-.05.37-.16.82-.25,1.19-4.07,15.15-14.09,29.55-28.69,36.14-14.66,6.35-31.07,6.73-46.3,2.65l-.25-.06s-.06,0,0,0l.28.05a3,3,0,0,0,.43.06c.71-.06-1.44.16,2.23-.09s6.59-5.4,6-7.05L675.25,313a8,8,0,0,1-5.73.25c-.51-.12-1.63-.5-2.13-.64a56.78,56.78,0,0,1-8.64-3.71c-6-4.49-8.54-11.9-10.51-18.83a62.46,62.46,0,0,1-1.87-6.91,3.31,3.31,0,0,1,0-.77c.13-.22-.2-2,2.62-3.12,2.77-.36,3.12.85,3.44.94a3.4,3.4,0,0,1,.43.53l-6.46,1.37c1.89-9.42,4.15-18.73,6.45-28C658.2,232.49,665.57,206.57,671,185c1.11-4.42,2.58-11,4.46-15.09Z"/></g></g></svg>