<svg xmlns="http://www.w3.org/2000/svg" viewBox="0 0 479.29 487.44"><defs><style>.cls-1{fill:#6a537c;}.cls-2{fill:#514b80;}.cls-3{fill:#987699;}.cls-4{fill:#d7d5e2;}</style></defs><g id="Calque_2" data-name="Calque 2"><g id="Forme"><path class="cls-1" d="M5.15,290.1c-3-1.08-5.52-2.56-5.1-6.28a6.76,6.76,0,0,1,6.71-6.13c4.16-.25,4.9-2.6,5.19-5.74.43-4.71,1.72-9,5.31-12.35,4.83-1.89,6.29-6.63,8.53-10.54,7.58-13.24,12-28.11,20.46-40.86,5.31-8,11.51-15.14,22.2-16.71,8.28-1.22,12.13-7.2,11.57-15.71,1-8.67-3.36-15.61-7.41-22.65-1.37-2.38-3.37-4.63-2.1-8.47,4.69,2.79,7.3,6.94,9.67,11.36,2.83,5.25,6.14,10.1,11.75,12.82l6.15,5.91c7.21,6.51,16.15,4.36,24.55,4.9,5.74,1.81,11.49,2.3,15.2-3.42s8.57-10,13.47-14.41c2.49-2.26,4-4.9,2.32-8.73-4.74-10.62.07-18.51,8.67-25.36,9.67-7.69,20.69-7.88,31.94-4.46a17.27,17.27,0,0,1,9.12,5.79c7.94,10.47,11.31,11.65,23.44,8.27,10.86-3,23.67,5.27,21.93,16.58-.37,2.45-.4,5-.61,7.75,3.59-1.15,4.07-4.49,6.31-6.15,2.81-2.07,5.86-3.72,9.15-2.06s3.35,4.88,2.67,8.21c-.76,3.7,1.53,5.39,5.37,3.51,7.64-3.74,15.76-5.88,23.85-8.26,13.87-4.08,26.66-3.85,35.93,11.12,1.84,3,4.41,5.52,8.28,5.68,4.3.18,8.47,1.33,12.84,1.15a10.06,10.06,0,0,1,9.25,5c5.33,9.36,12.16,17.65,18.11,26.57.63.94,1.34,2.07,2.71,1.84s1.74-1.44,1.75-2.66c.05-4.43,2.35-7.33,6.19-9.22,8-1.68,12.61,1.87,13.32,10.2-1.91,3,1,5.38,1.14,8.13-1,1-.36,1.58.52,2.1a6.09,6.09,0,0,1,.36,3.95l-1.5,6.7c-.36.32-.72.92-1.1.94-4.66.21-4.54,1.78-1.85,5,2.31,2.76,4,6,5.88,9.16,6.46,10.72,5.2,23,6.86,34.71.54,3.81,1.43,8.25-.78,11.74-4,6.28-4.12,13-4.18,20.08-.05,6.37-2.45,12-6.21,17.42-3.37,4.82-9,6.67-12.38,11.31a49.23,49.23,0,0,1-17.74,14.69c-2.9,1.5-6.36,1.49-9.15,3.6-11.53,8.69-25.9,10.22-38.89,15.25-5.51,2.14-11.54,2.63-16.71,5.81-12.33,7.58-24.87,8.66-37-.26-10.62-7.83-23.37-9.14-35.54-11.19-7.59-1.28-15-2.53-21.86-5.78-3.54-1.68-5.29-1.1-7.56,1.39-4.73,5.19-10.51,8.55-17.68,8.8-14.45.48-28.13-4.15-42-7.07-4.19-.87-7.77-1.88-11.66.14,3.45-7.08,10-6.28,16-5.78,13.06,1.1,26,3,39.22,2,3.53-.27,6.47-.95,8.85-3.65s4.9-3.32,8.43-2.67c2.32.42,4.8,2.26,7.2.69,5.14-3.36,9-7.7,9.26-14.24.37-8.6,0-17.18.75-25.83,1-12,1.4-24.25-5.72-35-3.83-5.79-7.87-11.44-12-17-9.27-12.63-19.81-23.5-36.45-25.74-9.3-1.25-18.52-3.79-28-1.24a118.56,118.56,0,0,0-25.19,10.43c-4.32,2.31-8.25,5.52-12.76,7.26a34.09,34.09,0,0,0-18.73,16.55,61.52,61.52,0,0,1-10.4,14.94c-3.31,3.47-7.1,6.45-9.74,10.61-4.82,7.62-5,16.72-8.25,24.83-1,2.43.41,5,1.66,7.53,1.53,3.06,3.83,6.45.78,10-1.87-4.3-5.35-7.11-9.13-9.5a65.74,65.74,0,0,1-24.29-26.78c-3.42-6.83-8.83-11.1-17.16-9.77l-1.93-.18A1.91,1.91,0,0,0,5.15,290.1Zm368.37,52.21c-.2,0,.46-.05,1.11-.15,9-1.3,14.17-8.53,20.81-13.48a1.82,1.82,0,0,0,.58-2.23,2.05,2.05,0,0,0-2.55-1c-9.15,1.72-17,5.87-23,13C368.58,340.75,369.32,342.58,373.52,342.31Zm25.85-122.26c-.12-2.81-.65-5.11-3-5.73-3.23-.84-6.68-1.85-9.95-.81-1.66.52-1.12,2.54,0,3.75,1.8,1.9,3.69,3.71,5.55,5.55,1.18,1.17,2.4,2.54,4.23,1.26C397.77,223,399.8,222.06,399.37,220.05Zm-72.2,143.62c-.63-2-2.3-2.11-3.93-2.32-6.42-.85-9.39,4.69-13.84,7.5-.78.49-2,1-1.25,2.24s1.87,1,3,.42a50.64,50.64,0,0,1,12.07-4.3C325.1,366.79,326.23,365.31,327.17,363.67Zm-69-7.43c-2.35,1.06-5.28,1.76-5.31,4.68-.07,5.54,5.07,2.63,7.61,4,1.77,1,3.27-.66,3.07-2.64C263.23,359.17,260.69,357.75,258.17,356.24Z"/><path class="cls-2" d="M134.83,363.23c3.89-2,7.47-1,11.66-.14,13.88,2.92,27.56,7.55,42,7.07,7.17-.25,12.95-3.61,17.68-8.8,2.27-2.49,4-3.07,7.56-1.39,6.82,3.25,14.27,4.5,21.86,5.78,12.17,2.05,24.92,3.36,35.54,11.19,12.1,8.92,24.64,7.84,37,.26,5.17-3.18,11.2-3.67,16.71-5.81,13-5,27.36-6.56,38.89-15.25,2.79-2.11,6.25-2.1,9.15-3.6a49.23,49.23,0,0,0,17.74-14.69c3.35-4.64,9-6.49,12.38-11.31,3.76-5.39,6.16-11.05,6.21-17.42.06-7.05.19-13.8,4.18-20.08,2.21-3.49,1.32-7.93.78-11.74-1.66-11.68-.4-24-6.86-34.71-1.87-3.11-3.57-6.4-5.88-9.16-2.69-3.22-2.81-4.79,1.85-5,.38,0,.74-.62,1.1-.94,1.68,0,3.49.92,4.93-.71l9-2.27,5-1c8,1.41,15.93,2.69,24.06,2.41a3.13,3.13,0,0,1,2.22.78c5.9,7.26,14.6,11.07,21.28,17.43,6,5.65,9.41,11.71,8.21,20.12a57,57,0,0,0-.07,13.38c.49,5.15.52,10.24-2.72,14.81-1.68,2.39-1.51,5.46-1.67,8.2-.38,6.34-3,11-8.58,14.13-1.55.86-2.76,2.34-4.13,3.54-3.9,1.73-7,4.95-11.22,6.13a31.52,31.52,0,0,0-13.42,8c-3.44-8.2-7.69-10.67-13.79-7.88-2.86,1.31-5.12,3.55-4.89,6.82s2,5.67,5.67,6.61c4,1,7.46-.49,11.08-1.51q1.71,5,3.44,10c.77,5.7-.62,11.31-.71,17-1.2,1.43-1.12,2.74.39,3.91,2.1,12.3,2.1,23.82-10.32,31.47-2.15,1.33-3.6,3.85-5.25,5.92-7,8.75-14.74,16.55-24.85,21.72-5.29,2.7-10.95,4.68-15.69,8.44-5.55,4.39-11.7,7.48-18.91,8,4.75-9.51,2.94-14.87-6-17.76-4.94-1.59-10.88,1.66-13.43,7.34-1.74,3.87.45,8.3,5,11.09,3.08,1.86,6.33,1.63,9.62,1.71,0,1,0,2,0,3a22,22,0,0,1-.79,7.7,3.76,3.76,0,0,0-.4.9c-3.55,20-19.84,25.52-35.81,29.71-12.39,3.25-24.19-2.3-33.18-10.85-7-6.69-6.69-16.36-5-25.57a23.81,23.81,0,0,0,8.27,1.08c5.39-.2,8.61-2.77,8.81-7.23.28-5.94-3.17-10.19-8.5-10.77a17.24,17.24,0,0,0-9.42,2c-4.11-2.34-9.19-3.39-12.25-7.07-5.05-6.05-11.74-9.95-17.62-14.89-3.31-.94-6.58-2.06-9.93-2.78-3.57-.76-5.82,1.72-8,3.93-4.34,4.35-8.89,8.34-15,9.95a38.85,38.85,0,0,0-16.73-.27c-.77-3.74-2.71-4.69-6.32-3.17a102.16,102.16,0,0,0-17.85,9.36c-8.19,4.23-16.43,7.6-26.09,5.37-4.63-1.06-7.83-4.19-11.67-6.35-2.65-1.5-4.46-1.84-6.11,1-2,1.37-4,2.78-6,4.09-3.85,2.46-8.47,3.6-11.85,6.88l-2.1,1-1.51.68c-4,1.06-7.18,4.31-11.49,4.73-7.4-.25-15.48-8-17.9-17.67-2.28-9.13,1.9-16.84,6.08-24.47,2.29-1.29,3.55-3.9,6.14-4.79,2.25-1,4.47-2,6.76-2.87,3.48-1.31,3.83-2.93,1.29-5.79-4.65-5.27-11.31-7.9-16.19-12.83l0,0a5.75,5.75,0,0,0-2-3.1l-.1-5.73,4.81-4.24,3.12,1c2,3.5,5.81,5.17,8.52,8,4.55,4.8,16,3.55,20.43-1.87a7,7,0,0,1,.91-.06,18.9,18.9,0,0,0,10-9.94C134.24,363.27,134.54,363.25,134.83,363.23Zm212.62,26.32c0,10.86,2.82,13.78,13,13.66A48.19,48.19,0,0,1,374.09,405c4.51,1.26,9.23,2.19,13.7.82,6.48-2,12.68-2.15,18.84.67,3.07,1.4,4.56.27,6.39-2.42,7.19-10.55,2-28.73-8.49-35.73-5.86-3.93-12.38-6-18.81-8.55-7.52-3-13.55-.57-19.49,3.37a104.55,104.55,0,0,0-8.61,6.66C351.22,375.12,346.78,381.42,347.45,389.55Zm-130.31,4.73a13.06,13.06,0,0,0,8.13-1.87,11.93,11.93,0,0,0,6.38-10c.21-4.32-1.69-7.64-6.05-9.2-3.26-1.16-6.38-2.76-9.7-3.63-4.42-1.16-8.14.3-10.79,4.17-3.16,4.61-2.92,9.35-.48,14.09C207.26,392.93,212,394,217.14,394.28Zm104.38,73.85a6,6,0,0,0,6,5.9c4.07,0,8-3.3,7.92-6.62-.11-3.07-3.79-6.34-7.07-6.29A7.41,7.41,0,0,0,321.52,468.13Zm-59.85-66.78c.07,3.45,1.78,5,5.35,4.89,3.81-.14,7.88-3.48,7.41-6.57-.52-3.39-2.42-5.64-6.39-5.44S261.57,397,261.67,401.35Zm-110.48,1.89c3.36.15,6.77-.06,6.61-4.54-.12-3.52-1.63-6.46-6-6.43-3.83,0-8.17,3.34-7.67,6.35C144.78,402.31,147.62,403.56,151.19,403.24Z"/><path class="cls-2" d="M390.52,196.41c-3.84,1.89-6.14,4.79-6.19,9.22,0,1.22-.35,2.41-1.75,2.66s-2.08-.9-2.71-1.84c-5.95-8.92-12.78-17.21-18.11-26.57a10.06,10.06,0,0,0-9.25-5c-4.37.18-8.54-1-12.84-1.15-3.87-.16-6.44-2.71-8.28-5.68-9.27-15-22.06-15.2-35.93-11.12-8.09,2.38-16.21,4.52-23.85,8.26-3.84,1.88-6.13.19-5.37-3.51.68-3.33.58-6.57-2.67-8.21s-6.34,0-9.15,2.06c-2.24,1.66-2.72,5-6.31,6.15.21-2.8.24-5.3.61-7.75,1.74-11.31-11.07-19.59-21.93-16.58-12.13,3.38-15.5,2.2-23.44-8.27a17.27,17.27,0,0,0-9.12-5.79C183,119.85,172,120,162.29,127.73c-8.6,6.85-13.41,14.74-8.67,25.36,1.72,3.83.17,6.47-2.32,8.73-4.9,4.44-9.79,8.74-13.47,14.41s-9.46,5.23-15.2,3.42c-.08-3.66-2.74-5.71-5-8a18.66,18.66,0,0,1-5.07-7.74c-.17-2.3,1.11-4.08,2.21-5.88,2.56-4.18,5.41-8.2,7.81-12.48,1.84-3.26,3.48-6.78,1.32-10.64l-.48-1.93a2,2,0,0,0-.45-2.08l.12-8.83c3.06-3.83,1.87-9,4.11-13.08,1.17,0,1.67.88,2.22,1.73,4.75,7.29,11.77,9.15,19.88,8.17,4.11-.5,7.07-2.28,7.71-7a14.75,14.75,0,0,1,3.22-8.11c2.7-3.15,2.07-6.34-1.42-8.92a19.84,19.84,0,0,0-8.52-3.82c-2.16-.36-3.31-1.29-3.49-3.44a1.38,1.38,0,0,1,1.62-.79L150,86l12.49-6.42c6.43-.83,12.88-1.59,19.29-2.53,3.83-.57,6.29-2.59,6.43-6.84.09-2.64.87-5.3.66-7.9-.79-9.77,2-18.62,6.39-27.12a72,72,0,0,0,6.59-19.67C203.38,7.35,210-.71,218.36.05c6.57.6,10.3,6,7.6,12.12-1.73,3.93-5,6.53-7.94,9.46-2.57,2.58-5.41,4.94-7.7,7.76-7.34,9-5.37,20.27,3.7,27.47,8.1,6.43,17.21,10.59,26.63,14.38,2.55,1.87,4,5.52,7.59,5.64,7,.22,14.09.5,21-1.64,10.86-3.39,13.26-9.79,7.14-19.39-2.23-4.54-6.58-7.37-9.28-11.53-3.16-4.88-3-9.3.5-12.65,4.4-4.25,9.83-4.92,14.25-1.3,4.11,3.36,4.14,8,3.08,12.78-.9,4-2.7,7.91-.58,12,2.37,7,6,9.41,11.9,6.46,6.47-3.24,11-.78,15.55,3.25,4,3.55,5.13,8.34,5.76,13.32.29,2.3,0,5,1.55,6.67,5.8,6.21,12.62,11.57,21.09,12.79,6.72,1,11.69,3.11,15.51,8.8,2.35,3.51,5.86,6.13,10.73,4.36,7.47-1.6,8.93-7.92,9.89-13.82,1.13-7,3.52-13.74,4.34-20.58,1.27-10.65,7.63-19,10.79-28.62A17.08,17.08,0,0,1,394,43c1.67-2.21,3.86-4,6.8-2.54s5.27,3.58,4.6,7.38a29,29,0,0,1-5.56,12.65c-5.87,7.66-7.95,16.66-9.28,25.9a29.6,29.6,0,0,1-3.8,10.16c-5.2,9.47-10.2,19-10.14,30.3a84,84,0,0,0,.68,14.25c.88,5.88,3,10.64,9,12.82a26.69,26.69,0,0,0,14.4,7.35c6.12,1.07,7.29,10.61,2.31,16-1.78,1.92-3.82,3.6-5.74,5.39A19.51,19.51,0,0,0,390.52,196.41Z"/><path class="cls-2" d="M366.41,110.83c-4.87,1.77-8.38-.85-10.73-4.36-3.82-5.69-8.79-7.84-15.51-8.8-8.47-1.22-15.29-6.58-21.09-12.79-1.55-1.66-1.26-4.37-1.55-6.67-.63-5-1.73-9.77-5.76-13.32-4.58-4-9.08-6.49-15.55-3.25-5.9,3-9.53.55-11.9-6.46,3.7-2.46,7.57-.42,11.07.17,14.64,2.46,26.66,10.49,37.66,19.86,11.44,9.76,21.3,21.18,31.43,32.27C365.38,108.46,366.41,109.34,366.41,110.83Z"/><path class="cls-2" d="M357.83,455.89a22,22,0,0,0,.79-7.7c1.65-.1,3.68.39,4.9-.39,7.5-4.84,16.89-6.33,23.28-13.08a6.78,6.78,0,0,1,4.67-2.53c5-.22,9.13-2.79,13.32-5,11.63-6.22,19.24-16.4,26.08-27.24,1.33-2.1,2.58-3.88,5.35-3.69-1.14,4.28-2.15,8.59-3.43,12.82-3.41,11.2-11.61,18.38-20.51,25.32-7.38,5.77-15,10.59-24.09,13-2,.52-4.18,1.46-5.79.5-6.6-3.95-10.63,1.05-14.77,4.31C364.57,454.6,361.62,456,357.83,455.89Z"/><path class="cls-3" d="M252.77,413.22c5.88,4.94,12.57,8.84,17.62,14.89,3.06,3.68,8.14,4.73,12.25,7.07-2.65.17-1.92,2.9-3.15,4.14-6.31,8.82-11.24,10.33-24.73,7.9a7,7,0,0,1-4.55-2.71c-8-10.5-12.54-17.77.94-29.45A17.91,17.91,0,0,0,252.77,413.22Z"/><path class="cls-2" d="M102,447.6c4.31-.42,7.45-3.67,11.49-4.73l1.51-.68,2.1-1a7,7,0,0,0,4.73-1c3.21-2.32,6.5-2.83,10.55-2.26,3.6.5,7.44-.72,12.29-1.33L135,430.24c1.65-2.82,3.46-2.48,6.11-1,3.84,2.16,7,5.29,11.67,6.35,9.66,2.23,17.9-1.14,26.09-5.37a2.65,2.65,0,0,0,2.66.89c7.58-1.11,15.05-2.57,21.51-7.08a38.85,38.85,0,0,1,16.73.27,2.45,2.45,0,0,1-1.74,2.2c-12.3,4.26-23.84,10.55-36.89,12.9-11.17,2-21.88,2-32.35-2.74a5,5,0,0,0-1.64,0c.85,2.87,2.76,4.7,4.3,6.77.66.87,1.64,2.05.82,3.13s-2.17.68-3.28.41a10.55,10.55,0,0,1-3.73-1.31c-6.82-4.93-14.31-3.52-21.8-2.58a9.37,9.37,0,0,0-6,3.15c-2.82,3.15-6.34,5.27-10,7.27-4.61,2.53-5.28,2.23-5.41-2.91C102,449.59,102,448.6,102,447.6Z"/><path class="cls-1" d="M146.81,87.61c.18,2.15,1.33,3.08,3.49,3.44a19.84,19.84,0,0,1,8.52,3.82c3.49,2.58,4.12,5.77,1.42,8.92A14.75,14.75,0,0,0,157,111.9c-.64,4.68-3.6,6.46-7.71,7-8.11,1-15.13-.88-19.88-8.17-.55-.85-1.05-1.7-2.22-1.73-.09-1.35.73-2.76-.33-4,.09-.93.18-1.86.26-2.79a18.67,18.67,0,0,0,3.83-6.2c.66-.69,1.31-1.39,2-2.09l1-.92L135,92Z"/><path class="cls-2" d="M276.35,55.85c6.12,9.6,3.72,16-7.14,19.39-6.88,2.14-13.94,1.86-21,1.64-3.56-.12-5-3.77-7.59-5.64,0-2.11,1.79-2.56,3.22-3.31,8.55-4.48,16.89-9.45,26.82-10.47A33.27,33.27,0,0,0,276.35,55.85Z"/><path class="cls-2" d="M436.22,396.22c-2.77-.19-4,1.59-5.35,3.69-6.84,10.84-14.45,21-26.08,27.24-4.19,2.25-8.33,4.82-13.32,5a6.78,6.78,0,0,0-4.67,2.53c-6.39,6.75-15.78,8.24-23.28,13.08-1.22.78-3.25.29-4.9.39,0-1,0-2,0-3l4.77-2.38c7.21-.48,13.36-3.57,18.91-8,4.74-3.76,10.4-5.74,15.69-8.44,10.11-5.17,17.88-13,24.85-21.72,1.65-2.07,3.1-4.59,5.25-5.92,12.42-7.65,12.42-19.17,10.32-31.47,1.06-1.42,1.4-2.77-.39-3.91.09-5.67,1.48-11.28.71-17,1-.95,1.85-2.08,3.38-2.17a225.11,225.11,0,0,1-.87,38.24C440.69,387.52,437.5,391.5,436.22,396.22Z"/><path class="cls-2" d="M80,175.78c.56,8.51-3.29,14.49-11.57,15.71-10.69,1.57-16.89,8.7-22.2,16.71C37.79,221,33.37,235.82,25.79,249.06c-2.24,3.91-3.7,8.65-8.53,10.54,1.8-6.4,5.93-11.6,9-17.34a26.23,26.23,0,0,0,3.16-9.21c1.16-9,6.24-16.42,10.89-24,8.52-13.91,22.44-20.83,35.92-28.32C78.4,179.5,78.73,177.39,80,175.78Z"/><path class="cls-2" d="M410,136c-6.43,0-10.32-4.35-10.2-11.43.1-5.77,4.6-9.7,11.05-9.64s11.82,4.79,11.89,10.4C422.83,131.12,417,136,410,136Z"/><path class="cls-2" d="M86.11,370.37c0,1.91.06,3.82.1,5.73-.15,1.56-.23,3.08,2,3.1l0,0c.68,7.94,3.81,14.94,8.14,21.49-2.59.89-3.85,3.5-6.14,4.79-6.09-6.15-5.81-14.76-8.59-22.18-3.72-9.89-4.49-20.82-10.48-29.91C78.42,357,82.82,363.2,86.11,370.37Z"/><path class="cls-1" d="M279.49,439.32c1.23-1.24.5-4,3.15-4.14a17.24,17.24,0,0,1,9.42-2c5.33.58,8.78,4.83,8.5,10.77-.2,4.46-3.42,7-8.81,7.23a23.81,23.81,0,0,1-8.27-1.08C281.12,446.88,279.14,443.53,279.49,439.32Z"/><path class="cls-2" d="M390.52,196.41a19.51,19.51,0,0,1,6.76-13.78c1.89,6.9,7.65,11.35,11,17.36,4.52,8.11,11.09,15,15,23.5l-5,1c-4.19-6.48-8.31-13-14.47-17.9C403.13,198.28,398.48,194.73,390.52,196.41Z"/><path class="cls-3" d="M442.13,344.25c-1.53.09-2.4,1.22-3.38,2.17q-1.72-5-3.44-10c.64-1.35,1.29-2.7,1.93-4a31.52,31.52,0,0,1,13.42-8c4.25-1.18,7.32-4.4,11.22-6.13a15.64,15.64,0,0,1-5.25,11.24C451.69,334.32,448.63,341,442.13,344.25Z"/><path class="cls-2" d="M9.18,290.81c8.33-1.33,13.74,2.94,17.16,9.77a65.74,65.74,0,0,0,24.29,26.78c3.78,2.39,7.26,5.2,9.13,9.5.31.75.62,1.51.92,2.26a23.39,23.39,0,0,0,2.44,10.26c-2.74-.44-3.38-3-3.58-4.82C58.6,335.75,52.14,331,46,326.48c-10.06-7.34-18.43-15.76-23.5-27.32a10.87,10.87,0,0,0-9.65-6.71C11.43,292.36,9.74,292.85,9.18,290.81Z"/><path class="cls-2" d="M240.28,34.87c4.15.26,7.32,1.61,7.11,5.78-.22,4.41-3.75,5.43-7.55,5.39s-6.15-1.8-6-5.69C233.92,36,237.14,35.12,240.28,34.87Z"/><path class="cls-2" d="M386.31,153.93c-6-2.18-8.14-6.94-9-12.82a84,84,0,0,1-.68-14.25c1.14.15,1.61.87,1.89,1.94C380.75,137.29,386.27,144.76,386.31,153.93Z"/><path class="cls-2" d="M112.57,163.88a18.66,18.66,0,0,0,5.07,7.74l-19.56,3.13-6.15-5.91c5.36-.74,11.07,2.7,16.18-1.53,1.27-1.05,2.93-1.56,2.94-3.57Z"/><path class="cls-2" d="M86.11,370.37c-3.29-7.17-7.69-13.37-15-17-2.51-.58-6.17,1.56-7-3,1.69.31,3.21,1.43,5,1,2.78.49,5.92-.85,8.21,2.09a36.47,36.47,0,0,0,10.93,9c1.45.83,3,1.48,2.62,3.61Z"/><path class="cls-2" d="M146.81,87.61,135,92a2.31,2.31,0,0,1,1.3-2.47c6.07-2,10.9-6.72,17.36-7.93a8.14,8.14,0,0,0,4.76-2.43c1.42-1.58,2.85-1.35,4,.38L150,86l-1.53.87A1.38,1.38,0,0,0,146.81,87.61Z"/><path class="cls-2" d="M112.57,163.88l-1.52-.14c-1.78-1.83.14-3,.89-4.2,3.07-5,5.22-10.55,9.22-15,2.55-2.8,1-6.7,2.75-9.7,2.16,3.86.52,7.38-1.32,10.64-2.4,4.28-5.25,8.3-7.81,12.48C113.68,159.8,112.4,161.58,112.57,163.88Z"/><path class="cls-2" d="M421.29,195.48a3.81,3.81,0,0,1,2.15-4.1c2.06-.92,2.15,1.47,3.14,2.32a4.51,4.51,0,0,1,1.2,2.13c.49,1.82,3.23,3,1.93,5.18-.71,1.21-2.45.88-3.66.44-2.35-.86-4.64-1.93-4.76-5C421.28,196.14,421.29,195.81,421.29,195.48Z"/><path class="cls-2" d="M43.19,123.21c-.24,1.08.63,2.73-1.16,3.25-1.23.37-5.68-5-5.82-6.76a2.91,2.91,0,0,1,2.71-3.44C41,116,43.15,119.53,43.19,123.21Z"/><path class="cls-1" d="M69.16,351.42c-1.83.41-3.35-.71-5-1l-1-1a23.24,23.24,0,0,1-2.43-10.26C66,341.49,67.13,346.78,69.16,351.42Z"/><path class="cls-2" d="M126.88,104.93c1.06,1.27.24,2.68.33,4-2.24,4.08-1,9.25-4.11,13.08.22-4.36,1.27-8.64,1-13.07C124,107.24,124.64,105.37,126.88,104.93Z"/><path class="cls-2" d="M131,95.94a18.67,18.67,0,0,1-3.83,6.2C127.09,99.26,127.53,96.68,131,95.94Z"/><path class="cls-4" d="M133.9,92.93l-1,.92Z"/><path class="cls-3" d="M69.16,351.42c-2-4.64-3.12-9.93-8.47-12.3l-.93-2.26c3.05-3.57.75-7-.78-10-1.25-2.49-2.64-5.1-1.66-7.53,3.28-8.11,3.43-17.21,8.25-24.83,2.64-4.16,6.43-7.14,9.74-10.61a61.52,61.52,0,0,0,10.4-14.94,34.09,34.09,0,0,1,18.73-16.55c4.51-1.74,8.44-4.95,12.76-7.26a118.56,118.56,0,0,1,25.19-10.43c9.47-2.55,18.69,0,28,1.24,16.64,2.24,27.18,13.11,36.45,25.74,4.1,5.6,8.14,11.25,12,17,7.12,10.76,6.77,23,5.72,35-.76,8.65-.38,17.23-.75,25.83-.29,6.54-4.12,10.88-9.26,14.24-2.4,1.57-4.88-.27-7.2-.69-3.53-.65-6.19.11-8.43,2.67s-5.32,3.38-8.85,3.65c-13.18,1-26.16-.87-39.22-2-5.95-.5-12.53-1.3-16,5.78-.29,0-.59,0-.88.08a21.26,21.26,0,0,0-10,9.94,7,7,0,0,0-.91.06c-9.46,3.5-18.08,2.87-25.37-4.93-.84-.91-1.71-2.86-3.58-1.22l-3.12-1c.4-2.13-1.17-2.78-2.62-3.61a36.47,36.47,0,0,1-10.93-9C75.08,350.57,71.94,351.91,69.16,351.42Z"/><path class="cls-1" d="M373.52,342.31c-4.2.27-4.94-1.56-3.07-3.79,6-7.18,13.87-11.33,23-13a2.05,2.05,0,0,1,2.55,1,1.82,1.82,0,0,1-.58,2.23c-6.64,4.95-11.82,12.18-20.81,13.48C374,342.26,373.32,342.34,373.52,342.31Z"/><path class="cls-2" d="M98.08,174.75l19.56-3.13c2.25,2.32,4.91,4.37,5,8C114.23,179.11,105.29,181.26,98.08,174.75Z"/><path class="cls-2" d="M403.84,206.61c6.16,4.89,10.28,11.42,14.47,17.9l-9,2.27a19.85,19.85,0,0,0-3.43-6,6.09,6.09,0,0,0-.36-3.95c.64-.9.36-1.57-.52-2.1C404.88,212,401.93,209.64,403.84,206.61Z"/><path class="cls-1" d="M399.37,220.05c.43,2-1.6,2.92-3.16,4-1.83,1.28-3-.09-4.23-1.26-1.86-1.84-3.75-3.65-5.55-5.55-1.14-1.21-1.68-3.23,0-3.75,3.27-1,6.72,0,9.95.81C398.72,214.94,399.25,217.24,399.37,220.05Z"/><path class="cls-1" d="M327.17,363.67c-.94,1.64-2.07,3.12-4,3.54a50.64,50.64,0,0,0-12.07,4.3c-1.12.57-2.24.93-3-.42s.47-1.75,1.25-2.24c4.45-2.81,7.42-8.35,13.84-7.5C324.87,361.56,326.54,361.71,327.17,363.67Z"/><path class="cls-1" d="M258.17,356.24c2.52,1.51,5.06,2.93,5.37,6.08.2,2-1.3,3.62-3.07,2.64-2.54-1.41-7.68,1.5-7.61-4C252.89,358,255.82,357.3,258.17,356.24Z"/><path class="cls-3" d="M405.86,220.79a19.85,19.85,0,0,1,3.43,6c-1.44,1.63-3.25.7-4.93.71Z"/><path class="cls-3" d="M405,214.74c.88.53,1.16,1.2.52,2.1C404.62,216.32,404,215.72,405,214.74Z"/><path class="cls-1" d="M347.45,389.55c-.67-8.13,3.77-14.43,10.17-19.73a104.55,104.55,0,0,1,8.61-6.66c5.94-3.94,12-6.37,19.49-3.37,6.43,2.56,12.95,4.62,18.81,8.55,10.44,7,15.68,25.18,8.49,35.73-1.83,2.69-3.32,3.82-6.39,2.42-6.16-2.82-12.36-2.66-18.84-.67-4.47,1.37-9.19.44-13.7-.82a48.19,48.19,0,0,0-13.68-1.79C350.27,403.33,347.45,400.41,347.45,389.55Z"/><path class="cls-1" d="M217.14,394.28c-5.11-.26-9.88-1.35-12.51-6.42-2.44-4.74-2.68-9.48.48-14.09,2.65-3.87,6.37-5.33,10.79-4.17,3.32.87,6.44,2.47,9.7,3.63,4.36,1.56,6.26,4.88,6.05,9.2a11.93,11.93,0,0,1-6.38,10A13.06,13.06,0,0,1,217.14,394.28Z"/><path class="cls-1" d="M363.41,442.82l-4.77,2.38c-3.29-.08-6.54.15-9.62-1.71-4.6-2.79-6.79-7.22-5-11.09,2.55-5.68,8.49-8.93,13.43-7.34C366.35,428,368.16,433.31,363.41,442.82Z"/><path class="cls-1" d="M437.24,332.41c-.64,1.34-1.29,2.69-1.93,4-3.62,1-7.06,2.55-11.08,1.51-3.65-.94-5.44-3.33-5.67-6.61s2-5.51,4.89-6.82C429.55,321.74,433.8,324.21,437.24,332.41Z"/><path class="cls-2" d="M96.33,400.67c-4.33-6.55-7.46-13.55-8.14-21.49,4.88,4.93,11.54,7.56,16.19,12.83,2.54,2.86,2.19,4.48-1.29,5.79C100.8,398.66,98.58,399.7,96.33,400.67Z"/><path class="cls-1" d="M321.52,468.13a7.41,7.41,0,0,1,6.87-7c3.28-.05,7,3.22,7.07,6.29.13,3.32-3.85,6.65-7.92,6.62A6,6,0,0,1,321.52,468.13Z"/><path class="cls-1" d="M261.67,401.35c-.1-4.31,2.37-6.91,6.37-7.12s5.87,2,6.39,5.44c.47,3.09-3.6,6.43-7.41,6.57C263.45,406.36,261.74,404.8,261.67,401.35Z"/><path class="cls-1" d="M151.19,403.24c-3.57.32-6.41-.93-7-4.62-.5-3,3.84-6.32,7.67-6.35,4.34,0,5.85,2.91,6,6.43C158,403.18,154.55,403.39,151.19,403.24Z"/><path class="cls-2" d="M203,424.05c-6.46,4.51-13.93,6-21.51,7.08a2.65,2.65,0,0,1-2.66-.89,102.16,102.16,0,0,1,17.85-9.36C200.33,419.36,202.27,420.31,203,424.05Z"/><path class="cls-2" d="M135,430.24l9.68,6.37c-4.85.61-8.69,1.83-12.29,1.33-4-.57-7.34-.06-10.55,2.26a7,7,0,0,1-4.73,1c3.38-3.28,8-4.42,11.85-6.88C131,433,133,431.61,135,430.24Z"/><path class="cls-1" d="M94,367.16c1.87-1.64,2.74.31,3.58,1.22,7.29,7.8,15.91,8.43,25.37,4.93-4.48,5.42-15.88,6.67-20.43,1.87C99.85,372.33,96.08,370.66,94,367.16Z"/><path class="cls-1" d="M123.9,373.25a21.26,21.26,0,0,1,10-9.94A18.9,18.9,0,0,1,123.9,373.25Z"/><path class="cls-3" d="M438,363.4c1.79,1.14,1.45,2.49.39,3.91C436.92,366.14,436.84,364.83,438,363.4Z"/><path class="cls-4" d="M115,442.19l-1.51.68Z"/><path class="cls-1" d="M148.43,86.82,150,86Z"/></g></g></svg>