<svg xmlns="http://www.w3.org/2000/svg" xmlns:xlink="http://www.w3.org/1999/xlink" viewBox="0 0 2784.32 2791.38"><defs><style>.cls-1{fill:url(#linear-gradient);}.cls-2{opacity:0.3;}.cls-3{fill:url(#linear-gradient-2);}.cls-4{fill:url(#linear-gradient-3);}.cls-5{fill:url(#linear-gradient-4);}.cls-6{fill:url(#linear-gradient-5);}.cls-7{fill:url(#linear-gradient-6);}.cls-8{fill:url(#linear-gradient-7);}.cls-9{fill:url(#linear-gradient-8);}.cls-10{fill:url(#linear-gradient-9);}.cls-11{fill:url(#linear-gradient-10);}.cls-12{fill:url(#linear-gradient-11);}.cls-13{fill:url(#linear-gradient-12);}.cls-14{fill:url(#linear-gradient-13);}.cls-15{fill:url(#linear-gradient-14);}.cls-16{fill:url(#linear-gradient-15);}.cls-17{fill:url(#linear-gradient-16);}.cls-18{fill:url(#linear-gradient-17);}.cls-19{fill:#91b3fa;}.cls-20{fill:url(#linear-gradient-18);}.cls-21{fill:url(#linear-gradient-19);}.cls-22{fill:url(#linear-gradient-20);}.cls-23{fill:url(#linear-gradient-21);}.cls-24{fill:url(#linear-gradient-22);}.cls-25{fill:url(#linear-gradient-23);}.cls-26{fill:url(#linear-gradient-24);}.cls-27{fill:url(#linear-gradient-25);}.cls-28{fill:url(#linear-gradient-26);}.cls-29{fill:url(#linear-gradient-27);}.cls-30{fill:url(#linear-gradient-28);}.cls-31{fill:url(#linear-gradient-29);}.cls-32{fill:url(#linear-gradient-30);}.cls-33{fill:url(#linear-gradient-31);}.cls-34{fill:url(#linear-gradient-32);}.cls-35{fill:url(#linear-gradient-33);}.cls-36{fill:url(#linear-gradient-34);}.cls-37{fill:url(#linear-gradient-35);}.cls-38{fill:url(#linear-gradient-36);}.cls-39{fill:url(#linear-gradient-37);}.cls-40{fill:url(#linear-gradient-38);}.cls-41{fill:url(#linear-gradient-39);}.cls-42{fill:url(#linear-gradient-40);}.cls-43{fill:url(#linear-gradient-41);}.cls-44{fill:url(#linear-gradient-42);}.cls-45{fill:url(#linear-gradient-43);}.cls-46{fill:url(#linear-gradient-44);}.cls-47{fill:url(#linear-gradient-45);}.cls-48{fill:url(#linear-gradient-46);}.cls-49{fill:url(#linear-gradient-47);}.cls-50{fill:url(#linear-gradient-48);}.cls-51{fill:url(#linear-gradient-49);}.cls-52{fill:url(#linear-gradient-50);}.cls-53{fill:url(#linear-gradient-51);}.cls-54{fill:url(#linear-gradient-52);}.cls-55{fill:url(#linear-gradient-53);}.cls-56{fill:url(#linear-gradient-54);}.cls-57{fill:url(#linear-gradient-55);}.cls-58{fill:url(#linear-gradient-56);}.cls-59{fill:url(#linear-gradient-57);}.cls-60{fill:url(#linear-gradient-58);}.cls-61{fill:url(#linear-gradient-59);}.cls-62{fill:url(#linear-gradient-60);}.cls-63{fill:url(#linear-gradient-61);}.cls-64{fill:url(#linear-gradient-62);}.cls-65{fill:url(#linear-gradient-63);}.cls-66{fill:url(#linear-gradient-64);}.cls-67{fill:url(#linear-gradient-65);}.cls-68{fill:url(#linear-gradient-66);}.cls-69{fill:url(#linear-gradient-67);}.cls-70{fill:url(#linear-gradient-68);}.cls-71{fill:#7d97f4;}</style><linearGradient id="linear-gradient" x1="3034.65" y1="3228.59" x2="1074.58" y2="1142.06" gradientUnits="userSpaceOnUse"><stop offset="0" stop-color="#dae3fe"/><stop offset="1" stop-color="#e9effd"/></linearGradient><linearGradient id="linear-gradient-2" x1="2160.89" y1="280.54" x2="2501.42" y2="280.54" gradientUnits="userSpaceOnUse"><stop offset="0" stop-color="#febbba"/><stop offset="1" stop-color="#ff928e"/></linearGradient><linearGradient id="linear-gradient-3" x1="2099.79" y1="20.3" x2="2131.05" y2="20.3" xlink:href="#linear-gradient-2"/><linearGradient id="linear-gradient-4" x1="1871.51" y1="151.17" x2="1897.38" y2="151.17" xlink:href="#linear-gradient-2"/><linearGradient id="linear-gradient-5" x1="1805.87" y1="446.15" x2="2163.23" y2="446.15" xlink:href="#linear-gradient-2"/><linearGradient id="linear-gradient-6" x1="2192.19" y1="692.06" x2="2223.36" y2="692.06" xlink:href="#linear-gradient-2"/><linearGradient id="linear-gradient-7" x1="1900.66" y1="354.77" x2="2408.99" y2="354.77" xlink:href="#linear-gradient-2"/><linearGradient id="linear-gradient-8" x1="2181.63" y1="272.56" x2="2554.36" y2="-870.82" xlink:href="#linear-gradient-2"/><linearGradient id="linear-gradient-9" x1="2180.9" y1="272.32" x2="2553.63" y2="-871.05" xlink:href="#linear-gradient-2"/><linearGradient id="linear-gradient-10" x1="2426.97" y1="768.54" x2="2784.32" y2="768.54" xlink:href="#linear-gradient-2"/><linearGradient id="linear-gradient-11" x1="2376.89" y1="592.52" x2="2402.87" y2="592.52" xlink:href="#linear-gradient-2"/><linearGradient id="linear-gradient-12" x1="2214.52" y1="746.54" x2="2234.18" y2="746.54" xlink:href="#linear-gradient-2"/><linearGradient id="linear-gradient-13" x1="2191.89" y1="971.11" x2="2563.17" y2="971.11" xlink:href="#linear-gradient-2"/><linearGradient id="linear-gradient-14" x1="2586.1" y1="1130.83" x2="2611.89" y2="1130.83" xlink:href="#linear-gradient-2"/><linearGradient id="linear-gradient-15" x1="2264.93" y1="861.84" x2="2712.17" y2="861.84" xlink:href="#linear-gradient-2"/><linearGradient id="linear-gradient-16" x1="2632.71" y1="419.61" x2="3005.44" y2="-723.76" xlink:href="#linear-gradient-2"/><linearGradient id="linear-gradient-17" x1="2631.91" y1="419.35" x2="3004.64" y2="-724.03" xlink:href="#linear-gradient-2"/><linearGradient id="linear-gradient-18" x1="1440.89" y1="348.44" x2="1031.61" y2="851.6" gradientTransform="translate(-227.2 654.11) rotate(-7.16)" xlink:href="#linear-gradient-2"/><linearGradient id="linear-gradient-19" x1="-1950.3" y1="422.58" x2="-2218.68" y2="741.49" gradientTransform="matrix(-0.96, 0.28, 0.28, 0.96, -1697.98, 908.66)" gradientUnits="userSpaceOnUse"><stop offset="0" stop-color="#09005d"/><stop offset="1" stop-color="#1a0f91"/></linearGradient><linearGradient id="linear-gradient-20" x1="1236.35" y1="921.86" x2="237.31" y2="1899.18" gradientUnits="userSpaceOnUse"><stop offset="0" stop-color="#4f52ff"/><stop offset="1" stop-color="#4042e2"/></linearGradient><linearGradient id="linear-gradient-21" x1="-2338.94" y1="984.84" x2="-2317.07" y2="829.59" gradientTransform="matrix(-0.96, 0.28, 0.28, 0.96, -1697.98, 908.66)" xlink:href="#linear-gradient-2"/><linearGradient id="linear-gradient-22" x1="-2439.18" y1="652.18" x2="-2234.73" y2="887.25" gradientTransform="matrix(-0.96, 0.28, 0.28, 0.96, -1697.98, 908.66)" xlink:href="#linear-gradient-2"/><linearGradient id="linear-gradient-23" x1="-2078.84" y1="314.4" x2="-2347.23" y2="633.32" xlink:href="#linear-gradient-19"/><linearGradient id="linear-gradient-24" x1="-2388.1" y1="607.75" x2="-2183.65" y2="842.81" gradientTransform="matrix(-0.96, 0.28, 0.28, 0.96, -1697.98, 908.66)" xlink:href="#linear-gradient-2"/><linearGradient id="linear-gradient-25" x1="454.5" y1="2932.89" x2="942.27" y2="2071.85" gradientTransform="translate(-20.55 52.55) rotate(-0.54)" xlink:href="#linear-gradient-2"/><linearGradient id="linear-gradient-26" x1="560.83" y1="2628.46" x2="703.41" y2="2628.46" gradientTransform="translate(-20.55 52.55) rotate(-0.54)" xlink:href="#linear-gradient-19"/><linearGradient id="linear-gradient-27" x1="1007.27" y1="2295.92" x2="277.78" y2="2529.18" gradientTransform="translate(-20.55 52.55) rotate(-0.54)" xlink:href="#linear-gradient-2"/><linearGradient id="linear-gradient-28" x1="693.02" y1="2654.21" x2="862.99" y2="2654.21" gradientTransform="translate(-20.55 52.55) rotate(-0.54)" xlink:href="#linear-gradient-19"/><linearGradient id="linear-gradient-29" x1="925.1" y1="1511.12" x2="517.91" y2="2418.81" gradientTransform="translate(-20.55 52.55) rotate(-0.54)" xlink:href="#linear-gradient-19"/><linearGradient id="linear-gradient-30" x1="605.69" y1="1075.38" x2="1414.85" y2="149.81" gradientTransform="translate(-227.2 654.11) rotate(-7.16)" xlink:href="#linear-gradient-2"/><linearGradient id="linear-gradient-31" x1="2566.86" y1="4282.3" x2="945.04" y2="1641.56" gradientTransform="translate(-1714.88 -33.27) rotate(-20.08)" xlink:href="#linear-gradient-20"/><linearGradient id="linear-gradient-32" x1="2765.41" y1="4160.36" x2="1143.58" y2="1519.62" gradientTransform="translate(-1714.88 -33.27) rotate(-20.08)" xlink:href="#linear-gradient-20"/><linearGradient id="linear-gradient-33" x1="3023.82" y1="-1940.45" x2="2298.47" y2="-906.15" gradientUnits="userSpaceOnUse"><stop offset="0" stop-color="#ff928e"/><stop offset="1" stop-color="#fe7062"/></linearGradient><linearGradient id="linear-gradient-34" x1="3178.22" y1="-1832.15" x2="2452.87" y2="-797.86" xlink:href="#linear-gradient-33"/><linearGradient id="linear-gradient-35" x1="1311.68" y1="848.32" x2="1563.52" y2="-330.32" xlink:href="#linear-gradient-2"/><linearGradient id="linear-gradient-36" x1="5117.83" y1="6209.91" x2="5623.48" y2="6209.91" gradientTransform="matrix(0.35, -0.94, -0.94, -0.35, 4635.78, 7701.62)" xlink:href="#linear-gradient-20"/><linearGradient id="linear-gradient-37" x1="5648.07" y1="6076.7" x2="5677.6" y2="6076.7" gradientTransform="matrix(0.35, -0.94, -0.94, -0.35, 4635.78, 7701.62)" xlink:href="#linear-gradient-20"/><linearGradient id="linear-gradient-38" x1="5801.36" y1="6302.37" x2="5821.63" y2="6302.37" gradientTransform="matrix(0.35, -0.94, -0.94, -0.35, 4635.78, 7701.62)" xlink:href="#linear-gradient-20"/><linearGradient id="linear-gradient-39" x1="5305.12" y1="6532.89" x2="5825.96" y2="6532.89" gradientTransform="matrix(0.35, -0.94, -0.94, -0.35, 4635.78, 7701.62)" xlink:href="#linear-gradient-20"/><linearGradient id="linear-gradient-40" x1="5253.2" y1="6642.68" x2="5282.36" y2="6642.68" gradientTransform="matrix(0.35, -0.94, -0.94, -0.35, 4635.78, 7701.62)" xlink:href="#linear-gradient-20"/><linearGradient id="linear-gradient-41" x1="-5510.77" y1="5548.89" x2="-3572.72" y2="8156.19" gradientTransform="translate(4783.16 7340.2) rotate(114.05)" xlink:href="#linear-gradient-20"/><linearGradient id="linear-gradient-42" x1="4817.04" y1="6631.08" x2="4831.46" y2="6631.08" gradientTransform="matrix(0.35, -0.94, -0.94, -0.35, 4635.78, 7701.62)" xlink:href="#linear-gradient-20"/><linearGradient id="linear-gradient-43" x1="4811.2" y1="6469.16" x2="5093.69" y2="6469.16" gradientTransform="matrix(0.35, -0.94, -0.94, -0.35, 4635.78, 7701.62)" xlink:href="#linear-gradient-20"/><linearGradient id="linear-gradient-44" x1="4937.28" y1="6739.95" x2="5259.7" y2="6739.95" gradientTransform="matrix(0.35, -0.94, -0.94, -0.35, 4635.78, 7701.62)" xlink:href="#linear-gradient-20"/><linearGradient id="linear-gradient-45" x1="4901.84" y1="6760.13" x2="4923.89" y2="6760.13" gradientTransform="matrix(0.35, -0.94, -0.94, -0.35, 4635.78, 7701.62)" xlink:href="#linear-gradient-20"/><linearGradient id="linear-gradient-46" x1="-5316.63" y1="5404.58" x2="-3378.58" y2="8011.88" gradientTransform="translate(4783.16 7340.2) rotate(114.05)" xlink:href="#linear-gradient-20"/><linearGradient id="linear-gradient-47" x1="-1416.04" y1="688.32" x2="-1808.89" y2="1363.23" gradientTransform="translate(2999.48 8222.74) rotate(133.05)" xlink:href="#linear-gradient-33"/><linearGradient id="linear-gradient-48" x1="-2419.47" y1="2498.33" x2="-2812.34" y2="3173.27" gradientTransform="translate(3694.55 7352.93) rotate(121.27)" xlink:href="#linear-gradient-33"/><linearGradient id="linear-gradient-49" x1="1975.76" y1="1647.47" x2="2185.96" y2="1647.47" gradientTransform="matrix(-1, 0.02, 0.02, 1, 4420.48, -48.38)" xlink:href="#linear-gradient-2"/><linearGradient id="linear-gradient-50" x1="2187.11" y1="2728.93" x2="2344.73" y2="2728.93" gradientTransform="matrix(-1, 0.02, 0.02, 1, 4420.48, -48.38)" xlink:href="#linear-gradient-19"/><linearGradient id="linear-gradient-51" x1="2581.71" y1="2542.99" x2="2008.28" y2="2993.25" gradientTransform="matrix(-1, 0.02, 0.02, 1, 4420.48, -48.38)" gradientUnits="userSpaceOnUse"><stop offset="0" stop-color="#53d8ff"/><stop offset="1" stop-color="#3840f7"/></linearGradient><linearGradient id="linear-gradient-52" x1="2230.94" y1="2549.49" x2="2200.84" y2="2812.25" gradientTransform="matrix(-1, 0.02, 0.02, 1, 4420.48, -48.38)" xlink:href="#linear-gradient-2"/><linearGradient id="linear-gradient-53" x1="2683.57" y1="2672.72" x2="2110.15" y2="3122.98" xlink:href="#linear-gradient-51"/><linearGradient id="linear-gradient-54" x1="2427.13" y1="2733.13" x2="2654.02" y2="2733.13" gradientTransform="matrix(-1, 0.02, 0.02, 1, 4420.48, -48.38)" xlink:href="#linear-gradient-19"/><linearGradient id="linear-gradient-55" x1="2476.2" y1="2577.59" x2="2446.09" y2="2840.36" gradientTransform="matrix(-1, 0.02, 0.02, 1, 4420.48, -48.38)" xlink:href="#linear-gradient-2"/><linearGradient id="linear-gradient-56" x1="2833.95" y1="1376.01" x2="1870.96" y2="2870.29" gradientTransform="matrix(-1, 0.02, 0.02, 1, 4420.48, -48.38)" xlink:href="#linear-gradient-19"/><linearGradient id="linear-gradient-57" x1="7603.61" y1="-7378.64" x2="6878.26" y2="-6344.35" gradientTransform="matrix(-1, 0.02, 0.02, 1, 3652.81, -36.02)" xlink:href="#linear-gradient-33"/><linearGradient id="linear-gradient-58" x1="2297.47" y1="869.69" x2="2182.51" y2="1366.48" gradientTransform="matrix(-1, 0.02, 0.02, 1, 4420.48, -48.38)" xlink:href="#linear-gradient-2"/><linearGradient id="linear-gradient-59" x1="551.47" y1="494.41" x2="347.51" y2="764.24" gradientTransform="matrix(-0.7, -0.72, -0.72, 0.7, 2893.62, 812.54)" xlink:href="#linear-gradient-2"/><linearGradient id="linear-gradient-60" x1="395.71" y1="559.21" x2="639.34" y2="559.21" gradientTransform="matrix(-0.7, -0.72, -0.72, 0.7, 2893.62, 812.54)" xlink:href="#linear-gradient-19"/><linearGradient id="linear-gradient-61" x1="252.75" y1="708.09" x2="416.34" y2="540.25" gradientTransform="matrix(-0.7, -0.72, -0.72, 0.7, 2893.62, 812.54)" xlink:href="#linear-gradient-2"/><linearGradient id="linear-gradient-62" x1="4075.51" y1="-1202.88" x2="3350.16" y2="-168.59" xlink:href="#linear-gradient-33"/><linearGradient id="linear-gradient-63" x1="2293.89" y1="1777.24" x2="2213.14" y2="1920.94" gradientTransform="matrix(-1, 0.02, 0.02, 1, 4420.48, -48.38)" xlink:href="#linear-gradient-19"/><linearGradient id="linear-gradient-64" x1="7751.89" y1="-7274.69" x2="7026.54" y2="-6240.39" gradientTransform="matrix(-1, 0.02, 0.02, 1, 3652.81, -36.02)" xlink:href="#linear-gradient-33"/><linearGradient id="linear-gradient-65" x1="2432.6" y1="857.56" x2="1729.1" y2="1757.61" gradientTransform="matrix(-1, 0.02, 0.02, 1, 3652.81, -36.02)" xlink:href="#linear-gradient-2"/><linearGradient id="linear-gradient-66" x1="2526.75" y1="931.14" x2="1823.25" y2="1831.2" gradientTransform="matrix(-1, 0.02, 0.02, 1, 3652.81, -36.02)" xlink:href="#linear-gradient-2"/><linearGradient id="linear-gradient-67" x1="608.88" y1="-641.16" x2="2155.21" y2="683.55" xlink:href="#linear-gradient-20"/><linearGradient id="linear-gradient-68" x1="550.33" y1="-572.82" x2="2096.66" y2="751.88" xlink:href="#linear-gradient-20"/></defs><g id="Calque_2" data-name="Calque 2"><g id="Illustration"><path class="cls-1" d="M2446.14,2391.48c-72.36,74.59-137.1,118.43-186.67,151.53C1776,2865.81,1223.4,2772.77,1052.54,2741c-275.66-51.31-508.36-87.5-708.29-268.13C-110,2062.4-87.95,1206.2,259.19,675.82,300.35,612.93,647,99.15,1200.79,26.75c13.54-1.77,23.65-2.78,32.5-3.72C1319,14,1849.88-33.91,2282.79,328.78c62,51.91,161.7,145.56,254.17,288.38C2875.11,1139.4,2876.18,1948.22,2446.14,2391.48Z"/><g class="cls-2"><path class="cls-3" d="M2433.1,550a8.7,8.7,0,0,1-2.55-12c5.1-7.83,9.93-16,14.37-24.28a8.72,8.72,0,0,1,11.64-3.65l.15.08a8.71,8.71,0,0,1,3.56,11.79c-4.67,8.72-9.76,17.32-15.13,25.56a8.71,8.71,0,0,1-11.25,3A7.75,7.75,0,0,1,2433.1,550Zm30.65-78.12c3.26-8.81,6.18-17.83,8.68-26.84a8.71,8.71,0,1,1,16.78,4.65c-2.62,9.47-5.69,19-9.13,28.24a8.71,8.71,0,0,1-11.19,5.14,7.39,7.39,0,0,1-.95-.42A8.7,8.7,0,0,1,2463.75,471.87Zm17.8-71.73c1.22-9.29,2-18.74,2.46-28.1a8.71,8.71,0,0,1,17.41.78c-.44,9.86-1.32,19.81-2.6,29.59a8.73,8.73,0,0,1-9.77,7.5,9,9,0,0,1-2.84-.88A8.71,8.71,0,0,1,2481.55,400.14Zm1.3-73.91c-.88-9.34-2.19-18.74-3.87-28a8.71,8.71,0,0,1,17.14-3.13c1.77,9.7,3.14,19.6,4.08,29.42a8.71,8.71,0,0,1-17.35,1.66Zm-15.19-72.36c-2.93-8.88-6.28-17.77-10-26.4a8.71,8.71,0,0,1,16-6.84c3.87,9.09,7.4,18.43,10.48,27.78a8.71,8.71,0,0,1-16.54,5.46Zm-30.82-67.2c-4.83-8-10.06-15.94-15.56-23.53a8.71,8.71,0,0,1,14.11-10.22c5.79,8,11.3,16.33,16.38,24.77a8.71,8.71,0,0,1-11.44,12.24A8.59,8.59,0,0,1,2436.84,186.67ZM2160.9,18A8.7,8.7,0,0,1,2170,9.69c9.84.45,19.8,1.35,29.59,2.65a8.71,8.71,0,0,1-2.3,17.27c-9.3-1.24-18.75-2.09-28.1-2.52a8.82,8.82,0,0,1-3.56-.94A8.72,8.72,0,0,1,2160.9,18Zm231,110c-6.49-6.75-13.35-13.3-20.4-19.46A8.71,8.71,0,1,1,2383,95.45c7.42,6.49,14.65,13.39,21.48,20.49a8.71,8.71,0,0,1-10.24,13.8A8.86,8.86,0,0,1,2391.92,128ZM2236.13,28.09A8.71,8.71,0,0,1,2246.86,22c9.49,2.65,19,5.74,28.24,9.19A8.71,8.71,0,1,1,2269,47.55c-8.79-3.28-17.82-6.22-26.84-8.73a8.91,8.91,0,0,1-1.63-.64A8.72,8.72,0,0,1,2236.13,28.09ZM2335,80.88c-7.84-5.12-16-10-24.25-14.41A8.71,8.71,0,0,1,2318.87,51l.17.09c8.69,4.68,17.28,9.78,25.52,15.17a8.71,8.71,0,0,1-8.72,15A8.13,8.13,0,0,1,2335,80.88Z"/><path class="cls-4" d="M2104.54,28.86a8.67,8.67,0,0,0,5.13.87c4.45-.61,9-1.13,13.49-1.55a8.71,8.71,0,1,0-1.64-17.34c-4.74.44-9.51,1-14.19,1.63a8.71,8.71,0,0,0-2.79,16.39Z"/></g><g class="cls-2"><path class="cls-5" d="M1876.26,164.47a8.72,8.72,0,0,0,11-2.61c2.65-3.63,5.42-7.26,8.23-10.79a8.71,8.71,0,0,0-13.62-10.86c-3,3.72-5.88,7.54-8.67,11.36a8.69,8.69,0,0,0,3.07,12.9Z"/><path class="cls-6" d="M1980,658.64a8.72,8.72,0,0,1,8.69-15.11c7.94,4.57,16.19,8.87,24.63,12.83a8.71,8.71,0,1,1-7.41,15.77c-3.65-1.72-7.27-3.49-10.83-5.32C1990,664.21,1984.93,661.46,1980,658.64Zm64.43,19.79a8.71,8.71,0,0,1,10.92-5.7c8.81,2.75,17.83,5.17,26.82,7.18a8.71,8.71,0,0,1-3.79,17c-9.46-2.12-19-4.66-28.24-7.56a8.71,8.71,0,0,1-5.71-10.92ZM1940.6,632.22c-7.66-5.94-15.18-12.28-22.33-18.85a8.71,8.71,0,1,1,11.79-12.83c6.79,6.25,13.92,12.27,21.2,17.9a8.71,8.71,0,0,1-9.29,14.65A8.31,8.31,0,0,1,1940.6,632.22Zm176.77,62.43a8.71,8.71,0,0,1,9.39-8c9.19.76,18.52,1.13,27.73,1.11a8.71,8.71,0,1,1,.05,17.41c-9.7,0-19.53-.36-29.21-1.16a8.9,8.9,0,0,1-3.25-.92A8.72,8.72,0,0,1,2117.37,694.65ZM1885.65,578.94c-6.17-7.47-12.1-15.3-17.63-23.29a8.71,8.71,0,1,1,14.31-9.92c5.26,7.59,10.89,15,16.75,22.12a8.71,8.71,0,0,1-10.69,13.3A8.6,8.6,0,0,1,1885.65,578.94Zm-41.94-64c-4.39-8.66-8.47-17.6-12.12-26.58a8.71,8.71,0,1,1,16.13-6.56c3.47,8.53,7.35,17,11.52,25.25a8.71,8.71,0,1,1-15.53,7.89Zm-27-71.66c-2.41-9.41-4.44-19-6-28.58a8.71,8.71,0,1,1,17.18-2.9c1.52,9.08,3.46,18.22,5.75,27.17a8.71,8.71,0,0,1-16.88,4.31ZM1806,367.42c-.29-9.71-.17-19.55.36-29.23a8.71,8.71,0,1,1,17.39.95c-.5,9.2-.61,18.54-.34,27.76a8.71,8.71,0,1,1-17.41.52Zm6.22-76.38c1.85-9.51,4.14-19.06,6.79-28.41a8.71,8.71,0,0,1,16.76,4.76c-2.52,8.88-4.69,17.95-6.45,27a8.71,8.71,0,0,1-10.22,6.88,8.69,8.69,0,0,1-6.88-10.22ZM1835.05,218c2.86-6.55,6-13.08,9.2-19.43,1.18-2.3,2.37-4.57,3.59-6.84a8.62,8.62,0,0,1,11.8-3.53,8.71,8.71,0,0,1,3.54,11.8q-1.74,3.22-3.42,6.5c-3.09,6-6,12.25-8.75,18.47a8.69,8.69,0,0,1-11.46,4.49l-.49-.23A8.7,8.7,0,0,1,1835.05,218Z"/><path class="cls-7" d="M2196.94,700.93a8.64,8.64,0,0,0,5.17.87c4.67-.66,9.42-1.43,14.1-2.29a8.71,8.71,0,1,0-3.13-17.13c-4.46.82-9,1.54-13.39,2.17a8.71,8.71,0,0,0-2.75,16.38Z"/></g><path class="cls-8" d="M2286.89,581.76a4.08,4.08,0,0,0,2.43-4.06l-4-49.38a215.73,215.73,0,0,0,48.42-50.44l49.47,2a4.07,4.07,0,0,0,3.95-2.58l21.59-55.37a4.05,4.05,0,0,0-1.15-4.58l-37.75-32a215.71,215.71,0,0,0-1.48-69.91l36.4-33.61a4.08,4.08,0,0,0,1-4.63l-23.88-54.41a4.06,4.06,0,0,0-4.06-2.42l-49.38,4a215.93,215.93,0,0,0-50.44-48.42l2-49.47a4.07,4.07,0,0,0-2.59-4l-55.37-21.59a4.07,4.07,0,0,0-4.58,1.15l-32,37.75a216,216,0,0,0-69.91,1.48l-33.61-36.4a4.07,4.07,0,0,0-4.62-1l-54.42,23.88a4.08,4.08,0,0,0-2.42,4.06l4,49.38A215.69,215.69,0,0,0,1976,231.67l-49.48-2a4.07,4.07,0,0,0-4,2.58l-21.59,55.37a4.06,4.06,0,0,0,1.16,4.58l37.74,32a216,216,0,0,0,1.48,69.91l-36.39,33.61a4.07,4.07,0,0,0-1,4.63l23.88,54.41a4.08,4.08,0,0,0,4.06,2.42l49.38-4a215.78,215.78,0,0,0,50.45,48.42l-2,49.47a4.07,4.07,0,0,0,2.59,4l55.36,21.59a4.06,4.06,0,0,0,4.58-1.16l32.05-37.74a215.93,215.93,0,0,0,69.9-1.48l33.61,36.39a4.07,4.07,0,0,0,4.63,1Z"/><path class="cls-9" d="M2120.16,403.42a59.69,59.69,0,1,1,7.5,4.56A61.26,61.26,0,0,1,2120.16,403.42Zm27.09-93.81A45.55,45.55,0,1,0,2175.6,314,45.45,45.45,0,0,0,2147.25,309.61Z"/><path class="cls-10" d="M2087.28,484.23a149.68,149.68,0,0,0,13.77,6.19h0c1.49.58,3,1.14,4.49,1.67a147.65,147.65,0,0,0,22.73,6.05l.31.06.9.15,1.74.29a3.49,3.49,0,0,0,3.66-1.84,3.61,3.61,0,0,0,.33-1,3.48,3.48,0,0,0-2.88-4,140.1,140.1,0,0,1-115.16-111.21,139.88,139.88,0,0,1,188.08-157.33c71.9,28.05,107.54,109.31,79.51,181.18a139.6,139.6,0,0,1-44.57,59.73,3.49,3.49,0,0,0,4.27,5.51,147,147,0,0,0,46.8-62.71c29.42-75.45-8.05-160.78-83.48-190.2a146.92,146.92,0,0,0-184,69.69,149.86,149.86,0,0,0-6.19,13.78,146.89,146.89,0,0,0,69.7,184Z"/><g class="cls-2"><path class="cls-11" d="M2757.63,968.65a7.42,7.42,0,0,1-4.49-9.49c2.68-7.49,5.07-15.21,7.11-22.95a7.41,7.41,0,0,1,8.92-5.31l.14,0a7.41,7.41,0,0,1,5.28,9.07c-2.14,8.14-4.66,16.27-7.48,24.16a7.41,7.41,0,0,1-8.73,4.71A5.92,5.92,0,0,1,2757.63,968.65Zm10-70.78c1-7.94,1.6-16,1.89-23.94a7.42,7.42,0,1,1,14.83.53c-.31,8.37-1,16.85-2,25.2a7.42,7.42,0,0,1-8.26,6.47,6.08,6.08,0,0,1-.87-.16A7.41,7.41,0,0,1,2767.6,897.87Zm.59-62.94c-.83-7.93-2-15.92-3.5-23.76a7.42,7.42,0,1,1,14.57-2.79c1.58,8.25,2.82,16.67,3.68,25a7.43,7.43,0,0,1-6.61,8.15,7.54,7.54,0,0,1-2.52-.17A7.42,7.42,0,0,1,2768.19,834.93Zm-13.51-61.49c-2.58-7.56-5.51-15.09-8.72-22.39a7.42,7.42,0,1,1,13.58-6c3.38,7.69,6.47,15.62,9.18,23.57a7.42,7.42,0,0,1-4.62,9.41,7.28,7.28,0,0,1-4.15.19A7.4,7.4,0,0,1,2754.68,773.44Zm-26.87-57c-4.18-6.78-8.71-13.48-13.47-19.9a7.42,7.42,0,0,1,11.93-8.83c5,6.76,9.77,13.81,14.17,21a7.42,7.42,0,1,1-12.63,7.78ZM2689,666.91c-5.58-5.7-11.48-11.23-17.53-16.43a7.42,7.42,0,1,1,9.67-11.25c6.37,5.48,12.58,11.3,18.46,17.29a7.42,7.42,0,0,1-10.6,10.39ZM2427.1,581.62A7.42,7.42,0,0,1,2433,573c8.24-1.57,16.67-2.79,25-3.64a7.41,7.41,0,1,1,1.5,14.75c-8,.81-16,2-23.78,3.46a7.32,7.32,0,0,1-3.13-.07A7.43,7.43,0,0,1,2427.1,581.62Zm213.12,45.56c-6.71-4.31-13.69-8.38-20.74-12.1a7.41,7.41,0,1,1,6.91-13.12c7.43,3.91,14.78,8.2,21.85,12.74a7.42,7.42,0,0,1-5.77,13.45A7.31,7.31,0,0,1,2640.22,627.18Zm-148.79-52a7.41,7.41,0,0,1,7.69-7.13c8.39.32,16.87,1,25.21,2a7.42,7.42,0,1,1-1.82,14.72c-7.93-1-16-1.63-24-1.94a7.13,7.13,0,0,1-1.47-.2A7.42,7.42,0,0,1,2491.43,575.14Zm92.35,24.22c-7.5-2.7-15.21-5.11-22.93-7.16a7.42,7.42,0,0,1,3.66-14.38l.15,0c8.12,2.16,16.25,4.7,24.14,7.54a7.42,7.42,0,0,1-4.26,14.19C2584.29,599.52,2584,599.45,2583.78,599.36Z"/><path class="cls-12" d="M2382.56,601.75a7.32,7.32,0,0,0,4.42-.29c3.57-1.38,7.22-2.7,10.86-4a7.42,7.42,0,1,0-4.78-14c-3.83,1.31-7.67,2.7-11.43,4.15a7.42,7.42,0,0,0,.93,14.13Z"/></g><g class="cls-2"><path class="cls-13" d="M2220.2,759.17a7.42,7.42,0,0,0,8.58-4.34c1.48-3.52,3.06-7.08,4.7-10.56a7.42,7.42,0,1,0-13.43-6.31c-1.72,3.67-3.38,7.41-4.94,11.13a7.41,7.41,0,0,0,4,9.71A7.85,7.85,0,0,0,2220.2,759.17Z"/><path class="cls-14" d="M2403.71,1148.09a7.42,7.42,0,1,1,4.21-14.22c7.48,2.21,15.17,4.14,22.94,5.76a7.42,7.42,0,0,1-3,14.52q-5.06-1.05-10-2.26C2413.08,1150.74,2408.34,1149.46,2403.71,1148.09Zm57.29,3.68a7.42,7.42,0,0,1,7.91-6.88c7.85.55,15.8.77,23.64.66a7.42,7.42,0,1,1,.22,14.83c-8.26.12-16.63-.11-24.89-.69a8.56,8.56,0,0,1-1.25-.19A7.43,7.43,0,0,1,2461,1151.77ZM2365.83,1134c-7.52-3.41-15-7.18-22.22-11.21a7.42,7.42,0,0,1,7.24-13c6.86,3.84,14,7.42,21.1,10.65a7.42,7.42,0,0,1-4.81,14A8.12,8.12,0,0,1,2365.83,1134Zm158.78,16.83a7.42,7.42,0,0,1,6.21-8.46c7.76-1.18,15.56-2.72,23.19-4.56a7.42,7.42,0,0,1,3.48,14.42c-8,1.94-16.26,3.56-24.43,4.81a7.4,7.4,0,0,1-8.45-6.21Zm-214.82-50.12c-6.58-5-13-10.3-19.2-15.82a7.42,7.42,0,1,1,9.9-11.05c5.85,5.25,12,10.31,18.24,15a7.42,7.42,0,0,1-6.23,13.13A7.51,7.51,0,0,1,2309.79,1100.7Zm-47.38-44.78c-5.35-6.3-10.5-12.91-15.29-19.62a7.42,7.42,0,1,1,12.07-8.63c4.56,6.39,9.45,12.66,14.53,18.65a7.42,7.42,0,1,1-11.31,9.6Zm-36.5-54c-3.85-7.32-7.44-14.89-10.66-22.49a7.42,7.42,0,1,1,13.66-5.78C2232,980.83,2235.38,988,2239,995a7.42,7.42,0,1,1-13.13,6.9Zm-23.84-60.71c-2.16-8-4-16.16-5.47-24.29a7.41,7.41,0,1,1,14.59-2.64c1.4,7.72,3.15,15.48,5.2,23.06a7.42,7.42,0,0,1-5.23,9.1,7.53,7.53,0,0,1-3.68.05A7.42,7.42,0,0,1,2202.07,941.17Zm-9.93-64.5c-.34-8.25-.33-16.62,0-24.88a7.42,7.42,0,0,1,14.82.63c-.33,7.85-.34,15.8,0,23.64a7.42,7.42,0,0,1-14.83.61Zm4.48-65c1.08-6,2.35-12,3.79-17.91q.78-3.21,1.62-6.37a7.35,7.35,0,0,1,9.08-5.26,7.43,7.43,0,0,1,5.26,9.08c-.54,2-1,4-1.55,6.06-1.36,5.61-2.58,11.33-3.6,17a7.41,7.41,0,0,1-8.61,6l-.45-.09A7.42,7.42,0,0,1,2196.62,811.63Z"/><path class="cls-15" d="M2591.77,1140.31a7.38,7.38,0,0,0,4.46-.3c3.74-1.46,7.51-3,11.23-4.67a7.42,7.42,0,1,0-6-13.58c-3.53,1.55-7.12,3-10.67,4.44a7.41,7.41,0,0,0,1,14.11Z"/></g><path class="cls-16" d="M2642.77,1023.83A3.47,3.47,0,0,0,2644,1020l-13.09-40.12A183.63,183.63,0,0,0,2661,928.52l41.38-8.13a3.46,3.46,0,0,0,2.76-2.93l7-50.13a3.47,3.47,0,0,0-1.86-3.57l-37.6-19.09a183.56,183.56,0,0,0-15-57.62l23.52-35a3.46,3.46,0,0,0-.11-4l-30.53-40.37a3.46,3.46,0,0,0-3.84-1.2l-40.11,13.09a183.8,183.8,0,0,0-51.35-30.16L2547.1,648a3.49,3.49,0,0,0-2.93-2.77l-50.13-7a3.47,3.47,0,0,0-3.57,1.87l-19.09,37.59a183.89,183.89,0,0,0-57.63,15l-35-23.52a3.47,3.47,0,0,0-4,.11l-40.37,30.53a3.46,3.46,0,0,0-1.2,3.84l13.09,40.11a183.8,183.8,0,0,0-30.16,51.35l-41.37,8.14a3.45,3.45,0,0,0-2.77,2.92l-7,50.14a3.47,3.47,0,0,0,1.87,3.56l37.59,19.1a183.83,183.83,0,0,0,15,57.62l-23.52,35a3.47,3.47,0,0,0,.11,4l30.53,40.36a3.46,3.46,0,0,0,3.84,1.21l40.11-13.09a183.77,183.77,0,0,0,51.35,30.15l8.14,41.38a3.45,3.45,0,0,0,2.92,2.76l50.13,7a3.45,3.45,0,0,0,3.57-1.86l19.1-37.6a183.82,183.82,0,0,0,57.62-15l35,23.52a3.46,3.46,0,0,0,4-.12Z"/><path class="cls-17" d="M2469.44,909a50.88,50.88,0,1,1,7.11,2.29A50.93,50.93,0,0,1,2469.44,909Zm3.91-83.07a38.85,38.85,0,1,0,24.35-2A38.78,38.78,0,0,0,2473.35,825.92Z"/><path class="cls-18" d="M2458.15,982.43a128.54,128.54,0,0,0,12.63,2.41h0c1.34.19,2.69.35,4,.49a125.38,125.38,0,0,0,20,.53h.27l.77-.05,1.5-.1a3,3,0,0,0,2.67-2.26,2.82,2.82,0,0,0,.07-.92,3,3,0,0,0-3.18-2.74,119.28,119.28,0,0,1-117.35-69.4,118.41,118.41,0,0,1-9.65-65.83,120.29,120.29,0,0,1,2.3-12,119.16,119.16,0,1,1,208.61,103.1,3,3,0,0,0,.45,4.17,3,3,0,0,0,4.17-.45,124.76,124.76,0,0,0,24-48.7q1.5-6.17,2.38-12.49a125.1,125.1,0,0,0-245.4-47q-1.52,6.21-2.41,12.64a125.11,125.11,0,0,0,94.08,138.7Z"/><circle class="cls-19" cx="1355.6" cy="1270.75" r="1180.57"/><path class="cls-20" d="M1206.9,962.62a6.35,6.35,0,0,0-11.74,1.25c-5.7,20.5-19.48,56.28-48.41,69-1.46.64-2.84,1.28-4.17,1.93a14.68,14.68,0,0,1,1.81-13.3c9-13.74-7.24-32.52-7.24-32.52s-1.08,16.54-13.65,26.95c-10.82,9-16,28.92-8.62,45.29,15.66,60.81,39.1,141.25-52.23,200s-219.94-110.9-219.94-110.9l63.84,202.37s98.53,72.71,213.13-29.53,38.65-251,38.65-251S1245.74,1036.88,1206.9,962.62Z"/><path class="cls-21" d="M826.72,853s26.46-118.69-109.49-87.27c0,0-66-10.78-69.35,51.5,0,0-42.54,28-11.39,81.94,0,0-126.43-48.83-181.51,62s-4.45,171.78,48.63,187.66c0,0-43,21.59-22.65,70.34S604.4,1302.26,665.29,1243c0,0,173.27,22.89,169.8-99.49,0,0,80.59-52-4.05-153.19S826.72,853,826.72,853Z"/><path class="cls-22" d="M834.19,1128.09c-27.32-8.19-106.87-23.31-182.53,46.51a46.88,46.88,0,0,0-13.5,46.69c20.32,74.81,73.94,295.85,26.93,391.49,0,0,82.85,91.33,173.23,17.72,0,0,40.55-176.74,93.67-254.33,36.67-53.57-58.48-201.16-82.55-236.82A28.23,28.23,0,0,0,834.19,1128.09Z"/><path class="cls-23" d="M758.75,979.45s-40.4,114.28-43.44,164.7c0,0,44.66,20.31,86.73-14,0,0,4.42-114.15,10.8-134.59Z"/><path class="cls-24" d="M814.88,823.63s105.67,147.89,42.5,190.84S719,952.33,719,952.33s-24.52-80.94,1.12-108.4S814.88,823.63,814.88,823.63Z"/><path class="cls-25" d="M766,788.29s48.55,11.5,55.35,33.47-68.84,42.33-90,43.33l-17.08,88.64S663.7,870.34,683.7,822.19,766,788.29,766,788.29Z"/><path class="cls-26" d="M739.47,941.45S698.34,893.82,682,924.87s37,54.37,55.5,39.12Z"/><path class="cls-27" d="M943.83,2001.59c-.31,8,13.78,71.67,21.45,105.62a56,56,0,0,1-6,40.11L693.74,2594.2a61,61,0,0,0-7,17.39c-4.87,21-15,72.36-9.69,119.12l13.74,28.53-59.41-13.49-12.93-159.53L635.3,2576a80,80,0,0,0,32.32-37.83c24-58.32,83.63-206.78,99-279.13,17.47-82.22,108.77-149,108.77-149l-16-37.92Z"/><path class="cls-28" d="M565.39,2690.85s32.08-50.86,35.85-70.65,14.28-54.76,34.06-44.24c0,0,9.32,96.17,6.11,133.75s42.48,36.37,42.48,36.37,12.59,1.77,21.82,11c6.36,6.37,1.81,17.41-7.18,18-14.95,1-38.7,1.22-63.64-3.6a19.46,19.46,0,0,1-15.7-18l-6.59-110.69-40.46,51.1Z"/><path class="cls-29" d="M785.22,2072.78s-9.37,399.73-10.64,456.5,9,182.59,65.88,220.2l-24.76,18.33s-31-26.3-61.19-76.93c-34-56.87-44.24-67.26-44.24-67.26l11.27-23.08a50.75,50.75,0,0,0,4.12-32.55c-12.29-59.53-53.31-257.52-64.51-300.16C647.94,2217.5,647,2150.29,693,2094S785.22,2072.78,785.22,2072.78Z"/><path class="cls-30" d="M732.66,2785.83a3.48,3.48,0,0,1-3.51-3c-1.9-13.33-9.78-66.75-16.24-80.59-7.39-15.84-31.53-82.53,0-88.19,0,0,78.42,114.58,93.48,130s34.05,5.4,34.05,5.4A56.65,56.65,0,0,1,866.19,2768c5.26,6.72.36,16.6-8.18,16.68l-52.83.5a37.15,37.15,0,0,1-34.84-23.41c-9.3-23.23-25.27-57.29-43.88-72.4l9.67,92.62A3.53,3.53,0,0,1,732.66,2785.83Z"/><path class="cls-31" d="M850.82,1587.4s-11.9,37.94,6.39,100.44L970.65,2084a12.27,12.27,0,0,1-7.67,14.93c-33.93,12.18-145.48,46.6-297.76,36.1a17.29,17.29,0,0,1-15.76-13.46c-10-45.16-44.26-199.25-51.31-230.91-26.86-120.64-56.85-250.74,75.08-329.4C734,1587.28,790.73,1602.63,850.82,1587.4Z"/><path class="cls-32" d="M640.84,1189.53S511.76,1296.8,479.73,1443.37s188.61,162.15,188.61,162.15,29.95-33.44,65.51-21.51,2.76-58.38-38.85-58.19-22.33,33.08-81.19,6.42c-57.33-26-92.77-106.29,53.51-228a66.14,66.14,0,0,0,19.32-26.31C715.06,1206.35,692.52,1159.45,640.84,1189.53Z"/><path class="cls-33" d="M155.66,1256.14c42.88,809.59,581.16,1177.39,1231.6,1007.3l-24.38-95.8C647,2323.46,250.66,1910,185.66,1271.58a19.28,19.28,0,0,0-23.11-16.86Z"/><path class="cls-34" d="M1264,2163.63,1347.1,2321a14.18,14.18,0,0,0,23,3l151.41-165a14.19,14.19,0,0,0-10.92-23.77L1276,2142.82A14.19,14.19,0,0,0,1264,2163.63Z"/><polygon class="cls-35" points="1012.64 867.44 934.26 946.1 1070.44 937.94 1012.64 867.44"/><path class="cls-36" d="M1615.26,924l-582.5,17c-12.6,0-22.81-11-22.81-24.57V731.32c0-13.13,9.58-23.93,21.75-24.54l581.09-29.15c13-.66,23.88,10.52,23.88,24.54V885.88C1636.67,899.45,1627.87,924,1615.26,924Z"/><path class="cls-37" d="M1596.53,913.86,1045,929.43c-11.93,0-21.6-10.07-21.6-22.49V737.53c0-12,9.07-21.9,20.6-22.46l550.21-26.68c12.31-.6,22.61,9.63,22.61,22.46V879C1616.8,891.4,1608.47,913.86,1596.53,913.86Z"/><g class="cls-2"><path class="cls-38" d="M418,658.68a8.85,8.85,0,0,1,11.88-4c8.52,4.23,17.35,8.15,26.25,11.66a8.86,8.86,0,0,1,5.06,11.33l-.06.17a8.87,8.87,0,0,1-11.5,5c-9.37-3.69-18.67-7.82-27.64-12.27a8.85,8.85,0,0,1-4.36-11A5.87,5.87,0,0,1,418,658.68Zm82.6,21.75c9.29,2.26,18.76,4.14,28.16,5.6A8.86,8.86,0,1,1,526,703.55c-9.89-1.53-19.86-3.51-29.64-5.89A8.86,8.86,0,0,1,489.85,687a8.41,8.41,0,0,1,.3-1A8.87,8.87,0,0,1,500.55,680.43Zm74.63,9.51c9.53.13,19.18-.14,28.69-.83a8.87,8.87,0,0,1,1.28,17.69c-10,.72-20.19,1-30.22.87a8.87,8.87,0,1,1,.25-17.73Zm74.88-7.42c9.33-2,18.68-4.43,27.8-7.22a8.86,8.86,0,1,1,5.18,17c-9.59,2.94-19.44,5.5-29.26,7.61a8.87,8.87,0,0,1-3.72-17.34Zm71.36-23.92c8.63-4,17.21-8.45,25.51-13.2a8.86,8.86,0,1,1,8.8,15.39c-8.72,5-17.76,9.67-26.84,13.89a8.87,8.87,0,1,1-7.47-16.08Zm64.28-39.11c7.55-5.83,14.93-12.06,22-18.51a8.86,8.86,0,0,1,12,13.06c-7.39,6.79-15.16,13.35-23.1,19.48a8.87,8.87,0,0,1-10.85-14ZM923.61,320.56a8.87,8.87,0,0,1,9.47,8.23c.7,10,1,20.17.81,30.23a8.86,8.86,0,1,1-17.72-.29c.15-9.54-.11-19.2-.78-28.7a8.86,8.86,0,0,1,8.22-9.47ZM839.69,567.14c6.06-7.36,11.86-15.07,17.26-22.92a8.86,8.86,0,1,1,14.61,10c-5.68,8.27-11.8,16.39-18.18,24.14a8.86,8.86,0,0,1-15.15-8.72A8.77,8.77,0,0,1,839.69,567.14ZM922.3,397.82A8.86,8.86,0,0,1,929.68,408c-1.55,9.91-3.56,19.88-5.95,29.64a8.86,8.86,0,1,1-17.22-4.22c2.27-9.28,4.18-18.75,5.65-28.17a8.7,8.7,0,0,1,.46-1.72A8.86,8.86,0,0,1,922.3,397.82ZM880.62,504c4.25-8.52,8.19-17.34,11.71-26.21a8.86,8.86,0,0,1,16.55,6.35,1.34,1.34,0,0,0-.07.18C905.11,493.7,901,503,896.49,512a8.87,8.87,0,0,1-16.25-7C880.35,504.62,880.48,504.33,880.62,504Z"/><path class="cls-39" d="M906,264.87a8.88,8.88,0,0,0-.27,5.29c1.14,4.43,2.2,8.95,3.16,13.45a8.87,8.87,0,0,0,17.34-3.71c-1-4.73-2.13-9.49-3.33-14.15a8.87,8.87,0,0,0-16.9-.88Z"/></g><g class="cls-2"><path class="cls-40" d="M741.84,50.11a8.88,8.88,0,0,0,3.95,10.8c4,2.25,8,4.63,11.88,7a8.86,8.86,0,1,0,9.36-15c-4.11-2.56-8.32-5.06-12.51-7.43a8.87,8.87,0,0,0-12.08,3.35A9.86,9.86,0,0,0,741.84,50.11Z"/><path class="cls-41" d="M254.51,213.47a8.87,8.87,0,0,1,16.3,7c-3.68,8.57-7,17.43-10.05,26.43a8.87,8.87,0,0,1-16.82-5.63q2-5.85,4.09-11.58C250.06,224.22,252.24,218.77,254.51,213.47ZM242.12,281a8.87,8.87,0,0,1,7.06,10.36c-1.75,9.24-3.12,18.65-4.09,28a8.86,8.86,0,0,1-17.63-1.82c1-9.82,2.46-19.73,4.3-29.44a9.8,9.8,0,0,1,.4-1.46A8.88,8.88,0,0,1,242.12,281Zm34.44-110.46c5.09-8.45,10.61-16.8,16.42-24.81a8.87,8.87,0,1,1,14.36,10.41c-5.52,7.6-10.76,15.53-15.59,23.55a8.87,8.87,0,1,1-15.19-9.15Zm-42.21,186.1a8.85,8.85,0,0,1,9.16,8.55c.33,9.38,1.06,18.86,2.17,28.17a8.87,8.87,0,1,1-17.61,2.11c-1.17-9.81-1.93-19.79-2.28-29.67a8.86,8.86,0,0,1,8.56-9.16Zm89.57-248c6.82-7.12,14-14,21.47-20.58a8.86,8.86,0,0,1,11.72,13.3c-7.05,6.22-13.91,12.79-20.39,19.55a8.87,8.87,0,1,1-12.8-12.27Zm59.78-50c8.23-5.47,16.79-10.65,25.44-15.4a8.86,8.86,0,1,1,8.54,15.53c-8.22,4.52-16.35,9.45-24.17,14.64a8.87,8.87,0,0,1-9.81-14.77ZM453,22.9c9.23-3.54,18.72-6.74,28.19-9.49a8.86,8.86,0,1,1,4.95,17c-9,2.62-18,5.66-26.78,9A8.87,8.87,0,0,1,453,22.9Zm75.4-19.79C538.14,1.67,548.09.63,558,0A8.86,8.86,0,0,1,559,17.71c-9.36.58-18.81,1.57-28.1,2.94a8.87,8.87,0,1,1-2.59-17.54ZM606.3.36c9.84.75,19.77,1.93,29.53,3.51A8.86,8.86,0,1,1,633,21.37c-9.27-1.5-18.7-2.62-28-3.33a8.87,8.87,0,0,1-8.17-9.51,9.32,9.32,0,0,1,.53-2.43A8.87,8.87,0,0,1,606.3.36Zm76.57,14.42c7,2.12,13.93,4.47,20.73,7,2.47.91,4.91,1.85,7.34,2.82a8.76,8.76,0,0,1,5,11.51,8.87,8.87,0,0,1-11.51,5q-3.46-1.38-7-2.69c-6.47-2.4-13.09-4.64-19.71-6.66a8.87,8.87,0,0,1-5.9-11.06l.18-.52A8.87,8.87,0,0,1,682.87,14.78Z"/><path class="cls-42" d="M237.41,437.78a8.93,8.93,0,0,0-.27,5.33c1.22,4.65,2.56,9.35,4,14a8.86,8.86,0,0,0,16.95-5.2c-1.35-4.41-2.62-8.87-3.77-13.28a8.87,8.87,0,0,0-16.89-.84Z"/></g><path class="cls-43" d="M368.53,514.63a4.15,4.15,0,0,0,4.39,2l49.45-9.91a219.67,219.67,0,0,0,56.73,43L483,599.91A4.14,4.14,0,0,0,486,603.6l58.53,15.28a4.15,4.15,0,0,0,4.5-1.71L577,575.22a219.72,219.72,0,0,0,70.5-9.77l38.28,32.82a4.15,4.15,0,0,0,4.79.43l52.19-30.58a4.13,4.13,0,0,0,2-4.39l-9.92-49.45a219.65,219.65,0,0,0,43-56.72L828,453.7a4.16,4.16,0,0,0,3.7-3.09L847,392.08a4.15,4.15,0,0,0-1.72-4.49l-41.95-27.93a219.44,219.44,0,0,0-9.76-70.5l32.82-38.29a4.15,4.15,0,0,0,.43-4.79l-30.58-52.19a4.14,4.14,0,0,0-4.39-2l-49.45,9.92a219.5,219.5,0,0,0-56.73-43l-3.86-50.25a4.13,4.13,0,0,0-3.08-3.69L620.22,89.64a4.15,4.15,0,0,0-4.5,1.71l-27.93,42a219.72,219.72,0,0,0-70.5,9.77L479,110.24a4.13,4.13,0,0,0-4.79-.42L422,140.4a4.13,4.13,0,0,0-2,4.39L430,194.23A219.7,219.7,0,0,0,387,251l-50.25,3.86a4.15,4.15,0,0,0-3.69,3.09l-15.28,58.52a4.17,4.17,0,0,0,1.72,4.5l41.95,27.93a219.71,219.71,0,0,0,9.76,70.5l-32.82,38.29a4.15,4.15,0,0,0-.43,4.79Z"/><path class="cls-19" d="M529.11,325a60.74,60.74,0,1,1-3.72,8.11A62.74,62.74,0,0,1,529.11,325Zm98,16.28a46.61,46.61,0,1,0-3.91,35.47,48,48,0,0,0,2.88-6.29A46.22,46.22,0,0,0,627.16,341.25Z"/><path class="cls-19" d="M443.52,301.28a153.19,153.19,0,0,0-4.62,14.66h0c-.41,1.57-.8,3.15-1.16,4.73a151.1,151.1,0,0,0-3.43,23.7c0,.1,0,.21,0,.32,0,.31,0,.62-.05.92,0,.6-.06,1.2-.09,1.8a3.56,3.56,0,0,0,2.3,3.48,3.91,3.91,0,0,0,1.09.22,3.54,3.54,0,0,0,3.69-3.39,142.61,142.61,0,0,1,98.82-129.58,141.39,141.39,0,0,1,79.48-2.23,142.82,142.82,0,0,1,14,4.41,142.43,142.43,0,0,1,87.84,169.35c-19.85,76-97.79,121.66-173.77,101.83q-7-1.85-13.8-4.36a142.13,142.13,0,0,1-51.86-33.64,3.43,3.43,0,0,0-1.29-.84,3.54,3.54,0,0,0-3.77,5.8,149.79,149.79,0,0,0,68.93,39.9c79.77,20.83,161.61-27.15,182.42-106.89A149.54,149.54,0,0,0,636,213.67Q628.84,211,621.32,209a149.55,149.55,0,0,0-177.8,92.24Z"/><g class="cls-2"><path class="cls-44" d="M93.09,861.57A5.47,5.47,0,0,0,95,867.86c3.72,2.79,7.58,5.5,11.47,8a5.48,5.48,0,0,0,6-9.15c-3.71-2.43-7.38-5-10.94-7.67a5.47,5.47,0,0,0-7.66,1.11A5.57,5.57,0,0,0,93.09,861.57Z"/><path class="cls-45" d="M129.23,883.07a5.47,5.47,0,0,1,7.33-2.49,227.26,227.26,0,0,0,21.1,9.09c1.5.57,3,1.11,4.55,1.64a5.48,5.48,0,0,1,3.37,7,5.67,5.67,0,0,1-7,3.37q-2.42-.84-4.77-1.72a237.38,237.38,0,0,1-22.12-9.54,5.49,5.49,0,0,1-2.72-6.82C129.07,883.41,129.14,883.24,129.23,883.07ZM189,898.85a226.56,226.56,0,0,0,27.48,4.21,5.48,5.48,0,0,1-1,10.91,238.68,238.68,0,0,1-28.81-4.42,5.48,5.48,0,0,1-4.19-6.51,6.61,6.61,0,0,1,.22-.76A5.48,5.48,0,0,1,189,898.85Zm55.28,5a223.72,223.72,0,0,0,27.68-2.67A5.47,5.47,0,1,1,273.66,912a237.33,237.33,0,0,1-29,2.81A5.49,5.49,0,0,1,239,909.5a5.38,5.38,0,0,1,.35-2.09A5.48,5.48,0,0,1,244.26,903.84Zm54.82-8.74a226.9,226.9,0,0,0,26.17-9.37,5.48,5.48,0,0,1,4.32,10.07,238.25,238.25,0,0,1-27.45,9.81,5.47,5.47,0,1,1-3-10.51Zm51-21.87a228.22,228.22,0,0,0,23.11-15.43,5.47,5.47,0,1,1,6.63,8.71,238.68,238.68,0,0,1-24.23,16.19,5.48,5.48,0,1,1-5.51-9.47Zm44.16-33.58a225.73,225.73,0,0,0,18.64-20.59,5.48,5.48,0,1,1,8.56,6.83,235.05,235.05,0,0,1-19.55,21.6,5.48,5.48,0,1,1-7.65-7.84Zm34.6-43.35a225.72,225.72,0,0,0,13-24.56,5.48,5.48,0,0,1,10,4.53A238.84,238.84,0,0,1,438.2,802a5.47,5.47,0,0,1-9.8-4.76A5.28,5.28,0,0,1,428.86,796.3Zm35.95-81.94a5.47,5.47,0,0,1,4.41,6.36,241.55,241.55,0,0,1-5.88,24.64c-.36,1.23-.73,2.45-1.11,3.67a5.48,5.48,0,0,1-10.45-3.28c.36-1.15.71-2.3,1.05-3.47a230.12,230.12,0,0,0,5.62-23.52,4.54,4.54,0,0,1,.25-.93A5.46,5.46,0,0,1,464.81,714.36Z"/></g><g class="cls-2"><path class="cls-46" d="M16.07,592.8A241.41,241.41,0,0,1,28,566.74a5.48,5.48,0,1,1,9.66,5.16,227.82,227.82,0,0,0-11.39,24.86A5.48,5.48,0,0,1,16,592.87ZM14,616.17a5.48,5.48,0,0,1,4,6.65,227.54,227.54,0,0,0-5.15,26.88A5.48,5.48,0,0,1,2,648.28a239,239,0,0,1,5.4-28.16,5.18,5.18,0,0,1,.17-.56A5.47,5.47,0,0,1,14,616.17Zm29-73.86a238.65,238.65,0,0,1,17.9-22.4,5.48,5.48,0,0,1,8.13,7.34A224.15,224.15,0,0,0,52,548.62a5.48,5.48,0,0,1-9.61-5.06A6,6,0,0,1,43,542.31ZM5.52,671.47A5.49,5.49,0,0,1,11,677a224.41,224.41,0,0,0,1.49,27.31,5.48,5.48,0,0,1-10.88,1.27A234.35,234.35,0,0,1,0,676.91,5.26,5.26,0,0,1,.35,675,5.46,5.46,0,0,1,5.52,671.47ZM81.41,499.86a235.92,235.92,0,0,1,22.75-17.44,5.47,5.47,0,1,1,6.12,9.08,225.72,225.72,0,0,0-21.69,16.63,5.48,5.48,0,0,1-8.72-6.05A5.41,5.41,0,0,1,81.41,499.86Zm47.43-32a238,238,0,0,1,26.27-11.5,5.47,5.47,0,0,1,3.77,10.28,227.9,227.9,0,0,0-25,11,5.48,5.48,0,1,1-5-9.75Zm53.74-19.75a236.53,236.53,0,0,1,28.27-4.85,5.47,5.47,0,1,1,1.2,10.88,225,225,0,0,0-27,4.64,5.47,5.47,0,0,1-6.58-4.08,5.37,5.37,0,0,1,.2-3.16A5.46,5.46,0,0,1,182.58,448.09Z"/><path class="cls-47" d="M6.85,730.85a5.5,5.5,0,0,0-.18,3.2c1.1,4.55,2.35,9.09,3.7,13.5a5.48,5.48,0,1,0,10.47-3.21c-1.29-4.2-2.47-8.54-3.53-12.88a5.48,5.48,0,0,0-10.46-.61Z"/></g><path class="cls-48" d="M95.2,786.18a2.77,2.77,0,0,0,2.93,1.32l33.09-6.64a147.19,147.19,0,0,0,38,28.76l2.58,33.63a2.78,2.78,0,0,0,2.07,2.47L213,855.94a2.77,2.77,0,0,0,3-1.14l18.69-28.08a147,147,0,0,0,47.18-6.53l25.62,22a2.76,2.76,0,0,0,3.2.29L345.61,822a2.75,2.75,0,0,0,1.32-2.93L340.29,786a146.83,146.83,0,0,0,28.77-38l33.62-2.58a2.77,2.77,0,0,0,2.47-2.07l10.23-39.16a2.8,2.8,0,0,0-1.15-3l-28.07-18.69a146.86,146.86,0,0,0-6.54-47.17l22-25.62a2.77,2.77,0,0,0,.28-3.21l-20.46-34.92a2.78,2.78,0,0,0-2.94-1.32l-33.09,6.64a146.75,146.75,0,0,0-37.95-28.76l-2.59-33.63a2.77,2.77,0,0,0-2.06-2.47L263.61,501.8a2.76,2.76,0,0,0-3,1.14L241.92,531a146.92,146.92,0,0,0-47.18,6.54l-25.62-22a2.77,2.77,0,0,0-3.21-.29L131,535.76a2.78,2.78,0,0,0-1.32,2.94l6.64,33.09a146.85,146.85,0,0,0-28.76,38l-33.62,2.58a2.76,2.76,0,0,0-2.47,2.06L61.23,653.56a2.77,2.77,0,0,0,1.15,3l28.07,18.69A147.13,147.13,0,0,0,97,722.43L75,748.05a2.79,2.79,0,0,0-.29,3.21Z"/><path class="cls-19" d="M202,658.92a41.22,41.22,0,1,1-2.56,5.58A41.78,41.78,0,0,1,202,658.92Zm51-6.75a30.47,30.47,0,0,0-41.38,12h0a30.47,30.47,0,1,0,41.38-12Z"/><path class="cls-19" d="M142.44,642.44q-1.81,4.88-3.16,10a103.8,103.8,0,0,0-3.23,20.77c0,.31,0,.63,0,.94a5.48,5.48,0,1,0,10.94.47,92.56,92.56,0,0,1,2.92-19.41h0c.09-.35.18-.7.28-1a91.18,91.18,0,0,1,22.17-39.33,92.4,92.4,0,0,1,19.42-15.46l.18-.11.54-.32A92.18,92.18,0,1,1,173.29,743.1a5.54,5.54,0,0,0-2-1.29,5.47,5.47,0,0,0-5.82,9A103,103,0,0,0,203,775.14a104.38,104.38,0,0,0,10,3.16,103.16,103.16,0,0,0,62.24-196.41q-5-1.83-10.12-3.19A103.29,103.29,0,0,0,142.44,642.44Z"/><path class="cls-49" d="M2383.4,662.53C2141.59-40.15,1086.65-117.22,841.05,466.94l89.19,25.11C1217.68-40.89,2111.78,58,2359.89,719.31l12.23-10.64C2384.6,697.81,2389.09,679.06,2383.4,662.53Z"/><path class="cls-50" d="M1011.78,408.09l-155.67-76c-8.58-4.19-18.26,2.42-18.9,12.89l-14.51,239c-.81,13.42,13.18,21.31,22.29,12.58l170.18-163.08C1022.78,426.27,1021,412.57,1011.78,408.09Z"/><path class="cls-51" d="M2394.05,1523.62c21.93,22.67,54,42.05,76.54,54.09-32.7,41.78-77.18,83.8-136.29,125.19l-16.49,38.66-55.86-64.8S2359.5,1626.24,2394.05,1523.62Z"/><path class="cls-52" d="M2120.83,2774.15a13.55,13.55,0,0,1,.3-3.57c16.62-70.66,104-115.91,104-115.91l35,2.17c21.07,61.71,19.11,99.79,16.16,116.79-.08.47-.22.93-.34,1.39C2247.16,2778.05,2187.91,2780.69,2120.83,2774.15Z"/><path class="cls-53" d="M2275.92,2775c-1.46,5.68-5.57,10.15-10.9,11.36-40.83,9.28-106.05,3.39-133.45.26-6-.69-10.54-6.2-10.74-12.49C2187.91,2780.69,2247.16,2778.05,2275.92,2775Z"/><path class="cls-54" d="M2273.3,2604.61,2259.66,2676c-1,5.24-4.94,9.21-9.79,9.74a98.41,98.41,0,0,1-22.91,0c-7.65-1-13.09-8.67-11.87-17l9.26-63.37Z"/><path class="cls-55" d="M1969.67,2779.24c38.54-1.71,58.41-6.57,68.65-10.95.09,3.84.13,7.74.07,11.78-.06,4.32-3.21,7.82-7.14,7.86l-211.73,2c-6.76.07-10.83-7.7-8-13.94C1839.31,2777.87,1910.09,2781.86,1969.67,2779.24Z"/><path class="cls-56" d="M1811.52,2776a8.67,8.67,0,0,1,.81-1.61c18.27-26.43,65.06-79.22,158.79-103.3l45.12-2.15s20.66,34.61,22.08,99.32c-10.24,4.38-30.11,9.24-68.65,10.95C1910.09,2781.86,1839.31,2777.87,1811.52,2776Z"/><path class="cls-57" d="M2023.51,2600.43c-.45,3.37-5.82,54.61-7.89,74.47a9.82,9.82,0,0,1-8.14,9c-7.67,1-20.1,2.08-31,0-5.89-1.11-10.23-6.68-10.33-13.23l-1.3-80.28Z"/><path class="cls-58" d="M2044.69,1666.57s-102.21,415.52-91.86,936.18a20.15,20.15,0,0,0,16.31,19.38c13.74,2.67,33.91,5.76,50.56,5a18.72,18.72,0,0,0,17.58-15.9c13.82-89.77,93.31-595.53,141.9-678.22,0,0,40.08,448.67,33.33,681.88a11.05,11.05,0,0,0,9.93,11.33,185.93,185.93,0,0,0,40.52-.76,14.79,14.79,0,0,0,13-12.76c9.65-75.95,65-528,57.08-852.8-.44-18.32-50-97.2-50-97.2Z"/><path class="cls-59" d="M1885.2,1168.24a452.8,452.8,0,0,0,45-71.09c17.53-34.46,1.81,22.09,6.13-16.57,133.85-99.92,338.59-53.73,417.63-45.07a105.41,105.41,0,0,1,67.14,34.67c68.86,77.13,220.63,288.91,49.52,507.53-22.54-12-54.61-31.42-76.54-54.09,18.44-54.76,18.9-124.36-23-209a198.49,198.49,0,0,1-4.84,20.13c-52.95,177.66-53.56,324.79-52.89,358.69a11.17,11.17,0,0,1-6.85,10.57c-73,30.61-214.58,15.38-262.15,9.07a16,16,0,0,1-13.64-17.9c20.57-169.08-103.41-444.69-136.1-513.7A46.28,46.28,0,0,0,1885.2,1168.24Z"/><path class="cls-60" d="M2224.72,895.5l16.49,144.36s-80.95,25.81-140.78-15L2139.9,892.8Z"/><path class="cls-61" d="M2127.69,732.22c-1.93,1.88-80,161.58-80,161.58l92.14,42.66,96.52-140.37S2160,700.84,2127.69,732.22Z"/><path class="cls-62" d="M2195.92,800.59a14.63,14.63,0,0,1-.89,12.83l-44.38,76.74a14.11,14.11,0,0,1-2.45,3.15c-5.34,5.14-23.68,20.13-38.36.36-12.51-16.86-24.24-32.17-36.64-38.37a14.58,14.58,0,0,0-19.57,6.79c-7.27,15-21.34,45.6-30,74.53a14.52,14.52,0,0,0,8.74,17.66c18.63,7.21,55.44,20.18,88,24.14a14.59,14.59,0,0,0,13.69-6.09c13.66-19.36,52.17-73.47,65.39-87.07,12.28-12.64,35.4-8.32,45.83-5.5a14.66,14.66,0,0,0,11.62-1.72c10.43-6.51,28.56-22.61,11.31-49.09a14.58,14.58,0,0,1,4.2-19.89c11.63-7.93,24.16-22.66,11.62-46-12.69-23.61-34.7-25.39-49.64-23.32-6.61.91-13.39-2.45-16-8.58a9.66,9.66,0,0,0-7.62-5.81c-7.87-1.46-13.14-8.55-11.73-16.43,2.43-13.52.16-31-21.54-42.46-39.8-21.06-73.78,14.84-82.09,44.81s36.14,50.35,63.94,53.42C2179.7,767,2191.24,789,2195.92,800.59Z"/><path class="cls-63" d="M2182.73,913.45s16.72-51.61,39.2-50.08,40.51,23.6,13.09,49.19C2200.91,944.4,2182.73,913.45,2182.73,913.45Z"/><path class="cls-64" d="M2378.29,1301.24c28.29-81.47,16-179.1,15.85-180.07l-8.14,1.06c.12,1,12.17,96.72-15.47,176.32Z"/><path class="cls-65" d="M2183,1922.43a4.09,4.09,0,0,0,3.92-3.14c8.47-35,75.46-74.32,76.14-74.72a4.1,4.1,0,1,0-4.13-7.09c-2.88,1.67-70.7,41.52-80,79.88a4.12,4.12,0,0,0,3,5A4,4,0,0,0,2183,1922.43Z"/><path class="cls-66" d="M1611,1218.14c153.54,20.52,251.82-77.74,325.27-137.56,97-79,174-42.56,174-42.56l-101.53,201.59c-154,150-315,119.84-416.83,73.67A195,195,0,0,1,1611,1218.14Z"/><path class="cls-67" d="M1394.27,1130.23l51.24,26.51c61.52,36.11,116.34,54.83,165.52,61.4a195,195,0,0,0-19.08,95.14c-64.85-29.38-105.79-65.25-105.79-65.25C1370,1181.27,1394.27,1130.23,1394.27,1130.23Z"/><path class="cls-68" d="M1245.78,1204.22a37.47,37.47,0,0,1,21.52-24.32l102.42-43.12s1.34-13.25-22.14-21.85-18.45-34.84-18.45-34.84,32.12,14,79.17,36.35c26.91,12.76,42.26,35.81,50.48,53.22l-26,35.32c-63.23,20.12-127.46,24.8-192.42,18.27Z"/><polygon class="cls-69" points="1963.59 573.89 2070.52 687.52 2070.52 534.48 1963.59 573.89"/><path class="cls-70" d="M2040.17,583.26,1425.25,551.1c-15.18-.8-27.1-13.89-27.1-29.76V346.41c0-16.73,13.18-30.18,29.18-29.79l614.93,14.88c15.49.37,27.86,13.6,27.86,29.79V553.5C2070.12,570.54,2056.47,584.11,2040.17,583.26Z"/><path class="cls-71" d="M2024,566.53l-592.37-28.61c-14.62-.71-26.1-12.35-26.1-26.48V355.84c0-14.88,12.7-26.84,28.12-26.5l592.36,13.24c14.92.33,26.84,12.1,26.84,26.5v171C2052.89,555.21,2039.73,567.29,2024,566.53Z"/></g></g></svg>