<svg xmlns="http://www.w3.org/2000/svg" viewBox="0 0 156.3 145.3"><defs><style>.cls-1{isolation:isolate;}.cls-2,.cls-32{fill:#ff8260;}.cls-2,.cls-27,.cls-28,.cls-31,.cls-6{mix-blend-mode:multiply;}.cls-2,.cls-27,.cls-28,.cls-31{opacity:0.5;}.cls-3{fill:#fff;}.cls-4{fill:#172a35;}.cls-5,.cls-6{fill:#e6e6e6;}.cls-29,.cls-7{fill:none;stroke-miterlimit:10;}.cls-7{stroke:#000;}.cls-8{fill:#e3bf6d;}.cls-9{fill:#cfae63;}.cls-10{fill:#b59857;}.cls-11,.cls-28{fill:#ffd77b;}.cls-12{fill:#ffeaba;}.cls-13{fill:#ffe3a3;}.cls-14{fill:#353e42;}.cls-15{fill:#293033;}.cls-16{fill:#1d2224;}.cls-17,.cls-27{fill:#424d53;}.cls-18{fill:#677982;}.cls-19{fill:#596870;}.cls-20{fill:#00ab9e;}.cls-21{fill:#e37654;}.cls-22{fill:#c9694b;}.cls-23{fill:#b55f44;}.cls-24,.cls-31{fill:#ff855e;}.cls-25{fill:#ffa182;}.cls-26{fill:#ff9775;}.cls-29{stroke:#340c54;}.cls-30{fill:#424e59;}.cls-33{fill:#ff865f;}.cls-34{fill:#162934;}.cls-35{fill:#ffca68;}</style></defs><g class="cls-1"><g id="Calque_2" data-name="Calque 2"><g id="OBJECTS"><ellipse class="cls-2" cx="73.94" cy="136.58" rx="62.09" ry="8.73"/><path class="cls-3" d="M132,65.56v18.2A31.25,31.25,0,0,1,100.76,115H47.09A31.25,31.25,0,0,1,15.84,83.76V65.56A31.25,31.25,0,0,1,47.09,34.31h53.67A31.25,31.25,0,0,1,132,65.56Zm-6,4.67A30.37,30.37,0,0,0,95.65,39.86H52.42a30.37,30.37,0,0,0,0,60.74H95.65A30.37,30.37,0,0,0,126,70.23ZM76.38,109.84a2.57,2.57,0,1,0-2.56,2.56A2.56,2.56,0,0,0,76.38,109.84Z"/><path class="cls-4" d="M95.65,39.86a30.37,30.37,0,1,1,0,60.74H52.42a30.37,30.37,0,1,1,0-60.74Z"/><path class="cls-4" d="M93.75,132.18a3.15,3.15,0,0,1,.4,3.41,5.18,5.18,0,0,1-2.7,2.11,31.32,31.32,0,0,1-10.6,2.21l-6.34.32h-.66l-6.34-.32a31.27,31.27,0,0,1-10.6-2.21,5.14,5.14,0,0,1-2.7-2.11,3,3,0,0,1,3.65-4.29,2.18,2.18,0,0,0,0,1.29c.3,1,1.43,1.59,2.45,2,3.8,1.37,8.89,1.53,12.33,1.82h3.1c3.44-.29,8.52-.45,12.32-1.82,1-.37,2.16-.92,2.46-2a2.29,2.29,0,0,0,0-1.27A3.11,3.11,0,0,1,93.75,132.18Z"/><path class="cls-5" d="M57.86,131.3a8.82,8.82,0,0,1,.89-1.76A19.72,19.72,0,0,0,61,115v0H87.33v0a19.67,19.67,0,0,0,2.22,14.5,8.23,8.23,0,0,1,.89,1.78,2.29,2.29,0,0,1,0,1.27c-.3,1-1.43,1.59-2.46,2-3.8,1.37-8.88,1.53-12.32,1.82H72.6c-3.44-.29-8.53-.45-12.33-1.82-1-.37-2.15-.92-2.45-2A2.18,2.18,0,0,1,57.86,131.3Z"/><path class="cls-4" d="M73.82,107.28a2.56,2.56,0,1,1-2.57,2.56A2.56,2.56,0,0,1,73.82,107.28Z"/><path class="cls-6" d="M67.05,115c.56,2.11,1.45,16.46-4.49,20.2a15.1,15.1,0,0,1-4.47-2.06l-.17-1.83,1.48-3.23,1.49-3.76.57-3.78L61,115Z"/><path class="cls-6" d="M21.17,36.94c-2.23,9.05-.87,64.33-.62,67.36C20.94,109,29.5,115,45,115c-18,0-20.24-.93-20.24-.93L21,112l-2.79-3-1.35-2.49s-.86-3-.91-3.3,0-57,0-57l.63-2.57,1.57-3.21Z"/><rect class="cls-7" x="15.84" y="34.31" width="116.17" height="80.7" rx="31.25"/><rect class="cls-7" x="22.05" y="39.86" width="103.98" height="60.75" rx="30.37"/><path d="M87,114.94a19.71,19.71,0,0,0,1.92,14.5c.54,1,1.68,2.38.82,3.48a5.61,5.61,0,0,1-2.92,1.44,37.85,37.85,0,0,1-7.26,1.14c-1.62.13-3.25.27-4.88.27-1.45,0-2.86-.07-4.31-.18a51.75,51.75,0,0,1-7.23-.9,15.09,15.09,0,0,1-3.31-1,2.84,2.84,0,0,1-1.17-.88,1.79,1.79,0,0,1,.07-1.84c.61-1.26,1.38-2.41,1.92-3.71a19.65,19.65,0,0,0,1.2-4,20.49,20.49,0,0,0,.34-4.28,8.3,8.3,0,0,0-.79-4.1.44.44,0,0,0-.82.22,38.24,38.24,0,0,0,.29,4,19.5,19.5,0,0,1-.32,4,19.81,19.81,0,0,1-1.14,3.85c-.53,1.25-1.32,2.36-1.87,3.6a2.94,2.94,0,0,0,.27,3.25,6.14,6.14,0,0,0,2.89,1.58,34.41,34.41,0,0,0,7.54,1.3c1.78.15,3.57.33,5.36.32,1.55,0,3.06-.07,4.61-.19a51.94,51.94,0,0,0,7.56-1c1.85-.41,5-1.06,5.35-3.34.24-1.46-.82-2.72-1.48-3.93a19,19,0,0,1-1.66-4.19,20.38,20.38,0,0,1-.23-9.19c.09-.49-.62-.7-.75-.21Z"/><path d="M90.51,131.56A2.78,2.78,0,0,1,94.05,134c.09,1.89-1.63,2.82-3.15,3.39a33.9,33.9,0,0,1-10.79,2c-1.87.08-3.75.21-5.63.23-1.58,0-3.19-.15-4.77-.23a40.92,40.92,0,0,1-10.94-1.69c-1.55-.52-4-1.26-4.23-3.16a2.44,2.44,0,0,1,3.21-2.63c.79.23,1.1-1,.34-1.22a3.72,3.72,0,0,0-4.44,1.75,3.83,3.83,0,0,0,1.11,4.74,15,15,0,0,0,5.63,2.33,36,36,0,0,0,6.45,1c2.33.15,4.69.26,7,.3,2,0,3.94-.19,5.89-.3,4.21-.24,8.76-.69,12.55-2.7,1.73-.92,3.09-2.57,2.45-4.63a3.32,3.32,0,0,0-4.37-2.1.25.25,0,0,0,.13.48Z"/><rect class="cls-8" x="29.64" y="56.71" width="13.67" height="9.56" transform="translate(-11.71 8.67) rotate(-11.7)"/><rect class="cls-9" x="31.58" y="66.07" width="13.67" height="9.56" transform="translate(-13.57 9.26) rotate(-11.7)"/><path class="cls-10" d="M36.91,85.89l8.85-1.83a2.32,2.32,0,0,0,1.8-2.74l-1.48-7.17L32.69,76.92l1.48,7.17A2.32,2.32,0,0,0,36.91,85.89Z"/><rect class="cls-11" x="27.7" y="47.35" width="13.67" height="9.56" transform="translate(-9.85 8.08) rotate(-11.7)"/><path class="cls-12" d="M34.12,27.81l-8.86,1.83a2.32,2.32,0,0,0-1.79,2.74l1.46,7.09L38.32,36.7l-1.47-7.09A2.31,2.31,0,0,0,34.12,27.81Z"/><rect class="cls-13" x="25.76" y="37.99" width="13.67" height="9.56" transform="translate(-7.99 7.5) rotate(-11.7)"/><path class="cls-7" d="M47.56,81.32l-1.48-7.17-1.94-9.36L42.2,55.43l-1.94-9.37L38.32,36.7l-1.47-7.09a2.31,2.31,0,0,0-2.73-1.8l-8.86,1.83a2.32,2.32,0,0,0-1.79,2.74l1.46,7.09,1.94,9.37,1.94,9.36,1.94,9.36,1.94,9.36,1.48,7.17a2.32,2.32,0,0,0,2.74,1.8l8.85-1.83A2.32,2.32,0,0,0,47.56,81.32Z"/><line class="cls-7" x1="40.26" y1="46.06" x2="26.87" y2="48.84"/><line class="cls-7" x1="24.93" y1="39.47" x2="38.32" y2="36.7"/><line class="cls-7" x1="46.08" y1="74.15" x2="32.69" y2="76.92"/><line class="cls-7" x1="44.14" y1="64.79" x2="30.75" y2="67.56"/><line class="cls-7" x1="28.81" y1="58.2" x2="42.2" y2="55.43"/><rect class="cls-14" x="25.02" y="64.19" width="13.67" height="9.56" transform="translate(-27.13 21.09) rotate(-26.15)"/><rect class="cls-15" x="29.23" y="72.77" width="13.67" height="9.56" transform="translate(-30.48 23.83) rotate(-26.15)"/><path class="cls-16" d="M38.36,92.48l8.12-4a2.32,2.32,0,0,0,1.06-3.1l-3.23-6.57L32,84.85l3.22,6.58A2.32,2.32,0,0,0,38.36,92.48Z"/><rect class="cls-17" x="20.8" y="55.6" width="13.67" height="9.56" transform="translate(-23.78 18.36) rotate(-26.15)"/><path class="cls-18" d="M21.17,36.94l-8.12,4A2.32,2.32,0,0,0,12,44l3.19,6.5,12.28-6L24.26,38A2.3,2.3,0,0,0,21.17,36.94Z"/><rect class="cls-19" x="16.59" y="47.02" width="13.67" height="9.56" transform="translate(-20.43 15.62) rotate(-26.15)"/><rect class="cls-14" x="25.02" y="64.19" width="13.67" height="9.56" transform="translate(-27.13 21.09) rotate(-26.15)"/><rect class="cls-15" x="29.23" y="72.77" width="13.67" height="9.56" transform="translate(-30.48 23.83) rotate(-26.15)"/><path class="cls-16" d="M38.36,92.48l8.12-4a2.32,2.32,0,0,0,1.06-3.1l-3.23-6.57L32,84.85l3.22,6.58A2.32,2.32,0,0,0,38.36,92.48Z"/><rect class="cls-17" x="20.8" y="55.6" width="13.67" height="9.56" transform="translate(-23.78 18.36) rotate(-26.15)"/><path class="cls-18" d="M21.17,36.94l-8.12,4A2.32,2.32,0,0,0,12,44l3.19,6.5,12.28-6L24.26,38A2.3,2.3,0,0,0,21.17,36.94Z"/><rect class="cls-19" x="16.59" y="47.02" width="13.67" height="9.56" transform="translate(-20.43 15.62) rotate(-26.15)"/><path class="cls-7" d="M47.54,85.4l-3.23-6.57L40.1,70.24l-4.22-8.58-4.21-8.58L24.26,38a2.3,2.3,0,0,0-3.09-1.05l-8.12,4A2.32,2.32,0,0,0,12,44L19.4,59.11l4.21,8.58,4.21,8.58L32,84.85l3.22,6.58a2.32,2.32,0,0,0,3.1,1l8.12-4A2.32,2.32,0,0,0,47.54,85.4Z"/><line class="cls-7" x1="27.46" y1="44.5" x2="15.18" y2="50.52"/><line class="cls-7" x1="44.31" y1="78.83" x2="32.04" y2="84.85"/><line class="cls-7" x1="40.1" y1="70.24" x2="27.82" y2="76.27"/><line class="cls-7" x1="35.88" y1="61.66" x2="23.61" y2="67.69"/><line class="cls-7" x1="31.67" y1="53.08" x2="19.4" y2="59.11"/><path class="cls-20" d="M24.15,70a.38.38,0,0,0,0-.75.38.38,0,0,0,0,.75Z"/><rect class="cls-21" x="21.79" y="72.74" width="13.67" height="9.56" transform="translate(-40.81 32.72) rotate(-36.9)"/><rect class="cls-22" x="27.53" y="80.39" width="13.67" height="9.56" transform="translate(-44.25 37.69) rotate(-36.9)"/><path class="cls-23" d="M39.41,99.41,46.64,94a2.31,2.31,0,0,0,.46-3.24l-4.39-5.86L31.77,93.09,36.17,99A2.31,2.31,0,0,0,39.41,99.41Z"/><rect class="cls-24" x="16.05" y="65.09" width="13.67" height="9.56" transform="translate(-37.37 27.74) rotate(-36.9)"/><path class="cls-25" d="M12.15,48.05,4.92,53.48a2.31,2.31,0,0,0-.46,3.24l4.35,5.79L19.75,54.3l-4.36-5.79A2.31,2.31,0,0,0,12.15,48.05Z"/><rect class="cls-26" x="10.31" y="57.45" width="13.67" height="9.56" transform="translate(-33.92 22.75) rotate(-36.89)"/><rect class="cls-26" x="10.31" y="57.45" width="13.67" height="9.56" transform="translate(-33.92 22.75) rotate(-36.89)"/><rect class="cls-7" x="10.31" y="57.45" width="13.67" height="9.56" transform="translate(-33.92 22.76) rotate(-36.89)"/><line class="cls-7" x1="31.77" y1="93.09" x2="42.71" y2="84.88"/><line class="cls-7" x1="36.97" y1="77.24" x2="26.03" y2="85.45"/><line class="cls-7" x1="31.23" y1="69.59" x2="20.29" y2="77.8"/><path class="cls-7" d="M47.1,90.74l-4.39-5.86L37,77.24l-5.74-7.65L25.49,62,14.55,70.16l5.74,7.64L26,85.45l5.74,7.64L36.17,99a2.31,2.31,0,0,0,3.24.46L46.64,94A2.31,2.31,0,0,0,47.1,90.74Z"/><path class="cls-7" d="M15.39,48.51a2.31,2.31,0,0,0-3.24-.46L4.92,53.48a2.31,2.31,0,0,0-.46,3.24l4.35,5.79L19.75,54.3Z"/><path class="cls-17" d="M114.23,27.12l4.47-10.44a1.17,1.17,0,0,1,0-.11,6.23,6.23,0,0,1,8.13-3.15l.87.37A6.24,6.24,0,0,1,131,22L108.24,75a6.22,6.22,0,0,1-8.17,3.27l-.87-.38a6.21,6.21,0,0,1-3.26-8.17l.18-.43,4.52-10.54,4.53-10.55Z"/><path class="cls-27" d="M126,13c-1.36-.18-28.33,64.2-28.33,64.2L96,76.54l-1.41-1.37-.42-1.46,26-60.37,1-1.1,1.62-.4,1.08.29Z"/><line class="cls-7" x1="122.73" y1="18.27" x2="118.75" y2="16.57"/><line class="cls-7" x1="118.2" y1="28.82" x2="114.23" y2="27.11"/><line class="cls-7" x1="113.67" y1="39.37" x2="109.7" y2="37.66"/><line class="cls-7" x1="109.15" y1="49.91" x2="105.17" y2="48.21"/><line class="cls-7" x1="104.62" y1="60.46" x2="100.65" y2="58.76"/><line class="cls-7" x1="100.09" y1="71.01" x2="96.12" y2="69.3"/><rect class="cls-7" x="106.78" y="10.76" width="13.39" height="70.18" rx="6.23" transform="translate(199.67 132.73) rotate(-156.77)"/><path class="cls-11" d="M143.73,41.51l2.81-.92a2.71,2.71,0,0,1,2.73,4.52L104.53,88.75a2.7,2.7,0,0,1-4.47-1.1L91.5,61.32a2.71,2.71,0,0,1,1.75-3.42L96.16,57l9.51-3.09,9.52-3.09,9.51-3.08,9.51-3.09Zm-14,15.07a1.43,1.43,0,0,0-1.44-2.38l-28.08,9.12a1.42,1.42,0,0,0-.92,1.8L103.79,79a1.43,1.43,0,0,0,2.36.59Z"/><path class="cls-28" d="M149.91,42.18C149,41,92.41,64.1,92.41,64.1l-.91-2.78-.13-1.61,1.06-1.38L94,57.65,145.9,40.8l1.27-.34,1.18.16,1.17.89Z"/><line class="cls-7" x1="143.73" y1="41.51" x2="144.62" y2="44.26"/><line class="cls-7" x1="134.21" y1="44.59" x2="135.11" y2="47.35"/><line class="cls-7" x1="124.7" y1="47.68" x2="125.59" y2="50.44"/><line class="cls-7" x1="115.18" y1="50.77" x2="116.08" y2="53.53"/><line class="cls-7" x1="105.67" y1="53.86" x2="106.57" y2="56.62"/><line class="cls-7" x1="96.16" y1="56.95" x2="97.05" y2="59.71"/><path class="cls-7" d="M146.54,40.59,93.25,57.9a2.71,2.71,0,0,0-1.75,3.42l8.56,26.33a2.71,2.71,0,0,0,4.47,1.11l44.75-43.65A2.71,2.71,0,0,0,146.54,40.59Zm-16.81,16-23.58,23a1.43,1.43,0,0,1-2.36-.59l-4.5-13.87a1.42,1.42,0,0,1,.92-1.8l28.08-9.12A1.43,1.43,0,0,1,129.73,56.58Z"/><path class="cls-4" d="M94,112.44l.6-1.53a.88.88,0,0,1,1.15-.5l.75.28a.89.89,0,0,0,1-.3,9,9,0,0,1,.95-1.08.89.89,0,0,0,.2-1L98.12,107a.88.88,0,0,1,.45-1.17l1.51-.67a.89.89,0,0,1,1.17.46l.4.92a.88.88,0,0,0,1,.51,8.74,8.74,0,0,1,2.89-.18.92.92,0,0,0,.93-.57l.34-.87a.88.88,0,0,1,1.15-.51l1.53.6a.89.89,0,0,1,.51,1.15l-.34.88a.88.88,0,0,0,.31,1,10.14,10.14,0,0,1,1.32,1.21.88.88,0,0,0,1,.23l.76-.33a.88.88,0,0,1,1.17.45l.67,1.51a.89.89,0,0,1-.46,1.17l-.56.25a.89.89,0,0,0-.51,1,8.55,8.55,0,0,1,.11,2.53.91.91,0,0,0,.56.93l1,.39a.9.9,0,0,1,.51,1.16l-.6,1.53a.89.89,0,0,1-1.15.5l-1-.39a.88.88,0,0,0-1,.31,9,9,0,0,1-2.09,2,.87.87,0,0,0-.29,1.08l.36.82a.9.9,0,0,1-.46,1.18l-1.5.66a.9.9,0,0,1-1.18-.46l-.53-1.21a.88.88,0,0,0-.87-.52,9.9,9.9,0,0,1-1.44,0,.92.92,0,0,0-.93.57l-.33.85a.89.89,0,0,1-1.15.5l-1.54-.59a.9.9,0,0,1-.51-1.15l.34-.85a.91.91,0,0,0-.31-1A8.63,8.63,0,0,1,97.55,121a.9.9,0,0,0-1.08-.29l-.62.27a.88.88,0,0,1-1.17-.45L94,119.05a.89.89,0,0,1,.46-1.17l.83-.36a.91.91,0,0,0,.52-.92,8.82,8.82,0,0,1,0-1.78.89.89,0,0,0-.56-.93l-.75-.29A.91.91,0,0,1,94,112.44Zm5.11,1.11a5.95,5.95,0,1,0,7.7-3.4A6,6,0,0,0,99.11,113.55Z"/><path class="cls-4" d="M103.58,118.47a3,3,0,1,1,3.85-1.69A3,3,0,0,1,103.58,118.47Z"/><path class="cls-29" d="M94.6,110.91l-.6,1.53a.91.91,0,0,0,.51,1.16l.75.29a.89.89,0,0,1,.56.93,8.82,8.82,0,0,0,0,1.78.91.91,0,0,1-.52.92l-.83.36a.89.89,0,0,0-.46,1.17l.67,1.51a.88.88,0,0,0,1.17.45l.62-.27a.9.9,0,0,1,1.08.29,8.63,8.63,0,0,0,1.79,1.78.91.91,0,0,1,.31,1l-.34.85a.9.9,0,0,0,.51,1.15l1.54.59a.89.89,0,0,0,1.15-.5l.33-.85a.92.92,0,0,1,.93-.57,9.9,9.9,0,0,0,1.44,0,.88.88,0,0,1,.87.52l.53,1.21a.9.9,0,0,0,1.18.46l1.5-.66a.9.9,0,0,0,.46-1.18l-.36-.82a.87.87,0,0,1,.29-1.08,9,9,0,0,0,2.09-2,.88.88,0,0,1,1-.31l1,.39a.89.89,0,0,0,1.15-.5l.6-1.53a.9.9,0,0,0-.51-1.16l-1-.39a.91.91,0,0,1-.56-.93,8.55,8.55,0,0,0-.11-2.53.89.89,0,0,1,.51-1l.56-.25a.89.89,0,0,0,.46-1.17l-.67-1.51a.88.88,0,0,0-1.17-.45l-.76.33a.88.88,0,0,1-1-.23,10.14,10.14,0,0,0-1.32-1.21.88.88,0,0,1-.31-1l.34-.88a.89.89,0,0,0-.51-1.15l-1.53-.6a.88.88,0,0,0-1.15.51l-.34.87a.92.92,0,0,1-.93.57,8.74,8.74,0,0,0-2.89.18.88.88,0,0,1-1-.51l-.4-.92a.89.89,0,0,0-1.17-.46l-1.51.67a.88.88,0,0,0-.45,1.17l.57,1.31a.89.89,0,0,1-.2,1,9,9,0,0,0-.95,1.08.89.89,0,0,1-1,.3l-.75-.28A.88.88,0,0,0,94.6,110.91Z"/><path class="cls-29" d="M99.11,113.55a5.95,5.95,0,1,1,3.39,7.7A5.95,5.95,0,0,1,99.11,113.55Z"/><path class="cls-29" d="M101.88,114.62a3,3,0,1,1,1.7,3.85A3,3,0,0,1,101.88,114.62Z"/><path class="cls-7" d="M94.6,110.91l-.6,1.53a.91.91,0,0,0,.51,1.16l.75.29a.89.89,0,0,1,.56.92,8.92,8.92,0,0,0,0,1.79.9.9,0,0,1-.53.92l-.82.36a.89.89,0,0,0-.46,1.17l.66,1.51a.89.89,0,0,0,1.18.45l.62-.27a.9.9,0,0,1,1.08.29,8.93,8.93,0,0,0,1.79,1.79.91.91,0,0,1,.31,1l-.33.85a.89.89,0,0,0,.5,1.15l1.54.6a.9.9,0,0,0,1.15-.51l.33-.85a.9.9,0,0,1,.93-.56,8.66,8.66,0,0,0,1.44,0,.9.9,0,0,1,.87.53l.53,1.21a.9.9,0,0,0,1.18.46l1.5-.66a.9.9,0,0,0,.46-1.18l-.36-.82a.88.88,0,0,1,.29-1.08,9,9,0,0,0,2.09-2,.88.88,0,0,1,1-.31l1,.39a.89.89,0,0,0,1.15-.5l.6-1.54a.89.89,0,0,0-.51-1.15l-1-.39a.9.9,0,0,1-.56-.93,8.55,8.55,0,0,0-.11-2.53.89.89,0,0,1,.51-1l.56-.25a.89.89,0,0,0,.46-1.17l-.66-1.51a.89.89,0,0,0-1.18-.45l-.76.33a.88.88,0,0,1-1-.23,10.14,10.14,0,0,0-1.32-1.21.88.88,0,0,1-.31-1l.34-.87a.89.89,0,0,0-.51-1.15l-1.53-.6a.89.89,0,0,0-1.15.51l-.34.87a.9.9,0,0,1-.93.56,9,9,0,0,0-2.89.19.88.88,0,0,1-1-.51l-.4-.92a.9.9,0,0,0-1.17-.46l-1.51.67a.89.89,0,0,0-.46,1.17l.58,1.31a.89.89,0,0,1-.2,1,9,9,0,0,0-.95,1.08.89.89,0,0,1-1,.3l-.75-.29A.89.89,0,0,0,94.6,110.91Z"/><circle class="cls-7" cx="104.65" cy="115.7" r="5.95"/><circle class="cls-7" cx="104.65" cy="115.7" r="2.98"/><path class="cls-4" d="M56.41,21.43l-1.28,1.36a1,1,0,0,1-1.43,0l-.65-.62a1,1,0,0,0-1.23-.12,10.41,10.41,0,0,1-1.46.72,1,1,0,0,0-.64,1l.05,1.62a1,1,0,0,1-1,1l-1.87.06a1,1,0,0,1-1-1l0-1.14a1,1,0,0,0-.83-1,10,10,0,0,1-3.11-1,1,1,0,0,0-1.22.19l-.73.77a1,1,0,0,1-1.43,0L37.18,22.1a1,1,0,0,1,0-1.43l.73-.77A1,1,0,0,0,38,18.68a10.92,10.92,0,0,1-.87-1.83,1,1,0,0,0-1-.69l-.94,0a1,1,0,0,1-1-1l0-1.86a1,1,0,0,1,1-1l.69,0a1,1,0,0,0,1-.83,9.93,9.93,0,0,1,1-2.7,1,1,0,0,0-.2-1.21l-.9-.86a1,1,0,0,1,0-1.42l1.28-1.36a1,1,0,0,1,1.42,0l.91.85a1,1,0,0,0,1.22.12,10,10,0,0,1,3-1.21,1,1,0,0,0,.78-1l0-1a1,1,0,0,1,1-1L48,.5a1,1,0,0,1,1,1l0,1.5a1,1,0,0,0,.7.93,9.86,9.86,0,0,1,1.5.65,1,1,0,0,0,1.21-.2l.71-.76a1,1,0,0,1,1.43,0L56,4.85a1,1,0,0,1,0,1.42L55.35,7a1,1,0,0,0-.12,1.22,10,10,0,0,1,1.12,2.64,1,1,0,0,0,1,.77l.77,0a1,1,0,0,1,1,1l.06,1.86a1,1,0,0,1-1,1l-1,0a1,1,0,0,0-.94.74,10,10,0,0,1-.76,1.87,1,1,0,0,0,.19,1.22l.66.62A1,1,0,0,1,56.41,21.43ZM51.52,18.1a6.75,6.75,0,1,0-9.55.28A6.76,6.76,0,0,0,51.52,18.1Z"/><path class="cls-4" d="M48.92,11a3.37,3.37,0,1,1-4.77.14A3.37,3.37,0,0,1,48.92,11Z"/><path class="cls-29" d="M55.13,22.79l1.28-1.36a1,1,0,0,0,0-1.43l-.66-.62a1,1,0,0,1-.19-1.22,10,10,0,0,0,.76-1.87,1,1,0,0,1,.94-.74l1,0a1,1,0,0,0,1-1l-.06-1.86a1,1,0,0,0-1-1l-.77,0a1,1,0,0,1-1-.77,10,10,0,0,0-1.12-2.64A1,1,0,0,1,55.35,7l.71-.76a1,1,0,0,0,0-1.42L54.66,3.57a1,1,0,0,0-1.43,0l-.71.76a1,1,0,0,1-1.21.2,9.86,9.86,0,0,0-1.5-.65,1,1,0,0,1-.7-.93l0-1.5a1,1,0,0,0-1-1L46.17.56a1,1,0,0,0-1,1l0,1a1,1,0,0,1-.78,1,10,10,0,0,0-3,1.21,1,1,0,0,1-1.22-.12l-.91-.85a1,1,0,0,0-1.42,0L36.56,5.27a1,1,0,0,0,0,1.42l.9.86a1,1,0,0,1,.2,1.21,9.93,9.93,0,0,0-1,2.7,1,1,0,0,1-1,.83l-.69,0a1,1,0,0,0-1,1l0,1.86a1,1,0,0,0,1,1l.94,0a1,1,0,0,1,1,.69A10.92,10.92,0,0,0,38,18.68a1,1,0,0,1-.12,1.22l-.73.77a1,1,0,0,0,0,1.43l1.35,1.28a1,1,0,0,0,1.43,0l.73-.77a1,1,0,0,1,1.22-.19,10,10,0,0,0,3.11,1,1,1,0,0,1,.83,1l0,1.14a1,1,0,0,0,1,1l1.87-.06a1,1,0,0,0,1-1l-.05-1.62a1,1,0,0,1,.64-1,10.41,10.41,0,0,0,1.46-.72,1,1,0,0,1,1.23.12l.65.62A1,1,0,0,0,55.13,22.79Z"/><path class="cls-29" d="M51.52,18.1a6.75,6.75,0,1,1-.28-9.55A6.77,6.77,0,0,1,51.52,18.1Z"/><path class="cls-29" d="M49.06,15.78A3.37,3.37,0,1,1,48.92,11,3.37,3.37,0,0,1,49.06,15.78Z"/><path class="cls-7" d="M55.13,22.79l1.28-1.36a1,1,0,0,0,0-1.43l-.66-.62a1,1,0,0,1-.19-1.21,10.43,10.43,0,0,0,.76-1.88,1,1,0,0,1,.94-.74l1,0a1,1,0,0,0,1-1l0-1.86a1,1,0,0,0-1-1l-.77,0a1,1,0,0,1-1-.77,10.38,10.38,0,0,0-1.12-2.64A1,1,0,0,1,55.35,7l.71-.76a1,1,0,0,0,0-1.43L54.66,3.57a1,1,0,0,0-1.43,0l-.71.75a1,1,0,0,1-1.21.19,10.9,10.9,0,0,0-1.5-.64,1,1,0,0,1-.7-.93l0-1.5a1,1,0,0,0-1-1L46.17.55a1,1,0,0,0-1,1l0,1a1,1,0,0,1-.78,1,9.82,9.82,0,0,0-3,1.21,1,1,0,0,1-1.23-.12l-.9-.85a1,1,0,0,0-1.43,0L36.56,5.27a1,1,0,0,0,0,1.43l.9.85a1,1,0,0,1,.2,1.21,9.93,9.93,0,0,0-1,2.7,1,1,0,0,1-1,.83l-.69,0a1,1,0,0,0-1,1l0,1.86a1,1,0,0,0,1,1l.94,0a1,1,0,0,1,1,.68A10.24,10.24,0,0,0,38,18.68a1,1,0,0,1-.13,1.22l-.73.78a1,1,0,0,0,0,1.42l1.35,1.28a1,1,0,0,0,1.43,0l.73-.77a1,1,0,0,1,1.22-.19,10,10,0,0,0,3.11,1,1,1,0,0,1,.83,1l0,1.13a1,1,0,0,0,1,1l1.87,0a1,1,0,0,0,1-1l-.05-1.62a1,1,0,0,1,.64-1,10.41,10.41,0,0,0,1.46-.72,1,1,0,0,1,1.22.12l.66.62A1,1,0,0,0,55.13,22.79Z"/><circle class="cls-7" cx="46.61" cy="13.46" r="6.75"/><circle class="cls-7" cx="46.61" cy="13.46" r="3.38"/><path class="cls-17" d="M146.34,107.36l.46,2.3a1.27,1.27,0,0,1-1,1.49l-1.11.22a1.28,1.28,0,0,0-1,1.17,12.49,12.49,0,0,1-.32,2,1.28,1.28,0,0,0,.53,1.36l1.69,1.13a1.26,1.26,0,0,1,.35,1.76l-1.3,2a1.26,1.26,0,0,1-1.76.35l-1.19-.79a1.24,1.24,0,0,0-1.59.15,12.57,12.57,0,0,1-3.33,2.43,1.3,1.3,0,0,0-.69,1.39l.26,1.31a1.27,1.27,0,0,1-1,1.5l-2.3.46a1.27,1.27,0,0,1-1.49-1l-.26-1.31a1.29,1.29,0,0,0-1.17-1,12.33,12.33,0,0,1-2.51-.44,1.29,1.29,0,0,0-1.42.51l-.65,1a1.28,1.28,0,0,1-1.76.35l-2-1.3a1.27,1.27,0,0,1-.35-1.76l.48-.73a1.27,1.27,0,0,0-.15-1.58,13.07,13.07,0,0,1-2.06-3,1.28,1.28,0,0,0-1.39-.68l-1.53.3a1.27,1.27,0,0,1-1.49-1l-.46-2.3a1.27,1.27,0,0,1,1-1.5l1.53-.3a1.28,1.28,0,0,0,1-1.17,12.94,12.94,0,0,1,1-4,1.24,1.24,0,0,0-.47-1.52l-1.07-.72a1.27,1.27,0,0,1-.35-1.76l1.3-2a1.28,1.28,0,0,1,1.77-.35l1.56,1a1.26,1.26,0,0,0,1.46,0,13,13,0,0,1,1.75-1.07,1.27,1.27,0,0,0,.69-1.38l-.26-1.28a1.27,1.27,0,0,1,1-1.49l2.3-.46a1.26,1.26,0,0,1,1.49,1l.26,1.27A1.26,1.26,0,0,0,132,99a12.23,12.23,0,0,1,3.52.77,1.28,1.28,0,0,0,1.52-.47l.54-.82a1.28,1.28,0,0,1,1.76-.35l1.95,1.3a1.27,1.27,0,0,1,.35,1.77l-.71,1.07a1.26,1.26,0,0,0,.07,1.49,13,13,0,0,1,1.37,2.15,1.27,1.27,0,0,0,1.39.69l1.12-.22A1.26,1.26,0,0,1,146.34,107.36Zm-7,2.58a8.48,8.48,0,1,0-6.66,10A8.49,8.49,0,0,0,139.36,109.94Z"/><path class="cls-17" d="M130.21,107.44a4.24,4.24,0,1,1-3.33,5A4.25,4.25,0,0,1,130.21,107.44Z"/><path class="cls-29" d="M146.8,109.66l-.46-2.3a1.26,1.26,0,0,0-1.49-1l-1.12.22a1.27,1.27,0,0,1-1.39-.69,13,13,0,0,0-1.37-2.15,1.26,1.26,0,0,1-.07-1.49l.71-1.07a1.27,1.27,0,0,0-.35-1.77l-1.95-1.3a1.28,1.28,0,0,0-1.76.35l-.54.82a1.28,1.28,0,0,1-1.52.47A12.23,12.23,0,0,0,132,99a1.26,1.26,0,0,1-1.16-1l-.26-1.27a1.26,1.26,0,0,0-1.49-1l-2.3.46a1.27,1.27,0,0,0-1,1.49l.26,1.28a1.27,1.27,0,0,1-.69,1.38,13,13,0,0,0-1.75,1.07,1.26,1.26,0,0,1-1.46,0l-1.56-1a1.28,1.28,0,0,0-1.77.35l-1.3,2a1.27,1.27,0,0,0,.35,1.76l1.07.72a1.24,1.24,0,0,1,.47,1.52,12.94,12.94,0,0,0-1,4,1.28,1.28,0,0,1-1,1.17l-1.53.3a1.27,1.27,0,0,0-1,1.5l.46,2.3a1.27,1.27,0,0,0,1.49,1l1.53-.3a1.28,1.28,0,0,1,1.39.68,13.07,13.07,0,0,0,2.06,3,1.27,1.27,0,0,1,.15,1.58l-.48.73a1.27,1.27,0,0,0,.35,1.76l2,1.3a1.28,1.28,0,0,0,1.76-.35l.65-1a1.29,1.29,0,0,1,1.42-.51,12.33,12.33,0,0,0,2.51.44,1.29,1.29,0,0,1,1.17,1l.26,1.31a1.27,1.27,0,0,0,1.49,1l2.3-.46a1.27,1.27,0,0,0,1-1.5l-.26-1.31a1.3,1.3,0,0,1,.69-1.39,12.57,12.57,0,0,0,3.33-2.43,1.24,1.24,0,0,1,1.59-.15l1.19.79a1.26,1.26,0,0,0,1.76-.35l1.3-2a1.26,1.26,0,0,0-.35-1.76l-1.69-1.13a1.28,1.28,0,0,1-.53-1.36,12.49,12.49,0,0,0,.32-2,1.28,1.28,0,0,1,1-1.17l1.11-.22A1.27,1.27,0,0,0,146.8,109.66Z"/><path class="cls-29" d="M139.36,109.94a8.48,8.48,0,1,1-10-6.66A8.49,8.49,0,0,1,139.36,109.94Z"/><path class="cls-29" d="M135.2,110.77a4.24,4.24,0,1,1-5-3.33A4.23,4.23,0,0,1,135.2,110.77Z"/><path class="cls-27" d="M130.21,107.44c-2.7,1-1.49,8.67,2.3,8.14-1.71.26-1.64.45-2.48.14a9.38,9.38,0,0,1-1.58-.76s-1-1.11-1.09-1.25-.53-1.51-.53-1.51l.16-1.85.59-1.2,1.12-1.08Z"/><path class="cls-27" d="M124.85,100.56c-3.93,2.61-6.71,14.41-.49,19.11s11.4,3.59,14.38,2l-2.46,1.66-.22,1,.24,1.9L136,127l-3.74.52-.59-.46-.6-2.07-.75-.67-1.14-.15-2.06-.34-1,.51-.66,1-.7.5a7,7,0,0,0-.94,0,6.93,6.93,0,0,1-1.25-.9l-1-.64-.5-1,.76-1.45.22-.64-.36-.88-.79-.93-1-1.43-.63-1a1.68,1.68,0,0,0-.78-.31c-.3,0-1.31.22-1.57.27a5.69,5.69,0,0,1-1,0l-.7-.72-.57-2.82.55-.93,1.55-.39,1.07-.43.34-.5.32-2,.5-1.78a6.13,6.13,0,0,0,.35-1.11,1.81,1.81,0,0,0-.37-.9c-.2-.17-.78-.55-.78-.55l-.76-.58-.27-.63,0-.6,1.88-2.47.87-.3.66.44,1.2.81.76.2.43,0Z"/><path class="cls-7" d="M146.8,109.65l-.46-2.29a1.27,1.27,0,0,0-1.49-1l-1.12.22a1.28,1.28,0,0,1-1.39-.68,12.26,12.26,0,0,0-1.37-2.15,1.28,1.28,0,0,1-.07-1.5l.72-1.07a1.27,1.27,0,0,0-.36-1.76l-1.95-1.31a1.27,1.27,0,0,0-1.76.36l-.54.81a1.28,1.28,0,0,1-1.52.47A12.65,12.65,0,0,0,132,99a1.26,1.26,0,0,1-1.16-1l-.26-1.27a1.26,1.26,0,0,0-1.49-1l-2.3.46a1.27,1.27,0,0,0-1,1.49l.26,1.28a1.27,1.27,0,0,1-.69,1.38,13,13,0,0,0-1.75,1.07,1.25,1.25,0,0,1-1.45,0l-1.58-1a1.27,1.27,0,0,0-1.76.35l-1.3,2a1.27,1.27,0,0,0,.35,1.76l1.07.71a1.25,1.25,0,0,1,.47,1.53,12.94,12.94,0,0,0-1,4,1.28,1.28,0,0,1-1,1.17l-1.53.3a1.27,1.27,0,0,0-1,1.5l.46,2.3a1.27,1.27,0,0,0,1.49,1l1.53-.3a1.27,1.27,0,0,1,1.39.68,12.59,12.59,0,0,0,2.07,3,1.28,1.28,0,0,1,.14,1.58l-.48.73a1.27,1.27,0,0,0,.35,1.76l2,1.3a1.27,1.27,0,0,0,1.76-.35l.66-1a1.27,1.27,0,0,1,1.41-.51,12.33,12.33,0,0,0,2.51.44,1.26,1.26,0,0,1,1.16,1l.27,1.31a1.27,1.27,0,0,0,1.49,1l2.3-.46a1.27,1.27,0,0,0,1-1.5l-.26-1.31a1.29,1.29,0,0,1,.69-1.39,12.57,12.57,0,0,0,3.33-2.43,1.26,1.26,0,0,1,1.59-.15l1.19.79a1.26,1.26,0,0,0,1.76-.35l1.3-2a1.26,1.26,0,0,0-.35-1.76l-1.69-1.13a1.28,1.28,0,0,1-.53-1.36,12.32,12.32,0,0,0,.32-2,1.27,1.27,0,0,1,1-1.17l1.12-.22A1.27,1.27,0,0,0,146.8,109.65Z"/><circle class="cls-7" cx="131.04" cy="111.6" r="8.49"/><circle class="cls-7" cx="131.04" cy="111.6" r="4.24"/><path class="cls-17" d="M33.84,30.82,32.37,33a1.44,1.44,0,0,1-2,.41l-1.08-.71a1.43,1.43,0,0,0-1.75.12,14.88,14.88,0,0,1-1.88,1.38A1.45,1.45,0,0,0,25,35.75L25.47,38a1.43,1.43,0,0,1-1.12,1.7l-2.61.53A1.44,1.44,0,0,1,20,39.12l-.32-1.59a1.42,1.42,0,0,0-1.4-1.16,14.36,14.36,0,0,1-4.62-.7,1.45,1.45,0,0,0-1.67.57l-.84,1.26a1.44,1.44,0,0,1-2,.41L7,36.44a1.44,1.44,0,0,1-.41-2l.84-1.26a1.45,1.45,0,0,0-.13-1.75,14.58,14.58,0,0,1-1.66-2.36,1.44,1.44,0,0,0-1.55-.72l-1.31.27a1.45,1.45,0,0,1-1.7-1.13l-.53-2.6a1.44,1.44,0,0,1,1.13-1.7l1-.2A1.45,1.45,0,0,0,3.77,21.6a14.33,14.33,0,0,1,.7-4,1.44,1.44,0,0,0-.57-1.66l-1.47-1a1.43,1.43,0,0,1-.41-2l1.47-2.22a1.45,1.45,0,0,1,2-.41l1.47,1a1.46,1.46,0,0,0,1.76-.13,14.55,14.55,0,0,1,4-2.45,1.41,1.41,0,0,0,.84-1.6l-.29-1.43A1.44,1.44,0,0,1,14.38,4L17,3.45a1.44,1.44,0,0,1,1.7,1.13l.42,2.1a1.44,1.44,0,0,0,1.2,1.13,14.85,14.85,0,0,1,2.26.54,1.47,1.47,0,0,0,1.67-.56l.81-1.24a1.44,1.44,0,0,1,2-.4l2.21,1.47a1.43,1.43,0,0,1,.41,2l-.82,1.23A1.44,1.44,0,0,0,29,12.59,14.3,14.3,0,0,1,31.19,16a1.43,1.43,0,0,0,1.6.83l1.09-.22a1.45,1.45,0,0,1,1.7,1.13l.53,2.6A1.44,1.44,0,0,1,35,22.07l-1.43.29a1.45,1.45,0,0,0-1.14,1.27,13.81,13.81,0,0,1-.62,2.82,1.44,1.44,0,0,0,.57,1.66l1.08.72A1.43,1.43,0,0,1,33.84,30.82Zm-7.68-3.49A9.63,9.63,0,1,0,12.81,30,9.63,9.63,0,0,0,26.16,27.33Z"/><path class="cls-17" d="M20.79,18a4.81,4.81,0,1,1-6.67,1.35A4.81,4.81,0,0,1,20.79,18Z"/><path class="cls-29" d="M32.37,33l1.47-2.22a1.43,1.43,0,0,0-.4-2l-1.08-.72a1.44,1.44,0,0,1-.57-1.66,13.81,13.81,0,0,0,.62-2.82,1.45,1.45,0,0,1,1.14-1.27L35,22.07a1.44,1.44,0,0,0,1.13-1.7l-.53-2.6a1.45,1.45,0,0,0-1.7-1.13l-1.09.22a1.43,1.43,0,0,1-1.6-.83A14.3,14.3,0,0,0,29,12.59a1.44,1.44,0,0,1-.13-1.75l.82-1.23a1.43,1.43,0,0,0-.41-2L27.05,6.15a1.44,1.44,0,0,0-2,.4l-.81,1.24a1.47,1.47,0,0,1-1.67.56,14.85,14.85,0,0,0-2.26-.54,1.44,1.44,0,0,1-1.2-1.13l-.42-2.1A1.44,1.44,0,0,0,17,3.45L14.38,4a1.44,1.44,0,0,0-1.13,1.7l.29,1.43a1.41,1.41,0,0,1-.84,1.6,14.55,14.55,0,0,0-4,2.45A1.46,1.46,0,0,1,7,11.29l-1.47-1a1.45,1.45,0,0,0-2,.41L2,12.94a1.43,1.43,0,0,0,.41,2l1.47,1a1.44,1.44,0,0,1,.57,1.66,14.33,14.33,0,0,0-.7,4A1.45,1.45,0,0,1,2.62,23l-1,.2a1.44,1.44,0,0,0-1.13,1.7l.53,2.6a1.45,1.45,0,0,0,1.7,1.13l1.31-.27a1.44,1.44,0,0,1,1.55.72,14.58,14.58,0,0,0,1.66,2.36,1.45,1.45,0,0,1,.13,1.75l-.84,1.26a1.44,1.44,0,0,0,.41,2l2.21,1.47a1.44,1.44,0,0,0,2-.41L12,36.24a1.45,1.45,0,0,1,1.67-.57,14.36,14.36,0,0,0,4.62.7,1.42,1.42,0,0,1,1.4,1.16L20,39.12a1.44,1.44,0,0,0,1.7,1.12l2.61-.53A1.43,1.43,0,0,0,25.47,38L25,35.75a1.45,1.45,0,0,1,.66-1.51,14.88,14.88,0,0,0,1.88-1.38,1.43,1.43,0,0,1,1.75-.12l1.08.71A1.44,1.44,0,0,0,32.37,33Z"/><path class="cls-29" d="M26.16,27.33A9.63,9.63,0,1,1,23.45,14,9.64,9.64,0,0,1,26.16,27.33Z"/><path class="cls-29" d="M22.14,24.67A4.81,4.81,0,1,1,20.79,18,4.81,4.81,0,0,1,22.14,24.67Z"/><path class="cls-27" d="M20.79,18c-3-1.33-8.13,5.78-4.65,8.39-1.59-1.16-1.68-1-2.12-1.87a11.23,11.23,0,0,1-.66-1.88s.08-1.71.13-1.88.78-1.63.78-1.63l1.6-1.37,1.44-.49,1.77,0Z"/><path class="cls-27" d="M22,8.17c-5.26-1-16.93,6.23-15.68,15s6.3,12,10,13.1L13,35.62l-1,.62L10.7,38l-.83.4L6.44,35.79,6.34,35,7.51,32.8l-.07-1.14s-.78-1-.8-1L5.25,28.71l-1.18-.36-1.31.27-1-.16A7.43,7.43,0,0,0,1,27.7,8.14,8.14,0,0,1,.75,26L.5,24.7l.4-1.2,1.77-.56.69-.34.41-1,.11-1.37.37-1.93L4.54,17a1.89,1.89,0,0,0-.38-.86c-.26-.23-1.23-.88-1.48-1a6.52,6.52,0,0,1-.79-.84V13.12L3.7,10.4l1.18-.31L6.44,11l1.21.5.67-.12,1.83-1.33L12,9a7.46,7.46,0,0,0,1.17-.61,2,2,0,0,0,.42-1c0-.29-.18-1.07-.18-1.07l-.16-1.07.29-.73L14,4.1l3.5-.49.93.46.18.87L19,6.55l.45.77.38.31Z"/><path class="cls-7" d="M32.37,33l1.47-2.21a1.44,1.44,0,0,0-.4-2l-1.08-.72a1.46,1.46,0,0,1-.57-1.66,13.81,13.81,0,0,0,.62-2.82,1.45,1.45,0,0,1,1.14-1.27L35,22.07a1.43,1.43,0,0,0,1.13-1.69l-.53-2.61a1.44,1.44,0,0,0-1.7-1.12l-1.08.21A1.44,1.44,0,0,1,31.19,16,14.3,14.3,0,0,0,29,12.59a1.44,1.44,0,0,1-.13-1.75l.82-1.23a1.43,1.43,0,0,0-.41-2L27.05,6.15a1.44,1.44,0,0,0-2,.4l-.82,1.23a1.44,1.44,0,0,1-1.66.57,14.85,14.85,0,0,0-2.26-.54,1.44,1.44,0,0,1-1.2-1.13l-.43-2.1A1.43,1.43,0,0,0,17,3.45L14.38,4a1.45,1.45,0,0,0-1.13,1.7l.29,1.43a1.43,1.43,0,0,1-.84,1.61,14.27,14.27,0,0,0-4,2.44A1.46,1.46,0,0,1,7,11.29l-1.47-1a1.44,1.44,0,0,0-2,.41L2,12.93a1.44,1.44,0,0,0,.41,2l1.47,1a1.44,1.44,0,0,1,.57,1.66,14.33,14.33,0,0,0-.7,4A1.43,1.43,0,0,1,2.62,23l-1,.2a1.44,1.44,0,0,0-1.13,1.7l.53,2.6a1.45,1.45,0,0,0,1.7,1.13l1.31-.27a1.44,1.44,0,0,1,1.55.72,14.58,14.58,0,0,0,1.66,2.36,1.45,1.45,0,0,1,.13,1.75l-.84,1.26a1.44,1.44,0,0,0,.41,2l2.21,1.47a1.44,1.44,0,0,0,2-.41L12,36.24a1.45,1.45,0,0,1,1.67-.57,14.09,14.09,0,0,0,4.62.7,1.43,1.43,0,0,1,1.4,1.16L20,39.12a1.44,1.44,0,0,0,1.7,1.12l2.61-.53A1.44,1.44,0,0,0,25.47,38L25,35.75a1.44,1.44,0,0,1,.67-1.51,15.53,15.53,0,0,0,1.87-1.38,1.45,1.45,0,0,1,1.75-.13l1.08.72A1.43,1.43,0,0,0,32.37,33Z"/><circle class="cls-7" cx="18.13" cy="22.01" r="9.63"/><circle class="cls-7" cx="18.13" cy="22.01" r="4.81"/><path class="cls-17" d="M41.67,100.6H35l-9.23-8.14a12.15,12.15,0,0,0,2.58-2.68Z"/><path class="cls-17" d="M30.64,82.63a12.35,12.35,0,0,1-2.28,7.15,12.15,12.15,0,0,1-2.58,2.68,12.39,12.39,0,1,1,4.86-9.83Zm-3.77,0a8.64,8.64,0,1,0-8.64,8.63A8.63,8.63,0,0,0,26.87,82.63Z"/><path class="cls-11" d="M18.23,74A8.63,8.63,0,1,1,9.6,82.63,8.63,8.63,0,0,1,18.23,74ZM23,80.56c.44-.76-.29-2-1.64-2.8s-2.81-.79-3.26,0,.29,2,1.65,2.8S22.55,81.34,23,80.56Z"/><path class="cls-3" d="M21.36,77.76c1.35.78,2.08,2,1.64,2.8s-1.9.76-3.25,0-2.09-2-1.65-2.8S20,77,21.36,77.76Z"/><polyline class="cls-29" points="28.36 89.78 41.67 100.6 35.01 100.6 25.78 92.47"/><path class="cls-29" d="M23,80.56c-.45.78-1.9.76-3.25,0s-2.09-2-1.65-2.8,1.9-.76,3.26,0S23.44,79.8,23,80.56Z"/><path class="cls-29" d="M25.78,92.46a12.41,12.41,0,1,1,2.58-2.68A12.15,12.15,0,0,1,25.78,92.46Z"/><path class="cls-29" d="M26.87,82.63A8.64,8.64,0,1,1,18.23,74,8.63,8.63,0,0,1,26.87,82.63Z"/><path class="cls-28" d="M12.83,75.91A23.6,23.6,0,0,0,10,80.14l-.33,3.29.82,2.95,1.89,2.56,2.45,1.61,3.44.71,3.41-.7,2.58-1.72,1-1.2C17.32,89.15,9.44,84.46,12.83,75.91Z"/><path class="cls-27" d="M9.6,73.73c-4,3.81-2.69,23,15.11,19.47a24,24,0,0,1-4.59,1.69c-.21,0-3.49.09-3.89,0s-3.48-.67-3.4-.86a27.7,27.7,0,0,0-3.23-2.5s-1.92-2.38-2-2.58a35.52,35.52,0,0,1-1.42-3.54c-.12-.58-.3-3.36-.29-3.58s.8-3.66.8-3.66l1.7-3Z"/><polyline class="cls-7" points="28.36 89.78 41.67 100.6 35.02 100.6 25.78 92.47"/><ellipse class="cls-7" cx="20.55" cy="79.15" rx="1.61" ry="2.83" transform="translate(-58.27 57.37) rotate(-60)"/><circle class="cls-7" cx="18.24" cy="82.63" r="12.4"/><circle class="cls-7" cx="18.24" cy="82.63" r="8.63"/><path class="cls-11" d="M144.52,87.19a9.86,9.86,0,0,1-3.43,2.23,6.66,6.66,0,0,1-3.9-.15,9.67,9.67,0,0,1-5-3.74,4.9,4.9,0,0,0,1.08-1.1c.6-.85.06-2-.45-2.92A3.35,3.35,0,0,0,131.5,80a3,3,0,0,0-1.16-.21l-.61,0v0c-1.12-.87-1-2.57-.74-4a9.51,9.51,0,0,1,.62-2,8.4,8.4,0,0,1,5.26-4.35,15.66,15.66,0,0,1,7-.3c1.93.28,3.83.76,5.74,1.17a6.09,6.09,0,0,0-.85.07c-.68.12-1.47.3-1.75.93a12.54,12.54,0,0,0-.23,1.25c-.19.59-.81,1-.92,1.61a1.66,1.66,0,0,0,1,1.63c.6.32,1.29.44,1.89.76a1.25,1.25,0,0,1,.71.77,1.79,1.79,0,0,1-.38,1.17,1.09,1.09,0,0,0-.09,1.18l.63,1.1a.89.89,0,0,0,.71.31,2.6,2.6,0,0,0,.77-.17,3.63,3.63,0,0,1,1.68-.25l.11.09A59.21,59.21,0,0,1,144.52,87.19Z"/><path class="cls-30" d="M148.19,70.45l.56.11a9.35,9.35,0,0,0,3.72.17c.93-.19,1.89-.64,2.8-.35a.6.6,0,0,1,.36.24.7.7,0,0,1,.09.33,8.08,8.08,0,0,1-1.22,4.5,32.66,32.66,0,0,1-3.63,5.32l-.11-.09a3.63,3.63,0,0,0-1.68.25,2.6,2.6,0,0,1-.77.17.89.89,0,0,1-.71-.31l-.63-1.1a1.09,1.09,0,0,1,.09-1.18,1.79,1.79,0,0,0,.38-1.17,1.25,1.25,0,0,0-.71-.77c-.6-.32-1.29-.44-1.89-.76a1.66,1.66,0,0,1-1-1.63c.11-.61.73-1,.92-1.61a12.54,12.54,0,0,1,.23-1.25c.28-.63,1.07-.81,1.75-.93a6.09,6.09,0,0,1,.85-.07Z"/><path class="cls-24" d="M132.2,85.53a13.63,13.63,0,0,1-2.28,1.34c-1.17.6-5.11,2.47-6.34,2.94s-12.89,5-18.53,7.14a46.73,46.73,0,0,1-12.89,2.8A3,3,0,0,1,89.89,99,1.15,1.15,0,0,1,90,97.22c2.85-2,5.88-3.68,8.83-5.52a73.4,73.4,0,0,1,7-4.06c1.59-.76,4.18-1.93,5.81-2.57,2.7-1.07,4.44-1.61,7.14-2.68a39.16,39.16,0,0,1,7.12-2.3,19,19,0,0,1,3.84-.33l.61,0a3,3,0,0,1,1.16.21,3.35,3.35,0,0,1,1.33,1.52c.51.9,1,2.07.45,2.92A4.9,4.9,0,0,1,132.2,85.53Z"/><path class="cls-31" d="M132.83,81.51c-1.13-1.62-43.34,16.85-43.34,16.85L90,97.22a7.15,7.15,0,0,1,1.51-1.16c.43-.13,7.45-4.44,7.45-4.44l5.45-3.23L113,84.55l9.88-3.67,4.93-1,2.58.1c.35,0,.9-.13,1.17.08Z"/><path class="cls-27" d="M156,71.07c-1.18-.78-4,4.29-11.1,2.46s-13.67,2.23-12.84,6.81a8.23,8.23,0,0,0-2.32-.62l-.66-.86-.28-1.53s.34-2.17.41-2.39,1.39-2.71,1.39-2.71L133,70.14l4-1.13,4.92.13s4.23,1,4.36.88a32.26,32.26,0,0,1,3.54.82s2.89-.14,3-.18,1.69-.37,1.82-.37a10.29,10.29,0,0,1,1,.33Z"/><path d="M132.66,75.75a4.77,4.77,0,0,0-1.22,1.76,7,7,0,0,0-.26,1.12l-.12.6a2.72,2.72,0,0,0-.09.69.6.6,0,0,0,.52.59.63.63,0,0,0,.65-.43,2.61,2.61,0,0,0,.1-.69l.06-.53c0-.34,0-.68.1-1a7.83,7.83,0,0,1,.22-.93,3.11,3.11,0,0,1,.47-.83c.19-.26-.22-.54-.43-.33Z"/><path d="M136.65,70.84a9.74,9.74,0,0,0-5,2.71A7.34,7.34,0,0,0,130,76.07a8.92,8.92,0,0,0-.33,3.41c0,.78,1.25.78,1.21,0a9.26,9.26,0,0,1,.16-3,6.73,6.73,0,0,1,1.36-2.38,8.39,8.39,0,0,1,4.34-2.83.24.24,0,0,0-.12-.46Z"/><path d="M138.94,83.82a15.51,15.51,0,0,1-2.64-.07,12.26,12.26,0,0,1-2.54-.56c-.66-.22-1,.84-.29,1a11,11,0,0,0,2.78.48,10.41,10.41,0,0,0,1.37,0,11.16,11.16,0,0,0,1.4-.27c.32-.08.26-.62-.08-.59Z"/><path d="M151.68,75.59a58.28,58.28,0,0,1-3.77,4.67,15,15,0,0,1-4.38,3.59,12,12,0,0,1-4.89,1.34,11.61,11.61,0,0,1-5-1c-.66-.26-1.07.79-.48,1.13,3.22,1.83,7.52,1.33,10.66-.38a16.52,16.52,0,0,0,4.45-4,32.53,32.53,0,0,0,3.7-5.18.19.19,0,0,0-.32-.19Z"/><path d="M147.59,80.8c0,.07.13.16.12.25a.28.28,0,0,0,.13.23,1.73,1.73,0,0,0,1.46.09,5.41,5.41,0,0,1,.72-.18,1.79,1.79,0,0,1,.61,0,.51.51,0,0,0,.64-.43.52.52,0,0,0-.51-.58,4,4,0,0,0-1.72.27c-.26.09-.48.2-.75.28a1.5,1.5,0,0,1-.29.06.32.32,0,0,0-.21.08c0,.07,0,.07,0,0a.42.42,0,0,1-.16-.09s0,0,0,0Z"/><path d="M148.51,70.49a2,2,0,0,0-1.77-.41,3.23,3.23,0,0,0-1.63.54,1.55,1.55,0,0,0-.51.65c-.16.38-.1.81-.25,1.19-.23.57-.79.92-.95,1.54a1.85,1.85,0,0,0,.55,1.73,4.5,4.5,0,0,0,1.93,1,2.31,2.31,0,0,1,1,.48c.36.39.16.92,0,1.33s-.29.92.11,1.2a.05.05,0,0,0,.07-.06c-.16-.74.3-1.14.69-1.7a1.08,1.08,0,0,0-.21-1.4c-.83-.86-2.5-.71-3.1-1.8-.29-.53.11-1,.41-1.38a2.87,2.87,0,0,0,.47-1.53c.05-.69.5-.92,1.12-1.07a3.33,3.33,0,0,1,1.95-.09c.13.06.28-.1.16-.21Z"/><path d="M129.89,79.56c-1.36-1.39-.5-4.17.22-5.68a7.78,7.78,0,0,1,4.09-3.65c4.41-1.83,9.28-.24,13.69.72a14.62,14.62,0,0,0,3.42.48,7.2,7.2,0,0,0,1.53-.19,7.33,7.33,0,0,1,1.79-.38c.37,0,.52,0,.56.42a3.52,3.52,0,0,1,0,.86,7.67,7.67,0,0,1-.46,1.62,19,19,0,0,1-1.6,3,46.82,46.82,0,0,1-8.51,9.59,14.66,14.66,0,0,1-2.75,2.15,5.67,5.67,0,0,1-3.65.49,8.74,8.74,0,0,1-5.7-3.62c-.24-.33-.8,0-.57.34a10.5,10.5,0,0,0,5,4,6.68,6.68,0,0,0,6.75-1,46.63,46.63,0,0,0,5.38-5A40.05,40.05,0,0,0,153.68,78c1.31-2,2.84-4.49,2.6-7-.11-1.15-1.27-1.33-2.23-1.19-.63.1-1.23.33-1.85.44a7.19,7.19,0,0,1-2.22,0c-5.2-.67-10.55-3-15.77-1.06a8.78,8.78,0,0,0-5.08,4.52c-.79,1.82-1.46,4.91.49,6.26.21.15.44-.17.27-.35Z"/><path d="M89.73,99.2c1.34,1.39,3.42.9,5.14.7a47.58,47.58,0,0,0,6.26-1.17,90.1,90.1,0,0,0,9.16-3.17q6.7-2.52,13.4-5.15c2.2-.86,4.35-1.91,6.47-3,1.34-.67,3-1.47,3.75-2.85a2.77,2.77,0,0,0-.07-2.4,6.61,6.61,0,0,0-1.38-2.25,3.33,3.33,0,0,0-2.35-.78,19,19,0,0,0-3.29.17A27.86,27.86,0,0,0,120.69,81c-1.92.73-3.81,1.5-5.74,2.21-1.74.64-3.47,1.31-5.17,2.06s-3.17,1.43-4.72,2.21c-1.9,1-3.7,2.1-5.52,3.23S95.85,93,94,94.08c-.94.58-1.88,1.16-2.8,1.77-.66.44-1.67.89-2,1.65a1.53,1.53,0,0,0,.45,1.79.35.35,0,0,0,.49-.49c-.84-1,.65-1.63,1.32-2.06l2.6-1.64c1.68-1,3.37-2,5-3.09a71,71,0,0,1,9.7-5.18c3.17-1.37,6.45-2.45,9.68-3.69,3.74-1.44,7.45-2.86,11.52-2.76a3.21,3.21,0,0,1,1.27.18,2.27,2.27,0,0,1,.86.93c.38.64,1.08,1.69.74,2.47a4.44,4.44,0,0,1-1.76,1.59c-.53.32-1.08.59-1.63.87-2,1-4,2-6.07,2.83-3.92,1.57-7.86,3.08-11.79,4.62-2.42.94-4.82,1.9-7.25,2.78a49.68,49.68,0,0,1-11.84,2.68A3.7,3.7,0,0,1,90,98.85.22.22,0,0,0,89.73,99.2Z"/><path class="cls-5" d="M109.84,38.62v62h-6.2V93.81a8.4,8.4,0,0,0-8.4-8.4H84a8.4,8.4,0,0,0-8.4,8.4v6.79h-3.1V93.81a8.4,8.4,0,0,0-8.4-8.4H53a8.4,8.4,0,0,0-8.4,8.4v6.79H38v-62a18.5,18.5,0,0,1,18.5-18.5H91.34A18.5,18.5,0,0,1,109.84,38.62Zm-6.2,34.52V64.22a8.4,8.4,0,0,0-8.4-8.39H53a8.4,8.4,0,0,0-8.4,8.39v8.92A8.4,8.4,0,0,0,53,81.53H95.24A8.4,8.4,0,0,0,103.64,73.14Zm0-28.74V41.62a8,8,0,0,0-16,0V44.4a8,8,0,1,0,16,0ZM103,26.85a2.27,2.27,0,1,0-2.27,2.27A2.27,2.27,0,0,0,103,26.85Zm-7.68,0A2.28,2.28,0,1,0,93,29.12,2.28,2.28,0,0,0,95.28,26.85Zm-7.69,0a2.27,2.27,0,1,0-2.27,2.27A2.27,2.27,0,0,0,87.59,26.85ZM86,44V42.05a8.4,8.4,0,0,0-8.4-8.4H53a8.4,8.4,0,0,0-8.4,8.4V44a8.4,8.4,0,0,0,8.4,8.4H77.6A8.4,8.4,0,0,0,86,44Z"/><path class="cls-32" d="M103.64,93.81v6.79h-28V93.81a8.4,8.4,0,0,1,8.4-8.4H95.24A8.4,8.4,0,0,1,103.64,93.81Z"/><rect class="cls-3" x="44.57" y="55.83" width="59.07" height="25.71" rx="8.4"/><path class="cls-3" d="M103.64,41.62V44.4a8,8,0,1,1-16,0V41.62a8,8,0,1,1,16,0Z"/><path class="cls-33" d="M100.69,24.58a2.27,2.27,0,1,1-2.27,2.27A2.27,2.27,0,0,1,100.69,24.58Z"/><path class="cls-34" d="M93,24.58a2.27,2.27,0,1,1-2.27,2.27A2.28,2.28,0,0,1,93,24.58Z"/><path class="cls-11" d="M85.32,24.58a2.27,2.27,0,1,1-2.27,2.27A2.27,2.27,0,0,1,85.32,24.58Z"/><rect class="cls-35" x="44.57" y="33.65" width="41.43" height="18.73" rx="8.4"/><path class="cls-3" d="M72.49,93.81v6.79H44.57V93.81a8.4,8.4,0,0,1,8.4-8.4H64.09A8.4,8.4,0,0,1,72.49,93.81Z"/><path class="cls-6" d="M53,20.12c-6.15,7.43-3.12,80.69-3.12,80.69L38,100.6l.14-73.75A19.17,19.17,0,0,1,39.23,24a36.13,36.13,0,0,1,2.7-2.67l3.84-1.22Z"/><rect class="cls-3" x="78.69" y="88.52" width="8.31" height="8.31" rx="3.62"/><rect class="cls-35" x="78.69" y="97.81" width="22.98" height="1.13"/><rect class="cls-35" x="88.37" y="94.92" width="13.31" height="1.31"/><rect class="cls-35" x="88.37" y="92.02" width="13.31" height="1.31"/><rect class="cls-35" x="88.37" y="89.13" width="13.31" height="1.31"/><rect class="cls-32" x="47.55" y="74.19" width="52.65" height="1.31"/><rect class="cls-32" x="47.55" y="69.59" width="52.65" height="1.31"/><rect class="cls-32" x="47.55" y="64.99" width="52.65" height="1.31"/><rect class="cls-32" x="47.55" y="60.38" width="52.65" height="1.31"/><rect class="cls-3" x="47.77" y="46.09" width="34.47" height="1.58"/><rect class="cls-3" x="47.77" y="42.09" width="34.47" height="1.58"/><rect class="cls-3" x="47.77" y="38.09" width="34.47" height="1.58"/><path class="cls-7" d="M84,85.41H95.25a8.4,8.4,0,0,1,8.4,8.4v6.79a0,0,0,0,1,0,0H75.59a0,0,0,0,1,0,0V93.81A8.4,8.4,0,0,1,84,85.41Z"/><path class="cls-7" d="M53,85.41H64.09a8.4,8.4,0,0,1,8.4,8.4v6.79a0,0,0,0,1,0,0H44.57a0,0,0,0,1,0,0V93.81A8.4,8.4,0,0,1,53,85.41Z"/><rect class="cls-7" x="44.57" y="55.83" width="59.07" height="25.71" rx="8.4"/><rect class="cls-7" x="87.69" y="33.65" width="15.95" height="18.73" rx="7.98"/><rect class="cls-7" x="44.57" y="33.65" width="41.43" height="18.73" rx="8.4"/><path class="cls-7" d="M56.51,20.12H91.34a18.5,18.5,0,0,1,18.5,18.5v62a0,0,0,0,1,0,0H38a0,0,0,0,1,0,0v-62A18.5,18.5,0,0,1,56.51,20.12Z"/><circle class="cls-7" cx="85.32" cy="26.85" r="2.27"/><circle class="cls-7" cx="100.69" cy="26.85" r="2.27"/><circle class="cls-7" cx="93" cy="26.85" r="2.27"/></g></g></g></svg>