<svg xmlns="http://www.w3.org/2000/svg" viewBox="0 0 2941 1575.63"><defs><style>.cls-1{fill:#dceaff;opacity:0.5;}.cls-2{fill:#dfebfa;}.cls-3{fill:#afcdfb;}.cls-4{fill:#cee1fd;}.cls-5{fill:#9fc1f4;}.cls-6{fill:#ff9843;}.cls-7{fill:#ffc48a;}.cls-8{fill:#77a4e5;}.cls-9{fill:#f5fbff;}.cls-10{fill:#bdd1f9;}.cls-11{fill:#fff;}.cls-12{fill:#f99746;}.cls-13{fill:#ffb27d;}.cls-14{fill:#233862;}.cls-15{fill:#a9453d;}.cls-16{fill:#ed975d;}.cls-17{fill:#2a4e96;}.cls-18{fill:#5f9aa8;}.cls-19{fill:#1e3d70;}.cls-20{fill:#ed7d2b;}.cls-21{opacity:0.6;}.cls-22{fill:#163560;}.cls-23{fill:#dfebfd;}.cls-24{fill:#f9ddbf;}.cls-25{fill:#f2ccaa;}.cls-26{fill:#1b3051;}.cls-27{fill:#1e3c68;}.cls-28{fill:#2b478b;}.cls-29{fill:#2e3552;}</style></defs><g id="Calque_2" data-name="Calque 2"><g id="_ëîé_1" data-name="‘ëîé_1"><path class="cls-1" d="M2853.4,1563.42h0c-.22.41-.45.81-.68,1.21-1.61,2.9-3.29,5.85-5,8.8L230,1572.65s-2.55-2.84-7.11-8.29c-.26-.3-.52-.62-.79-.95a982.63,982.63,0,0,1-62.78-85.23l0,0C86.15,1367.57-15.15,1171.77,1.9,954.45a595.54,595.54,0,0,1,46-187.74C129.67,574.61,373.63,445.1,593.4,442.5c85.07-1,166.52,17,233.53,57.74,11.88,7.22,26.83,12.8,44.21,16.59A273.91,273.91,0,0,0,920,522.62c142.73,5,374.87-75.41,512.55-277.77C1505.61,137.38,1617.85,67,1746.86,30.39c6-1.69,12.06-3.34,18.14-4.89A796.11,796.11,0,0,1,1855.15,8q8.28-1.12,16.63-2.08c136.13-15.81,281.93.54,415.67,45.7q26.41,8.93,52.17,19.35c251.67,101.91,447.46,310,430.25,600.61q-1,17.24-3.06,34.87a675.91,675.91,0,0,1-11.54,68.51q-4.56,20.6-10.47,41.65C2641.07,1184.94,3055.74,1201.57,2853.4,1563.42Z"/><path class="cls-2" d="M2853.4,1563.42h0l-2037.6.22,17.57-609V789.23h76.21V660h152V769.69h46.43V566.84h10.1V552.66H1120v14.18h36.67V552.66h1.83v14.18h51.9V552.66h1.83v14.18h32.68V552.66h1.79v14.18h13.43V756.2h51.32V725.57l60.52.27V676.21h12.17v-9.82h1.62v9.82h46.74v0h9.35v-9.84h1.6v9.84h11.28v98.68h72v36.32h40.06V790.14h37.15V706.42h18.53V667.35h2.8v39.07h44.39V633.2H1674v73.22h29.37v-1h0v-9.3h0v-8.79h0V672.67h0v-9.33h0V648.7h0v-9.34h0V624.73h0v-10.1h0V600h0V587.15h0V572.52h0v-9.7h8.75V551.88h1.4v10.94h64.84V551.88h1.39v10.94h11.84v76.54l8.32,0v0h-.06V624.73h.06v-10.1h-.06V600h.06V589.94h-.06V575.31h.06v0h78.63v0h13.51c.69.38,1.4.78,2.11,1.16v97.61h14.46V660h166V769.69h50.68V566.84h11V552.66h2v14.18h40V552.66h2v14.18h56.67V552.66h2v14.18h35.67V552.66h2v14.18h14.66V756.2h56V725.57l66.05.27V676.22h13.3v-9.83h1.77v9.83h61.2v-9.84h1.75v9.84h12.31v98.69h78.63v36.31H2626V790.14h40.54V706.41h20.22V667.35h3.05v39.06h48.46V633.2H2743v73.21h23.82a675.91,675.91,0,0,1-11.54,68.51q-4.56,20.6-10.47,41.65C2641.07,1184.94,3055.74,1201.57,2853.4,1563.42Z"/><path class="cls-3" d="M2339.61,70.93V1563.41h-52.17V51.59Q2313.87,60.5,2339.61,70.93Z"/><path class="cls-4" d="M871.14,516.83V1564.36H222.84c-.26-.3-.52-.62-.79-.95a982.63,982.63,0,0,1-62.78-85.23l0,0C86.15,1367.57-15.15,1171.77,1.9,954.45a595.54,595.54,0,0,1,46-187.74C129.67,574.61,373.63,445.1,593.4,442.5c84.28.93,164.6,19.12,231.3,57.74C837.18,507.46,852.88,513,871.14,516.83Z"/><path class="cls-5" d="M1871.78,5.88v183.8c0,14.33-3.5,26-7.77,26h-1.11c-4.27,0-7.75-11.69-7.75-26V8Q1863.43,6.84,1871.78,5.88Z"/><path class="cls-6" d="M1859.13,171.48c-60.58,0-109.68,51.92-109.68,116h219.36C1968.81,223.4,1919.7,171.48,1859.13,171.48Z"/><path class="cls-7" d="M1867.87,172.89a45.69,45.69,0,0,0-9.64-1c-39.46,0-71.46,51.77-71.46,115.61H1806C1806,228.89,1833,180.5,1867.87,172.89Z"/><path class="cls-8" d="M2581.46,1392.35s-29.19-34-1.8-55.68c0,0,20-12.11,36.32-11.13,0,0-23.12,38.76-15.64,42.62s22.64-45.05,22.64-45.05,45.53-4.41,60.17,2.63c0,0-38.91,31.85-30.72,33.74s50.24-29.36,50.24-29.36,42.37,7.21,40.11,33.06-16.86,33.83-23.28,33.14-43.95-15-44.77-9.76,21.78,22.44,37.6,23.25c0,0-29.87,32.94-49.73,23.43s-21.54-24.58-33.92-30.23-22.94-5.64-17.83.13,27.51,11.37,34.58,23.89,13.43,21-7.11,17.87-53.93-18.12-55.4-35.33Z"/><path class="cls-8" d="M2722,1363.88s-115.09-4.44-140.5,28.47c0,0-5.62,16.84-22.92,32.17l-2.7,7.35s19.95-21,27.08-22.3C2582.92,1409.57,2571.76,1368.79,2722,1363.88Z"/><path class="cls-8" d="M2558.54,1424.52s-24.7,18.27-26.42,50.91l4.49.4s7.89-33.75,22.14-46.95S2558.54,1424.52,2558.54,1424.52Z"/><path class="cls-8" d="M2479.4,1349.53s46.44-26,24.77-61.29c0,0-17.34-21.67-35.91-27.24,0,0,9.91,52.62,0,53.86s-6.81-59.43-6.81-59.43-48.91-23.53-68.1-21.67c0,0,30.34,51.38,20.43,50.15s-44-53.25-44-53.25-50.14-9.28-58.19,20.43,4.95,44.58,12.38,46.44,55.1,1.23,53.86,7.42-33.43,16.1-51.38,10.53c0,0,19.81,48.91,45.81,46.43s34-18.57,50.15-19.81,27.86,3.1,19.81,7.43S2407,1351,2394,1362s-23.53,17.86.62,22.82,67.48,1.85,76.15-16.72Z"/><path class="cls-8" d="M2334.54,1260.38s130,42.1,144.86,89.15c0,0-.61,21,12.39,45.19V1404s-13.62-31.57-21.05-35.91C2470.74,1368.1,2499.83,1327.24,2334.54,1260.38Z"/><path class="cls-8" d="M2491.79,1394.72s20,30.45,8.62,67.51l-5.16-1.39s5-40.82-5.49-61.35S2491.79,1394.72,2491.79,1394.72Z"/><path class="cls-5" d="M2553.27,1313.67s-61.2-34.28-32.64-80.79c0,0,22.85-28.57,47.33-35.91,0,0-13.05,69.37,0,71s9-78.35,9-78.35,64.47-31,89.77-28.56c0,0-40,67.74-26.93,66.1s57.94-70.18,57.94-70.18,66.1-12.24,76.71,26.93-6.53,58.76-16.32,61.21-72.63,1.63-71,9.79,44.07,21.22,67.73,13.87c0,0-26.11,64.47-60.38,61.21s-44.89-24.48-66.11-26.11-36.72,4.08-26.11,9.79,46.51,1.87,63.65,16.44,31,23.55-.81,30.08-89,2.44-100.38-22Z"/><path class="cls-5" d="M2744.24,1196.15s-171.38,55.5-191,117.52c0,0,.82,27.74-16.32,59.57v12.24s18-41.62,27.75-47.33C2564.7,1338.15,2526.34,1284.29,2744.24,1196.15Z"/><path class="cls-5" d="M2537,1373.24s-26.43,40.14-11.36,89l6.8-1.83s-6.6-53.81,7.23-80.87S2537,1373.24,2537,1373.24Z"/><path class="cls-5" d="M2551.21,1568.17a119.88,119.88,0,0,0,119.89-119.89H2431.32A119.89,119.89,0,0,0,2551.21,1568.17Z"/><path class="cls-3" d="M2580.71,1567.25a120,120,0,0,1-134.78-119h29.79A119.9,119.9,0,0,0,2580.71,1567.25Z"/><rect class="cls-5" x="2427.38" y="1448.28" width="246.45" height="3.68"/><path class="cls-8" d="M1993.06,1562.28l-117.81-489,8.23-19.25,116.71,508.17a2.08,2.08,0,0,1-2,2.55h-2A3.25,3.25,0,0,1,1993.06,1562.28Z"/><path class="cls-8" d="M1461.37,1564.77h0a3.92,3.92,0,0,1-3.87-4.56l34.7-210.32h14.87l-41.38,211.32A4.4,4.4,0,0,1,1461.37,1564.77Z"/><path class="cls-8" d="M1794.23,1564.77h0a3.92,3.92,0,0,1-3.87-4.56l34.7-210.32h14.87l-41.38,211.32A4.39,4.39,0,0,1,1794.23,1564.77Z"/><polygon class="cls-9" points="1874.94 1350.33 1460.54 1350.33 1546.39 812.08 1960.8 812.08 1874.94 1350.33"/><rect class="cls-8" x="1430.01" y="1346.22" width="475.94" height="15.83"/><path class="cls-10" d="M1710.51,924.7a87.79,87.79,0,0,1-1.86,12.53c-8.64,38.46-42.89,67.94-81.6,68-42.82.08-74.89-35.86-71.62-80.27s40.64-80.46,83.46-80.53a71.73,71.73,0,0,1,25.29,4.46,69.1,69.1,0,0,1,28.4,19.68,72.21,72.21,0,0,1,7.77,10.82,71.45,71.45,0,0,1,3.6,7,76.06,76.06,0,0,1,6.09,21.52,81.37,81.37,0,0,1,.69,11.77C1710.7,921.31,1710.63,923,1710.51,924.7Z"/><path class="cls-11" d="M1704,886.35l-71,38.48s29.29-51.57,41.31-71.26a70.09,70.09,0,0,1,18.3,15,72.21,72.21,0,0,1,7.77,10.82A71.45,71.45,0,0,1,1704,886.35Z"/><path class="cls-12" d="M1711.32,876.61l-64.83,35.16s26.75-47.11,37.73-65.09a63.69,63.69,0,0,1,16.72,13.7,66.93,66.93,0,0,1,10.38,16.23Z"/><path class="cls-10" d="M1841.94,1309.41l-341.09,0,34.53-196.8,341.1,0Zm-338.33-2,336.27,0,33.84-192.84-336.27,0Z"/><path class="cls-12" d="M1821.6,1282.43l-302.5,0s53.66-28.78,68.38-27.27,35.87,13.16,49.48,13.61,28.33-40.39,43.48-38.47,20.84,38.06,28.68,34.53,31.39-5.06,45,0,33.32-16.08,45.24-15.42S1821.6,1282.43,1821.6,1282.43Z"/><polygon class="cls-12" points="1591.84 1224.59 1534.06 1224.58 1534.6 1221.52 1592.37 1221.52 1591.84 1224.59"/><polygon class="cls-12" points="1590.69 1231.13 1532.91 1231.13 1533.45 1228.06 1591.23 1228.07 1590.69 1231.13"/><path class="cls-10" d="M1536.41,1183.76l302.5,0s-43.56-28.79-58.81-27.28-40.49,13.15-54.25,13.6-14.16-40.39-30-38.47-34.2,38-40.8,34.52-29.61-5.06-45,0-27.67-16.08-39.83-15.42S1536.41,1183.76,1536.41,1183.76Z"/><polygon class="cls-10" points="1608.16 1131.56 1550.38 1131.56 1550.92 1128.49 1608.7 1128.5 1608.16 1131.56"/><polygon class="cls-10" points="1607.01 1138.11 1549.23 1138.1 1549.77 1135.04 1607.55 1135.04 1607.01 1138.11"/><polygon class="cls-10" points="1556.02 1085.14 1542.75 1085.14 1554.28 1022.97 1567.55 1022.97 1556.02 1085.14"/><polygon class="cls-10" points="1574.09 1085.14 1560.82 1085.14 1569.76 1036.98 1583.02 1036.98 1574.09 1085.14"/><polygon class="cls-10" points="1592.17 1085.14 1578.9 1085.14 1588.21 1034.91 1601.48 1034.91 1592.17 1085.14"/><polygon class="cls-10" points="1610.24 1085.14 1596.97 1085.14 1604.06 1046.93 1617.33 1046.93 1610.24 1085.14"/><polygon class="cls-10" points="1628.32 1085.14 1615.05 1085.14 1622.65 1044.15 1635.92 1044.15 1628.32 1085.14"/><polygon class="cls-10" points="1646.39 1085.14 1633.12 1085.14 1639.02 1053.35 1652.28 1053.35 1646.39 1085.14"/><polygon class="cls-12" points="1733.51 1085.14 1720.24 1085.14 1731.77 1022.97 1745.04 1022.97 1733.51 1085.14"/><polygon class="cls-12" points="1751.58 1085.14 1738.32 1085.14 1747.25 1036.98 1760.52 1036.98 1751.58 1085.14"/><polygon class="cls-12" points="1769.66 1085.14 1756.39 1085.14 1765.7 1034.91 1778.97 1034.91 1769.66 1085.14"/><polygon class="cls-12" points="1787.73 1085.14 1774.46 1085.14 1781.55 1046.93 1794.82 1046.93 1787.73 1085.14"/><polygon class="cls-12" points="1805.81 1085.14 1792.54 1085.14 1800.14 1044.15 1813.41 1044.15 1805.81 1085.14"/><polygon class="cls-12" points="1823.88 1085.14 1810.61 1085.14 1816.51 1053.35 1829.78 1053.35 1823.88 1085.14"/><polygon class="cls-10" points="1797.39 882.18 1754.2 882.18 1755.31 876.26 1798.5 876.26 1797.39 882.18"/><polygon class="cls-10" points="1850.38 882.18 1802.68 882.18 1803.8 876.26 1851.49 876.26 1850.38 882.18"/><polygon class="cls-10" points="1884.37 882.18 1853.96 882.18 1855.07 876.26 1885.48 876.26 1884.37 882.18"/><polygon class="cls-10" points="1912.75 882.18 1889.29 882.18 1890.4 876.26 1913.86 876.26 1912.75 882.18"/><polygon class="cls-10" points="1792.65 907.42 1749.46 907.42 1750.57 901.51 1793.76 901.51 1792.65 907.42"/><polygon class="cls-10" points="1845.63 907.42 1797.94 907.42 1799.06 901.51 1846.75 901.51 1845.63 907.42"/><polygon class="cls-10" points="1879.63 907.42 1849.22 907.42 1850.33 901.51 1880.74 901.51 1879.63 907.42"/><polygon class="cls-10" points="1908.01 907.42 1884.55 907.42 1885.66 901.51 1909.12 901.51 1908.01 907.42"/><polygon class="cls-10" points="1823.06 868.37 1756.79 868.37 1757.9 862.46 1824.17 862.46 1823.06 868.37"/><polygon class="cls-10" points="1867.57 868.37 1829.37 868.37 1830.48 862.46 1868.68 862.46 1867.57 868.37"/><polygon class="cls-10" points="1915.38 868.37 1872.96 868.37 1874.07 862.46 1916.49 862.46 1915.38 868.37"/><polygon class="cls-10" points="1818.02 895.22 1751.75 895.22 1752.86 889.3 1819.13 889.3 1818.02 895.22"/><polygon class="cls-10" points="1862.53 895.22 1824.33 895.22 1825.44 889.3 1863.64 889.3 1862.53 895.22"/><polygon class="cls-10" points="1910.34 895.22 1867.92 895.22 1869.03 889.3 1911.45 889.3 1910.34 895.22"/><polygon class="cls-10" points="1787.91 932.67 1744.72 932.67 1745.83 926.75 1789.02 926.75 1787.91 932.67"/><polygon class="cls-10" points="1840.89 932.67 1793.2 932.67 1794.31 926.75 1842.01 926.75 1840.89 932.67"/><polygon class="cls-10" points="1874.89 932.67 1844.48 932.67 1845.59 926.75 1876 926.75 1874.89 932.67"/><polygon class="cls-10" points="1903.27 932.67 1879.81 932.67 1880.92 926.75 1904.38 926.75 1903.27 932.67"/><polygon class="cls-10" points="1813.28 920.46 1747.01 920.46 1748.12 914.54 1814.39 914.54 1813.28 920.46"/><polygon class="cls-10" points="1857.79 920.46 1819.59 920.46 1820.7 914.54 1858.9 914.54 1857.79 920.46"/><polygon class="cls-10" points="1905.6 920.46 1863.17 920.46 1864.29 914.54 1906.71 914.54 1905.6 920.46"/><polygon class="cls-10" points="1783.47 956.34 1740.27 956.34 1741.38 950.42 1784.58 950.42 1783.47 956.34"/><polygon class="cls-10" points="1836.45 956.34 1788.76 956.34 1789.87 950.42 1837.56 950.42 1836.45 956.34"/><polygon class="cls-10" points="1870.44 956.34 1840.04 956.34 1841.15 950.42 1871.55 950.42 1870.44 956.34"/><polygon class="cls-10" points="1898.83 956.34 1875.37 956.34 1876.48 950.42 1899.94 950.42 1898.83 956.34"/><polygon class="cls-10" points="1808.83 944.13 1742.57 944.13 1743.68 938.21 1809.94 938.21 1808.83 944.13"/><polygon class="cls-10" points="1853.34 944.13 1815.14 944.13 1816.26 938.21 1854.45 938.21 1853.34 944.13"/><polygon class="cls-10" points="1901.15 944.13 1858.73 944.13 1859.84 938.21 1902.26 938.21 1901.15 944.13"/><polygon class="cls-10" points="1685.17 1032.21 1664.03 1032.21 1664.58 1029.32 1685.72 1029.32 1685.17 1032.21"/><polygon class="cls-10" points="1711.11 1032.21 1687.77 1032.21 1688.31 1029.32 1711.65 1029.32 1711.11 1032.21"/><polygon class="cls-10" points="1682.85 1044.57 1661.71 1044.57 1662.26 1041.67 1683.4 1041.67 1682.85 1044.57"/><polygon class="cls-10" points="1708.79 1044.57 1685.44 1044.57 1685.99 1041.67 1709.33 1041.67 1708.79 1044.57"/><polygon class="cls-10" points="1697.74 1025.45 1665.3 1025.45 1665.85 1022.56 1698.28 1022.56 1697.74 1025.45"/><polygon class="cls-10" points="1719.52 1025.45 1700.83 1025.45 1701.37 1022.56 1720.07 1022.56 1719.52 1025.45"/><polygon class="cls-10" points="1695.27 1038.59 1662.84 1038.59 1663.38 1035.7 1695.81 1035.7 1695.27 1038.59"/><polygon class="cls-10" points="1717.06 1038.59 1698.36 1038.59 1698.9 1035.7 1717.6 1035.7 1717.06 1038.59"/><polygon class="cls-10" points="1854.52 1032.21 1833.38 1032.21 1833.93 1029.32 1855.07 1029.32 1854.52 1032.21"/><polygon class="cls-10" points="1880.46 1032.21 1857.11 1032.21 1857.66 1029.32 1881 1029.32 1880.46 1032.21"/><polygon class="cls-10" points="1852.2 1044.57 1831.06 1044.57 1831.61 1041.67 1852.75 1041.67 1852.2 1044.57"/><polygon class="cls-10" points="1878.14 1044.57 1854.79 1044.57 1855.34 1041.67 1878.68 1041.67 1878.14 1044.57"/><polygon class="cls-10" points="1867.09 1025.45 1834.65 1025.45 1835.19 1022.56 1867.63 1022.56 1867.09 1025.45"/><polygon class="cls-10" points="1888.87 1025.45 1870.18 1025.45 1870.72 1022.56 1889.42 1022.56 1888.87 1025.45"/><polygon class="cls-10" points="1864.62 1038.59 1832.18 1038.59 1832.73 1035.7 1865.16 1035.7 1864.62 1038.59"/><polygon class="cls-10" points="1886.4 1038.59 1867.71 1038.59 1868.25 1035.7 1886.95 1035.7 1886.4 1038.59"/><path class="cls-13" d="M1967,1556.79c-.75,10.12-15,10.22-31.22,8.35s-11.89,2.22-34.57,2.53-30.5-7.18-31.6-10.42c-1-2.88,10-5.3,21.63-8.14l4.42-1.1c13.18-3.35,21.91-13.21,33.18-21.82,10.68-8.16,24.45-37.68,24.45-37.68l31-1.4s-13,26.46-17.94,37.87c-2.89,6.71-1.66,15-.41,21.28A40.06,40.06,0,0,1,1967,1556.79Z"/><path class="cls-14" d="M1935.78,1565.14c-16.2-1.88-11.89,2.22-34.57,2.53s-30.5-7.18-31.6-10.42c-1-2.88,10-5.3,21.63-8.14l.14.21a63.55,63.55,0,0,0,33.28,6c15.23-1.52,30.76-7.88,41.26-9a40.06,40.06,0,0,1,1.08,10.53C1966.25,1566.91,1952,1567,1935.78,1565.14Z"/><path class="cls-13" d="M2181,1558.89c-.73,10.11-15,10.24-31.21,8.37s-11.89,2.24-34.57,2.58-30.5-7.15-31.6-10.39c-1-2.88,9.94-5.31,21.62-8.17,1.47-.35,2.94-.72,4.42-1.1,13.17-3.36,21.89-13.23,33.15-21.85,10.67-8.17,0-56.53,0-56.53l34.08-3.32s-1.63,40.72-1.61,59.23c0,7.3,3.37,14.33,4.63,20.65A40,40,0,0,1,2181,1558.89Z"/><path class="cls-14" d="M2149.77,1567.26c-16.2-1.86-11.89,2.24-34.57,2.58s-30.5-7.15-31.6-10.39c-1-2.88,9.94-5.31,21.62-8.17l.14.22a63.56,63.56,0,0,0,33.29,5.92c15.22-1.54,30.74-7.91,41.25-9.06a40,40,0,0,1,1.08,10.53C2180.25,1569,2166,1569.13,2149.77,1567.26Z"/><path class="cls-15" d="M2081.53,723.13c-5.87-24.13,2.63-35.37,10.31-41.35,3.64-8.88,7.79-15.28,12-17.7,7.74-4.4,17-4.88,23.51-4.5-1.67-1.72-5-2.35-5-2.35,4-.6,13,3.39,13,3.39,56-21.57,64.79,60.88,63.62,80s-1,41.72,28.12,56.81c55.58,28.8-18.48,137.31-18.48,137.31,1.42-15.48-70-97.16-107.27-121.63-9.07-13.35-12.29-36.94-12.53-38.8,1.56,18.7,4.76,29.2,7.62,35.11C2079.55,793.81,2077,756.28,2081.53,723.13Z"/><path class="cls-13" d="M2103.65,814.36c-.19.08,18,9.52,31.66,5.78,12.86-3.5,21.27-20.18,21.09-20.22-5.45-1.08-7-8.57-6.9-40.73l-2.46.49-41.41,8.19s.95,13,1,25.31C2106.63,803.48,2106,813.26,2103.65,814.36Z"/><path class="cls-16" d="M2105.63,767.87s.95,13,1,25.31c23.17-.65,35.42-21.79,40.44-33.5Z"/><path class="cls-17" d="M1937.18,1504.91a10.17,10.17,0,0,0,9.21,13.24l16.17.75,17.12.53a13.73,13.73,0,0,0,11.07-5.06c13.66-16.76,55.71-72.61,81.22-153.76.72-2.28,1.47-4.58,2.27-6.91,16.85-49.12,51.77-110.77,70.17-166.57,2.93-8.89,5.56-17.26,7.92-25.18.75-2.53,1.49-5,2.19-7.48,13.56-47.12,17.49-78,21.11-111.11l-132.88,1.06S2014.77,1261.86,1937.18,1504.91Z"/><path class="cls-11" d="M2061.35,968.07c.33,63.23-9.28,90.36-9.28,90.36s56.9,28.91,124.52,7.63c.79-.25,48.37-13.72,48.37-13.72-1.13-2.56-10.53-44.87-11.63-47.22-14.28-30.66-18.17-43.53-19.86-53-3.14-17.59-3.21-35.8-1.65-53a425.43,425.43,0,0,1,16.4-83.2c-18.42-4.19-35.68-11.55-54.85-18.75-4.41,5.5-17.9,11.24-29.6,11-13.47-.3-17.83-6.06-17.14-12.36-14.35,8-25.8,15.53-25.8,15.53-12.2,21.19-36.94,41.77-38.74,74.28C2041.65,893.66,2061.34,966.3,2061.35,968.07Z"/><path class="cls-18" d="M2175.63,975.12c5.81,8.22,16.94,58.19,44.65,64.47-14.28-35.61-25.12-51.23-26.81-62.18-3.14-20.44-3.21-41.59-1.65-61.53-9.27-16.26-16.19-27.41-16.19-27.41-.73-2.62-14.74-46-19.23-7.22S2169.14,965.92,2175.63,975.12Z"/><path class="cls-13" d="M2097.9,779.5s54.81.9,54.85-33.24,7.14-57-27.86-59-41.81,11-44.59,22.4S2083.64,778.38,2097.9,779.5Z"/><path class="cls-15" d="M2099.93,686.37s15,40.06,38,46,33-.25,33-.25-17.67-14-21.33-38.54C2149.66,693.57,2111.25,667.31,2099.93,686.37Z"/><path class="cls-15" d="M2103.65,689.63s-11.21,8.94-13.94,17.64-4,26.59-9.18,26c0,0-11.31-27.23,1.4-42.63C2095.4,674.29,2103.65,689.63,2103.65,689.63Z"/><polygon class="cls-13" points="2011.65 1011.96 1985.76 1090.89 2000.52 1096.81 2043.33 1027.08 2011.65 1011.96"/><path class="cls-12" d="M2081.45,806.75s-30.53,12.11-39.36,31-22.22,145.57-27.54,158.58-9.34,23.31-9.34,23.31,15.39,13,30.87,13.92S2081.45,806.75,2081.45,806.75Z"/><path class="cls-12" d="M2106.63,795.86s-31.71,78.35-32.64,94.21-3.73,259.28-3.73,259.28,1.86,11.2-19.59,6.53-27.05-9.32-27.05-9.32,20.52-150.17,14.93-202.4,42.9-137.41,42.9-137.41Z"/><path class="cls-19" d="M1962.56,1518.9l18.58.57a10.75,10.75,0,0,0,8.62-3.89c12.49-15.12,56-71.74,82.21-155,.72-2.28,1.47-4.58,2.27-6.91,16.85-49.12,51.77-110.77,70.17-166.57,2.93-8.89,5.56-17.26,7.92-25.18.75-2.53,1.49-5,2.19-7.48L2135,1139.62s-58.75,95.14-76.94,184.67C2042.21,1402.05,1978.94,1495.63,1962.56,1518.9Z"/><path class="cls-17" d="M2132.91,1332.63c-.32,41.18,1.63,133,6.65,177.86a8.11,8.11,0,0,0,8.06,7.21h13.87c5.84,0,10.21,0,13.12-.09a5.32,5.32,0,0,0,5.14-4.3c13.79-70.16,23.66-128.45,30.88-178.82,6-42.16,11.42-78.3,15.55-109.41,4.16-31.31,7.05-57.53,8.08-79.68.16-3.49.28-6.89.35-10.18s.08-6.53,0-9.65l-114.81-11.19C2121.3,1190.66,2133.1,1307.32,2132.91,1332.63Z"/><path class="cls-19" d="M2161.49,1517.7c5.25,0,9.31,0,12.18-.07a6.48,6.48,0,0,0,6.26-5.23c13.69-69.75,23.51-127.76,30.7-177.91,6-42.16,11.42-78.3,15.55-109.41,4.16-31.31,7.05-57.53,8.08-79.68l-42.13,24.78s26.89,9.48,16.63,81.3S2175.77,1507.53,2161.49,1517.7Z"/><path class="cls-12" d="M2156.06,1144.69s8.09,29.22,36.07,25.49,67.77-20.52,67.77-20.52-12-37.78-26.82-87.42c-18-60.09-40.29-137.56-50.79-186.43-2.95-13.69-5-25.12-5.71-33.31l-23.21-45s-34.61,77.68-36.48,97.27S2156.06,1144.69,2156.06,1144.69Z"/><path class="cls-13" d="M2184,891.81l-30.63-94.35c.08,0,38.69,11.49,58.12,21.3,0,0,12.14,15.65,19.65,51.76,0,0,7.93,86.7-9.79,118.41,0,0-56,11.19-145.5-19.59V948.83s97.94,5.12,118,7.46Z"/><path class="cls-20" d="M2157.3,935.77c1.25,31.71,8.72,93.27,75.24,126.22.18.08.36.18.54.25-18-60.09-40.29-137.56-50.79-186.43C2170.07,894.08,2156.62,918.31,2157.3,935.77Z"/><path class="cls-12" d="M2153.37,797.46s56.79,4,70.47,34.47,18,131.82.62,161.66c0,0-24,6.83-66.36-1.1l-1.57-.29s-13.52-33.12-1.4-39.64c0,0,35.75,1.86,32-9.95S2153.37,797.46,2153.37,797.46Z"/><path class="cls-15" d="M2011,961.5l1.67,5.38,93.19-29a3.57,3.57,0,0,0,.63-3.3,2.64,2.64,0,0,0-2.3-2.08Z"/><polygon class="cls-15" points="2004.23 966.59 2010.97 961.5 2012.64 966.88 2004.23 966.59"/><path class="cls-13" d="M1989.44,1088.73s-23.65,13.07-26.76,23-1,30.8,2.78,30.49,9.36-22.4,12.47-24,7.46-6.22,7.46-2.8-3.11,9.64-1.55,10.57,6.53-8.7,10-10.57,4.86-17.25,8.18-21.38S1989.44,1088.73,1989.44,1088.73Z"/><path class="cls-13" d="M2075.85,948.83s-21.14-13-30-11-31.47,18.37-20.6,21.92,19.68-.18,23.86,2.4,7.27,7.28,26.75,7.21S2075.85,948.83,2075.85,948.83Z"/><g class="cls-21"><path class="cls-8" d="M1051.91,1564.74h-.35a3.66,3.66,0,0,1-3.66-3.75l5.55-240.6,16.35-1.91L1055.86,1561A4,4,0,0,1,1051.91,1564.74Z"/><path class="cls-8" d="M956.62,1564.74h-.35a3.66,3.66,0,0,1-3.66-3.75l5.55-240.6,16.35-1.91L960.57,1561A4,4,0,0,1,956.62,1564.74Z"/><path class="cls-8" d="M1219.56,1564.74h.35a3.66,3.66,0,0,0,3.66-3.75l-5.55-240.6-16.35-1.91L1215.61,1561A4,4,0,0,0,1219.56,1564.74Z"/><path class="cls-8" d="M945.78,1305.47V1140.59a52.53,52.53,0,0,1,52.53-52.53H1117.1a52.53,52.53,0,0,1,52.53,52.53v171.18Z"/><path class="cls-8" d="M945.78,1305.47h245.13a0,0,0,0,1,0,0v26a0,0,0,0,1,0,0H961.56a15.77,15.77,0,0,1-15.77-15.77v-10.26A0,0,0,0,1,945.78,1305.47Z"/><rect class="cls-8" x="1033.22" y="1305.47" width="196.84" height="26.03" rx="11.66"/></g><path class="cls-13" d="M1348.21,1468.8c1.66,8.29,13.47,6.9,26.67,3.68s10.06.61,28.84-1.47,24.48-9.08,25-11.88c.51-2.47-8.77-3.35-18.72-4.49-1.26-.14-2.51-.3-3.77-.45-11.24-1.41-19.47-8.67-29.68-14.62-9.67-5.65-24.1-28.63-24.1-28.63l-25.76,2s13.52,20.53,18.75,29.46c3.07,5.25,2.91,12.19,2.53,17.55A33.35,33.35,0,0,0,1348.21,1468.8Z"/><path class="cls-14" d="M1374.88,1472.48c13.2-3.22,10.06.61,28.84-1.47s24.48-9.08,25-11.88c.51-2.47-8.77-3.35-18.72-4.49l-.1.19a53,53,0,0,1-26.89,8.36c-12.75.31-26.24-3.34-35-3.2a33.35,33.35,0,0,0,.19,8.81C1349.87,1477.09,1361.68,1475.7,1374.88,1472.48Z"/><path class="cls-13" d="M1126.85,1505.87c-5.12,6.72,3.73,14.67,14.88,22.43s6.2,8,20.18,20.66,23,12.34,25.48,10.93c2.2-1.26-3.29-8.8-9-17-.73-1-1.44-2.08-2.16-3.12-6.38-9.37-6.38-20.34-8.67-31.93-2.16-11,15.77-51.35,15.77-51.35l-28.81-3.63s-3.77,24.38-7,34.2c-1.91,5.78-9.91,9.59-14.18,12.85A33.11,33.11,0,0,0,1126.85,1505.87Z"/><path class="cls-14" d="M1141.73,1528.3c11.15,7.77,6.2,8,20.18,20.66s23,12.34,25.48,10.93c2.2-1.26-3.29-8.8-9-17l-.21.06a53,53,0,0,1-24.06-14.64c-8.66-9.36-14.86-21.89-20.78-28.4a33.11,33.11,0,0,0-6.48,6C1121.73,1512.59,1130.58,1520.54,1141.73,1528.3Z"/><path class="cls-22" d="M1244.53,1299.5l-26.32,70.82-34.36,92.47a55.62,55.62,0,0,1-18.25-1.67c-8.22-2.38-17.65-8.6-17.65-8.6s9.54-99.28,27.34-156.27c4.56-14.63,9.67-26.47,15.31-33.13C1218.19,1230.51,1244.53,1299.5,1244.53,1299.5Z"/><path class="cls-17" d="M1217.77,1187c-17.24-5.56-69.2-2.25-118.59,7.42l-7.57-13.23-106.7-8.34S949.7,1251,969,1300.72c2.83,7.31,8.46,12,18.06,12.15,0,0,1.55,0,1.56,0l84.12,0c53.07,0,112.3-36.48,120-38,12.54-2.51,17.56,22.58,30.1,48.92s117.9,116.64,117.9,116.64,16.2.17,22.89-2.34c7.19-2.7,9.82-6.21,9.82-6.21S1256.66,1199.57,1217.77,1187Z"/><path class="cls-14" d="M1054.24,858.24c-15-3.58-35.41.63-38.79,1-40.52,4.73-49.58,67.67-46.57,85.28,5.56,32.45-10,41.58-28.63,67.54-37.28,52-11.53,94.88,18.83,105.49,18.21,6.37,43-11,43-11,.46.17,64.43-60.91,96.08-90.57C1151.37,994.11,1092.52,867.36,1054.24,858.24Z"/><path class="cls-13" d="M1062.92,1006.65c.19.06-16.5,11-30.1,8.67-12.79-2.15-26.33-18.85-26.16-18.9,5.17-1.57,9.74-7.61,6.51-38.74l2.43.23,40.89,3.92s.35,12.71,1.51,24.59C1059,996.41,1060.53,1005.81,1062.92,1006.65Z"/><path class="cls-16" d="M1056.49,961.83s.35,12.71,1.51,24.59c-22.49,1.62-36.4-17.66-42.4-28.51Z"/><path class="cls-13" d="M1065.1,972.33s-53,6.2-56.33-26.86S996.33,891,1030,885.6s41.55,6.6,45.35,17.36S1078.8,969.87,1065.1,972.33Z"/><path class="cls-14" d="M1069.05,886s-25.59,36.63-47.31,44.6-32,3-32,3a89.94,89.94,0,0,0,13.78-33.91,16.18,16.18,0,0,1,10.57-12.54C1029.67,881.65,1059.71,873.32,1069.05,886Z"/><path class="cls-14" d="M1047.9,888.68s13.68,7.81,19.14,14.8c5.27,6.74,10.91,24.64,10.09,32.53,0,0,8.62-37.6-5.18-51.28C1057.32,870.23,1047.9,888.68,1047.9,888.68Z"/><path class="cls-11" d="M1103.66,1094.35c-1.6,107-.44,84.66-12.15,94.82-2.82,2.44-10.75,3.9-21.19,4.59-32.81,2.18-90.5-3.23-92.7-9.29-7.57-21-2.22-27.51-8.54-59.64-.66-3.41-1.47-7.11-2.43-11.14-5.26-22.07-10.39-29.57,8.29-65,16.95-32.12,35.24-57.77,36.82-56.83,44.7,26.54,47.61,3.82,47.61,3.82S1104.44,1042.15,1103.66,1094.35Z"/><path class="cls-17" d="M1218.21,1370.32l-35.14,96.32s-12.62,4.11-21.82,2.77a27.33,27.33,0,0,1-14.5-6.47s10.74-109.7,28.54-166.69Z"/><path class="cls-11" d="M1059.37,995.66s46,7.79,51.39,27.6,44.9,128.92,44.9,128.92-31.09,11.49-41.9.69-37.58-100.21-37.58-100.21Z"/><path class="cls-23" d="M1070.32,1193.76c-32.81,2.18-90.5-3.23-92.7-9.29-7.57-21-2.22-27.51-8.54-59.64l15.4-35s-2.19,40.11,12.45,53.16,59.93,25.2,67.05,36.11C1067.41,1184.29,1069.67,1189.54,1070.32,1193.76Z"/><path class="cls-13" d="M1073,1170.92s9.77,8.43,12.55,9.11a7.72,7.72,0,0,0,4.36,0l-7.12-8.34Z"/><path class="cls-13" d="M1069.12,1161l24.75,6.38s-.64,1.77-3.44,2.2-10.32-.71-10.32-.71Z"/><path class="cls-13" d="M1027.16,1174.63s35.33-15.72,42-13.64,23.64,11.08,26.31,14.87-13.93-.47-19.11-.8c-3.36-.21-11.15,4.4-15,6.62-16.28,9.35-27.58,8.52-27.58,8.52Z"/><path class="cls-11" d="M1011.76,991.84s-50,9.38-59.24,23.24c-20.2,30.22-63.21,155.47-39.13,172.26,27.13,18.91,123.45,5,123.45,5s3.2-15-1.26-22.23-76.93-19-80.27-22.3,33-51.71,29.17-61C972.06,1057.13,1011.76,991.84,1011.76,991.84Z"/><path class="cls-13" d="M1209.35,1169.29s35,9.45,38.57,14.87,10.64,22,10.34,26.37-9.85-8.58-13.42-11.88c-2.32-2.13-10.71-3.39-14.84-4.06-10.39-1.69-15.41-6.44-19.3-8.81a10.57,10.57,0,0,0-5.79-1.29Z"/><path class="cls-13" d="M1244.87,1193.68s2.12,11.9,3.74,14a7.32,7.32,0,0,0,3.15,2.62l-.25-10.28Z"/><path class="cls-13" d="M1247.92,1184.16l14.22,19.27s-1.5.91-3.8-.43-7.08-6.62-7.08-6.62Z"/><path class="cls-13" d="M1210.7,1185.78s3.24,7.87,9.71,10.69,11.23,7.06,12.27,5.54-4.9-9.55-4.9-9.55Z"/><path class="cls-11" d="M1146.37,1126.37l73.57,46.51s-7.73,10.34-10.31,11.28c-13.62,5-74.88.21-95.87-31.29Z"/><path class="cls-24" d="M1117.22,1176.92c4.34,0,47.52-3,47.52-3s-1.25,7.65,1.42,11.75l-42.08,8-8.64-2.54Z"/><path class="cls-12" d="M1045.2,1183.86l72-6.94s-2.53,13.32,6.86,16.81l-79.39,5.8S1038.29,1190.53,1045.2,1183.86Z"/><path class="cls-12" d="M1164.62,1174.88l-48.67,3.74s.36-1.68,1.27-1.7,48.35-3.47,48.35-3.47l-.17,1.33Z"/><polygon class="cls-12" points="1124.09 1193.73 1166.95 1185.58 1166.56 1184.47 1120.87 1193.22 1124.09 1193.73"/><path class="cls-8" d="M625.27,1564.36h-.39a4.08,4.08,0,0,1-4.06-4.19L627,1291.52l18.15-2.13-15.48,270.8A4.4,4.4,0,0,1,625.27,1564.36Z"/><path class="cls-8" d="M519.49,1564.36h-.39a4.08,4.08,0,0,1-4.06-4.19l6.16-268.65,18.15-2.13-15.48,270.8A4.4,4.4,0,0,1,519.49,1564.36Z"/><path class="cls-8" d="M811.38,1564.36h.39a4.09,4.09,0,0,0,4.07-4.19l-6.17-268.65-18.15-2.13L807,1560.19A4.4,4.4,0,0,0,811.38,1564.36Z"/><path class="cls-8" d="M507.46,1274.86v-184.1a58.49,58.49,0,0,1,58.31-58.66H697.64A58.49,58.49,0,0,1,756,1090.76v191.13Z"/><path class="cls-8" d="M507.46,1274.86H779.58a0,0,0,0,1,0,0v29.06a0,0,0,0,1,0,0H525a17.56,17.56,0,0,1-17.56-17.56v-11.5A0,0,0,0,1,507.46,1274.86Z"/><rect class="cls-8" x="604.52" y="1274.86" width="218.51" height="29.06" rx="12.98"/><path class="cls-24" d="M706.51,964.11s-11,9.39-13.43,33.74c-1.82,18.49,11,162,20.65,173.43,27.16,32.1,61.19,18.54,74.53,23.41l12.57-11.3s-44.22-32.64-47.58-43.28C740.29,1099.12,748.32,979.59,706.51,964.11Z"/><path class="cls-22" d="M698.58,847s.75-26.33-34-31.49-44.32,3-50.22,11.81-17,45-15.86,59.4,40.7,32.18,40.06,40.57S698.58,847,698.58,847Z"/><path class="cls-13" d="M859.61,1541.64c-1.12,8.9,11,11.52,25.12,12.76s9.74,4,29,8.31,27.21-.83,28.7-3.44c1.34-2.32-7.54-6.35-17-10.88l-3.58-1.73c-10.63-5.24-16.34-15.32-24.44-24.78-7.68-9-14.27-37-14.27-37L857,1478.23s6.51,25.23,8.7,36c1.29,6.32-1.19,13.25-3.36,18.51A35.75,35.75,0,0,0,859.61,1541.64Z"/><path class="cls-14" d="M884.73,1554.4c14.12,1.23,9.74,4,29,8.31s27.21-.83,28.7-3.44c1.34-2.32-7.54-6.35-17-10.88l-.16.16a54.26,54.26,0,0,1-29.36-.72c-12.7-4-24.81-12.27-33.56-15.11a35.75,35.75,0,0,0-2.74,8.92C858.49,1550.54,870.62,1553.16,884.73,1554.4Z"/><path class="cls-20" d="M664,1179s174.68,18.12,203.48,44.86,23.66,275.87,23.66,275.87c-4.48,4.65-7.79,4.54-14.87,4-6.8-.53-20.66-6.37-20.66-6.37S818.18,1375,817.72,1346.63s-6.39-76.38-18.27-79.22-153.3,13-168.8-31.65,10.24-81.42,10.24-81.42Z"/><path class="cls-24" d="M582.38,1223.88c7.54,5,21,12.83,43.63,13.64,40.47,1.47,91-3.36,100.9-12.74,2.58-2.43,3.84-6.44,4.2-11.54,1.09-15.52-6.32-41.07-11.31-62.21-3.23-13.74-5.43-25.6-3.63-31.67,5.49-18.46,22.55-56.08,24-68.44s-13.28-78.61-33.68-86.81-99.14,0-99.14,0c-30.76,6.24-32,71.82-21.84,127.64.27,1.44.54,2.86.81,4.28C597.41,1152.71,561.35,1209.79,582.38,1223.88Z"/><path class="cls-13" d="M684.1,976.17c-.56,3.6-10.4,9.43-31.45,3.88-20.16-5.31-22.58-11.88-22.58-16.22,0-5.13,8.77-12.05,8.65-43.63l2.42.47,40.66,8.06s-.93,12.79-.95,24.85C680.82,963.7,685,970.18,684.1,976.17Z"/><path class="cls-16" d="M681.8,928.73s-.93,12.79-.95,24.85c-22.76-.65-34.78-21.4-39.71-32.91Z"/><path class="cls-13" d="M689.4,940.14s-53.83.89-53.87-32.64-7-56,27.36-58,41.06,10.81,43.79,22S703.4,939,689.4,940.14Z"/><path class="cls-22" d="M687.4,848.69S672.67,888,650.05,893.85s-32.43-.25-32.43-.25,17.35-13.78,21-37.84C638.57,855.76,676.29,830,687.4,848.69Z"/><path class="cls-22" d="M683.75,851.89s11,8.78,13.69,17.32,3.89,26.11,9,25.52c0,0,11.1-26.74-1.38-41.87C691.85,836.82,683.75,851.89,683.75,851.89Z"/><path class="cls-13" d="M728.42,1549c-.13,9,12.21,10.18,26.37,9.78s10.13,2.88,29.73,4.92,26.94-4,28.14-6.73c1.06-2.45-8.21-5.43-18.1-8.85-1.25-.42-2.49-.87-3.74-1.31-11.15-4-18-13.33-27.05-21.79-8.62-8,10.41-46.78,10.41-46.78l-24.94-12.35s-4.73,27.68-10.82,51.89c-1.57,6.26-6.7,16.56-8.27,22A35.73,35.73,0,0,0,728.42,1549Z"/><path class="cls-25" d="M583.46,1217.22c7.54,5,19.94,19.49,42.55,20.3,37.32-8.49,79.82-18.38,105.1-24.28,1.09-15.52-6.32-41.07-11.31-62.21-29.47,9-73.33-21.66-88.08-33.78-15.49-12.73-15-55.14-15-55.14l-31.18,29.64c.27,1.44.54,2.86.81,4.28C597.41,1152.71,562.43,1203.13,583.46,1217.22Z"/><path class="cls-14" d="M754.79,1558.73c14.17-.4,10.13,2.88,29.73,4.92s26.94-4,28.14-6.73c1.06-2.45-8.21-5.43-18.1-8.85l-.14.18a54.27,54.27,0,0,1-29.25,2.66c-13.06-2.52-26-9.32-35-11.14a35.73,35.73,0,0,0-1.73,9.18C728.29,1557.92,740.63,1559.13,754.79,1558.73Z"/><path class="cls-12" d="M626.29,1189.6c44.35-1.26,176.81,9.31,202.26,28.5,31.32,23.61-58.16,279-58.16,279s-10.39,1-13.68.64c-14.21-1.61-20-5.94-20-5.94s.35-150.32,10.8-179.07c9.66-26.57,15.58-36,3.48-37.55s-163.16,17.68-175.77-27.92c-9.85-35.62,4.7-68.59,4.7-68.59S585.37,1190.77,626.29,1189.6Z"/><path class="cls-24" d="M607.37,964.1s-30.8,2.62-33.2,27c-1.82,18.49-15.22,149.64-5.57,161,27.15,32.1,117.7,38.9,131,43.78l3.67-15.18s-96.67-48.7-95.19-59.77S636.92,959.72,607.37,964.1Z"/><path class="cls-22" d="M631.16,828.78s2.21-14-17.27-17.68S594,848.86,592,858.83s3.11,15.95,10.54,16.56S631.16,828.78,631.16,828.78Z"/><path class="cls-13" d="M704.35,1180s27.53-7.79,34.09-6,29,16.7,25.86,20.74-22.95-2.42-32.06-1.2-16.15,5.72-22.71,4.75a76,76,0,0,1-13.41-3.55Z"/><path class="cls-13" d="M704.35,1180s13.47-6.92,17.3-10.86a1.07,1.07,0,0,1,1.67.19c1,1.62,2,4.75-2.74,7.86C713.78,1181.7,704.35,1180,704.35,1180Z"/><path class="cls-13" d="M800.83,1183.39s28.57,1.57,34.18,5.42,22,25.21,17.74,28-20.93-9.74-29.94-11.54-17.13.17-23-2.88a76,76,0,0,1-11.53-7.71Z"/><path class="cls-26" d="M604.58,1566.7H488.35c-5.6-6.82-3.54-32-2.69-40.21.17-1.66.29-2.62.29-2.62s39.7-31.75,45.15-7.44c.16.76.37,1.51.59,2.24,6.87,22.74,37.68,33.07,55.47,35.95C598.72,1556.5,603,1562.51,604.58,1566.7Z"/><path class="cls-14" d="M287.42,1189c4.19,0,199.1,36.6,231.34,76.51,16.11,19.93,18.5,250.18,18.5,250.18s-19.92,24.71-63,10.36c0,0-31.55-157.53-29.22-205.31.65-13.21-133.17-1.91-157.66-8.25s-84.34-59.62-71.15-85.58S287.42,1189,287.42,1189Z"/><path class="cls-13" d="M428.54,1178.2S441,1189,453.81,1192c7.3,1.74,14.36,3.71,18.57,5.64,11.57,5.32,33.53,29,31.48,31.39-6.54,7.55-32.91-12.13-38-10.74s8.28,12.83,3,15.94c-2.75,1.62-7.95-8.26-12.82-9.65-6.58-1.88-10.95-11.82-12.92-12.5-3.83-1.32-19.85-15.68-19.85-15.68Z"/><path class="cls-27" d="M656,1566.7H539.72c-5.59-6.82-3.53-32-2.69-40.21.18-1.66.3-2.62.3-2.62s39.69-31.75,45.14-7.44c.17.76.37,1.51.59,2.24,6.87,22.74,37.68,33.07,55.47,35.95C650.1,1556.5,654.37,1562.51,656,1566.7Z"/><path class="cls-28" d="M344.85,1189c4.2,0,199.11,36.6,231.35,76.51,16.1,19.93,18.5,250.18,18.5,250.18s-19.93,24.71-63,10.36c0,0-31.55-157.53-29.22-205.31.64-13.21-133.17-1.91-157.67-8.25s-84.33-59.62-71.15-85.58S344.85,1189,344.85,1189Z"/><path class="cls-13" d="M332.65,952.16c-14-1.16-28.72-4.9-41.42-9-15.89-5.16-28.69-12.69-20.44-27.21,7.6-13.38,19.91-43.26,19.08-68l29.55,23.81L339.5,887.9a239.24,239.24,0,0,1-2.28,26.25c-.4,3.05-.87,6.34-1.42,9.85a7.15,7.15,0,0,0,3.3,7.19l.45.29C349.53,937.75,344.4,953.12,332.65,952.16Z"/><path class="cls-16" d="M339.5,884s1,3.47-.74,16.25c-17.9-2.92-34.63-17.19-34.63-17.19,9.11-2.5,12.43-12.35,19.22-11.43Z"/><path class="cls-13" d="M356.05,886.88s-68.84,11.44-75.31-31.55-19.7-70.45,24-79.57,54.71,6,60.35,19.82S373.8,882.8,356.05,886.88Z"/><path class="cls-28" d="M375.21,776.55c3,10.35-5,23-18.24,27.11-19.71,6.16-15.36,30.35-24.23,30s-12.45-13.9-20.37-3.06c-6.76,9.25,5.62,20.22,4.77,25.29-1.46,8.71-15.1,26.52-27.4,25.63s-35.29-59.31-30.69-77.39,23-37.13,40.42-39.76,41.6,4.9,47.19,4.9S373.61,771,375.21,776.55Z"/><path class="cls-11" d="M392.29,1176.12c-1.16,9.93-3.25,16.67-6.53,18.87-10.26,6.87-23.87,15.42-39.06,23.88-53.85,30-127.58,59-142.58,8.26-17.62-59.61-6-171.53,11.23-241.05,10-40.06,37.46-82.08,56-82,31.69.06,77.24,8.42,95.64,53.79,7.12,17.58,17.58,78.49,22.92,134.28C393.15,1125.35,394.51,1156.77,392.29,1176.12Z"/><path class="cls-23" d="M268.21,904.42l7.17-16.16s63.62,6.48,74.41,43C349.79,931.29,300.62,905.21,268.21,904.42Z"/><path class="cls-23" d="M392.29,1176.12c-1.16,9.93-3.25,16.67-6.53,18.87-10.26,6.87-23.87,15.42-39.06,23.88-15.85-9.63-48.38-32.62-56-59.71-9.95-35.43-3-79-3-79Z"/><path class="cls-11" d="M281.11,958.94s5.52,152.25,14.18,182.35c14.76,51.33,149.42,69.62,149.42,69.62s7.94-9,4.39-23.93c0,0-80.5-63.45-82.86-75.53s17.54-93.94-5.19-123.7S296.39,932.19,281.11,958.94Z"/><path class="cls-8" d="M112.3,1565.26h-.45a6,6,0,0,1-6.08-6.44L130,1317.22l21.11,1.88L116.33,1562A3.94,3.94,0,0,1,112.3,1565.26Z"/><path class="cls-8" d="M236.81,1565.26h-.44a6,6,0,0,1-6.09-6.44l24.19-241.59,21.11,1.88L240.84,1562A3.93,3.93,0,0,1,236.81,1565.26Z"/><path class="cls-8" d="M470.56,1565.26H471a6,6,0,0,0,6.08-6.44L452.9,1317.22l-21.11,1.88L466.53,1562A3.94,3.94,0,0,0,470.56,1565.26Z"/><path class="cls-8" d="M119.13,1283l-23-201.78c-3-29.08,6.72-57.55,48.68-59.75l73.83-4.5c43.75-1.8,63.5,34.61,69,62.64l43.83,221.81Z"/><path class="cls-8" d="M131.47,1282.07H459.11a12,12,0,0,1,12,12v26.71a0,0,0,0,1,0,0H131.47a12,12,0,0,1-12-12V1294A12,12,0,0,1,131.47,1282.07Z" transform="translate(590.58 2602.82) rotate(180)"/><path class="cls-8" d="M128.8,1282.07H322.25a9.29,9.29,0,0,1,9.29,9.29v29.38a0,0,0,0,1,0,0H128.8a9.29,9.29,0,0,1-9.29-9.29v-20.08A9.29,9.29,0,0,1,128.8,1282.07Z" transform="translate(451.05 2602.82) rotate(180)"/><rect class="cls-29" x="16.27" y="1563.65" width="2924.73" height="11.98" rx="4.12"/><rect class="cls-8" x="515.42" y="541.65" width="132.36" height="128.41" rx="9.47"/><rect class="cls-23" x="521.16" y="547.21" width="120.89" height="117.28" rx="8.65"/><circle class="cls-8" cx="581.6" cy="558.93" r="2.74"/><path class="cls-8" d="M601,562.81a2.74,2.74,0,1,1,1.07,3.73A2.75,2.75,0,0,1,601,562.81Z"/><path class="cls-8" d="M619.94,577.86a2.74,2.74,0,1,1-.82,3.79A2.75,2.75,0,0,1,619.94,577.86Z"/><path class="cls-8" d="M629.33,601.17a2.74,2.74,0,1,1-2.75,2.74A2.74,2.74,0,0,1,629.33,601.17Z"/><circle class="cls-8" cx="622.59" cy="630.16" r="2.74"/><path class="cls-8" d="M607.31,645.48a2.74,2.74,0,1,1-3.87,0A2.73,2.73,0,0,1,607.31,645.48Z"/><circle class="cls-8" cx="581.6" cy="654.38" r="2.74"/><path class="cls-8" d="M562.13,562.81a2.74,2.74,0,1,0-1.06,3.73A2.73,2.73,0,0,0,562.13,562.81Z"/><path class="cls-8" d="M543.18,577.86a2.74,2.74,0,1,0,.82,3.79A2.75,2.75,0,0,0,543.18,577.86Z"/><path class="cls-8" d="M533.79,601.17a2.74,2.74,0,1,0,2.74,2.74A2.74,2.74,0,0,0,533.79,601.17Z"/><circle class="cls-8" cx="540.52" cy="630.16" r="2.74"/><path class="cls-8" d="M555.8,645.48a2.74,2.74,0,1,0,3.88,0A2.75,2.75,0,0,0,555.8,645.48Z"/><path class="cls-8" d="M580.86,603.91a2.75,2.75,0,1,1,2.74,2.74A2.74,2.74,0,0,1,580.86,603.91Z"/><rect class="cls-8" x="583.23" y="569.66" width="0.75" height="34.25"/><rect class="cls-8" x="580.8" y="595.61" width="23.08" height="2.25" transform="translate(-242.06 493.08) rotate(-38.13)"/></g></g></svg>