<svg xmlns="http://www.w3.org/2000/svg" viewBox="0 0 653.53 444.71"><defs><style>.cls-1{fill:#f9f2ef;}.cls-2{fill:#c6b59b;}.cls-3{font-size:14.86px;font-family:Montserrat-Regular, Montserrat Regular;}.cls-4{letter-spacing:0em;}.cls-5{fill:#183d49;}.cls-6{fill:#346d7a;}.cls-7{fill:#fabf01;}.cls-8{fill:#ad342a;}.cls-9{fill:#fa5a40;}.cls-10{fill:#e4dbca;}.cls-11{fill:#39545f;}.cls-12{fill:#fff;}.cls-13{fill:#db3f2e;}.cls-14{fill:#4f3016;}.cls-15{fill:#0e2e33;}.cls-16{fill:#f4a79d;}.cls-17{fill:#e58880;}.cls-18{letter-spacing:-0.02em;}.cls-19{letter-spacing:-0.03em;}.cls-20{letter-spacing:0em;}.cls-21{letter-spacing:-0.01em;}.cls-22{letter-spacing:-0.05em;}.cls-23{fill:#d8a516;}</style></defs><g id="Calque_2" data-name="Calque 2"><g id="Objects"><circle class="cls-1" cx="319.65" cy="210.05" r="139.92" transform="translate(-54.9 287.55) rotate(-45)"/><path class="cls-2" d="M481.73,340.39c0-23.86-68.59-43.19-153.21-43.19s-153.21,19.33-153.21,43.19c0,18.78,42.53,34.76,101.91,40.71a160.25,160.25,0,0,1,40.65,43.21c16.81-19.82,42.8-30.36,68.19-38.7,9.77-3.21,19.71-6.25,29.46-9.66C455.52,368.15,481.73,355.14,481.73,340.39Z"/><circle class="cls-1" cx="98.54" cy="367.39" r="64.29" transform="translate(-281.78 373.68) rotate(-75.93)"/><text class="cls-3" transform="translate(68.46 418.88)">G<tspan class="cls-4" x="9.6" y="0">A</tspan><tspan x="18.63" y="0">MER</tspan></text><path class="cls-5" d="M150,366.12c0-5.92-.79-12.05-3.78-17.47-2.8-5.07-7.38-9.25-12.44-12.55a117.64,117.64,0,0,0-16.2-8.29c-1-.46-2.18-.9-3.39-1.31s-2.37-.85-3.45-1.15a117.48,117.48,0,0,0-17.76-3.94c-6-.68-12.19-.39-17.58,1.74-5.77,2.27-10.29,6.48-14,11.05-7.38,8.94-12.34,19.52-15.59,30.52-.84,2.86-1.51,6.13.26,8.78,1.66,2.47,5,3.58,8.08,3.72,6.2.3,11.83-2.47,17-5.37s10.31-6.09,16.4-6.8a33.62,33.62,0,0,1,12.39,1.29,33.69,33.69,0,0,1,10.38,6.9c4.23,4.43,6.19,10.2,8.29,15.7s4.68,11.22,9.64,14.95c2.46,1.85,5.74,3.13,8.6,2.28,3-.91,4.62-3.86,5.79-6.6C147,389,149.94,377.72,150,366.12Z"/><path class="cls-5" d="M150,366.12c0-5.92-.79-12.05-3.78-17.47-2.8-5.07-7.38-9.25-12.44-12.55a117.64,117.64,0,0,0-16.2-8.29c-1-.46-2.18-.9-3.39-1.31s-2.37-.85-3.45-1.15a117.48,117.48,0,0,0-17.76-3.94c-6-.68-12.19-.39-17.58,1.74-5.77,2.27-10.29,6.48-14,11.05-7.38,8.94-12.34,19.52-15.59,30.52-.84,2.86-1.51,6.13.26,8.78a8,8,0,0,0,3.88,2.87,80.09,80.09,0,0,1,5.41-8.12c3.53-4.65,7.72-9,12.94-11.45a30.8,30.8,0,0,1,15.72-2.41,90.11,90.11,0,0,1,15.65,3.18,29.56,29.56,0,0,1,3,1,31.24,31.24,0,0,1,3,1.16,90.13,90.13,0,0,1,14.08,7.53,30.79,30.79,0,0,1,10.58,11.87c2.45,5.23,2.92,11.24,2.67,17.07a78.9,78.9,0,0,1-1,9.71,8,8,0,0,0,4.82.26c3-.91,4.62-3.86,5.79-6.6C147,389,149.94,377.72,150,366.12Z"/><path class="cls-6" d="M130.23,379.13a30.79,30.79,0,0,0-10.58-11.87,90.13,90.13,0,0,0-14.08-7.53,31.24,31.24,0,0,0-3-1.16,29.56,29.56,0,0,0-3-1,90.11,90.11,0,0,0-15.65-3.18,30.8,30.8,0,0,0-15.72,2.41c-5.22,2.47-9.41,6.8-12.94,11.45a80.09,80.09,0,0,0-5.41,8.12,13.48,13.48,0,0,0,4.2.85c6.2.3,11.83-2.47,17-5.37s10.31-6.09,16.4-6.8a33.62,33.62,0,0,1,12.39,1.29,33.69,33.69,0,0,1,10.38,6.9c4.23,4.43,6.19,10.2,8.29,15.7s4.68,11.22,9.64,14.95a13.76,13.76,0,0,0,3.78,2,78.9,78.9,0,0,0,1-9.71C133.15,390.37,132.68,384.36,130.23,379.13Z"/><path class="cls-7" d="M87.93,329.57c-.42,1.15-2.72,1.59-5.13,1s-4-2-3.63-3.2,2.71-1.59,5.13-1S88.34,328.41,87.93,329.57Z"/><path class="cls-7" d="M94.15,337.24c-.41,1.15-2.71,1.59-5.13,1s-4-2-3.62-3.19,2.71-1.6,5.13-1S94.57,336.08,94.15,337.24Z"/><path class="cls-7" d="M80.3,334.13c-.42,1.16-2.72,1.6-5.13,1s-4-2-3.63-3.19,2.71-1.59,5.13-1S80.71,333,80.3,334.13Z"/><path class="cls-7" d="M85.46,341.19c-.41,1.16-2.71,1.6-5.13,1s-4-2-3.62-3.2,2.71-1.59,5.13-1S85.88,340,85.46,341.19Z"/><ellipse class="cls-7" cx="133.69" cy="354.62" rx="9.42" ry="13.39" transform="translate(-230.54 249.93) rotate(-53.31)"/><path class="cls-5" d="M132.92,347c-.42,1.15,1.07,3,3.32,4s4.41,1,4.83-.15-1.07-3-3.33-4S133.33,345.85,132.92,347Z"/><path class="cls-5" d="M123.23,348.94c-.42,1.16,1.07,3,3.32,4s4.42,1,4.83-.15-1.07-3-3.32-4S123.64,347.79,123.23,348.94Z"/><path class="cls-5" d="M135.88,355.38c-.41,1.16,1.08,3,3.33,4s4.41,1,4.83-.15-1.08-3-3.33-4S136.3,354.23,135.88,355.38Z"/><path class="cls-5" d="M127.4,357.53c-.42,1.15,1.07,3,3.32,4s4.42,1,4.83-.15-1.07-2.95-3.32-4S127.81,356.37,127.4,357.53Z"/><path class="cls-8" d="M99.52,350.76c-.52,2.37-3.59,3.71-6.87,3s-5.52-3.21-5-5.58,3.59-3.71,6.87-3S100,348.4,99.52,350.76Z"/><path class="cls-9" d="M97.12,348.09c-.27,1.23-1.87,1.93-3.57,1.55s-2.87-1.66-2.61-2.9,1.87-1.92,3.58-1.55S97.38,346.86,97.12,348.09Z"/><path class="cls-8" d="M120,360.34c-1.34,2-4.69,2.14-7.48.29s-4-5-2.63-7,4.7-2.15,7.49-.29S121.36,358.32,120,360.34Z"/><path class="cls-9" d="M118.6,357.26c-.77,1-2.51,1-3.9-.1s-1.89-2.72-1.13-3.72,2.51-1,3.89.09S119.36,356.26,118.6,357.26Z"/><path class="cls-6" d="M109.5,339.42c9.73,3.51,19.58,2.12,24.89-2.87l-.65-.45a117.64,117.64,0,0,0-16.2-8.29c-1-.46-2.18-.9-3.39-1.31s-2.37-.85-3.45-1.15a117.48,117.48,0,0,0-17.76-3.94l-.79-.07C93.06,328.57,99.77,335.92,109.5,339.42Z"/><path class="cls-5" d="M224.67,257.8a1.66,1.66,0,0,0-1.6,1.18c-4.56,1.52-9.26,2.8-13.82,4a184.26,184.26,0,0,0-18.64,5.75c-9.07,3.55-21.09,10.23-26.78,21.95a30.67,30.67,0,0,0-3.07,11.71c-.07,1.36,0,2.74,0,4.07a33.41,33.41,0,0,1-.32,6.71,10.4,10.4,0,0,1-4,6.65,3,3,0,1,0,.69,1.91,2.9,2.9,0,0,0-.19-1,11.32,11.32,0,0,0,4.51-7.34,34.21,34.21,0,0,0,.34-6.92c0-1.31-.06-2.67,0-4a29.55,29.55,0,0,1,3-11.32c5.55-11.43,17.34-18,26.25-21.45A179.82,179.82,0,0,1,209.51,264c4.48-1.2,9.08-2.46,13.57-3.94a1.68,1.68,0,1,0,1.59-2.23Z"/><circle class="cls-1" cx="552.77" cy="373.97" r="64.29" transform="translate(64.67 829.13) rotate(-77.08)"/><text class="cls-3" transform="translate(519.99 419.86)">TECHNO</text><polygon class="cls-9" points="618.54 393.05 506.84 393.05 527.89 369.81 597.49 369.81 618.54 393.05"/><polygon class="cls-5" points="618.54 393.05 506.84 393.05 508.82 396.97 615.29 396.97 618.54 393.05"/><polygon class="cls-5" points="586.62 387.11 584.36 387.11 578.81 372.83 580.49 372.83 586.62 387.11"/><path class="cls-10" d="M586.2,384.22c.35.79-.24,1.45-1.34,1.45h0a2.79,2.79,0,0,1-2.53-1.45l-1-2.64c-.26-.7.34-1.25,1.33-1.25h0a2.68,2.68,0,0,1,2.35,1.25Z"/><path class="cls-11" d="M585.07,383.7a1.85,1.85,0,0,1-1.59-.8l-.93-2.5a1.31,1.31,0,0,1,.34,0,1.74,1.74,0,0,1,1.43.66l1.17,2.61A1.14,1.14,0,0,1,585.07,383.7Z"/><polygon class="cls-5" points="593.18 387.11 590.92 387.11 583.69 372.83 585.37 372.83 593.18 387.11"/><path class="cls-10" d="M592.42,384.22c.44.79-.07,1.45-1.17,1.45h0a3.2,3.2,0,0,1-2.7-1.45l-1.29-2.64c-.35-.7.19-1.25,1.18-1.25h0a3.05,3.05,0,0,1,2.49,1.25Z"/><path class="cls-11" d="M591.46,383.7a2.3,2.3,0,0,1-1.81-.9l-1.19-2.43h.19a2.13,2.13,0,0,1,1.62.74l1.45,2.58Z"/><polygon class="cls-5" points="599.74 387.11 597.48 387.11 588.57 372.83 590.25 372.83 599.74 387.11"/><path class="cls-10" d="M598.63,384.22c.55.79.11,1.45-1,1.45h0a3.71,3.71,0,0,1-2.88-1.45l-1.6-2.64c-.42-.7.05-1.25,1-1.25h0a3.48,3.48,0,0,1,2.64,1.25Z"/><path class="cls-11" d="M597.85,383.7a2.71,2.71,0,0,1-2-1l-1.44-2.37h0a2.57,2.57,0,0,1,1.81.81l1.72,2.53Z"/><polygon class="cls-5" points="606.29 387.11 604.03 387.11 593.44 372.83 595.12 372.83 606.29 387.11"/><path class="cls-10" d="M604.85,384.22c.64.79.27,1.45-.82,1.45h0a4.23,4.23,0,0,1-3-1.45l-1.91-2.64c-.5-.7-.1-1.25.89-1.25h0a4,4,0,0,1,2.79,1.25Z"/><path class="cls-11" d="M604.15,383.7a3.28,3.28,0,0,1-2.15-1l-1.66-2.29a3,3,0,0,1,1.84.86Z"/><ellipse class="cls-5" cx="552.1" cy="377.27" rx="24.93" ry="11.16"/><path class="cls-6" d="M520.08,373.81l-3,2.75s.09,2.58.09,2.91,5.16,1.67,5.16,1.67l3.59-2.75,2.91-.42,13.67-2.83,1.42,2.17-.42-2.92-2.92-.33-14.91,2.66-.67-1.58Z"/><path class="cls-9" d="M557.18,374.94c0,1.36-2.46,2.46-5.5,2.46s-5.5-1.1-5.5-2.46,2.46-2.47,5.5-2.47S557.18,373.58,557.18,374.94Z"/><path class="cls-5" d="M554.8,373.87c0,.77-1.39,1.4-3.12,1.4s-3.12-.63-3.12-1.4,1.4-1.4,3.12-1.4S554.8,373.1,554.8,373.87Z"/><ellipse class="cls-5" cx="518.61" cy="388.03" rx="2.72" ry="1.27"/><ellipse class="cls-5" cx="528.22" cy="388.03" rx="2.72" ry="1.27"/><path class="cls-9" d="M563.85,324.68c.69,1.18,1.3,2.41,1.87,3.65,1.91-1.72,4-3.74,6.3-5.51a29.33,29.33,0,0,0-4.57-7.52,25.51,25.51,0,0,0-12.91-7.8,34.75,34.75,0,0,0-15.19-.33c-7.37,1.38-14.76,5.14-18.31,11.75,4.62-3.77,11-4.49,16.9-4.89,6.24-.43,12.89-.57,18.29,2.6A22.22,22.22,0,0,1,563.85,324.68Z"/><path class="cls-9" d="M535.3,359q2-3.31,3.81-6.68c-3.68-2.24-7.43-4.37-10.49-7.38-.27-.27-.53-.53-.79-.81a60.37,60.37,0,0,1-5.57,6.48A34.32,34.32,0,0,0,535.3,359Z"/><path class="cls-9" d="M573.62,327.83a2.71,2.71,0,0,0-.29-1.57L571.2,321l-4.48,4.68,2.58,6.83,3.48-3.44A2.69,2.69,0,0,0,573.62,327.83Z"/><path class="cls-11" d="M571.29,323.4c.5-.41,1-.81,1.54-1.19-2-4.69-5-9.09-9.2-11.95-5.07-3.43-11.42-4.35-17.54-4.49-6.81-.17-13.78.55-20,3.39s-11.53,8-13.36,14.6c-1.73,6.24-.16,13,2.72,18.78a43.45,43.45,0,0,0,7.81,10.95,77,77,0,0,0,7.26-8.43c-4.12-4.35-7.33-9.7-8.2-15.61-.93-6.39,1.27-13.43,6.47-17.27,4.52-3.34,10.25-4.22,15.87-4.47,5.33-.24,11.15.08,15.86,2.58C565.62,313,568.78,318.19,571.29,323.4Z"/><path class="cls-5" d="M526.56,357.31a14.61,14.61,0,0,0,8.19,10.7,22.26,22.26,0,0,0,13.7,1.55,15.64,15.64,0,0,0,7.44-3.1,8,8,0,0,0,3-7.18c-.4-2.47-2.2-4.47-4.15-6a27.26,27.26,0,0,0-20-5.84,10.63,10.63,0,0,0-5.5,1.9C527,351.14,526.17,354.38,526.56,357.31Z"/><path class="cls-9" d="M525.31,359.19a14.61,14.61,0,0,0,8.19,10.7,22.26,22.26,0,0,0,13.7,1.55,15.75,15.75,0,0,0,7.44-3.11,8,8,0,0,0,3-7.18c-.4-2.46-2.2-4.46-4.15-6a27.26,27.26,0,0,0-20-5.84,10.54,10.54,0,0,0-5.5,1.9C525.74,353,524.92,356.26,525.31,359.19Z"/><path class="cls-5" d="M528.28,360.86a9.92,9.92,0,0,0,5.54,7.24,15.07,15.07,0,0,0,9.28,1,10.56,10.56,0,0,0,5-2.1,5.46,5.46,0,0,0,2.05-4.86,7.1,7.1,0,0,0-2.81-4.09,18.48,18.48,0,0,0-13.52-4,7.16,7.16,0,0,0-3.72,1.28A5.91,5.91,0,0,0,528.28,360.86Z"/><path class="cls-9" d="M538.76,370.86h0a13.32,13.32,0,0,1-6-1.31,9.76,9.76,0,0,1-5.48-7.19,6,6,0,0,1,1.93-5.56,7.34,7.34,0,0,1,3.75-1.32,17.28,17.28,0,0,1,1.9-.1,17.83,17.83,0,0,1,11.18,3.93,7,7,0,0,1,2.82,4.15,5.58,5.58,0,0,1-2.1,5,10.38,10.38,0,0,1-5,2.08A16.91,16.91,0,0,1,538.76,370.86Zm-3.87-14.48a15.22,15.22,0,0,0-1.79.1,6.18,6.18,0,0,0-3.24,1.1,5.08,5.08,0,0,0-1.56,4.64,8.78,8.78,0,0,0,4.93,6.44,13.73,13.73,0,0,0,8.42.94,9.43,9.43,0,0,0,4.5-1.87,4.64,4.64,0,0,0,1.75-4.11,6,6,0,0,0-2.46-3.53A16.83,16.83,0,0,0,534.89,356.38Z"/><path class="cls-5" d="M580.4,348.16A16.11,16.11,0,0,0,582.24,338a32.79,32.79,0,0,0-3.14-10,4.07,4.07,0,0,1,3.41,1.47,11.94,11.94,0,0,1-2.11,18.6Z"/><path class="cls-9" d="M576.91,325.87a6.81,6.81,0,0,0-4.85.17,7.57,7.57,0,0,0-3.72,4.28,18.42,18.42,0,0,0-.93,5.72c-.13,3.65.11,7.49,2,10.61s5.92,5.2,9.31,3.85a7.78,7.78,0,0,0,4-4.1,16.71,16.71,0,0,0,1.24-5.72,19.94,19.94,0,0,0-1-8.72A10.21,10.21,0,0,0,576.91,325.87Z"/><path class="cls-5" d="M578.07,345.27a23.62,23.62,0,0,0,1.34-8.4,12,12,0,0,0-3.13-7.76,3.74,3.74,0,0,0-3-1.39c-1.43.17-2.34,1.58-2.9,2.9a19,19,0,0,0-.29,13.92,7.69,7.69,0,0,0,2.15,3.34,3.52,3.52,0,0,0,3.75.55A5.2,5.2,0,0,0,578.07,345.27Z"/><path class="cls-6" d="M577.72,341.92a12.26,12.26,0,0,0,.7-4.4,6.32,6.32,0,0,0-1.64-4.07,2,2,0,0,0-1.56-.73c-.75.09-1.23.83-1.52,1.52a10,10,0,0,0-.15,7.29,4,4,0,0,0,1.12,1.75,1.86,1.86,0,0,0,2,.29A2.72,2.72,0,0,0,577.72,341.92Z"/><path class="cls-5" d="M502.32,322a3,3,0,0,0-2.14.88,27.77,27.77,0,0,1-9-22.26c.1-1.21.28-2.46.46-3.66.44-3,.89-6.06.14-9-1.8-7.13-9.55-10.81-15.23-12.95a157.75,157.75,0,0,0-65.41-9.75,2,2,0,0,0-1.92-1.43,2,2,0,1,0,2,2.42,157,157,0,0,1,65,9.7c5.47,2.06,12.93,5.57,14.61,12.25.7,2.79.28,5.64-.16,8.65-.18,1.22-.36,2.49-.47,3.73a28.83,28.83,0,0,0,9.46,23.16,3,3,0,1,0,2.72-1.7Z"/><circle class="cls-1" cx="515.98" cy="102.65" r="64.29"/><text class="cls-3" transform="translate(487.76 152.28)">BOOKS</text><path class="cls-5" d="M544.49,60.87c-17.32-15.45-43-10.34-43-10.34l-6.56,71.69.79,1.72c15.67-8.8,34.29-1.75,39.91,1,.71-.05,2.66-.26,3.37-.32,10.73-11.54,41-6.25,41-6.25l3.42-71c-.24,0-.68-1.44-.92-1.48C562.22,42.52,546.41,59,544.49,60.87Z"/><path class="cls-7" d="M543.65,59.37c-17.31-15.45-43-10.34-43-10.34l-5.77,73.41c15.67-8.8,34.28-1.75,39.91,1,.7-.05,2.66-.26,3.36-.32,10.74-11.54,41-6.25,41-6.25l3.42-71C562,42,545.6,57.51,543.65,59.37Z"/><path class="cls-10" d="M503.46,52.8s24.37-5.88,40.23,8.52l-6.75,58.74s-23.2-12.63-40-3.23Z"/><path class="cls-11" d="M510,51.84a50,50,0,0,0-6.54,1l-6.47,64c5.89-3.31,12.56-3.88,18.76-3.25a125.27,125.27,0,0,1,13.9-4.35C524.16,90,515.38,71.64,510,51.84Z"/><path class="cls-12" d="M543.3,61.32s15.37-15.47,35.54-11.75L575.12,112s-29.76-.59-38.57,8Z"/><polygon class="cls-9" points="518.6 104.64 473.99 117.96 455.01 50.3 498.51 37.62 518.6 104.64"/><path class="cls-10" d="M473.85,117.41l45.91-13.69,1.49-5-45.93,12.1S472.67,115.35,473.85,117.41Z"/><rect class="cls-9" x="465.83" y="36.84" width="46.35" height="69.97" transform="translate(-0.04 143.41) rotate(-16.68)"/><path class="cls-13" d="M456.76,45s-2.78,1.36-1.9,5.63L474,117.92l.33-.38s-.82-4,2.51-5.55Z"/><path class="cls-5" d="M451.4,63.79a3,3,0,0,0-3.61,2.74,106.23,106.23,0,0,0-43.22,7c-4.35,1.68-9.19,4-12.12,8.06-2.28,3.2-3.08,8-1.18,11.59a2.13,2.13,0,0,1-1,2.87L373,104.56a2,2,0,0,0-3.66,1.19,2,2,0,0,0,4.05,0,1.9,1.9,0,0,0,0-.25l17.73-8.77a2.82,2.82,0,0,0,1.2-4c-1.22-2.14-2-5.7,1-10.66,2.49-4.08,7.45-6.08,11.66-7.71a105.41,105.41,0,0,1,42.95-6.88,3,3,0,1,0,3.52-3.74Z"/><circle class="cls-1" cx="124.06" cy="107.8" r="64.29" transform="translate(-8.75 204.61) rotate(-77.08)"/><text class="cls-3" transform="translate(101.91 159.97)">BIKER</text><polygon class="cls-14" points="101.57 104.77 100.37 104.66 98.82 120.65 100.02 120.65 101.57 104.77"/><path class="cls-9" d="M105.27,104.54a1.05,1.05,0,0,1-1.06,1.06H97.8a1.05,1.05,0,0,1-1.06-1.06h0a1.05,1.05,0,0,1,1.06-1.05h6.41a1.05,1.05,0,0,1,1.06,1.05Z"/><path class="cls-7" d="M63,92.56A25.94,25.94,0,1,0,89,118.5,25.94,25.94,0,0,0,63,92.56Zm0,48.58A22.64,22.64,0,1,1,85.66,118.5,22.64,22.64,0,0,1,63,141.14Z"/><path class="cls-7" d="M63,92.56A25.94,25.94,0,1,0,89,118.5,25.94,25.94,0,0,0,63,92.56Zm0,48.58A22.64,22.64,0,1,1,85.66,118.5,22.64,22.64,0,0,1,63,141.14Z"/><path class="cls-14" d="M63,94.42A24.09,24.09,0,1,0,87.1,118.5,24.08,24.08,0,0,0,63,94.42Zm0,45.1a21,21,0,1,1,21-21A21,21,0,0,1,63,139.52Z"/><path class="cls-7" d="M154,92.56a25.94,25.94,0,1,0,25.93,25.94A25.94,25.94,0,0,0,154,92.56Zm0,48.58a22.64,22.64,0,1,1,22.64-22.64A22.63,22.63,0,0,1,154,141.14Z"/><path class="cls-14" d="M154,93.91a24.59,24.59,0,1,0,24.58,24.59A24.59,24.59,0,0,0,154,93.91ZM154,140a21.46,21.46,0,1,1,21.46-21.46A21.45,21.45,0,0,1,154,140Z"/><polygon class="cls-14" points="151.55 119.43 133.81 67.75 137.21 66.59 139.72 73.95 154.95 118.26 151.55 119.43"/><polygon class="cls-14" points="100.3 121.39 57.94 121.39 83.01 75.46 86.17 77.18 64 117.8 98.91 117.8 139.35 81 141.77 83.66 100.3 121.39"/><rect class="cls-14" x="87.53" y="57.79" width="3.6" height="63.52" transform="translate(-24.16 33.71) rotate(-18.87)"/><path class="cls-9" d="M92.87,59.63c-.41-.9-1.63-1-2.63-1A54.08,54.08,0,0,1,76.14,57c-1.52-.39-3.26-.82-4.56.07a3.27,3.27,0,0,0-.75,4.24,5.23,5.23,0,0,0,3.37,2.31,14.27,14.27,0,0,0,4.18.22,75.08,75.08,0,0,0,11.86-1.47,4.63,4.63,0,0,0,2-.79A1.71,1.71,0,0,0,92.87,59.63Z"/><path class="cls-14" d="M137.22,69.13l-.64.47c-2.2-1.79-2.16-5.35-.54-7.65s4.3-3.51,7-4.17,5.49-.87,8.16-1.64a11.53,11.53,0,0,0,6.05-3.72.93.93,0,0,1,1.56.06,2.66,2.66,0,0,1,.36,1.2A9.69,9.69,0,0,1,153.22,58a71,71,0,0,1-7.43,1.38,13.27,13.27,0,0,0-6.81,3A6.24,6.24,0,0,0,137.22,69.13Z"/><rect class="cls-14" x="59.42" y="113.62" width="39.85" height="1" transform="translate(-12.93 10.18) rotate(-6.79)"/><rect class="cls-14" x="78.97" y="104.97" width="1" height="39.15" transform="translate(-54.43 186.95) rotate(-82.45)"/><circle class="cls-7" cx="99.59" cy="119.44" r="8.24" transform="translate(-55.29 105.4) rotate(-45)"/><path class="cls-14" d="M103.41,119.44a3.82,3.82,0,1,1-3.82-3.82A3.82,3.82,0,0,1,103.41,119.44Z"/><polygon class="cls-14" points="98.82 120.65 97.17 137.63 98.36 137.74 100.02 120.65 98.82 120.65"/><path class="cls-9" d="M102,137.72a1.06,1.06,0,0,1-1,1.06H94.52a1.07,1.07,0,0,1-1.06-1.06h0a1.06,1.06,0,0,1,1.06-1.06h6.42a1.05,1.05,0,0,1,1,1.06Z"/><rect class="cls-14" x="84.52" y="74.71" width="53.84" height="3.6"/><path class="cls-14" d="M131.57,67.17a10.73,10.73,0,0,1,1.66,2.68,23,23,0,0,1,5.6-2.18,7.29,7.29,0,0,1-.39-2.44Z"/><path class="cls-14" d="M158.15,117.55a3.8,3.8,0,1,1-3.8-3.8A3.8,3.8,0,0,1,158.15,117.55Z"/><path class="cls-14" d="M64.12,119a3.8,3.8,0,1,1-3.8-3.8A3.8,3.8,0,0,1,64.12,119Z"/><path class="cls-5" d="M277.82,100.62a1.68,1.68,0,0,0-1.56,1.06c-8.41-.88-17.46-2.56-22-9.32a29.73,29.73,0,0,1-3.15-7.1,46.16,46.16,0,0,0-2-5.07c-4.25-8.79-14.7-14.88-26.64-15.5-9.52-.48-19.1,2.1-27.8,4.79a3,3,0,1,0,.38,1.45,2.76,2.76,0,0,0-.05-.51c8.88-2.74,18-5.22,27.42-4.73,11.58.6,21.7,6.47,25.79,14.94a43.72,43.72,0,0,1,1.93,5,30.26,30.26,0,0,0,3.26,7.34c4.81,7.11,14.13,8.85,22.77,9.75a1.69,1.69,0,1,0,1.65-2Z"/><path class="cls-14" d="M250.58,282.33c.94,2.42,3.44,3.83,5.8,5,21.27,10.19,45.47,13.27,69.1,12.31s46.9-5.77,70-10.69c-6.25-12.09-19.25-19.76-32.72-22.64s-27.48-1.56-41.11.46-27.24,4.72-41,4.58c-6.8-.07-13.67-.83-20.36.4a15.14,15.14,0,0,0-7.51,3.23C250.74,276.79,249.59,279.79,250.58,282.33Z"/><path class="cls-5" d="M318.23,257.37c-15.1.17-18.23,1.37-33.32,1.54.1,8-.19,14.27-.09,22.26-28.87-3.81-59-2.73-87.07,6.07-6.1,1.92-12.26,3.56-17.21,8.1S178.27,315,179,322.17c.64,6.06,11.93,5.35,16.28,8.86s9.47,5.51,14.53,7.39c13.25,4.92,57.24,4.13,70.94,7,29.71,6.29,7.49,12.72,37,5.06C320.54,320.44,319.06,287.6,318.23,257.37Z"/><path class="cls-15" d="M319.32,301.54a100.23,100.23,0,0,1-14.67,3.38,12.45,12.45,0,0,0-1.92-4.9c-2.73-3.94-7.86-5.39-12.64-5.85s-9.72-.22-14.2-1.95l14.35,14.09q-3.8.12-7.65.07a34.8,34.8,0,0,0-30-21.12,54.51,54.51,0,0,1,27.56,21.08c-34.06-.74-70.19-8.71-98.08,14.81-.91.76-1.8,1.54-2.68,2.34,2,4.65,11.92,4.31,15.92,7.54,4.36,3.5,9.47,5.51,14.53,7.39,13.25,4.92,57.24,4.13,70.94,7,29.71,6.29,7.49,12.72,37,5.06A472.75,472.75,0,0,0,319.32,301.54Z"/><path class="cls-5" d="M319.94,257.66l45.29.5c-.1,8,3.34,16.7,3.24,24.68,31.81,2.38,42.32,2.37,70.36,11.18,6.1,1.91,10.4.48,15.35,5s8.5,11.66,7.74,18.88c-1.74,16.68-22.95,23.94-36.43,28.23A176.44,176.44,0,0,1,355.67,354q-8.3-.74-16.5-2.19c-1.59-.28-26.92-1.93-27-3C309.33,318.68,319.11,287.89,319.94,257.66Z"/><path class="cls-15" d="M460.84,311.56a64,64,0,0,0-32.77-9.64c-26.71-.7-53.92,6.87-80.59,6.15a38.22,38.22,0,0,1,11.59-17.16,33.46,33.46,0,0,0-17.35,16.87,100.79,100.79,0,0,1-11.93-1.61c4.39-8.34,13.18-14.42,22.41-18.4-7,1.18-14,4-19.05,9a23.47,23.47,0,0,0-5.58,8.91,83.37,83.37,0,0,1-13.05-4c-2.35,16-4.36,32-2.87,47.84.1,1.11,25.43,2.76,27,3q8.2,1.44,16.5,2.19A176.44,176.44,0,0,0,425,346.89c13.48-4.29,34.69-11.55,36.43-28.23A19.67,19.67,0,0,0,460.84,311.56Z"/><path class="cls-15" d="M391,289.48c-7.24-.54-14.83-1-21.47,1.92a22.39,22.39,0,0,0-11.9,12.85C368,297.92,379.46,293.51,391,289.48Z"/><path class="cls-5" d="M315.22,293.74a48.54,48.54,0,0,0-.13,22.61Q315.46,305.05,315.22,293.74Z"/><path class="cls-6" d="M437.8,353.4c11.08-.91,21.78-2.39,29.91-11s11.76-23.93,5.5-34.43c-4.49-7.52-12.89-10.9-20.83-10.92s-15.65,2.77-23.29,5.27A341.74,341.74,0,0,1,337.78,319c1.06,12.23,20.92,24.36,19.43,36.54C392.8,355.26,403.33,356.21,437.8,353.4Z"/><path class="cls-11" d="M456.42,337.35c-33.46,3.42-68.77,1.31-101.26,9.51a14.94,14.94,0,0,1,2,8.72c35.59-.32,46.12.63,80.59-2.18,11.08-.91,21.78-2.39,29.91-11a33.13,33.13,0,0,0,7.82-15C470.33,333,463.55,336.76,456.42,337.35Z"/><path class="cls-5" d="M347.63,324.1l-.07-1c28.54-2.14,60.9-4.56,88-19.09.84-.45,1.67-.91,2.5-1.37,4.32-2.39,8.78-4.85,13.72-5.68l.17,1c-4.77.8-9.16,3.22-13.4,5.57L436,304.89C408.75,319.52,376.28,322,347.63,324.1Z"/><path class="cls-5" d="M343.75,314.23a2.75,2.75,0,0,1,2.82,2,53.36,53.36,0,0,0,9.94,19.62c2.51,3.13,5.42,6,7.13,9.67s2.58,10.32-.11,13.31c-2.48-.5-5.77-2.22-8.11-1.26a48.81,48.81,0,0,0-15-27.3c-1.84-1.69-3.85-3.28-5.17-5.41a7.42,7.42,0,0,1-.55-6.7C336.2,314.63,339.63,314.42,343.75,314.23Z"/><path class="cls-9" d="M335.92,323.62c-2.95.33-11-.14-13.14,1.92-3.52,3.41,2.58,10.48,5.76,14.21s7.75,5.92,11.59,9a32.51,32.51,0,0,1,10.72,33.68,25.88,25.88,0,0,0,6-30.5c-2.52-4.92-6.73-9.17-7.56-14.64-.57-3.72.42-8-1.87-11C344.89,323,340,323.16,335.92,323.62Z"/><path class="cls-8" d="M341.75,350.11a32.58,32.58,0,0,1,9.1,32.28,24.79,24.79,0,0,0,7.5-11.95,46.77,46.77,0,0,0-4.18-16.89C352.37,349.05,346.57,347,341.75,350.11Z"/><path class="cls-8" d="M339,328.24a29.21,29.21,0,0,0,1.31-4.86,31.4,31.4,0,0,0-4.37.24c-2.95.33-11-.14-13.14,1.92-2.36,2.29-.38,6.24,2.14,9.71A21.2,21.2,0,0,0,339,328.24Z"/><path class="cls-8" d="M349.11,343.43c2.67,4.53,5.35,8.47,8.95,11.4a22.36,22.36,0,0,0-1.25-2.94c-2.52-4.92-6.73-9.17-7.56-14.64a40.91,40.91,0,0,1-.25-4.85C345.66,335,347.14,340.09,349.11,343.43Z"/><path class="cls-5" d="M315.62,332c-1.78,5.46-.35,11.54,2.42,16.57s6.78,9.23,10.58,13.54,7.5,8.87,9.45,14.27c.86,2.39,1.38,4.92,2.63,7.14s3.49,4.12,6,4a6.41,6.41,0,0,0,5-3.33,15.21,15.21,0,0,0,1.73-6c1.44-11.6-1.64-24.37-10.54-31.94-4.32-3.68-9.94-6.14-12.8-11-2-3.41-3.05-8.24-6.9-9.1C319.79,325.38,316.7,328.66,315.62,332Z"/><path class="cls-15" d="M328.1,339.54c3,3.67,7.44,5.85,10.83,9.15a25.79,25.79,0,0,1,6.9,12.85,40.13,40.13,0,0,1,.31,14.7c-.28,1.92-.86,4.09-2.62,4.91s-3.86-.15-5.46-1.28c-7-5-11.22-12.87-15.18-20.49s-8.13-16-7-24.57a7.89,7.89,0,0,1,1.31-3.76,3.58,3.58,0,0,1,3.5-1.51,5.15,5.15,0,0,1,2.92,2.67C325.11,334.66,326.29,337.32,328.1,339.54Z"/><path class="cls-9" d="M282.87,120.75c-5.63-1.93-11.69-.08-16.31,3.67-18.3,14.83-39.91,30.76-61.87,41.94,1.08,2.19,2,4.48,2.89,6.75,2.09,5.33.55,15.76,3.17,20.82,13.83.34,42.1-11.93,53.32-16.2,16.63-6.33,18.11-19.59,22.45-36.85C288.16,134.4,289.19,122.92,282.87,120.75Z"/><path class="cls-8" d="M268.62,175.62a25.64,25.64,0,0,0,9-8.26h-9Z"/><rect class="cls-8" x="268.62" y="139.51" width="11.39" height="8.86"/><rect class="cls-8" x="268.62" y="153.44" width="11.39" height="8.86"/><path class="cls-8" d="M280,134.45V122.81H268.84l-.22.14v11.5Z"/><rect class="cls-8" x="233.95" y="167.36" width="11.39" height="8.86"/><path class="cls-8" d="M234,181.28v7.78c3.83-1.25,7.69-2.64,11.39-4v-3.76Z"/><path class="cls-8" d="M245.34,140.81q-5.26,3.84-10.71,7.56h10.71Z"/><rect class="cls-8" x="233.95" y="153.44" width="11.39" height="8.86"/><rect class="cls-8" x="254.19" y="167.36" width="5.82" height="8.86"/><rect class="cls-8" x="254.19" y="153.44" width="5.82" height="8.86"/><rect class="cls-8" x="254.19" y="139.51" width="5.82" height="8.86"/><path class="cls-8" d="M254.19,181.62l.88-.34h-.88Z"/><path class="cls-8" d="M260,134.45v-4.8c-1.91,1.51-3.86,3-5.83,4.52v.28Z"/><path class="cls-8" d="M210.66,181.28h-1.82c.23,4.15.32,8.58,1.46,11.64h.36Z"/><path class="cls-8" d="M210.66,167.36h-5.5c.88,1.88,1.66,3.82,2.42,5.75a15.26,15.26,0,0,1,.78,3.1h2.3Z"/><rect class="cls-8" x="219.52" y="167.36" width="5.82" height="8.86"/><path class="cls-8" d="M219.52,181.28v11.64h.36c1.75-.36,3.58-.79,5.46-1.29V181.28Z"/><path class="cls-8" d="M225.34,162.29V154.5c-1.93,1.22-3.87,2.41-5.82,3.59v4.2Z"/><path class="cls-8" d="M260,179.31c1.51-.59,2.87-1.13,4.05-1.58a32.81,32.81,0,0,0,3.43-1.52H260Z"/><rect class="cls-8" x="245.34" y="176.21" width="8.86" height="5.06"/><rect class="cls-8" x="210.66" y="176.21" width="8.86" height="5.06"/><rect class="cls-8" x="225.34" y="176.21" width="8.61" height="5.06"/><rect class="cls-14" x="233.95" y="176.21" width="11.39" height="5.06"/><path class="cls-14" d="M210.66,176.21h-2.3a50.82,50.82,0,0,1,.48,5.07h1.82Z"/><rect class="cls-8" x="260.02" y="162.29" width="8.61" height="5.06"/><path class="cls-8" d="M280,163.17c.14-.29.27-.58.4-.88H280Z"/><rect class="cls-8" x="225.34" y="162.29" width="8.61" height="5.06"/><rect class="cls-8" x="245.34" y="162.29" width="8.86" height="5.06"/><path class="cls-8" d="M219.52,167.36v-5.07h-7.24c-.54.31-1.08.6-1.62.89v4.18Z"/><path class="cls-14" d="M268.62,162.29v5.07h9a32.22,32.22,0,0,0,2.35-4.19v-.88Z"/><rect class="cls-14" x="233.95" y="162.29" width="11.39" height="5.06"/><path class="cls-14" d="M210.66,163.18c-2,1.09-4,2.16-6,3.18.16.33.31.66.47,1h5.5Z"/><rect class="cls-8" x="260.02" y="148.37" width="8.61" height="5.06"/><rect class="cls-8" x="245.34" y="148.37" width="8.86" height="5.06"/><path class="cls-8" d="M234,148.84q-3.45,2.34-7,4.6h7Z"/><path class="cls-8" d="M280,153.44h3.4q.66-2.46,1.29-5.07H280Z"/><rect class="cls-14" x="268.62" y="148.37" width="11.39" height="5.06"/><path class="cls-14" d="M245.34,153.44v-5.07H234.63l-.68.47v4.6Z"/><path class="cls-8" d="M254.19,134.45h-.36c-2.21,1.7-4.46,3.38-6.73,5.06h7.09Z"/><path class="cls-8" d="M280,139.51h6.83a42.77,42.77,0,0,0,.77-5.06H280Z"/><rect class="cls-8" x="260.02" y="134.45" width="8.61" height="5.06"/><rect class="cls-14" x="268.62" y="134.45" width="11.39" height="5.06"/><path class="cls-14" d="M254.19,176.21v5.07h.88l4.95-2v-3.1Z"/><rect class="cls-14" x="219.52" y="176.21" width="5.82" height="5.06"/><rect class="cls-14" x="254.19" y="162.29" width="5.82" height="5.06"/><rect class="cls-14" x="219.52" y="162.29" width="5.82" height="5.06"/><rect class="cls-14" x="254.19" y="148.37" width="5.82" height="5.06"/><rect class="cls-14" x="254.19" y="134.45" width="5.82" height="5.06"/><path class="cls-13" d="M190.2,184.54a13.16,13.16,0,0,0,2.94,5.69q3.71,5,7.64,9.72a7.5,7.5,0,0,0,3,2.53c1.9.69,4-.21,5.78-1.08l10.8-5.24a16.72,16.72,0,0,0,4.45-2.77c3.74-3.63,3.36-9.88,6.42-14.09,1.07-1.48,2.52-2.64,3.55-4.15a12.22,12.22,0,0,0,1.74-8,36.86,36.86,0,0,0-2-8c-10.77-1.15-21.6-2.3-32.4-1.47-2,.15-4.22.53-5.27,2.21-1.26,2-.09,4.59,0,7,.12,3.22-1.82,6.1-3.6,8.78S189.7,181.36,190.2,184.54Z"/><path class="cls-14" d="M206.65,198.07a14.78,14.78,0,0,1-8.44-4.95,17.12,17.12,0,0,1-4.14-11.71,21,21,0,0,1,4.82-12.11A38,38,0,0,1,209,160.82c4.29-2.62,9.58-4.77,14.22-2.84,3.72,1.54,6.05,5.48,6.62,9.47s-.36,8-1.6,11.88c-1.61,4.95-3.82,9.84-7.48,13.55S211.78,199,206.65,198.07Z"/><path class="cls-16" d="M224.82,121.49a48.16,48.16,0,0,0,.63-5.23c.09-1.11.56-2.29.21-3.35-1.35-4.11-2.31-6.82-3.66-10.22a8.48,8.48,0,0,1,6.72,1.7c1.93,1.61,4.05,4.12,4.21,6.62.11,1.64-.43,4.25.31,5.72s3.42,1.09,4.67,2a21.15,21.15,0,0,1,5.3,5.25,101,101,0,0,0-19,9.49,9.9,9.9,0,0,1-.68-6C223.8,125.44,224.44,123.49,224.82,121.49Z"/><path class="cls-17" d="M237.91,118.68c-1.25-.86-4-.6-4.67-2s-.2-4.08-.31-5.72c-.16-2.5-2.28-5-4.21-6.62a7.69,7.69,0,0,0-1.67-1.06.93.93,0,0,0-1.17,1.38c5.27,7.7,2,15.82,5.45,24.55a101.12,101.12,0,0,1,11.88-5.33A21.15,21.15,0,0,0,237.91,118.68Z"/><path class="cls-16" d="M280.1,112.52c2.19-2.62.5-4.14-.86-4.92q-16.07,4.65-32.34,8.56L236,117.85a11.59,11.59,0,0,0-8.3,5.71l-6,10.45a1.74,1.74,0,0,1-.11-.18l-5.71,6.35a127.79,127.79,0,0,0-15.7,24.09c-2.39,4.78-4.52,9.86-4.6,15.2s2.29,11,7,13.51c6.33,3.37,14.5-.14,19-5.76s6.21-12.83,8.44-19.65c2-6.11,3.35-13.13,8.22-17.17,1-.07,3.55.65,4.89.67,2.46.05,11.58-2.74,13.18-4.41a19.1,19.1,0,0,0,3-1.93c.78-.63,1.55-1.63,1.14-2.54-.3-.67-1.15-1-1.28-1.74a1.83,1.83,0,0,1,.65-1.47,19.62,19.62,0,0,0,1.67-1.86,3.13,3.13,0,0,0,.63-2.36c-.26-1.32-1.58-3.23-1.63-4.57s1.09-2,1.52-3.41c.5-1.58-.27-2.64-1.51-3.73-.55-.49-1.16-.93-1.75-1.39l0-.13C266,118.91,272.57,116.06,280.1,112.52Z"/><path class="cls-17" d="M252,146.43c-5.06,2-15.27,3.63-17.29-2.44-8.1,14.17-13.16,30.37-25.31,41.5-4.49,3.74-9.52,2.51-13.07-.83a13.44,13.44,0,0,0,6.31,8.32c6.33,3.37,14.5-.14,19-5.76s6.21-12.83,8.44-19.65c2-6.11,3.35-13.13,8.22-17.17,1-.07,3.55.65,4.89.67a26.87,26.87,0,0,0,6.28-1.36C249.55,148.46,252,148.34,252,146.43Z"/><path class="cls-14" d="M236.9,149.33a9.06,9.06,0,0,1-6.53-3,6.37,6.37,0,0,0,3.44,4.14C235.49,151.25,235.24,150.14,236.9,149.33Z"/><path class="cls-1" d="M280.08,109.17a4.17,4.17,0,0,1,.33,1.13,1.38,1.38,0,0,1-.33,1.09,2.15,2.15,0,0,1-.92.45l-2,.62a.58.58,0,0,1-.43,0,.59.59,0,0,1-.22-.31c-.39-1-.79-2-1.18-2.93l3.23-.9a1.36,1.36,0,0,1,.82-.06C279.73,108.39,279.92,108.8,280.08,109.17Z"/><path class="cls-7" d="M385.28,118.35c-36-10.57-78.26-9.24-113.67,3.31a268.44,268.44,0,0,0,1.05,115.39c-.73,15.95.71,29.69-4.88,45.48,29.6,23.67,79-3.8,111.47,2.63-2.42-22.73-8-42.8-10.58-65.06,2.67-18.08,8.25-34.36,19.06-55.56C393.2,153.82,396.83,121.74,385.28,118.35Z"/><path class="cls-14" d="M379.23,280.41c-2.73-19.28-8.3-40.92-10.56-60.31,2.67-18.08,7.31-33.53,17-55.25,5-11.15,11-43.21-.43-46.5a182,182,0,0,0-32.58-6.2c1.45,3.86,2.39,7.73.46,11.59-30.63,85-.48,72.94-8.36,108.83-3.14,14.34-8.38,31.16-8.85,46.82a71.94,71.94,0,0,1,7.46-1.51C358.34,276.74,367.42,278.76,379.23,280.41Z"/><path class="cls-14" d="M302.54,219.92c-2-28.35-12.15-55.69-12.15-85a49,49,0,0,1,4-19.56,175.11,175.11,0,0,0-22.8,6.35,268.44,268.44,0,0,0,1.05,115.39c-.68,14.81.51,27.73-3.79,42.13,11.46,6.05,23.81,7.08,36.38,5.86C298.42,265.46,304.74,239.76,302.54,219.92Z"/><path class="cls-5" d="M312.63,147.11c-5.8,0-13.08-1.13-18.67-5.77s-9.34-13.7-5.3-19.94c3-4.58,10.43-6.68,15.88-8.21l.81-.23.28,1-.82.23c-5.3,1.48-12.55,3.52-15.31,7.78-3.74,5.79-.27,14.17,5.1,18.63,4.77,4,12,5.91,20.3,5.49a50.91,50.91,0,0,0,31.15-12.83,22.68,22.68,0,0,0,5.85-7.52,10.68,10.68,0,0,0,.12-9c-1.26-2.52-12.47-4.54-16-4.07l-.13-1c3.09-.41,15.33,1.29,17,4.63a11.59,11.59,0,0,1-.1,9.8,23.43,23.43,0,0,1-6.09,7.86A51.93,51.93,0,0,1,315,147.06C314.21,147.09,313.43,147.11,312.63,147.11Z"/><path class="cls-14" d="M344.1,113a106.1,106.1,0,0,0-36.34.39,28.46,28.46,0,0,0-9,2.87,11.78,11.78,0,0,0-5.86,7.13c-1.17,4.78,1.51,11.23,5.1,14.6,7.74,7.27,20.58,5.7,30.88,3.13s18-7.64,21.4-17.7c.89-2.61,1.34-5.77-.41-7.9C348.51,113.9,346.22,113.38,344.1,113Z"/><path class="cls-5" d="M299.56,290.26c-12,0-22.71-1.07-31.82-11.12l.75-.67c9.13,10.08,20,10.85,32.3,10.78,11.19-.06,22.36-2.64,33.16-5.14,2-.46,4-.93,6-1.38,12.87-2.88,26.59-5.19,39.73-2.66l-.19,1c-13-2.5-26.56-.2-39.32,2.66l-6,1.37c-10.85,2.52-22.07,5.11-33.37,5.17Z"/><path class="cls-16" d="M347.77,115.26c-1.27-1.53-3.38-2-5.34-2.33-.74-.12-1.48-.2-2.22-.31-2.23-9.18-2.94-18.77-3.25-28.15-8.4-.07-22.18-.69-30.58-.76.08,10.46-.58,21.44-4.1,31.37a17.37,17.37,0,0,0-1.79.87,10.87,10.87,0,0,0-5.42,6.59c-1.08,4.43,1.4,10.4,4.72,13.52,7.16,6.72,19,5.26,28.56,2.88s16.64-7.06,19.8-16.36C349,120.16,349.39,117.24,347.77,115.26Z"/><path class="cls-17" d="M337,84.47c-8.4-.07-22.18-.69-30.58-.76a140.38,140.38,0,0,1-.53,14.16c4.91,5,10.83,9.52,19,7.86a59.3,59.3,0,0,0,13.27-3.82C337.59,96.15,337.15,90.33,337,84.47Z"/><path class="cls-5" d="M337.33,91.82c-.16-2.45-.29-4.89-.37-7.35-8.4-.07-22.18-.69-30.58-.76,0,3.33-.05,6.73-.24,10.12a22.46,22.46,0,0,0,10.42,6.84,12.9,12.9,0,0,0,11.27-1.86C331,96.54,334.22,94.22,337.33,91.82Z"/><path class="cls-9" d="M389,121.12c8.56,4,13.17,13.79,18.05,20.35,8.79,11.79,20.68,17,33.29,24.54,2.1,1.26,4.08,5.73,5.31,7.85,2.53,4.31-.9,13.62-4.23,17.36s-6.5,3.77-12,8.45c-15.31-9.38-34-13.57-49.26-23-9.51-5.82-13.64-8.93-17.89-19.23-3.26-7.92-.66-22.37,4.73-29S381.18,117.53,389,121.12Z"/><path class="cls-14" d="M404.34,169.51c1.09,4.31,5.76,7,6.73,11.38.58,2.59-.26,5.4.64,7.9a8,8,0,0,0,4.28,4.29,23.74,23.74,0,0,0,6,1.6,38.73,38.73,0,0,1-4.09-36.33l-9.21-6.52L405.54,161C404.59,163.73,403.63,166.68,404.34,169.51Z"/><path class="cls-8" d="M420.07,153.87c-.86-.61-1.71-1.24-2.54-1.88v1.88Z"/><rect class="cls-8" x="417.51" y="172.85" width="11.39" height="8.86"/><path class="cls-8" d="M428.89,186.78H417.5v6.73c3.33,1.5,6.58,3.12,9.72,4.92h1.66Z"/><path class="cls-8" d="M417.52,167.79h11.39v-8.36l-.85-.5H417.52Z"/><path class="cls-8" d="M442.07,167.81A6.94,6.94,0,0,0,440.3,166l-2.53-1.49v3.26Z"/><path class="cls-8" d="M437.75,186.78v7.42a15.15,15.15,0,0,0,3.63-3,17.39,17.39,0,0,0,2.2-3.29v-1.16Z"/><rect class="cls-8" x="437.76" y="172.87" width="5.82" height="8.86"/><path class="cls-8" d="M394.23,172.83H382.84v5.46c2.16,1.21,4.36,2.34,6.61,3.41h4.78Z"/><rect class="cls-8" x="382.86" y="144.99" width="11.39" height="8.86"/><rect class="cls-8" x="382.85" y="158.91" width="11.39" height="8.86"/><rect class="cls-8" x="382.87" y="128.28" width="11.39" height="11.64"/><rect class="cls-8" x="403.08" y="172.84" width="5.82" height="8.86"/><path class="cls-8" d="M405.93,139.94c-.93-1.34-1.86-2.76-2.82-4.22v4.21Z"/><path class="cls-8" d="M403.08,186.76v.76c1.95.78,3.89,1.55,5.82,2.34v-3.1Z"/><rect class="cls-8" x="403.1" y="145" width="5.82" height="8.86"/><rect class="cls-8" x="403.09" y="158.92" width="5.82" height="8.86"/><path class="cls-8" d="M374.12,172.82l.11.07v-.07Z"/><rect class="cls-8" x="368.42" y="158.89" width="5.82" height="8.86"/><rect class="cls-8" x="368.43" y="144.97" width="5.82" height="8.86"/><rect class="cls-8" x="368.44" y="128.27" width="5.82" height="11.64"/><path class="cls-8" d="M443.57,186.79h.59a27.37,27.37,0,0,0,1.79-5.06h-2.38Z"/><rect class="cls-8" x="408.9" y="181.7" width="8.61" height="5.06"/><path class="cls-8" d="M403.08,181.7h-8.86v2.16c2.3,1,4.63,2,7,2.91h1.89Z"/><rect class="cls-8" x="428.89" y="181.72" width="8.86" height="5.06"/><rect class="cls-14" x="417.5" y="181.71" width="11.39" height="5.06"/><path class="cls-14" d="M389.44,181.69q2.37,1.11,4.78,2.16v-2.16Z"/><rect class="cls-8" x="374.23" y="167.76" width="8.61" height="5.06"/><rect class="cls-8" x="408.91" y="167.78" width="8.61" height="5.06"/><rect class="cls-8" x="394.23" y="167.77" width="8.86" height="5.06"/><rect class="cls-8" x="428.9" y="167.8" width="8.86" height="5.06"/><path class="cls-8" d="M368.29,167.75l.12.13v-.13Z"/><path class="cls-8" d="M445,172.87c-.43-.81-.92-1.76-1.46-2.7v2.7Z"/><rect class="cls-14" x="417.51" y="167.79" width="11.39" height="5.06"/><rect class="cls-14" x="382.84" y="167.76" width="11.39" height="5.06"/><rect class="cls-8" x="374.25" y="153.84" width="8.61" height="5.06"/><path class="cls-8" d="M368.43,153.83h-7.18a18.14,18.14,0,0,0,1,3.63c.21.5.42,1,.62,1.44h5.54Z"/><rect class="cls-8" x="408.92" y="153.86" width="8.61" height="5.06"/><rect class="cls-8" x="394.24" y="153.85" width="8.86" height="5.06"/><path class="cls-14" d="M417.52,158.93h10.54c-2.76-1.62-5.43-3.28-8-5.07h-2.54Z"/><rect class="cls-14" x="382.85" y="153.84" width="11.39" height="5.06"/><path class="cls-8" d="M368.44,139.91h-6.52a41.64,41.64,0,0,0-.87,5.07h7.38Z"/><rect class="cls-8" x="394.25" y="139.93" width="8.86" height="5.06"/><path class="cls-8" d="M409.93,145c-.33-.37-.67-.75-1-1.14V145Z"/><rect class="cls-8" x="374.26" y="139.92" width="8.61" height="5.06"/><rect class="cls-14" x="382.86" y="139.92" width="11.39" height="5.06"/><rect class="cls-14" x="437.75" y="181.72" width="5.82" height="5.06"/><rect class="cls-14" x="403.08" y="181.7" width="5.82" height="5.06"/><path class="cls-14" d="M437.76,172.86h5.82v-2.7a22.72,22.72,0,0,0-1.51-2.36h-4.31Z"/><rect class="cls-14" x="403.09" y="167.78" width="5.82" height="5.06"/><path class="cls-14" d="M374.24,167.75h-5.82v.13a33.62,33.62,0,0,0,5.71,4.94h.11Z"/><rect class="cls-14" x="403.1" y="153.86" width="5.82" height="5.06"/><rect class="cls-14" x="368.42" y="153.83" width="5.82" height="5.06"/><path class="cls-14" d="M403.11,145h5.82v-1.14c-.65-.77-1.29-1.56-1.91-2.39-.36-.49-.73-1-1.09-1.53h-2.82Z"/><rect class="cls-14" x="368.43" y="139.91" width="5.82" height="5.06"/><path class="cls-9" d="M349.19,230.36c.13,15.8-9.5,30.58-8.83,46.37C356.1,271.84,376,280,392,284c2.7-17.21-2.93-23-2-37.79,1-16.54-6.26-37.07-3.37-48.6,2.21-8.86-2.9-17.33-.59-26.17,4.56-17.47,5.06-33,8.35-50.77-12.84-2.46-29.51-8.71-42-12.53,3.64,8.65,7.34,17.7,6.73,27.07-1.13,17.28-16.52,30.94-18.41,48.16C338.9,199.31,349.05,214.35,349.19,230.36Z"/><rect class="cls-8" x="363.03" y="248.77" width="8.86" height="11.39"/><rect class="cls-8" x="349.11" y="248.77" width="8.86" height="11.39"/><path class="cls-8" d="M344,255.3c-.48,1.62-1,3.24-1.38,4.86H344Z"/><rect class="cls-8" x="376.95" y="248.77" width="8.86" height="11.39"/><path class="cls-8" d="M390.89,260.16a.77.77,0,0,0,0-.15v.15Z"/><path class="cls-8" d="M390.87,274.84h1.83a52.23,52.23,0,0,0-.36-5.82h-1.47Z"/><rect class="cls-8" x="376.95" y="269.02" width="8.86" height="5.82"/><path class="cls-8" d="M344,269h-3.26a45.2,45.2,0,0,0-.45,5.82H344Z"/><rect class="cls-8" x="363.03" y="269.02" width="8.86" height="5.82"/><rect class="cls-8" x="349.11" y="269.02" width="8.86" height="5.82"/><rect class="cls-8" x="376.95" y="214.09" width="8.86" height="11.39"/><rect class="cls-8" x="349.11" y="214.09" width="8.86" height="11.39"/><rect class="cls-8" x="363.03" y="214.09" width="8.86" height="11.39"/><rect class="cls-8" x="363.03" y="234.34" width="8.86" height="5.82"/><rect class="cls-8" x="349.11" y="234.34" width="8.86" height="5.82"/><rect class="cls-8" x="376.95" y="234.34" width="8.86" height="5.82"/><rect class="cls-8" x="349.11" y="179.42" width="8.86" height="11.39"/><path class="cls-8" d="M377,190.81h8.86v-9c-.12-.8-.22-1.59-.29-2.38H377Z"/><path class="cls-8" d="M344,179.42h-2.71a35.2,35.2,0,0,0-.69,4,37.46,37.46,0,0,0,0,7.41H344Z"/><rect class="cls-8" x="363.03" y="179.42" width="8.86" height="11.39"/><rect class="cls-8" x="349.11" y="199.67" width="8.86" height="5.82"/><path class="cls-8" d="M344,199.67h-1.85c.49,1.94,1,3.88,1.61,5.82H344Z"/><rect class="cls-8" x="376.95" y="199.67" width="8.86" height="5.82"/><rect class="cls-8" x="363.03" y="199.67" width="8.86" height="5.82"/><path class="cls-8" d="M358,144.75h-.92a79.39,79.39,0,0,1-5.19,11.38H358Z"/><rect class="cls-8" x="376.95" y="144.75" width="8.86" height="11.39"/><rect class="cls-8" x="363.03" y="144.75" width="8.86" height="11.39"/><rect class="cls-8" x="349.11" y="164.99" width="8.86" height="5.82"/><rect class="cls-8" x="363.03" y="164.99" width="8.86" height="5.82"/><rect class="cls-8" x="376.95" y="164.99" width="8.86" height="5.82"/><path class="cls-8" d="M385.81,121.46V118.7c-2.89-.77-5.86-1.65-8.86-2.58v5.34Z"/><path class="cls-8" d="M371.89,121.46v-6.94c-3-1-6-2-8.86-2.91v9.85Z"/><path class="cls-8" d="M358,110.07h-4.85a109.43,109.43,0,0,1,4.17,11.39H358Z"/><path class="cls-8" d="M394.19,121.46c.05-.25.09-.5.14-.76-1.13-.21-2.29-.47-3.46-.74v1.5Z"/><path class="cls-8" d="M390.87,136.14h1.07c.26-1.93.52-3.86.81-5.82h-1.88Z"/><rect class="cls-8" x="376.95" y="130.32" width="8.86" height="5.82"/><rect class="cls-8" x="363.03" y="130.32" width="8.86" height="5.82"/><path class="cls-8" d="M344,274.84v1a38.55,38.55,0,0,1,5.07-.57v-.43Z"/><rect class="cls-8" x="344.04" y="260.16" width="5.06" height="8.86"/><path class="cls-8" d="M349.11,179.42v-8.61h-4.86l-.21.49v8.12Z"/><path class="cls-8" d="M349.11,240.16h-.94c-.58,2.89-1.34,5.75-2.17,8.61h3.11Z"/><path class="cls-8" d="M349.11,161.21c-.69,1.26-1.37,2.52-2,3.78h2Z"/><path class="cls-8" d="M349.11,205.49H344v.81c.78,2.59,1.59,5.19,2.34,7.79h2.73Z"/><rect class="cls-8" x="344.04" y="190.81" width="5.06" height="8.86"/><path class="cls-8" d="M349.11,233.2l-.09,1.14h.09Z"/><path class="cls-8" d="M348.85,225.48c.11.93.2,1.86.26,2.8v-2.8Z"/><path class="cls-14" d="M349.11,260.16V248.77H346c-.64,2.18-1.31,4.36-2,6.53v4.86Z"/><path class="cls-14" d="M349.11,214.09h-2.73a75.69,75.69,0,0,1,2.47,11.39h.26Z"/><rect class="cls-14" x="344.04" y="179.42" width="5.06" height="11.39"/><rect class="cls-8" x="357.97" y="170.81" width="5.06" height="8.61"/><rect class="cls-8" x="357.97" y="205.49" width="5.06" height="8.61"/><rect class="cls-8" x="357.97" y="190.81" width="5.06" height="8.86"/><path class="cls-8" d="M363,144.75v-8.61H359a34.68,34.68,0,0,1-1,5.58v3Z"/><path class="cls-8" d="M358,274.84v.8c1.67.21,3.36.47,5.06.78v-1.58Z"/><rect class="cls-8" x="357.97" y="260.16" width="5.06" height="8.86"/><rect class="cls-8" x="357.97" y="225.48" width="5.06" height="8.86"/><rect class="cls-8" x="357.97" y="156.13" width="5.06" height="8.86"/><path class="cls-8" d="M363,121.46H358v2.6a43.2,43.2,0,0,1,1,6.26h4Z"/><rect class="cls-8" x="357.97" y="240.16" width="5.06" height="8.61"/><rect class="cls-14" x="357.97" y="248.77" width="5.06" height="11.39"/><rect class="cls-14" x="357.97" y="214.09" width="5.06" height="11.39"/><rect class="cls-14" x="357.97" y="179.42" width="5.06" height="11.39"/><rect class="cls-14" x="357.97" y="144.75" width="5.06" height="11.39"/><path class="cls-14" d="M358,121.46H363v-9.85l-4.7-1.54H358Z"/><rect class="cls-8" x="371.89" y="260.16" width="5.06" height="8.86"/><rect class="cls-8" x="371.89" y="170.81" width="5.06" height="8.61"/><rect class="cls-8" x="371.89" y="156.13" width="5.06" height="8.86"/><rect class="cls-8" x="371.89" y="136.14" width="5.06" height="8.61"/><rect class="cls-8" x="371.89" y="121.46" width="5.06" height="8.86"/><rect class="cls-8" x="371.89" y="225.48" width="5.06" height="8.86"/><rect class="cls-8" x="371.89" y="205.49" width="5.06" height="8.61"/><rect class="cls-8" x="371.89" y="240.16" width="5.06" height="8.61"/><path class="cls-8" d="M371.89,274.84v3.59q2.53.66,5.06,1.38v-5Z"/><rect class="cls-8" x="371.89" y="190.81" width="5.06" height="8.86"/><rect class="cls-14" x="371.89" y="248.77" width="5.06" height="11.39"/><rect class="cls-14" x="371.89" y="214.09" width="5.06" height="11.39"/><rect class="cls-14" x="371.89" y="179.42" width="5.06" height="11.39"/><rect class="cls-14" x="371.89" y="144.75" width="5.06" height="11.39"/><path class="cls-14" d="M377,121.46v-5.34q-2.54-.78-5.06-1.6v6.94Z"/><path class="cls-8" d="M385.81,136.14v8.61h5c0-.13,0-.25.05-.37v-8.24Z"/><path class="cls-8" d="M385.81,165h1.7c.64-3,1.18-5.93,1.66-8.86h-3.36Z"/><path class="cls-8" d="M385.81,248.77h4c0-.82,0-1.66.09-2.53.12-2,.12-4,0-6.08h-4.17Z"/><rect class="cls-8" x="385.81" y="274.84" width="5.06" height="5.32"/><rect class="cls-8" x="385.81" y="121.46" width="5.06" height="8.86"/><path class="cls-8" d="M385.81,199.67h.37a18.23,18.23,0,0,1,.39-2,21.68,21.68,0,0,0,.49-6.83h-1.25Z"/><path class="cls-8" d="M385.81,214.09h.87c-.4-3-.69-5.92-.77-8.6h-.1Z"/><rect class="cls-8" x="385.81" y="260.16" width="5.06" height="8.86"/><path class="cls-8" d="M385.81,234.34h3.74c-.31-2.94-.72-5.92-1.16-8.86h-2.58Z"/><path class="cls-8" d="M385.81,172.28c.05-.27.1-.54.17-.81s.1-.44.16-.66h-.33Z"/><path class="cls-14" d="M385.81,260.16h5.06V260a58.3,58.3,0,0,1-1-11.24h-4Z"/><path class="cls-14" d="M385.81,225.48h2.58c-.59-3.9-1.22-7.74-1.71-11.39h-.87Z"/><path class="cls-14" d="M387.06,190.81c-.2-3-.82-6-1.25-9v9Z"/><path class="cls-14" d="M385.81,156.13h3.36c.63-3.81,1.15-7.59,1.65-11.38h-5Z"/><path class="cls-14" d="M390.87,121.46V120q-2.47-.55-5.06-1.26v2.76Z"/><rect class="cls-14" x="344.04" y="269.02" width="5.06" height="5.82"/><path class="cls-14" d="M349.11,234.34H349a54.77,54.77,0,0,1-.85,5.82h.94Z"/><rect class="cls-14" x="344.04" y="199.67" width="5.06" height="5.82"/><path class="cls-14" d="M349.11,165h-2c-1,1.93-2,3.86-2.83,5.82h4.86Z"/><path class="cls-14" d="M358.33,110.07,358,110v.12Z"/><rect class="cls-14" x="357.97" y="269.02" width="5.06" height="5.82"/><rect class="cls-14" x="357.97" y="234.34" width="5.06" height="5.82"/><rect class="cls-14" x="357.97" y="199.67" width="5.06" height="5.82"/><rect class="cls-14" x="357.97" y="164.99" width="5.06" height="5.82"/><path class="cls-14" d="M363,130.32h-4a32.3,32.3,0,0,1,.06,4.92c0,.3-.05.6-.08.9H363Z"/><rect class="cls-14" x="371.89" y="269.02" width="5.06" height="5.82"/><rect class="cls-14" x="371.89" y="234.34" width="5.06" height="5.82"/><rect class="cls-14" x="371.89" y="199.67" width="5.06" height="5.82"/><rect class="cls-14" x="371.89" y="164.99" width="5.06" height="5.82"/><rect class="cls-14" x="371.89" y="130.32" width="5.06" height="5.82"/><rect class="cls-14" x="385.81" y="269.02" width="5.06" height="5.82"/><path class="cls-14" d="M385.81,240.16H390c-.08-1.91-.23-3.86-.43-5.82h-3.74Z"/><path class="cls-14" d="M385.81,205.49h.1a33.94,33.94,0,0,1,.27-5.82h-.37Z"/><path class="cls-14" d="M385.81,170.81h.33q.75-2.94,1.37-5.82h-1.7Z"/><rect class="cls-14" x="385.81" y="130.32" width="5.06" height="5.82"/><path class="cls-8" d="M351.12,188.18c-.1-4.18,1.13-8.26,2.36-12.26q1.95-6.31,3.88-12.64a4.4,4.4,0,0,1,1.59-2.64,4.31,4.31,0,0,1,2.47-.35c7.66.53,15.12,3.07,22.19,6.05-1.39,9.81-2.67,18.86-4.07,28.67-.56,4-1.15,8-2.93,11.6s-5,6.71-9,7.3c-3.91-3.5-7.85-7-11-11.26S351.26,193.42,351.12,188.18Z"/><path class="cls-13" d="M360.16,161.37l-1,3.87c-.72,6.3-2.75,12.24-3.84,18.46s-1.13,13.17,1.8,18.39a21.69,21.69,0,0,0,5.47,6.12c2.94,2.4,6.54,4.47,9.88,3.11,2.35-1,4.11-3.49,5.11-6.29a39,39,0,0,0,1.71-8.91q1.73-15,3.44-30C376.11,165,366.77,162.57,360.16,161.37Z"/><path class="cls-8" d="M382.72,166.15c-6.61-1.2-16-3.58-22.56-4.78l-1,3.87q-.13,1.08-.3,2.16c7.58,1.91,15.36,3.63,23.11,5.39C382.21,170.58,382.46,168.36,382.72,166.15Z"/><path class="cls-14" d="M383.91,167a.54.54,0,0,1-.22-.05,56.5,56.5,0,0,0-19.7-5.55.5.5,0,0,1-.45-.54.49.49,0,0,1,.55-.45,57.51,57.51,0,0,1,20,5.64.5.5,0,0,1-.22,1Z"/><path class="cls-14" d="M358.13,150c4-11.36,3.08-23.79,2.1-35.79l17.13,21.1a50.9,50.9,0,0,0-10.66,5.6l7.38,11.55c-7.85,6.46-15.58,13.25-21.38,21.59s-10.29,19.79-9.33,29.9a29.15,29.15,0,0,1-1.76-19.71c1.43-6.19,4.54-11.85,7.77-17.33S356,156,358.13,150Z"/><path class="cls-13" d="M362.57,140.11c0-.74.64-1.31,1.27-1.72a29.23,29.23,0,0,1,9.47-4,218.49,218.49,0,0,1-17.48-31.45c-6.09-1.61-11.49-1.11-17.79-1.28l1.9,9.67c5.82.9,10.51,2.8,13.36,8.3,3.26,6.28,3.07,13.86,1.29,20.71s-5,13.22-7.73,19.75a77.07,77.07,0,0,0-6,34.18,66.19,66.19,0,0,1,11.39-24.49c5.6-7.62,12.18-14.46,18.73-21.27l-7.51-7A2.26,2.26,0,0,1,362.57,140.11Z"/><path class="cls-8" d="M357.21,115.64c-1.6-7.2-10.15-9.34-18.66-11.42l1.39,7.11c5.82.9,10.51,2.8,13.36,8.3,3.26,6.28,3.07,13.86,1.29,20.71s-5,13.22-7.73,19.75a79.75,79.75,0,0,0-5,16.76c4-9.66,9.39-19,14.29-27.8C361.26,137.91,360.24,126.78,357.21,115.64Z"/><path class="cls-13" d="M452.67,184.54c-.33,2.14-1.65,4-2.94,5.69q-3.71,5-7.64,9.72a7.46,7.46,0,0,1-3,2.53c-1.89.69-4-.21-5.77-1.08l-10.8-5.24a16.72,16.72,0,0,1-4.45-2.77c-3.74-3.63-3.36-9.88-6.42-14.09-1.07-1.48-2.52-2.64-3.55-4.15a12.16,12.16,0,0,1-1.74-8,35.76,35.76,0,0,1,2-8c10.76-1.15,21.6-2.3,32.4-1.47,2,.15,4.21.53,5.27,2.21,1.26,2,.09,4.59,0,7-.11,3.22,1.82,6.1,3.6,8.78S453.16,181.36,452.67,184.54Z"/><path class="cls-14" d="M436.22,198.07a14.81,14.81,0,0,0,8.44-4.95,17.12,17.12,0,0,0,4.14-11.71A21,21,0,0,0,444,169.3a38.17,38.17,0,0,0-10.1-8.48c-4.28-2.62-9.57-4.77-14.21-2.84-3.72,1.54-6.06,5.48-6.63,9.47s.36,8,1.61,11.88c1.6,4.95,3.82,9.84,7.47,13.55S431.09,199,436.22,198.07Z"/><path class="cls-16" d="M418,121.49c-.46-2.38-.56-4.83-.8-7.24a5.2,5.2,0,0,1,.22-2.11c1-3.09,1.83-5.41,2.81-8a1.16,1.16,0,0,0-1.12-1.58,7.82,7.82,0,0,0-5,1.78c-1.92,1.61-4,4.12-4.21,6.62-.1,1.64.43,4.25-.3,5.72s-3.42,1.09-4.67,2a21.15,21.15,0,0,0-5.3,5.25,101.28,101.28,0,0,1,19,9.49,9.82,9.82,0,0,0,.67-6C419.07,125.44,418.43,123.49,418,121.49Z"/><path class="cls-17" d="M405,118.68c1.25-.86,4-.6,4.67-2s.2-4.08.3-5.72c.17-2.5,2.29-5,4.21-6.62a8,8,0,0,1,1.68-1.06.94.94,0,0,1,1.17,1.38c-5.28,7.7-2,15.82-5.45,24.55a101.12,101.12,0,0,0-11.88-5.33A21.15,21.15,0,0,1,405,118.68Z"/><path class="cls-16" d="M362.77,112.52c-2.19-2.62-.5-4.14.86-4.92q16.06,4.65,32.34,8.56l10.87,1.69a11.58,11.58,0,0,1,8.29,5.71l6,10.45a1.74,1.74,0,0,0,.11-.18l5.71,6.35a128.28,128.28,0,0,1,15.7,24.09c2.39,4.78,4.52,9.86,4.6,15.2s-2.29,11-7,13.51c-6.33,3.37-14.5-.14-19-5.76s-6.22-12.83-8.44-19.65c-2-6.11-3.35-13.13-8.22-17.17-1-.07-3.55.65-4.9.67-2.45.05-11.57-2.74-13.18-4.41a19,19,0,0,1-3-1.93c-.78-.63-1.55-1.63-1.14-2.54.3-.67,1.15-1,1.28-1.74A1.89,1.89,0,0,0,383,139a18.44,18.44,0,0,1-1.68-1.86,3.22,3.22,0,0,1-.63-2.36c.27-1.32,1.58-3.23,1.63-4.57s-1.08-2-1.51-3.41c-.5-1.58.27-2.64,1.5-3.73.56-.49,1.17-.93,1.75-1.39l0-.13C376.89,118.91,370.3,116.06,362.77,112.52Z"/><path class="cls-1" d="M362.83,109.06a4.2,4.2,0,0,0-.34,1.13,1.41,1.41,0,0,0,.33,1.09,2,2,0,0,0,.92.45l2,.62a.58.58,0,0,0,.43,0,.55.55,0,0,0,.22-.3l1.18-2.94-3.22-.9a1.48,1.48,0,0,0-.83-.06A1.4,1.4,0,0,0,362.83,109.06Z"/><path class="cls-17" d="M390.74,146.5c5.06,2,15.4,3.56,17.42-2.51,8.1,14.17,13.16,30.37,25.31,41.5,4.48,3.74,9.51,2.51,13.06-.83a13.39,13.39,0,0,1-6.3,8.32c-6.33,3.37-14.5-.14-19-5.76s-6.22-12.83-8.44-19.65c-2-6.11-3.35-13.13-8.22-17.17-1-.07-3.55.65-4.9.67a27.07,27.07,0,0,1-6.28-1.36C393.1,148.38,390.74,148.4,390.74,146.5Z"/><path class="cls-9" d="M249.55,279.65c13.84-13.84,38.67,2.44,53.32,1.68-8.58-18.07-3.35-41.45-5.14-61.39-1.68-18.59-8.21-36.39-11.67-54.74s-3.5-38.57,6.67-54.23a50.63,50.63,0,0,1-24.43,8.88A177.17,177.17,0,0,0,262,189.33c1.54,14.13,4.77,28,5.89,42.21S256.28,267.13,249.55,279.65Z"/><rect class="cls-8" x="267.61" y="248.77" width="8.86" height="11.39"/><path class="cls-8" d="M262.55,254.2q-1.29,3-2.72,6h2.72Z"/><rect class="cls-8" x="281.53" y="248.77" width="8.86" height="11.39"/><path class="cls-8" d="M295.45,260.16H298c-.24-3.75-.28-7.56-.24-11.39h-2.32Z"/><path class="cls-8" d="M295.45,274.84h5a54.1,54.1,0,0,1-1.37-5.82h-3.6Z"/><rect class="cls-8" x="281.53" y="269.02" width="8.86" height="5.82"/><path class="cls-8" d="M276.47,269h-8.86v5.19c1.54.13,3.1.34,4.67.63h4.19Z"/><path class="cls-8" d="M255.32,269l-1.63,3v2.79H258a23.68,23.68,0,0,1,4.57-.72V269Z"/><rect class="cls-8" x="281.53" y="214.09" width="8.86" height="11.39"/><path class="cls-8" d="M295.45,225.48h2.61c-.07-1.87-.17-3.72-.33-5.54s-.42-3.9-.7-5.85h-1.58Z"/><rect class="cls-8" x="267.61" y="214.09" width="8.86" height="11.39"/><path class="cls-8" d="M276.47,240.16v-5.82H268a31.11,31.11,0,0,1-.34,3.5v2.32Z"/><path class="cls-8" d="M295.45,240.16H298c0-1.94.1-3.89.13-5.82h-2.65Z"/><rect class="cls-8" x="281.53" y="234.34" width="8.86" height="5.82"/><path class="cls-8" d="M262.55,179.42h-1.33c.18,3.31.43,6.62.79,9.91.05.5.12,1,.18,1.48h.36Z"/><path class="cls-8" d="M281.53,190.81h8.86V184c-.39-1.51-.77-3-1.15-4.54h-7.71Z"/><rect class="cls-8" x="267.61" y="179.42" width="8.86" height="11.39"/><path class="cls-8" d="M295.55,205.49c0-.16-.07-.32-.1-.48v.48Z"/><rect class="cls-8" x="281.53" y="199.67" width="8.86" height="5.82"/><rect class="cls-8" x="267.61" y="199.67" width="8.86" height="5.82"/><path class="cls-8" d="M262.55,146.83c-.42,3.09-.74,6.19-1,9.3h1Z"/><path class="cls-8" d="M281.53,156.13h3.14a100.9,100.9,0,0,1-.7-11.38h-2.44Z"/><rect class="cls-8" x="267.61" y="144.75" width="8.86" height="11.39"/><path class="cls-8" d="M262.55,165h-1.48c-.06,1.94-.09,3.88-.08,5.82h1.56Z"/><rect class="cls-8" x="267.61" y="164.99" width="8.86" height="5.82"/><path class="cls-8" d="M281.53,170.81h5.68c-.41-1.86-.8-3.73-1.15-5.61a1.55,1.55,0,0,1,0-.21h-4.49Z"/><path class="cls-8" d="M287.59,121.46a49.68,49.68,0,0,1,2.8-6.45V112.5a50.45,50.45,0,0,1-8.86,4.33v4.63Z"/><path class="cls-8" d="M276.47,118.41a49.22,49.22,0,0,1-8.17,1.44c-.16.53-.3,1.07-.46,1.61h8.63Z"/><path class="cls-8" d="M281.53,136.14h2.84q.3-2.94.84-5.82h-3.68Z"/><rect class="cls-8" x="267.61" y="130.32" width="8.86" height="5.82"/><path class="cls-8" d="M252.17,274.84c-.93,1.71-1.82,3.32-2.62,4.81a18.23,18.23,0,0,1,4.14-3.12v-1.69Z"/><rect class="cls-8" x="262.55" y="170.81" width="5.06" height="8.61"/><path class="cls-8" d="M267.61,205.49h-3.3c.46,2.87.93,5.73,1.39,8.6h1.91Z"/><path class="cls-8" d="M267.61,190.81h-5.06v2.92q.39,3,.84,5.94h4.22Z"/><path class="cls-8" d="M267.61,136.14H264.3q-.84,4.29-1.47,8.61h4.78Z"/><rect class="cls-8" x="262.55" y="260.16" width="5.06" height="8.86"/><path class="cls-8" d="M267.3,225.48c.11,1,.21,2,.31,3v-3Z"/><rect class="cls-8" x="262.55" y="156.13" width="5.06" height="8.86"/><path class="cls-8" d="M267.61,122.29q-1.12,4-2.06,8h2.06Z"/><path class="cls-8" d="M267.61,240.16h-.41a61.64,61.64,0,0,1-2.51,8.61h2.92Z"/><path class="cls-14" d="M267.61,260.16V248.77h-2.92c-.65,1.8-1.37,3.61-2.14,5.43v6Z"/><path class="cls-14" d="M267.61,214.09H265.7c.6,3.79,1.15,7.59,1.6,11.39h.31Z"/><rect class="cls-14" x="262.55" y="179.42" width="5.06" height="11.39"/><path class="cls-14" d="M267.61,156.13V144.75h-4.78c-.1.69-.19,1.38-.28,2.08v9.3Z"/><rect class="cls-8" x="276.47" y="260.16" width="5.06" height="8.86"/><rect class="cls-8" x="276.47" y="170.81" width="5.06" height="8.61"/><rect class="cls-8" x="276.47" y="156.13" width="5.06" height="8.86"/><rect class="cls-8" x="276.47" y="136.14" width="5.06" height="8.61"/><rect class="cls-8" x="276.47" y="121.46" width="5.06" height="8.86"/><rect class="cls-8" x="276.47" y="225.48" width="5.06" height="8.86"/><rect class="cls-8" x="276.47" y="205.49" width="5.06" height="8.61"/><rect class="cls-8" x="276.47" y="240.16" width="5.06" height="8.61"/><path class="cls-8" d="M276.47,274.84v.88c1.69.4,3.38.84,5.06,1.3v-2.18Z"/><rect class="cls-8" x="276.47" y="190.81" width="5.06" height="8.86"/><rect class="cls-14" x="276.47" y="248.77" width="5.06" height="11.39"/><rect class="cls-14" x="276.47" y="214.09" width="5.06" height="11.39"/><rect class="cls-14" x="276.47" y="179.42" width="5.06" height="11.39"/><rect class="cls-14" x="276.47" y="144.75" width="5.06" height="11.39"/><path class="cls-14" d="M281.53,121.46v-4.63a50.2,50.2,0,0,1-5.06,1.58v3Z"/><rect class="cls-8" x="290.39" y="240.16" width="5.06" height="8.61"/><path class="cls-8" d="M295.45,274.84h-5.06v4.63c.94.24,1.87.47,2.79.68h2.27Z"/><path class="cls-8" d="M290.39,199.67h3.9c-.67-3-1.4-5.91-2.15-8.86h-1.75Z"/><rect class="cls-8" x="290.39" y="205.49" width="5.06" height="8.61"/><rect class="cls-8" x="290.39" y="260.16" width="5.06" height="8.86"/><rect class="cls-8" x="290.39" y="225.48" width="5.06" height="8.86"/><rect class="cls-14" x="290.39" y="248.77" width="5.06" height="11.39"/><rect class="cls-14" x="290.39" y="214.09" width="5.06" height="11.39"/><path class="cls-14" d="M292.14,190.81,290.39,184v6.85Z"/><path class="cls-14" d="M292.73,111c-.76.54-1.55,1-2.34,1.53V115Q291.46,113,292.73,111Z"/><path class="cls-14" d="M253.69,272.05l-1.52,2.79h1.52Z"/><path class="cls-14" d="M262.55,269v5.1a34.37,34.37,0,0,1,5.06.09V269Z"/><path class="cls-14" d="M267.61,237.84c-.11.76-.25,1.54-.41,2.32h.41Z"/><path class="cls-14" d="M267.61,199.67h-4.22q.44,2.91.92,5.82h3.3Z"/><rect class="cls-14" x="262.55" y="164.99" width="5.06" height="5.82"/><path class="cls-14" d="M267.61,130.32h-2.06q-.68,2.9-1.25,5.82h3.31Z"/><rect class="cls-14" x="276.47" y="269.02" width="5.06" height="5.82"/><rect class="cls-14" x="276.47" y="234.34" width="5.06" height="5.82"/><rect class="cls-14" x="276.47" y="199.67" width="5.06" height="5.82"/><rect class="cls-14" x="276.47" y="164.99" width="5.06" height="5.82"/><rect class="cls-14" x="276.47" y="130.32" width="5.06" height="5.82"/><rect class="cls-14" x="290.39" y="269.02" width="5.06" height="5.82"/><rect class="cls-14" x="290.39" y="234.34" width="5.06" height="5.82"/><path class="cls-14" d="M290.39,205.49h5.06V205q-.54-2.69-1.16-5.34h-3.9Z"/><path class="cls-14" d="M272.21,138.14c-.9,1.94-3.06,3.31-3.23,5.44a6.22,6.22,0,0,0,.72,2.93c9.84,23.24,16.92,39.79,26.76,63-2.87-18-7.73-27.07-10-44.54s-1.56-35.69,4.94-52.07c-5.72,1.75-10.05,6.32-14.11,10.71-1.91,2.06-3.9,4.29-4.38,7.07C272.44,133.18,273.26,135.86,272.21,138.14Z"/><path class="cls-13" d="M291.22,101.83c-5,10.21-12.66,18.82-20.24,27.29a65.72,65.72,0,0,1,9.16,4.37l-11.54,9.36c8.86,6.18,19.47,32.8,22.29,43.23-5.9-35.26-2.42-47.3,2.66-61.27,1.62-4.45,2.06-7,5.44-10.31.78-.76,2.79-1.07,4.05-1.22l2.53-11.73C301.15,101.63,295.55,101.79,291.22,101.83Z"/><path class="cls-8" d="M291.4,112.6a132.57,132.57,0,0,0-3.9,64.29c1.34,3.72,2.65,7,3.31,9.45-5.91-35.27-2.34-47.56,2.74-61.53,1.62-4.45,2.06-7,5.44-10.31.78-.76,2.79-1.07,4.05-1.22l2-9.22C299.06,105.82,293,107,291.4,112.6Z"/><path class="cls-8" d="M263.51,179.54c-.1-2.18-.17-4.51.76-6.32a8.51,8.51,0,0,1,2.35-2.63,35.82,35.82,0,0,1,11.63-6.37,121.21,121.21,0,0,1,4.88,13.95,40.67,40.67,0,0,1,1.36,14.68,25.6,25.6,0,0,1-5.93,13.94c-3.78-1.65-7.63-3.75-10.29-7.41a23.79,23.79,0,0,1-3.79-9.49A73.23,73.23,0,0,1,263.51,179.54Z"/><path class="cls-13" d="M278.07,205.39c2.35-3.4,4.77-7,5.39-11.4.48-3.33-.13-6.81-.81-10.18q-1.41-7-3.29-13.9c-.35-1.26-.8-2.67-1.81-3.26a3.25,3.25,0,0,0-3.06.25,33.46,33.46,0,0,0-10.92,8.17,128.59,128.59,0,0,0,1.27,16.26,20.28,20.28,0,0,0,2.35,7.92C269.66,203.2,274.08,204.45,278.07,205.39Z"/><path class="cls-8" d="M279.36,169.91c-.35-1.26-.8-2.67-1.81-3.26a3.25,3.25,0,0,0-3.06.25,33.46,33.46,0,0,0-10.92,8.17q0,1.92.12,3.84a71.84,71.84,0,0,1,15.72-8.8A1.46,1.46,0,0,1,279.36,169.91Z"/><path class="cls-14" d="M263.18,175.6a.52.52,0,0,1-.35-.14.5.5,0,0,1,0-.71c5-5.13,9.26-9.21,15.47-11.05a.5.5,0,0,1,.28,1c-6,1.77-10.17,5.76-15,10.79A.51.51,0,0,1,263.18,175.6Z"/><path class="cls-5" d="M303.81,34.4a3.13,3.13,0,0,0,.05-2.29,2,2,0,0,0-2.18-.88,4.59,4.59,0,0,0-2.14,1.25c-4,3.59-3.71,6.58-4.15,14.3-.13,2.18.57,3.26,1.07,5.06.73,2.61-.63,9.24.51,12.21C298.22,54.52,301.21,43.65,303.81,34.4Z"/><path class="cls-17" d="M296.08,51.47a3.2,3.2,0,0,0-2.73,2.45,7.82,7.82,0,0,0,.15,3.87,13.19,13.19,0,0,1,.56,4c-.1,1.06-.51,2.07-.6,3.13a6.86,6.86,0,0,0,1.37,4.52,15,15,0,0,0,3.47,3.33q.51-7.51,1-15a9.68,9.68,0,0,0-.29-4A3.27,3.27,0,0,0,296.08,51.47Z"/><path class="cls-16" d="M347.44,38.43c-1.27-2.25-3.93-3.27-6.42-4a65.65,65.65,0,0,0-30.11-1.26c-3.12.6-6.38,1.54-8.53,3.88-2.71,3-3,7.33-3.36,11.32-.61,6.12-1.89,12.16-2.36,18.3s1.53,12.55,4.11,18.14A28.44,28.44,0,0,0,310,96c2,1.35,11.81,2.72,15,1.52,5.28-2,14.81-11,17.46-15.94S345,74.65,346,69.1a134.77,134.77,0,0,0,2.34-25.59A10.42,10.42,0,0,0,347.44,38.43Z"/><path class="cls-17" d="M343.54,73.94q.66-6.43,1.31-12.87a10.47,10.47,0,0,1,1.24-4.66c.89-1.36,2.71-2.26,4.18-1.58a3.36,3.36,0,0,1,1.74,3,7.69,7.69,0,0,1-.95,3.48,23.48,23.48,0,0,0-1.5,3.32c-.58,1.92-.39,4-.65,6s-1.16,4.12-3,4.85c-.86.34-2.1.15-2.33-.74A2.1,2.1,0,0,1,343.54,73.94Z"/><path class="cls-17" d="M320.77,78.7c-2.83.26-6.12-.11-7.74-2.44a6.72,6.72,0,0,1-.53-5.72c1.1-3.71,4.05-7.07,3.49-10.89-.3-2-1.59-3.78-2.83-5.43,1.2,2.88.49,6.2-.57,9.14s-2.47,5.84-2.67,9,1.2,6.64,4.15,7.67C316.29,80.77,318.78,80,320.77,78.7Z"/><path class="cls-17" d="M347.26,38.53c-2.87-5.22-11-5.42-16.16-6a65.76,65.76,0,0,0-20.19.71c-3.12.6-6.38,1.54-8.53,3.88a11.71,11.71,0,0,0-2.62,5.6c13.72,2.66,31.1-5.88,40.24,7.82a32.27,32.27,0,0,1,3.22,7.29c.22,8.89-.62,17.34-5.25,25.57-2.93,4.76-10.1,11-14.93,14.51A7.74,7.74,0,0,0,325,97.5c5.28-2,14.81-11,17.46-15.94,2.22-4.16,2.5-6.2,3.14-10,0-.22.08-.45.12-.7s0-.25.07-.38c.07-.44.15-.89.25-1.39q.9-4.74,1.45-9.54a132.38,132.38,0,0,0,.89-16.05A10.27,10.27,0,0,0,347.26,38.53Z"/><path class="cls-5" d="M352.36,34.13c-1.3-2.63-3.68-4.54-6-6.36l-4.56-2c-.87-.29-1.77.56-1.92,1.46a6,6,0,0,0,.44,2.68c1.29,4.35.16,8.08,3.07,14.79C345.22,48.86,343,54,345.18,58c.83,1.48-1.91,9.21-1,10.64s1,.75,1.65.25a147.25,147.25,0,0,0,7.24-24.08C353.7,41.22,354,37.38,352.36,34.13Z"/><path class="cls-5" d="M297,18.24a15.33,15.33,0,0,1-3.08-9,17.31,17.31,0,0,0,4.31,22.93,6.88,6.88,0,0,1-5.08-3.06C294.7,33.72,298.24,38,303,39c4.1.94,8.31-.55,12.43-1.41a41.53,41.53,0,0,1,26.93,3.58A19.94,19.94,0,0,0,329.63,12a58.26,58.26,0,0,0-9.25-1,20.54,20.54,0,0,1-8.94-2.29c-2.67-1.57-4.78-4.43-4.69-7.53A11.25,11.25,0,0,0,309.62,14,16.64,16.64,0,0,1,301.57,0a20.84,20.84,0,0,0-2,16.85,16.66,16.66,0,0,1-3.19-11.09A17,17,0,0,0,297,18.24Z"/><path class="cls-6" d="M302.55,50.33c-.48.11-1,.3-1.15.76a1.73,1.73,0,0,0,.17,1,.81.81,0,0,0,.89.53,37.44,37.44,0,0,1,7.63-.36,5.92,5.92,0,0,0,0-2.74A31.1,31.1,0,0,0,302.55,50.33Z"/><path class="cls-6" d="M336.57,53.18c.49.22,1.05.54,1.08,1.06a1.65,1.65,0,0,1-.33.88,1.08,1.08,0,0,1-1.29.45,41.94,41.94,0,0,0-8.15-2c.06-.88.3-1.92.36-2.8A28.6,28.6,0,0,1,336.57,53.18Z"/><path class="cls-5" d="M317,79.28a3,3,0,0,1-.82-.11,7.73,7.73,0,0,1-1.88-1c-.3-.18-.58-.35-.83-.48l-.4-.2a3.15,3.15,0,0,1-1.91-1.88c-.85-1.52.21-4.08,1.55-7.32a53.89,53.89,0,0,0,2.24-6.12c.88-3.12.21-4.38-1.83-7.55l.84-.54c2.08,3.22,2.95,4.8,2,8.36a56.92,56.92,0,0,1-2.28,6.23c-1.2,2.87-2.23,5.35-1.59,6.49a2.24,2.24,0,0,0,1.46,1.43l.41.21c.27.14.58.32.9.52a7.34,7.34,0,0,0,1.62.83c1,.27,1.83-.21,2.89-.83a10.77,10.77,0,0,1,2.94-1.28l.22,1a9.46,9.46,0,0,0-2.66,1.17A5.83,5.83,0,0,1,317,79.28Z"/><path class="cls-5" d="M320.61,86.32a15.8,15.8,0,0,1-6.16-.2c-1.14-.39-1-.53-2-1.25a2.55,2.55,0,0,1-.66-2.29,55.53,55.53,0,0,0,11,.37C322.81,85,322.17,85.74,320.61,86.32Z"/><path class="cls-11" d="M306.13,55.68a1.49,1.49,0,0,0-.59.65,5.91,5.91,0,0,0-.74,2,2,2,0,0,0,.21,1.48,1.52,1.52,0,0,0,1.64.52,2.06,2.06,0,0,0,1.29-1.19,3.39,3.39,0,0,0,.2-1.76,2.38,2.38,0,0,0-.57-1.42A1.25,1.25,0,0,0,306.13,55.68Z"/><path class="cls-11" d="M330,58a1.68,1.68,0,0,0-.59.65,6,6,0,0,0-.73,2,2,2,0,0,0,.21,1.49,1.54,1.54,0,0,0,1.63.52,2.12,2.12,0,0,0,1.3-1.2,3.36,3.36,0,0,0,.2-1.75,2.45,2.45,0,0,0-.57-1.43A1.27,1.27,0,0,0,330,58Z"/><path class="cls-6" d="M273.85,323.16c-10.21-6.94-19-15.71-29.28-22.59s-25.2-13.5-37.78-13.19c-8.34.2-17.85.85-24.65,6.28-7.86,6.29-9.32,18-6.84,27.31,5.11,19.11,25.71,26,42.32,31.84a379.67,379.67,0,0,1,86.27,43.26c-15.05-21.48-2.2-32.52,19.65-40.24C306.92,347.34,289.39,333.71,273.85,323.16Z"/><path class="cls-11" d="M190.16,329.25a41.66,41.66,0,0,1-15.95-16.39A32.85,32.85,0,0,0,175.3,321c5.11,19.11,25.71,26,42.32,31.84a379.67,379.67,0,0,1,86.27,43.26c-6.88-9.81-7.92-17.44-4.95-23.58C263.66,353.53,225.41,350.4,190.16,329.25Z"/><path class="cls-7" d="M302.88,381.59a2.73,2.73,0,0,0,1.36-.3,64.23,64.23,0,0,0,14.15-7.47c4.29-3.19,7.93-7.47,9.54-12.57l-9.82-4.92a100.27,100.27,0,0,1-22,15.86l5,7.88C301.56,380.75,302.09,381.49,302.88,381.59Z"/><path class="cls-5" d="M322.52,360.5a7,7,0,0,0,2.9-3.33,3.24,3.24,0,0,0-1.31-3.9,15.75,15.75,0,0,0-1.77-.55c-1.59-.6-2.46-2.26-3.52-3.59s-2.87-2.49-4.36-1.66c-1.38,4.69-5.94,7.66-10.39,9.68s-9.31,3.61-12.69,7.14c-3.22,3.38-4.64,8.15-4.81,12.81s.79,9.28,1.81,13.83c2.53-.82,5.22.71,7.16,2.53s3.59,4.06,6,5.19a3,3,0,0,0,2.71.16,2.44,2.44,0,0,0,1-2.4,7.85,7.85,0,0,0-.91-2.59,49.92,49.92,0,0,1-3.72-10.9c-.67-3.07-1-6.36.1-9.28,1.58-4.07,5.68-6.56,9.75-8.14S318.91,363,322.52,360.5Z"/><path class="cls-5" d="M270.73,327.19c-3.85-3.26-7.71-6.64-11.45-9.91-9.44-8.26-19.22-16.81-29.65-24.17-1.17-.83-2.38-1.62-3.61-2.39-.87-.62-2.11-.53-2.94-.68,1.8,1,4.06,2.53,6,3.88,10.39,7.34,20.14,15.87,29.57,24.12,3.74,3.27,7.6,6.65,11.46,9.91C282.41,338.38,297.36,350,314.75,357l.37-.92C297.87,349.13,283,337.57,270.73,327.19Z"/><path class="cls-5" d="M346.29,375.09a117.64,117.64,0,0,1-17.86,69.62l-7.78-2.35A111,111,0,0,0,337.13,363c2.82-.66,5.76,1.21,7.22,3.71S346.12,372.2,346.29,375.09Z"/><path class="cls-9" d="M323.09,442.46A115.85,115.85,0,0,0,342.67,373c-.15-3.29-.59-6.89-3-9.14-3.4-3.19-9.11-2.2-12.94-4.86-1.05-.73-2.3-1.77-3.43-1.17-1.6.85-.4,3.22-.2,5,.31,2.72-2.32,4.95-5,5.63s-5.47.36-8.15.91a13.22,13.22,0,0,0-9.94,14.95c1.14,5.79,6.06,10.05,8.38,15.47,2.18,5.12,1.91,10.9,1.51,16.45s-.89,11.28.94,16.54S317.53,442.75,323.09,442.46Z"/><path class="cls-13" d="M323.8,373.8c4.76-3.18,5.16-8.22,5.12-13.66a10,10,0,0,1-2.18-1.11c-1.05-.73-2.3-1.77-3.43-1.17-1.6.85-.4,3.22-.2,5,.31,2.72-2.32,4.95-5,5.63s-5.47.36-8.15.91a13.2,13.2,0,0,0-9.51,8.83C308.19,380.72,316.33,378,323.8,373.8Z"/><path class="cls-8" d="M309.94,416.3l-.15,2c3.22-1.26,5.93-3,6.92-6,5-14,1.08-30.06-8.84-42.17-5.37,2.26-9,8.5-7.82,14.28s6.06,10.05,8.38,15.47C310.61,405,310.34,410.75,309.94,416.3Z"/><path class="cls-8" d="M330.88,407.21c-6.58,8.78-8.41,24.44-16.57,31.3a11.37,11.37,0,0,0,8.78,3.95,115.53,115.53,0,0,0,16.4-37.23C336.06,404.3,332.5,404.78,330.88,407.21Z"/><path class="cls-8" d="M328.42,359.94c2.07,6.3,7.8,9.69,14.11,11.14-.26-2.7-.91-5.38-2.85-7.19C336.75,361.14,332.1,361.49,328.42,359.94Z"/><path class="cls-5" d="M314.14,375a12.8,12.8,0,0,1-1.73-.12.51.51,0,0,1,.14-1c3.69.5,7-.74,10-3.78,2.69-2.67,5.08-6.95,3.7-10.95a.51.51,0,0,1,.32-.65.49.49,0,0,1,.64.31c1.54,4.45-1,9.12-3.94,12S317.47,375,314.14,375Z"/><path class="cls-5" d="M309.62,421a.52.52,0,0,1-.47-.33.5.5,0,0,1,.3-.64c4.2-1.53,7.2-4.95,8.93-10.18,1.36-4.1,1.59-8.93.71-14.75a55.21,55.21,0,0,0-9.93-25,.49.49,0,0,1,.11-.7.51.51,0,0,1,.7.11A56.16,56.16,0,0,1,320.08,395c.9,6,.66,11-.75,15.21-1.81,5.46-5.1,9.2-9.54,10.81A.47.47,0,0,1,309.62,421Z"/><path class="cls-7" d="M312.69,409.06a38.71,38.71,0,0,0-10.83-33.54c-2.62,1.32-3.86,4.56-3.57,7.48a16.89,16.89,0,0,0,3.53,8,59.28,59.28,0,0,1,5,7.23,18.31,18.31,0,0,1,1.93,9.89,7.52,7.52,0,0,0,0,2.32,2,2,0,0,0,1.48,1.62C311.63,412.24,312.45,410.47,312.69,409.06Z"/><path class="cls-5" d="M317,403.69a1.42,1.42,0,0,0-.27-.74.73.73,0,0,0-.72-.27,1,1,0,0,0-.59.81,3.94,3.94,0,0,0-.08,1.49c0,.36.19.76.54.84s.66-.24.83-.56A2.75,2.75,0,0,0,317,403.69Z"/><path class="cls-5" d="M317.05,399.2a1.36,1.36,0,0,0-.27-.74.72.72,0,0,0-.71-.27c-.34.09-.51.47-.6.8a4.45,4.45,0,0,0-.08,1.5c0,.35.19.76.54.84s.66-.24.83-.56A2.75,2.75,0,0,0,317.05,399.2Z"/><path class="cls-5" d="M315.73,394.12a1.38,1.38,0,0,0-.47-.64.72.72,0,0,0-.76-.06,1,1,0,0,0-.34.93,4.13,4.13,0,0,0,.32,1.47c.14.32.4.67.75.65s.58-.41.65-.76A2.79,2.79,0,0,0,315.73,394.12Z"/><path class="cls-5" d="M313.55,388.1a1.38,1.38,0,0,0-.47-.64.7.7,0,0,0-.76-.06,1,1,0,0,0-.35.93,4.19,4.19,0,0,0,.33,1.47c.14.32.39.67.75.65s.57-.41.64-.76A2.79,2.79,0,0,0,313.55,388.1Z"/><path class="cls-5" d="M310.72,382.7a1.37,1.37,0,0,0-.63-.49.71.71,0,0,0-.75.15,1,1,0,0,0-.07,1,4.11,4.11,0,0,0,.71,1.32c.23.28.57.54.9.43s.44-.56.41-.92A2.73,2.73,0,0,0,310.72,382.7Z"/><path class="cls-5" d="M307.66,378a1.42,1.42,0,0,0-.62-.49.71.71,0,0,0-.75.15,1,1,0,0,0-.08,1,4.2,4.2,0,0,0,.72,1.31c.22.28.57.55.9.43s.44-.56.41-.92A2.77,2.77,0,0,0,307.66,378Z"/><path class="cls-10" d="M309.76,413.6a.51.51,0,0,1-.43-.23,6.45,6.45,0,0,1,7-9.67.5.5,0,0,1-.23,1,5.45,5.45,0,0,0-5.89,8.17.49.49,0,0,1-.16.69A.48.48,0,0,1,309.76,413.6Z"/><path class="cls-10" d="M308.23,406.87h-.06a.51.51,0,0,1-.44-.56,8.39,8.39,0,0,1,8.21-7.36.51.51,0,0,1,.51.49.5.5,0,0,1-.49.51,7.42,7.42,0,0,0-7.24,6.48A.5.5,0,0,1,308.23,406.87Z"/><path class="cls-10" d="M306.48,401.12a.45.45,0,0,1-.16,0,.5.5,0,0,1-.32-.63,8.72,8.72,0,0,1,8.44-6,.5.5,0,0,1,.49.51.46.46,0,0,1-.51.49,7.73,7.73,0,0,0-7.47,5.29A.49.49,0,0,1,306.48,401.12Z"/><path class="cls-10" d="M305.32,396.74a.46.46,0,0,1-.35-.14,2.28,2.28,0,0,1-.61-1.85,4.33,4.33,0,0,1,.59-1.65,9.72,9.72,0,0,1,7.33-4.83.5.5,0,0,1,.1,1,8.7,8.7,0,0,0-6.56,4.32,3.15,3.15,0,0,0-.46,1.26,1.27,1.27,0,0,0,.31,1,.49.49,0,0,1,0,.7A.47.47,0,0,1,305.32,396.74Z"/><path class="cls-10" d="M303.09,393.71a.5.5,0,0,1-.49-.46,9.52,9.52,0,0,1,6.68-10,.5.5,0,0,1,.3,1,8.62,8.62,0,0,0-4.58,3.4,8.51,8.51,0,0,0-1.41,5.52.5.5,0,0,1-.45.55Z"/><path class="cls-10" d="M301,391a.51.51,0,0,1-.49-.37,10.33,10.33,0,0,1,5.9-12,.5.5,0,0,1,.66.26.51.51,0,0,1-.26.66,9.3,9.3,0,0,0-5.33,10.83.5.5,0,0,1-.36.61Z"/><circle class="cls-1" cx="294.44" cy="212.83" r="1.77"/><circle class="cls-1" cx="295.11" cy="232.72" r="1.77"/><circle class="cls-1" cx="294.44" cy="251.71" r="1.77"/><circle class="cls-1" cx="296.88" cy="275.83" r="1.77"/><path class="cls-5" d="M501.43,228.49a3,3,0,0,0-3,2.4h-88.8a2,2,0,1,0,0,1h88.77a3,3,0,1,0,3-3.4Z"/><circle class="cls-1" cx="580.46" cy="231.26" r="73.06"/><text class="cls-3" transform="translate(523.69 271.63)">PH<tspan class="cls-18" x="17.59" y="0">O</tspan><tspan class="cls-19" x="27.46" y="0">T</tspan><tspan x="34.44" y="0">OG</tspan><tspan class="cls-20" x="54.28" y="0">R</tspan><tspan x="62.35" y="0">AP</tspan><tspan class="cls-21" x="79.34" y="0">H</tspan><tspan x="88.93" y="0">Y</tspan></text><rect class="cls-11" x="533.79" y="183" width="94.15" height="49.94" rx="5.06" transform="translate(-36.1 211.25) rotate(-20)"/><rect class="cls-6" x="547.85" y="193.85" width="6.41" height="49.94" transform="translate(-41.61 201.71) rotate(-20)"/><path class="cls-5" d="M533.12,198.78l-.28.1a5.06,5.06,0,0,0-3,6.49l13.62,37.42a5.06,5.06,0,0,0,6.49,3l.28-.1Z"/><path class="cls-5" d="M611.8,170.14l-8.88,3.23L620,220.3l8.88-3.23a5.06,5.06,0,0,0,3-6.49l-13.62-37.42A5.05,5.05,0,0,0,611.8,170.14Z"/><path class="cls-7" d="M611.8,170.14l-79,28.74a5.06,5.06,0,0,0-3,6.49l2.16,5.94a5.06,5.06,0,0,1,3-6.48l79-28.75a5.07,5.07,0,0,1,6.49,3l-2.17-6A5.05,5.05,0,0,0,611.8,170.14Z"/><rect class="cls-7" x="540.73" y="220.75" width="94.15" height="12.57" rx="5.06" transform="translate(-42.2 214.78) rotate(-20)"/><circle class="cls-6" cx="582.13" cy="204.28" r="16.7" transform="translate(-27.33 108.54) rotate(-10.41)"/><circle class="cls-5" cx="579.27" cy="196.43" r="22.02" transform="translate(41.84 488.52) rotate(-47.26)"/><circle class="cls-6" cx="579.27" cy="196.43" r="16.7" transform="translate(-28.23 125.17) rotate(-12.04)"/><circle class="cls-5" cx="579.27" cy="196.44" r="10.63" transform="translate(155.43 637.46) rotate(-64.87)"/><circle class="cls-9" cx="579.27" cy="196.44" r="7.85" transform="translate(-28.42 266.14) rotate(-25.28)"/><path class="cls-7" d="M571.43,196.34a7.74,7.74,0,0,0,.47,2.78,7.84,7.84,0,0,0,14.85-5,11.51,11.51,0,0,1-1.58,1.53A10.09,10.09,0,0,1,571.43,196.34Z"/><rect class="cls-9" x="542.55" y="225.75" width="94.15" height="12.57" rx="5.06" transform="translate(-43.8 215.7) rotate(-20)"/><path class="cls-11" d="M557,244.29c.6,1.64-.89,3.69-3.32,4.57s-4.88.27-5.48-1.37.89-3.69,3.32-4.58S556.36,242.64,557,244.29Z"/><path class="cls-11" d="M631.29,219.11c.23.62-.33,1.4-1.25,1.73s-1.85.1-2.08-.52.34-1.39,1.26-1.73S631.07,218.49,631.29,219.11Z"/><path class="cls-11" d="M629.71,214.76c.23.63-.33,1.4-1.25,1.74s-1.85.1-2.08-.52.34-1.4,1.26-1.73S629.49,214.14,629.71,214.76Z"/><path class="cls-6" d="M540.64,199.45a1.4,1.4,0,1,1-1.78-.83A1.4,1.4,0,0,1,540.64,199.45Z"/><path class="cls-6" d="M545.87,197.55a1.39,1.39,0,1,1-1.78-.83A1.38,1.38,0,0,1,545.87,197.55Z"/><path class="cls-5" d="M242.38,231.64a2,2,0,0,0-2,1.61H142.87a3,3,0,1,0,0,1h97.59a2,2,0,1,0,1.93-2.61Z"/><circle class="cls-1" cx="64.29" cy="234.09" r="64.29" transform="translate(-146.7 114.02) rotate(-45)"/><text class="cls-3" transform="translate(33.19 285.41)">T<tspan class="cls-20" x="7.38" y="0">R</tspan><tspan class="cls-22" x="15.45" y="0">A</tspan><tspan x="23.76" y="0">VEL</tspan></text><path class="cls-7" d="M12.49,203.55s16.87,1,28.68,7.25l29.19-14.51L92.8,212.15,113.05,197c-.85,23.68-7.42,38.3-1.52,61.42-8.68-.36-15.7,3.34-21.6,9.78L66.65,253,47.41,269.86s-8.94-12.49-27-11.14C20.42,258.72,20.08,231.05,12.49,203.55Z"/><path class="cls-23" d="M12.49,203.55c7.59,27.5,7.93,55.17,7.93,55.17,16.51-1.23,25.39,9.1,26.79,10.88-3.68-19.37-4.69-39.08-6.07-58.81C29.33,204.56,12.49,203.55,12.49,203.55Z"/><path class="cls-23" d="M92.29,211.8,70.36,196.29l-.52.26c-2,19.16-3.33,37.91-2.51,56.88l22.6,14.74.1,0C88.76,249.37,90.22,230.35,92.29,211.8Z"/><path class="cls-1" d="M48,239.75l-.1-.71A27.36,27.36,0,0,0,42.3,225.3,16.69,16.69,0,0,0,29.38,219c-4.52.12-7.54,3.47-7.88,8.76l-1-.07c.38-5.84,3.77-9.56,8.85-9.69a17.69,17.69,0,0,1,13.71,6.66,27.85,27.85,0,0,1,5.76,13.54A21.3,21.3,0,0,1,67.25,238c3.47-12.83,16.33-22.73,29.63-22.73h.21v1h-.2c-13.07,0-25.7,9.88-28.82,22.57l-.15.62-.56-.29a20.24,20.24,0,0,0-18.68.24Z"/><path class="cls-9" d="M23.17,230.31a1.59,1.59,0,1,1-1.59-1.59A1.59,1.59,0,0,1,23.17,230.31Z"/><path class="cls-9" d="M48.42,242.06a1.59,1.59,0,1,1-1.59-1.59A1.59,1.59,0,0,1,48.42,242.06Z"/><path class="cls-9" d="M71.58,241.56A1.58,1.58,0,1,1,70,240,1.58,1.58,0,0,1,71.58,241.56Z"/><path class="cls-9" d="M102.25,215.22a1.59,1.59,0,1,1-1.58-1.58A1.59,1.59,0,0,1,102.25,215.22Z"/><path class="cls-9" d="M70.36,195.87c0,9.23-16.7,25.56-16.7,25.56S37,205.1,37,195.87a16.71,16.71,0,0,1,33.41,0Z"/><circle class="cls-12" cx="53.83" cy="194.27" r="8.27" transform="translate(-117.41 87.9) rotate(-42.67)"/></g></g></svg>