<svg xmlns="http://www.w3.org/2000/svg" viewBox="0 0 212.11 219.23"><defs><style>.cls-1{fill:#d2eff7;}.cls-14,.cls-2,.cls-3{fill:none;stroke-miterlimit:10;}.cls-2{stroke:#15294a;stroke-width:3px;}.cls-2,.cls-3{stroke-linecap:round;}.cls-3{stroke:#d61313;stroke-width:2px;}.cls-4{fill:#de7f61;}.cls-5{fill:#e8f6ff;}.cls-6{fill:#fd9e80;}.cls-7{fill:#4a342d;}.cls-8{fill:#ffb640;}.cls-9{fill:#fff;}.cls-10{fill:#1d3966;}.cls-11{fill:#15294a;}.cls-12,.cls-15{fill:#29508f;}.cls-13{fill:#f6ec46;}.cls-14{stroke:#1d3966;}.cls-15{font-size:6.88px;font-family:OpenSans-Extrabold, OpenSans Extrabold;font-weight:800;letter-spacing:0.05em;}.cls-16{fill:#d61313;}</style></defs><g id="Calque_2" data-name="Calque 2"><g id="Objects"><path class="cls-1" d="M144.81,118.74a37.2,37.2,0,1,1-37.2-37.2A37.19,37.19,0,0,1,144.81,118.74Z"/><path class="cls-1" d="M79.35,43.72H42.07a7.37,7.37,0,0,1,7.37-7.29,7.47,7.47,0,0,1,2.8.55,10.8,10.8,0,0,1,21,2.94,5.34,5.34,0,0,1,1.21-.15A5,5,0,0,1,79.35,43.72Z"/><path class="cls-1" d="M57.14,156.3H12.47a8.84,8.84,0,0,1,8.83-8.74,8.67,8.67,0,0,1,3.35.67,12.94,12.94,0,0,1,25.17,3.52,6.31,6.31,0,0,1,1.44-.18A6,6,0,0,1,57.14,156.3Z"/><path class="cls-1" d="M212.11,126.1H167.44a8.83,8.83,0,0,1,8.83-8.73,8.94,8.94,0,0,1,3.36.66,12.94,12.94,0,0,1,25.16,3.53,5.82,5.82,0,0,1,1.45-.19A6,6,0,0,1,212.11,126.1Z"/><path class="cls-1" d="M146.84,211H102.17A8.83,8.83,0,0,1,114.35,203a12.94,12.94,0,0,1,25.17,3.53,5.81,5.81,0,0,1,1.44-.19A6,6,0,0,1,146.84,211Z"/><path class="cls-1" d="M160.85,65.27h-52a10.28,10.28,0,0,1,10.27-10.16,10.17,10.17,0,0,1,3.91.77A15.05,15.05,0,0,1,152.34,60a7.16,7.16,0,0,1,1.68-.21A7,7,0,0,1,160.85,65.27Z"/><circle class="cls-2" cx="174.07" cy="165.11" r="11.51"/><polyline class="cls-3" points="174.07 158.78 174.07 165.12 177.95 169"/><path class="cls-4" d="M103.82,110.48a2.54,2.54,0,0,1-2.47,2.59c-1.37,0-2.4-.44-2.87-3.14-.25-1.41.49-2.05,1.86-2.05S103.82,109,103.82,110.48Z"/><path class="cls-4" d="M110.49,110.48a2.54,2.54,0,0,0,2.48,2.59c1.37,0,2.39-.44,2.87-3.14.25-1.41-.5-2.05-1.87-2.05S110.49,109,110.49,110.48Z"/><rect class="cls-4" x="103.77" y="114.89" width="6.88" height="11.65"/><path class="cls-5" d="M126.81,130.59l-.41,2.83H87.25l-.22-1.8c1.2-2,2.36-3.66,3-3.82,1-.26,3.21-.92,5.56-1.66l4.9-1.56,3.26-1.06,3.19.12h.37l3.31.13h0s0,0,0,0l3,.83h0c1.59.43,3.57,1,5.44,1.52,2.33.66,4.45,1.31,5.36,1.66C125.17,128.05,126,129.19,126.81,130.59Z"/><path class="cls-4" d="M110.67,123.79c0,.72-1.52,1.3-3.4,1.3s-3.5-.86-3.5-1.57,1.63-1,3.5-1S110.67,123.08,110.67,123.79Z"/><path class="cls-6" d="M114.83,101.58,114,115a5.34,5.34,0,0,1-.89,2.52,8.14,8.14,0,0,1-6,3.47,8.11,8.11,0,0,1-6-3.47,5.29,5.29,0,0,1-.9-2.52l-.79-13.42Z"/><path class="cls-7" d="M110,103a9.41,9.41,0,0,0,2.71,1.17l.7,7.16s.68.24.89-.3l.18-3.07,1,.42s1-7.58-.63-8.52S109.48,100.93,110,103Z"/><path class="cls-7" d="M104.3,103s-.73,2.44-2.75,3.07l-.66,5.26s-.68.24-.89-.3l-.18-3.07-1,.42s-1.3-7.58.35-8.52S104.79,100.93,104.3,103Z"/><path class="cls-7" d="M101.55,106s5.66,1.86,9.44.08l-2.95-.37s7.93-.24,9.27-7.9c0,0-1.71,2.4-6.64-.75-4.51-2.88-14.38-.36-8.31,6.92Z"/><polygon class="cls-8" points="104.88 126.17 105.07 125.79 105.78 127.24 104.88 133.41 109.41 133.49 108.16 127.25 109.13 125.65 107.13 123.46 104.88 126.17"/><polygon class="cls-9" points="100.46 124.54 103.72 121.43 107.22 123.31 104.91 127.04 100.46 124.54"/><polygon class="cls-9" points="113.84 124.54 110.59 121.43 107.13 123.31 109.42 127.04 113.84 124.54"/><path class="cls-10" d="M127.16,128.1l-.35,2.49-.41,2.83L124,150.36H89.3l-2-16.94-.22-1.8-.43-3.55a1.72,1.72,0,0,1,1.71-1.93h37.13A1.73,1.73,0,0,1,127.16,128.1Z"/><path class="cls-11" d="M109.12,137.83a2,2,0,1,1-2-2A2,2,0,0,1,109.12,137.83Z"/><path class="cls-12" d="M33.59,73.24a1.13,1.13,0,0,0-1.11-.92H26a1.13,1.13,0,0,0-1.11.92l-1.21,6.31H34.8Z"/><path class="cls-12" d="M12.29,78.47a1.14,1.14,0,0,0-1.44.14L8.71,80.75,8.42,81,6.29,83.17a1.12,1.12,0,0,0-.14,1.44l3.61,5.31,3.77-3.77.29-.29,3.78-3.78Z"/><path class="cls-12" d="M.92,97.24A1.13,1.13,0,0,0,0,98.35v6.46a1.13,1.13,0,0,0,.92,1.11l6.31,1.2V96Z"/><path class="cls-12" d="M6.15,118.55A1.11,1.11,0,0,0,6.29,120l2.13,2.14.29.29,2.14,2.14a1.14,1.14,0,0,0,1.44.13l5.31-3.6-3.78-3.78-.29-.29-3.77-3.78Z"/><path class="cls-12" d="M24.92,129.91a1.12,1.12,0,0,0,1.11.92h6.45a1.12,1.12,0,0,0,1.11-.92l1.21-6.31H23.71Z"/><path class="cls-12" d="M46.22,124.68a1.14,1.14,0,0,0,1.44-.13l2.14-2.14.29-.29L52.22,120a1.12,1.12,0,0,0,.14-1.43l-3.61-5.32L45,117l-.28.29-3.78,3.78Z"/><path class="cls-12" d="M57.59,105.92a1.13,1.13,0,0,0,.92-1.11V98.35a1.13,1.13,0,0,0-.92-1.11L51.28,96v11.09Z"/><path class="cls-12" d="M52.36,84.61a1.14,1.14,0,0,0-.14-1.44L50.09,81l-.29-.29-2.14-2.14a1.14,1.14,0,0,0-1.44-.14l-5.31,3.61,3.78,3.78.29.29,3.77,3.77Z"/><path class="cls-12" d="M53.58,96.47A24.54,24.54,0,0,0,50.07,88a25,25,0,0,0-7.22-7.23A24.85,24.85,0,0,0,8.44,88a24.89,24.89,0,0,0,0,27.18,25,25,0,0,0,7.22,7.22,24.84,24.84,0,0,0,27.19,0,25.08,25.08,0,0,0,7.22-7.22,24.88,24.88,0,0,0,3.51-18.7ZM29.25,118.63a17.06,17.06,0,1,1,17.06-17A17.07,17.07,0,0,1,29.25,118.63Z"/><path class="cls-11" d="M29.25,80.27a21.31,21.31,0,1,0,21.31,21.31A21.33,21.33,0,0,0,29.25,80.27Zm0,38.36a17.06,17.06,0,1,1,17.06-17A17.07,17.07,0,0,1,29.25,118.63Z"/><path class="cls-13" d="M29.4,95.23a5.55,5.55,0,0,0-4.08,9.41c3,3.17,2,4.93,2,4.93h4.13s-1-1.76,2-4.93A5.55,5.55,0,0,0,29.4,95.23Z"/><rect class="cls-9" x="28.93" y="100.04" width="0.93" height="8.96"/><path class="cls-14" d="M27,100c.61,0,.61,1.15,1.22,1.15s.61-1.15,1.21-1.15.61,1.15,1.22,1.15.61-1.15,1.22-1.15"/><path class="cls-10" d="M27.28,108.82h4.24a.44.44,0,0,1,.43.44h0a.44.44,0,0,1-.43.44H27.28a.44.44,0,0,1-.44-.44h0A.44.44,0,0,1,27.28,108.82Z"/><path class="cls-10" d="M27.28,109.7h4.24a.44.44,0,0,1,.43.44h0a.44.44,0,0,1-.43.44H27.28a.44.44,0,0,1-.44-.44h0A.44.44,0,0,1,27.28,109.7Z"/><path class="cls-10" d="M27.28,110.58h4.24A.43.43,0,0,1,32,111h0a.43.43,0,0,1-.43.44H27.28a.43.43,0,0,1-.44-.44h0A.43.43,0,0,1,27.28,110.58Z"/><path class="cls-9" d="M28.32,109.09h-1a0,0,0,0,1,0,0h0a0,0,0,0,1,0,0h1a0,0,0,0,1,0,0h0A0,0,0,0,1,28.32,109.09Z"/><path class="cls-9" d="M28.32,109.92h-1a0,0,0,0,1,0,0h0a0,0,0,0,1,0,0h1a0,0,0,0,1,0,0h0A0,0,0,0,1,28.32,109.92Z"/><path class="cls-9" d="M28.32,110.76h-1a0,0,0,0,1,0-.05h0a0,0,0,0,1,0,0h1a0,0,0,0,1,0,0h0A0,0,0,0,1,28.32,110.76Z"/><path class="cls-13" d="M29.4,93.74h0a.38.38,0,0,1-.38-.38v-2A.38.38,0,0,1,29.4,91h0a.38.38,0,0,1,.37.38v2A.38.38,0,0,1,29.4,93.74Z"/><path class="cls-13" d="M24,95.94h0a.38.38,0,0,1-.54,0l-1.39-1.39a.38.38,0,0,1,0-.54h0a.39.39,0,0,1,.53,0l1.4,1.4A.39.39,0,0,1,24,95.94Z"/><path class="cls-13" d="M21.81,101.3h0a.38.38,0,0,1-.38.37h-2a.38.38,0,0,1-.38-.37h0a.38.38,0,0,1,.38-.38h2A.38.38,0,0,1,21.81,101.3Z"/><path class="cls-13" d="M24,106.65h0a.38.38,0,0,1,0,.54l-1.4,1.4a.39.39,0,0,1-.53,0h0a.38.38,0,0,1,0-.54l1.39-1.4A.4.4,0,0,1,24,106.65Z"/><path class="cls-13" d="M34.73,106.67h0a.39.39,0,0,1,.53,0l1.4,1.4a.37.37,0,0,1,0,.53h0a.37.37,0,0,1-.53,0l-1.4-1.39A.38.38,0,0,1,34.73,106.67Z"/><path class="cls-13" d="M37,101.32h0a.38.38,0,0,1,.37-.38h2a.38.38,0,0,1,.38.38h0a.38.38,0,0,1-.38.38h-2A.38.38,0,0,1,37,101.32Z"/><path class="cls-13" d="M34.75,96h0a.37.37,0,0,1,0-.53L36.14,94a.4.4,0,0,1,.54,0h0a.4.4,0,0,1,0,.54L35.28,96A.37.37,0,0,1,34.75,96Z"/><path class="cls-12" d="M182.46,44a1.13,1.13,0,0,0-1.11-.92h-6.46a1.13,1.13,0,0,0-1.11.92l-1.21,6.31h11.1Z"/><path class="cls-12" d="M161.15,49.22a1.12,1.12,0,0,0-1.43.13l-2.14,2.14-.29.29-2.14,2.14a1.15,1.15,0,0,0-.14,1.44l3.61,5.31,3.78-3.78.29-.29,3.78-3.77Z"/><path class="cls-12" d="M149.78,68a1.14,1.14,0,0,0-.92,1.11v6.46a1.13,1.13,0,0,0,.92,1.11l6.31,1.21V66.78Z"/><path class="cls-12" d="M155,89.29a1.15,1.15,0,0,0,.14,1.44l2.14,2.13.29.29,2.14,2.14a1.12,1.12,0,0,0,1.43.14l5.32-3.61L162.69,88l-.29-.29L158.62,84Z"/><path class="cls-12" d="M173.78,100.66a1.13,1.13,0,0,0,1.11.92h6.46a1.13,1.13,0,0,0,1.11-.92l1.21-6.31h-11.1Z"/><path class="cls-12" d="M195.09,95.43a1.12,1.12,0,0,0,1.43-.14l2.14-2.14.29-.29,2.14-2.13a1.15,1.15,0,0,0,.14-1.44L197.62,84l-3.78,3.77-.29.29-3.78,3.78Z"/><path class="cls-12" d="M206.46,76.66a1.13,1.13,0,0,0,.91-1.11V69.09a1.13,1.13,0,0,0-.91-1.11l-6.31-1.2V77.87Z"/><path class="cls-12" d="M201.23,55.36a1.15,1.15,0,0,0-.14-1.44L199,51.78l-.29-.29-2.14-2.14a1.12,1.12,0,0,0-1.43-.13l-5.32,3.61,3.78,3.77.29.29,3.78,3.78Z"/><path class="cls-12" d="M202.45,67.22a24.52,24.52,0,0,0-3.52-8.49,24.84,24.84,0,0,0-7.22-7.22A24.51,24.51,0,0,0,183.22,48,24.8,24.8,0,0,0,173,48a24.32,24.32,0,0,0-8.49,3.51,24.84,24.84,0,0,0-7.22,7.22,24.82,24.82,0,0,0,0,27.18A24.78,24.78,0,0,0,173,96.65a24.8,24.8,0,0,0,10.2,0A24.85,24.85,0,0,0,203,72.32,24.44,24.44,0,0,0,202.45,67.22ZM178.12,89.38a17.06,17.06,0,1,1,17-17A17.06,17.06,0,0,1,178.12,89.38Z"/><path class="cls-11" d="M178.12,51a21.31,21.31,0,1,0,21.31,21.32A21.34,21.34,0,0,0,178.12,51Zm0,38.37a17.06,17.06,0,1,1,17-17A17.06,17.06,0,0,1,178.12,89.38Z"/><path class="cls-12" d="M97.69.92A1.13,1.13,0,0,0,96.58,0H90.12A1.13,1.13,0,0,0,89,.92L87.8,7.23H98.9Z"/><path class="cls-12" d="M76.38,6.15A1.11,1.11,0,0,0,75,6.29L72.81,8.42l-.29.29-2.14,2.14a1.15,1.15,0,0,0-.14,1.44l3.61,5.31,3.78-3.78.29-.29L81.7,9.76Z"/><path class="cls-12" d="M65,24.92A1.12,1.12,0,0,0,64.1,26v6.45A1.12,1.12,0,0,0,65,33.59l6.31,1.21V23.71Z"/><path class="cls-12" d="M70.24,46.22a1.15,1.15,0,0,0,.14,1.44l2.14,2.14.29.29L75,52.22a1.12,1.12,0,0,0,1.43.14l5.32-3.61L77.92,45l-.29-.28-3.78-3.78Z"/><path class="cls-12" d="M89,57.59a1.13,1.13,0,0,0,1.11.92h6.46a1.13,1.13,0,0,0,1.11-.92l1.21-6.31H87.8Z"/><path class="cls-12" d="M110.32,52.36a1.12,1.12,0,0,0,1.43-.14l2.14-2.13.29-.29,2.14-2.14a1.15,1.15,0,0,0,.14-1.44l-3.61-5.31-3.78,3.78-.29.28L105,48.75Z"/><path class="cls-12" d="M121.69,33.59a1.12,1.12,0,0,0,.91-1.11V26a1.12,1.12,0,0,0-.91-1.11l-6.31-1.21V34.8Z"/><path class="cls-12" d="M116.46,12.29a1.15,1.15,0,0,0-.14-1.44l-2.14-2.14-.29-.29-2.14-2.13a1.11,1.11,0,0,0-1.43-.14L105,9.76l3.78,3.77.29.29,3.78,3.78Z"/><path class="cls-12" d="M117.68,24.15A24.84,24.84,0,0,0,98.45,4.93,24.89,24.89,0,0,0,79.76,8.44,24.88,24.88,0,0,0,69,24.15a24.85,24.85,0,0,0,0,10.21A24.88,24.88,0,0,0,79.76,50.07a24.89,24.89,0,0,0,27.18,0,25.12,25.12,0,0,0,7.23-7.22,24.86,24.86,0,0,0,3.51-8.49,24.85,24.85,0,0,0,0-10.21ZM93.35,46.31a17.06,17.06,0,1,1,17.05-17A17.06,17.06,0,0,1,93.35,46.31Z"/><path class="cls-11" d="M93.35,8a21.31,21.31,0,1,0,21.31,21.31A21.33,21.33,0,0,0,93.35,8Zm0,38.36a17.06,17.06,0,1,1,17.05-17A17.06,17.06,0,0,1,93.35,46.31Z"/><path class="cls-12" d="M178.41,136.78a1.15,1.15,0,0,0-1.12-.92h-6.45a1.13,1.13,0,0,0-1.11.92l-1.21,6.31h11.09Z"/><path class="cls-12" d="M157.1,142a1.12,1.12,0,0,0-1.44.14l-2.14,2.13-.28.29-2.14,2.14a1.14,1.14,0,0,0-.14,1.44l3.61,5.31,3.78-3.78.29-.29,3.77-3.77Z"/><path class="cls-12" d="M145.73,160.77a1.15,1.15,0,0,0-.92,1.12v6.45a1.13,1.13,0,0,0,.92,1.11l6.31,1.21V159.57Z"/><path class="cls-12" d="M151,182.08a1.14,1.14,0,0,0,.14,1.44l2.14,2.14.28.29,2.14,2.13a1.14,1.14,0,0,0,1.44.14l5.31-3.61-3.77-3.78-.29-.28-3.78-3.78Z"/><path class="cls-12" d="M169.73,193.45a1.13,1.13,0,0,0,1.11.92h6.45a1.15,1.15,0,0,0,1.12-.92l1.2-6.31H168.52Z"/><path class="cls-12" d="M191,188.22a1.14,1.14,0,0,0,1.44-.14l2.14-2.13.29-.29,2.14-2.14a1.14,1.14,0,0,0,.13-1.44l-3.61-5.31-3.77,3.78-.29.28-3.78,3.78Z"/><path class="cls-12" d="M202.4,169.45a1.12,1.12,0,0,0,.92-1.11v-6.45a1.14,1.14,0,0,0-.92-1.12l-6.31-1.2v11.09Z"/><path class="cls-12" d="M197.17,148.15a1.13,1.13,0,0,0-.13-1.44l-2.14-2.14-.29-.29-2.14-2.13A1.12,1.12,0,0,0,191,142l-5.31,3.61,3.78,3.77.29.29,3.77,3.78Z"/><path class="cls-12" d="M198.39,160a24.39,24.39,0,0,0-3.51-8.49,25,25,0,0,0-7.22-7.22,24.87,24.87,0,0,0-34.41,34.41,25,25,0,0,0,7.23,7.22,24.89,24.89,0,0,0,27.18,0,25.08,25.08,0,0,0,7.22-7.22,24.67,24.67,0,0,0,3.51-8.49,24.85,24.85,0,0,0,0-10.21Zm-24.33,22.16a17.06,17.06,0,1,1,17.06-17A17.07,17.07,0,0,1,174.06,182.17Z"/><path class="cls-11" d="M174.06,143.81a21.31,21.31,0,1,0,21.32,21.31A21.33,21.33,0,0,0,174.06,143.81Zm0,38.36a17.06,17.06,0,1,1,17.06-17A17.07,17.07,0,0,1,174.06,182.17Z"/><path class="cls-12" d="M68.44,161.64a1.14,1.14,0,0,0-1.12-.92H60.87a1.12,1.12,0,0,0-1.11.92l-1.21,6.3H69.64Z"/><path class="cls-12" d="M47.13,166.87a1.14,1.14,0,0,0-1.44.13l-2.14,2.14-.29.29-2.13,2.14A1.12,1.12,0,0,0,41,173l3.61,5.32,3.78-3.78.28-.29,3.78-3.78Z"/><path class="cls-12" d="M35.76,185.63a1.13,1.13,0,0,0-.92,1.11v6.46a1.13,1.13,0,0,0,.92,1.11l6.31,1.21v-11.1Z"/><path class="cls-12" d="M41,206.94a1.12,1.12,0,0,0,.14,1.43l2.13,2.14.29.29,2.14,2.14a1.15,1.15,0,0,0,1.44.14l5.31-3.61-3.78-3.78-.28-.29-3.78-3.78Z"/><path class="cls-12" d="M59.76,218.31a1.13,1.13,0,0,0,1.11.92h6.45a1.15,1.15,0,0,0,1.12-.92l1.2-6.31H58.55Z"/><path class="cls-12" d="M81.06,213.08a1.15,1.15,0,0,0,1.44-.14l2.14-2.14.29-.29,2.13-2.14a1.11,1.11,0,0,0,.14-1.43l-3.61-5.32-3.77,3.78-.29.29-3.78,3.78Z"/><path class="cls-12" d="M92.43,194.31a1.13,1.13,0,0,0,.92-1.11v-6.46a1.13,1.13,0,0,0-.92-1.11l-6.31-1.21v11.1Z"/><path class="cls-12" d="M87.2,173a1.11,1.11,0,0,0-.14-1.43l-2.13-2.14-.29-.29L82.5,167a1.14,1.14,0,0,0-1.44-.13l-5.31,3.6,3.78,3.78.29.29,3.77,3.78Z"/><path class="cls-12" d="M88.42,184.87a24.32,24.32,0,0,0-3.51-8.49A24.88,24.88,0,0,0,69.2,165.64a24.8,24.8,0,0,0-18.69,3.52,24.78,24.78,0,0,0-10.74,15.71,24.8,24.8,0,0,0,0,10.2,24.85,24.85,0,0,0,37.92,15.71,25,25,0,0,0,7.22-7.22,24.86,24.86,0,0,0,3.51-18.69ZM64.09,207A17.05,17.05,0,1,1,81.15,190,17.06,17.06,0,0,1,64.09,207Z"/><path class="cls-11" d="M64.09,168.66A21.31,21.31,0,1,0,85.4,190,21.34,21.34,0,0,0,64.09,168.66Zm0,38.36A17.05,17.05,0,1,1,81.15,190,17.06,17.06,0,0,1,64.09,207Z"/><path class="cls-13" d="M180.48,67.92l1.19-3.26h-7.1l1.19,3.26s-4.79,5.19-4.07,9.75c.65,4.12,12.21,4.12,12.86,0C185.27,73.11,180.48,67.92,180.48,67.92Z"/><path class="cls-12" d="M180.7,68.29h-5.08a.34.34,0,0,1-.34-.33h0a.34.34,0,0,1,.34-.34h5.08A.34.34,0,0,1,181,68h0A.34.34,0,0,1,180.7,68.29Z"/><text class="cls-15" transform="translate(176.1 76.88)">$</text><path class="cls-13" d="M71.9,190a7.8,7.8,0,1,1-1.32-4.34A7.72,7.72,0,0,1,71.9,190Z"/><path class="cls-16" d="M70.58,185.63,64.1,190v-7.8A7.78,7.78,0,0,1,70.58,185.63Z"/><line class="cls-3" x1="97.37" y1="24.58" x2="93.11" y2="29.25"/><path class="cls-1" d="M93.35,15.84a13.43,13.43,0,0,0-12.2,7.85l4.18,1.91a8.81,8.81,0,0,1,12-4.19l2.18-4.05A13.38,13.38,0,0,0,93.35,15.84Z"/><path class="cls-16" d="M106.09,25l-4.37,1.44a8.86,8.86,0,0,0-4.35-5.07l2.18-4.05A13.47,13.47,0,0,1,106.09,25Z"/><circle class="cls-16" cx="92.84" cy="29.68" r="1.08"/><path class="cls-12" d="M114.57,71.09a1.94,1.94,0,0,0-1.9-1.57h-11a1.93,1.93,0,0,0-1.9,1.57L97.66,81.88h19Z"/><path class="cls-12" d="M78.13,80a1.93,1.93,0,0,0-2.45.23L72,83.93l-.49.49-3.66,3.66a1.94,1.94,0,0,0-.23,2.45l6.17,9.09,6.46-6.46.49-.49,6.46-6.46Z"/><path class="cls-12" d="M58.7,112.13a1.93,1.93,0,0,0-1.58,1.9v11A1.94,1.94,0,0,0,58.7,127L69.48,129v-19Z"/><path class="cls-12" d="M67.64,148.56a2,2,0,0,0,.23,2.46l3.66,3.65.49.5,3.66,3.65a1.93,1.93,0,0,0,2.45.24l9.09-6.17-6.46-6.46-.49-.5-6.46-6.46Z"/><path class="cls-12" d="M99.73,168a1.93,1.93,0,0,0,1.9,1.57h11a1.94,1.94,0,0,0,1.9-1.57l2.06-10.79h-19Z"/><path class="cls-12" d="M136.16,159.06a1.94,1.94,0,0,0,2.46-.24l3.65-3.65.5-.5,3.65-3.65a1.94,1.94,0,0,0,.24-2.46l-6.17-9.09L134,145.93l-.5.5-6.45,6.46Z"/><path class="cls-12" d="M155.6,127a1.94,1.94,0,0,0,1.57-1.9V114a1.93,1.93,0,0,0-1.57-1.9l-10.79-2.07v19Z"/><path class="cls-12" d="M146.66,90.53a1.93,1.93,0,0,0-.24-2.45l-3.65-3.66-.5-.49-3.65-3.66a1.94,1.94,0,0,0-2.46-.23l-9.08,6.17,6.45,6.46.5.49,6.46,6.46Z"/><path class="cls-12" d="M107.14,77.05a42.5,42.5,0,1,0,42.51,42.49A42.49,42.49,0,0,0,107.14,77.05Zm0,72.64a30.15,30.15,0,1,1,30.16-30.14A30.17,30.17,0,0,1,107.14,149.69Z"/><path class="cls-11" d="M107.14,81.88a37.67,37.67,0,1,0,37.67,37.67A37.71,37.71,0,0,0,107.14,81.88Zm0,67.81a30.15,30.15,0,1,1,30.16-30.14A30.17,30.17,0,0,1,107.14,149.69Z"/></g></g></svg>