<svg xmlns="http://www.w3.org/2000/svg" viewBox="0 0 1257.28 1080.79"><defs><style>.cls-1{fill:#55595a;}.cls-2{fill:#414344;}.cls-3{opacity:0.24;}.cls-4{fill:#fff;}.cls-5{fill:#f08068;}.cls-6{opacity:0.21;}.cls-7{fill:#ef6660;}.cls-8{fill:#ffa81d;}.cls-9{fill:#ff8c1a;}.cls-10{opacity:0.3;}</style></defs><g id="Calque_2" data-name="Calque 2"><g id="Layer_2" data-name="Layer 2"><path class="cls-1" d="M945,273.55l10.09,5.71c-11.51-7.53-18.6-21.62-21.17-36.12s-1.13-29.51,1.19-44.07c2.12-13.34,4.86-27.64-.22-40-5.24-12.69-17.58-20-29.75-23.63-14.72-4.44-30.14-5-45.39-5.45L837,129.29,814.3,130c-15.25.49-30.67,1-45.39,5.45-12.17,3.68-24.51,10.94-29.75,23.63-5.08,12.32-2.34,26.62-.22,40,2.32,14.56,3.76,29.56,1.19,44.07s-9.66,28.59-21.17,36.12l10.09-5.71c-4.8,4.4-6.68,12.89-4.13,19.47,3.26,8.39,11.81,13.19,20.07,13.44s16.24-3.33,23.44-7.8c3.3-2.05,6.65-4.46,8.43-8.15,1.62-3.34,1.75-7.28,1.7-11.07-.32-26.05-7.1-51.78-5.83-77.8.32-6.48,1.35-13.43,5.5-18,3.3-3.64,8-5.17,12.54-6.32,15.17-3.85,77.34-3.85,92.51,0,4.54,1.15,9.24,2.68,12.53,6.32,4.16,4.6,5.19,11.55,5.51,18,1.27,26-5.51,51.75-5.83,77.8,0,3.79.08,7.73,1.7,11.07,1.78,3.69,5.13,6.1,8.43,8.15,7.2,4.47,15.18,8,23.44,7.8s16.81-5,20.06-13.44C951.68,286.44,949.8,278,945,273.55Z"/><path class="cls-1" d="M988.75,616c31.49-38.34,70.38-100.74,70.38-154.22,0-122.67-99.44-222.11-222.1-222.11S614.92,339.1,614.92,461.77c0,53.48,44.4,115.88,75.89,154.22Z"/><path class="cls-2" d="M690.81,616H988.75c31.49-38.34,70.38-100.74,70.38-154.22A221.92,221.92,0,0,0,957.78,275.33c15,42.52,18.11,89.26,6.39,132.69-14.7,54.46-53.57,102.72-105.28,125.24C831,545.39,800.46,550,770.12,551.48c-36.39,1.72-73.93-1.25-106.91-16.73A131.14,131.14,0,0,1,623.38,506C637.77,546.92,667.75,587.91,690.81,616Z"/><g class="cls-3"><path class="cls-4" d="M744.2,288.53a117.07,117.07,0,0,0-49.83,48c-3.28,6-6.1,12.56-5.68,19.37s5,13.77,11.69,14.92c8.18,1.41,15.14-5.66,20.32-12.15,14.22-17.82,28.81-37.24,50.24-45,5.65-2.05,11.69-3.26,16.76-6.47,13.38-8.49,6.62-22.85-6.41-26.78C770.13,277,754,283.65,744.2,288.53Z"/></g><g class="cls-3"><path class="cls-4" d="M676.45,381.91a21.38,21.38,0,0,0-7.39,5.34,48.87,48.87,0,0,0-12.23,21.9c-2,7.78-1.47,17.2,4.75,22.28,4.7,3.85,11.65,4.09,17.27,1.78s10.08-6.8,13.7-11.68c4.75-6.4,8.42-14.11,7.83-22.06C699.62,389.09,687.27,377.72,676.45,381.91Z"/></g><g class="cls-3"><path class="cls-4" d="M763.44,164.1c5.89,2.38,12.11-2,17.25-5.71,6-4.33,12.52-8.11,19.63-10.21,16.19-4.77,33.77-.39,50.36-3.48,1.77-.33,3.79-1,4.41-2.66s-.53-3.49-2.06-4.31a11.09,11.09,0,0,0-5.09-.87q-32.24-.27-64.45,1.22c-7.72.35-16.09,1-21.61,7C757.05,150.36,755.13,160.73,763.44,164.1Z"/></g><path class="cls-1" d="M1174.21,430.21l7.35,4.16c-8.38-5.49-13.54-15.74-15.41-26.3s-.82-21.47.86-32.07c1.54-9.71,3.54-20.12-.16-29.09-3.81-9.23-12.79-14.52-21.65-17.19-10.71-3.23-21.94-3.61-33-4l-16.54-.54-16.54.54c-11.1.36-22.32.74-33,4-8.86,2.67-17.85,8-21.66,17.19-3.7,9-1.7,19.38-.16,29.09,1.69,10.6,2.74,21.52.87,32.07s-7,20.81-15.41,26.3l7.34-4.16c-3.49,3.2-4.86,9.38-3,14.17,2.37,6.11,8.59,9.61,14.6,9.78s11.82-2.42,17.07-5.67c2.4-1.49,4.83-3.25,6.13-5.93,1.18-2.43,1.27-5.31,1.24-8.06-.23-19-5.17-37.69-4.24-56.63.23-4.71,1-9.78,4-13.12,2.4-2.65,5.82-3.77,9.13-4.61,11-2.8,56.29-2.8,67.33,0,3.3.84,6.73,2,9.12,4.61,3,3.34,3.77,8.41,4,13.12.92,18.94-4,37.67-4.25,56.63,0,2.75.06,5.63,1.24,8.06,1.3,2.68,3.73,4.44,6.14,5.93,5.24,3.25,11,5.85,17.06,5.67s12.23-3.67,14.6-9.78C1179.07,439.59,1177.7,433.41,1174.21,430.21Z"/><path class="cls-1" d="M1206.05,679.45c22.92-27.9,51.23-73.32,51.23-112.24a161.66,161.66,0,1,0-323.32,0c0,38.92,32.32,84.34,55.24,112.24Z"/><path class="cls-2" d="M989.2,679.45h216.85c22.92-27.9,51.23-73.32,51.23-112.24a161.51,161.51,0,0,0-73.77-135.7c10.91,30.94,13.19,65,4.65,96.58-10.7,39.63-39,74.76-76.62,91.15-20.27,8.83-42.53,12.21-64.61,13.26-26.49,1.25-53.81-.91-77.82-12.17a95.59,95.59,0,0,1-29-21C950.6,629.18,972.41,659,989.2,679.45Z"/><g class="cls-3"><path class="cls-4" d="M1028.06,441.12A85.08,85.08,0,0,0,991.79,476c-2.39,4.35-4.44,9.14-4.13,14.09s3.61,10,8.51,10.87c6,1,11-4.12,14.78-8.85,10.35-13,21-27.1,36.57-32.77,4.11-1.5,8.51-2.37,12.2-4.71,9.74-6.18,4.82-16.63-4.66-19.49C1046.93,432.72,1035.16,437.56,1028.06,441.12Z"/></g><g class="cls-3"><path class="cls-4" d="M978.74,509.08a15.6,15.6,0,0,0-5.38,3.89,35.52,35.52,0,0,0-8.89,15.94c-1.44,5.66-1.07,12.52,3.45,16.21,3.42,2.81,8.48,3,12.57,1.3s7.34-4.95,10-8.5c3.46-4.66,6.12-10.27,5.7-16.06C995.61,514.3,986.62,506,978.74,509.08Z"/></g><g class="cls-3"><path class="cls-4" d="M1042.07,350.55c4.28,1.73,8.8-1.46,12.55-4.16a47.86,47.86,0,0,1,14.29-7.43c11.78-3.47,24.57-.29,36.65-2.54,1.29-.24,2.76-.7,3.21-1.93a2.73,2.73,0,0,0-1.5-3.13,7.9,7.9,0,0,0-3.71-.64q-23.46-.2-46.9.89c-5.62.25-11.71.76-15.73,5.11C1037.41,340.54,1036,348.1,1042.07,350.55Z"/></g><path class="cls-1" d="M271.68,680.72c-.18-2.52-.35-5.15.55-7.52,1.88-4.9,7.53-7,12.58-8.44a309.74,309.74,0,0,1,37.4-8.08c2.39-.36,5.06-.63,7,.78s2.52,3.9,3,6.21l6.6,32q-.06-16-.1-32c0-3.33,0-6.91,2-9.63,2.29-3.23,6.52-4.33,10.41-5a152.18,152.18,0,0,1,32.17-2.44c2.89.08,6,.34,8.18,2.23,2.34,2,3,5.35,3.44,8.42l5.88,37.6q2.44-20.12,4.88-40.21c.32-2.66.7-5.46,2.35-7.56,2-2.5,5.25-3.46,8.35-4.12a92.86,92.86,0,0,1,29-1.52c2.59.28,5.39.77,7.14,2.71,1.59,1.76,1.91,4.3,2.16,6.67l4,38.21c3-12.89,6.08-25.83,10.92-38.14,1.47-3.75,3.33-7.68,6.83-9.67,3.07-1.73,6.81-1.62,10.31-1.22a75,75,0,0,1,28,9q6.59,44.34,9.3,89.13,21-15.31,43.41-28.53c5.35-3.16,11.07-6.31,17.29-6.42,8-.13,15.21,4.84,21.51,9.85a282.61,282.61,0,0,1,27,24.46c1.76,1.82,3.58,3.81,4,6.31.75,4.23-2.63,7.94-5.57,11.07-20.19,21.47-31.29,49.67-46.41,75-23.63,39.53-57.77,73-74.51,115.93-1.12,2.86-2.26,5.91-4.67,7.81-2.12,1.66-4.89,2.18-7.54,2.65-48.81,8.61-98.2,17.26-147.65,13.83-7.24-.5-14.71-1.34-21-5-12.75-7.34-17-22.69-19.29-36.14-3.28-19.47-8.77-38.71-12.69-58.09q-12.13-60-19.47-120.88Q274.28,715.4,271.68,680.72Z"/><path class="cls-5" d="M633.21,737.41a282.61,282.61,0,0,0-27-24.46c-6.3-5-13.46-10-21.51-9.85-6.22.11-11.94,3.26-17.29,6.42q-22.38,13.2-43.41,28.53c0-.84-.11-1.67-.16-2.51-9.22,12.6-22.62,21.67-36,29.48-41.12,24.08-86.55,39.68-129.84,59.61-9.64,4.45-19.34,9.2-27.21,16.34s-13.81,17-13.93,27.66c-.12,11.2,6.3,21.74,15,28.83s19.39,11.18,30.14,14.31c56.2,16.35,117.05,9,172.55-9.93,16.35-24.24,35.63-46.94,50.65-72.08,15.12-25.3,26.22-53.5,46.41-75,2.94-3.13,6.32-6.84,5.57-11.07C636.79,741.22,635,739.23,633.21,737.41Z"/><g class="cls-6"><path class="cls-4" d="M279.83,677.58c-.88,2.63-.31,5.49.28,8.2q5.31,24.32,12,48.32c.32,1.13,1.33,2.57,2.32,1.93a1.81,1.81,0,0,0,.61-.89c2.58-6.26,2-13.35.57-20s-3.52-13.13-3.88-19.88,1.36-14,6.45-18.49a5.9,5.9,0,0,0,2.1-2.51c.54-1.81-1.24-3.64-3.11-3.92C293.05,669.76,281.32,673.15,279.83,677.58Z"/></g><g class="cls-6"><path class="cls-4" d="M345,665q.47,13.58.92,27.14c.07,2,.33,4.35,2,5.38,1.94-1.93,2-5,2-7.74a76.55,76.55,0,0,1,3.29-21,9,9,0,0,1,1.8-3.64,8.15,8.15,0,0,1,3-1.82,30.13,30.13,0,0,1,7-1.87c2.18-.32,4.46-.42,6.39-1.46s3.38-3.45,2.5-5.46c-1-2.34-4.21-2.6-6.75-2.35C356.94,653.17,344.53,651.72,345,665Z"/></g><path class="cls-5" d="M317.91,734.85c-5.68,2-11.49,5-14.49,10.21-2.67,4.67-2.64,10.37-2.27,15.73a160.3,160.3,0,0,0,2.54,19.41c1.49,7.71,5.2,16.83,13,17.62,7.52.75,12.86-6.73,17.48-12.71,12.21-15.84,30.25-26.4,49.19-32.82s38.94-9,58.79-11.4c7.85-.95,16.72-2.48,21-9.1a8.2,8.2,0,0,0,1.5-5.41c-.39-2.88-2.94-5.08-5.71-5.94s-5.74-.64-8.63-.41q-35.72,2.79-71.4,6C358.8,727.8,337.15,727.91,317.91,734.85Z"/><path class="cls-7" d="M534.5,901.84c16.35-24.23,35.63-46.93,50.65-72.07,15.12-25.3,26.22-53.5,46.41-75,2.94-3.13,6.32-6.84,5.57-11.07a9.41,9.41,0,0,0-2.16-4.25c-15.29,10.15-28.36,23.9-41.41,37-28.87,29.09-59.67,56.59-94.36,78.42S425.68,892.84,385,897.66c-19.84,2.35-40.85,1.72-59.36-6.34a45,45,0,0,0,6.19,6.15c8.67,7.09,19.39,11.18,30.15,14.31C418.16,928.13,479,920.76,534.5,901.84Z"/><path class="cls-1" d="M617.26,744.57c4.46,4,7.35,9.57,10.29,14.82,2.47-2.79,6.59-7,9.06-9.75a7.64,7.64,0,0,0,2.08-3.42c.31-1.63-.46-3.26-1.29-4.69-5.35-9.09-13.17-16.09-21.71-22.3-5.14-3.73-14.2-12.53-28.42-17.46-7.25-2.51-10,1.56-18.45,7,8.34,5.49,18.25,10.32,26.16,16.58C602.68,731.39,610,738,617.26,744.57Z"/><path class="cls-1" d="M812.54,731.34c-1.95-1.61-4-3.27-6.44-3.91-5.08-1.31-10.08,2.07-14.17,5.36a309.57,309.57,0,0,0-28.26,25.81c-1.67,1.74-3.44,3.75-3.43,6.17s1.72,4.31,3.32,6q11.13,11.94,22.25,23.9l-26-18.64c-2.71-1.94-5.66-4-9-4-4,0-7.31,2.8-10.15,5.56A152.7,152.7,0,0,0,720,802.47c-1.59,2.4-3.19,5.08-2.91,7.95.29,3.09,2.64,5.52,4.86,7.69l27.24,26.57-35.6-19.32c-2.35-1.27-4.85-2.58-7.52-2.46-3.17.15-5.86,2.28-8.2,4.42a93.31,93.31,0,0,0-18.06,22.79c-1.27,2.27-2.49,4.84-1.93,7.39.52,2.32,2.4,4,4.19,5.62l28.83,25.39c-12.26-5-24.57-10-37.42-13.2-3.9-1-8.18-1.73-11.83,0-3.19,1.49-5.27,4.6-7,7.68A75.19,75.19,0,0,0,645.79,911q32.33,31.07,67.26,59.23-24.64,8.24-48.4,18.84c-5.68,2.54-11.56,5.37-15.25,10.38-4.77,6.48-4.87,15.2-4.43,23.24a281.5,281.5,0,0,0,4.32,36.14c.46,2.49,1,5.12,2.81,6.92,3,3.07,8,2.47,12.25,1.88,29.2-4,58.62,3.28,88,5.61,45.9,3.65,93-4.78,137.66,6.43,3,.75,6.12,1.58,9.06.72,2.59-.76,4.61-2.72,6.53-4.61,35.3-34.79,71-70,96.82-112.33,3.79-6.19,7.43-12.77,8.12-20,1.41-14.65-8.62-27-18.28-36.67-14-13.95-26.47-29.57-40-44q-41.89-44.67-87.25-85.9Q839.31,753.54,812.54,731.34Z"/><path class="cls-5" d="M649.29,1058.86a283.29,283.29,0,0,1-4.32-36.14c-.44-8-.34-16.76,4.43-23.24,3.69-5,9.57-7.84,15.25-10.38q23.72-10.59,48.4-18.84l-1.95-1.59c15.61-.22,30.77-5.89,44.87-12.24,43.45-19.57,82.49-47.56,123.81-71.29,9.21-5.29,18.7-10.43,29.08-12.71s21.89-1.39,30.61,4.67c9.2,6.39,14.07,17.73,14.83,28.9s-2.11,22.29-5.8,32.87c-19.23,55.27-60.5,100.6-108.06,134.87-29.23-.71-58.9,1.85-88.09-.47-29.38-2.33-58.8-9.63-88-5.61-4.25.59-9.24,1.19-12.25-1.88C650.32,1064,649.75,1061.35,649.29,1058.86Z"/><g class="cls-6"><path class="cls-4" d="M805.26,736.16c2.65.81,4.66,2.93,6.52,5q16.74,18.42,32.45,37.75c.74.92,1.32,2.57.23,3a1.77,1.77,0,0,1-1.09,0c-6.58-1.52-12-6.13-16.6-11.1s-8.65-10.48-13.95-14.68-12.23-7-18.81-5.46a5.92,5.92,0,0,1-3.26.27c-1.79-.62-2.25-3.13-1.39-4.82C791.23,742.4,800.79,734.81,805.26,736.16Z"/></g><g class="cls-6"><path class="cls-4" d="M757.29,782l21.59,16.49c1.59,1.21,3.35,2.78,3.2,4.78-2.7.46-5.22-1.3-7.48-2.85a76.31,76.31,0,0,0-19.05-9.51,8.94,8.94,0,0,0-4-.65,8.16,8.16,0,0,0-3.24,1.41,30.78,30.78,0,0,0-5.57,4.6c-1.52,1.6-2.92,3.4-4.9,4.37s-4.76.76-5.89-1.13c-1.31-2.19.32-4.93,2-6.86C740.68,784.87,746.7,773.91,757.29,782Z"/></g><path class="cls-5" d="M829.88,800.38c5-3.44,10.71-6.48,16.71-5.89,5.36.53,10,3.85,14.14,7.26a161.28,161.28,0,0,1,14.35,13.31c5.42,5.68,10.7,14,6.82,20.82-3.74,6.56-12.94,6.58-20.49,6.88-20,.77-39,9.36-55.24,21.08s-29.9,26.52-43.36,41.32c-5.32,5.84-11.71,12.18-19.6,11.86a8.08,8.08,0,0,1-5.28-1.91c-2.12-2-2.43-5.33-1.53-8.09s2.8-5,4.66-7.28Q764,872.26,787.3,845C800.44,829.63,813.08,812,829.88,800.38Z"/><path class="cls-7" d="M840.5,1073.67c-29.22-.71-58.89,1.84-88.09-.48-29.38-2.33-58.79-9.62-88-5.61-4.26.59-9.24,1.19-12.26-1.87a9.53,9.53,0,0,1-2.21-4.22c17.14-6.59,35.92-9.27,54.18-12.29,40.44-6.69,80.7-15.85,118.59-31.48s73.49-38,101-68.35c13.41-14.81,25.06-32.29,29.23-52a45.92,45.92,0,0,1,1.42,8.61c.76,11.17-2.12,22.28-5.8,32.86C929.33,994.07,888.07,1039.39,840.5,1073.67Z"/><path class="cls-1" d="M664.37,1050c.7,6,3.54,11.54,6.11,17-3.7.39-9.5,1.33-13.2,1.73a7.58,7.58,0,0,1-4-.29c-1.51-.68-2.39-2.25-3.07-3.77-4.32-9.62-5.49-20.06-5.6-30.61-.06-6.35-2-18.84,2.23-33.28,2.16-7.36,7.09-7.28,16.36-11-.36,10-2.16,20.85-1.64,30.92C662.07,1030.48,663.22,1040.25,664.37,1050Z"/><path class="cls-1" d="M49.43,705.52h61.18a0,0,0,0,1,0,0v58.22a0,0,0,0,1,0,0H49.43a8.31,8.31,0,0,1-8.31-8.31v-41.6a8.31,8.31,0,0,1,8.31-8.31Z" transform="translate(-430.12 196.66) rotate(-37.35)"/><path class="cls-1" d="M517.07,428.53c-4.73-5.73-9.59-11.38-14.45-17-5-7.17-10-14.37-15.17-21.43-4-5.52-6.44-12-13.67-11.1-6.09.79-15.83,10.83-20.87,14.36-13.73,9.62-27.56,19.32-39.18,31.41C404.65,434.19,397,445,387.94,454.4c-24.5,25.4-68,42.52-89.79,58.06-28.85,20.59-47.54,53.42-78.48,70.39-11.49,6.3-23.9,10.81-35.4,17.1-14.71,8-27.71,18.83-40.6,29.55-4.73,3.94-17,10.69-19.33,16.36-2.8,6.74,2.85,10.77,7.12,16.11,5.45,6.83,11.09,13.53,16.68,20.27,4.18,6.17,8.35,12.35,12.65,18.42,4,5.58,6.26,12.12,13.5,11.3,6.1-.69,16-10.58,21.08-14,13.88-9.41,27.86-18.9,39.66-30.81,9.22-9.31,17-20,26.24-29.26,25.11-25.26,62.58-33.69,90.23-56.36,20.67-16.94,47.45-54.82,78.57-72.5,11.4-6.48,23.73-11.18,35.14-17.63,14.59-8.26,27.42-19.25,40.14-30.17,4.67-4,16.82-10.95,19.08-16.65C527.13,437.76,521.42,433.81,517.07,428.53Z"/><rect class="cls-8" x="105.37" y="535.72" width="75.31" height="298.27" rx="22.34" transform="translate(-386.16 227.2) rotate(-37.35)"/><path class="cls-9" d="M56.89,563l-1.24.94a68.69,68.69,0,0,1,18.12,9.37C84,580.71,92,590.77,99.71,600.74q16.83,21.63,33.2,43.59c14.8,19.9,29.42,40.32,38.43,63.42,3.35,8.59,5.93,17.72,5.25,26.92s-5.06,18.5-13,23.21a21.88,21.88,0,0,1-10,3L184,800.67a32.17,32.17,0,0,0,45.11,6.06l8.69-6.63A32.17,32.17,0,0,0,243.9,755L102,569.05A32.19,32.19,0,0,0,56.89,563Z"/><rect class="cls-8" x="58.02" y="606.08" width="59.38" height="234.62" rx="17.59" transform="translate(-420.87 201.54) rotate(-37.35)"/><path class="cls-9" d="M20,627.52l-1,.74a54.06,54.06,0,0,1,14.26,7.36c8,5.83,14.31,13.74,20.41,21.58q13.25,17,26.12,34.29c11.64,15.65,23.14,31.71,30.22,49.89,2.63,6.76,4.65,14,4.11,21.19s-4,14.57-10.25,18.29A17.25,17.25,0,0,1,96,783.21l23.9,31.32a25.36,25.36,0,0,0,35.54,4.73L162.3,814a25.36,25.36,0,0,0,4.82-35.53L55.5,632.25A25.34,25.34,0,0,0,20,627.52Z"/><g class="cls-10"><path class="cls-4" d="M15,660.37c3,4.28,6.24,8.33,9.51,12.38l46.35,57.43a17.33,17.33,0,0,0,5,4.7c2,1.07,4.74,1.21,6.47-.3,3.09-2.7,1-7.75-1.45-11.06-15.45-21.25-37-38.65-46.58-63.12-1.81-4.62-3.21-9.52-6.27-13.42C17.34,633.4,7,648.8,15,660.37Z"/></g><g class="cls-10"><path class="cls-4" d="M49.76,607c11.38,17.71,24.48,34.24,37.56,50.74l55.42,69.93a13.06,13.06,0,0,0,4.31,4c1.78.85,4.21.7,5.4-.88,1.51-2,.34-4.81-1-6.94-3.91-6.38-8.75-12.13-13.48-17.94a697.24,697.24,0,0,1-60.29-86.58c-2.88-4.88-5.75-9.94-6.63-15.53-.59-3.72-.27-7.52-.66-11.26C69.43,583,59.34,571,49,578.19,39,585.08,44.78,599.23,49.76,607Z"/></g><path class="cls-1" d="M495.68,368.34h61.18a0,0,0,0,1,0,0v58.22a0,0,0,0,1,0,0H495.68a8.31,8.31,0,0,1-8.31-8.31v-41.6a8.31,8.31,0,0,1,8.31-8.31Z" transform="translate(1178.3 396.64) rotate(142.65)"/><rect class="cls-8" x="418.74" y="299.95" width="75.31" height="298.27" rx="22.34" transform="translate(1091.66 529.21) rotate(142.65)"/><path class="cls-9" d="M361.57,333.85l1.24-.94a69.09,69.09,0,0,0,4.25,19.94c4.46,11.83,12.06,22.16,19.63,32.27Q403.1,407.05,420,428.64c15.28,19.53,31.12,39,51,53.81,7.4,5.5,15.53,10.39,24.58,12.17s19.18,0,25.82-6.4a22,22,0,0,0,5.5-8.82l30.38,39.81a32.2,32.2,0,0,1-6.06,45.12L542.53,571a32.18,32.18,0,0,1-45.12-6.06L355.51,379A32.2,32.2,0,0,1,361.57,333.85Z"/><rect class="cls-8" x="478.46" y="288.59" width="59.38" height="234.62" rx="17.59" transform="translate(1158.36 420.3) rotate(142.65)"/><path class="cls-9" d="M433.56,315.26l1-.74a54.15,54.15,0,0,0,3.33,15.7c3.5,9.3,9.48,17.43,15.43,25.38q12.91,17.25,26.19,34.24c12,15.36,24.48,30.69,40.15,42.31,5.82,4.33,12.22,8.17,19.35,9.56s15.11,0,20.34-5.06a17.19,17.19,0,0,0,4.34-6.95L587.56,461a25.35,25.35,0,0,1-4.81,35.53l-6.85,5.22A25.34,25.34,0,0,1,540.36,497L428.74,350.79A25.36,25.36,0,0,1,433.56,315.26Z"/><g class="cls-10"><path class="cls-4" d="M466.56,319.14c3.34,4,6.39,8.22,9.43,12.44l43.16,59.86a17.1,17.1,0,0,1,3.22,6c.51,2.24-.07,4.89-2,6.16-3.42,2.27-7.73-1.11-10.29-4.31-16.41-20.51-27.51-45.91-48.58-61.59-4-3-8.34-5.6-11.3-9.59C439.92,314.28,457.52,308.34,466.56,319.14Z"/></g><g class="cls-10"><path class="cls-4" d="M405.89,338.59c14.08,15.65,26.57,32.64,39,49.61l52.82,71.91a13.19,13.19,0,0,1,2.72,5.21c.35,1.95-.43,4.25-2.27,5-2.31.93-4.73-.95-6.44-2.76-5.13-5.46-9.4-11.65-13.75-17.74a697.67,697.67,0,0,0-67.59-81c-3.95-4.07-8.08-8.17-13.24-10.5-3.43-1.54-7.18-2.23-10.68-3.6-8.92-3.48-17.82-16.38-8.19-24.46C387.59,322.47,399.72,331.73,405.89,338.59Z"/></g><path class="cls-1" d="M64.36,403.82h61.18a0,0,0,0,1,0,0V462a0,0,0,0,1,0,0H64.36A8.31,8.31,0,0,1,56,453.73v-41.6a8.31,8.31,0,0,1,8.31-8.31Z" transform="matrix(0.79, -0.61, 0.61, 0.79, -244.03, 143.85)"/><path class="cls-1" d="M532,126.83c-4.73-5.73-9.59-11.38-14.45-17-5-7.17-10-14.37-15.17-21.43-4-5.52-6.44-12-13.67-11.1-6.09.79-15.83,10.83-20.87,14.36C454.11,101.25,440.28,111,428.66,123c-9.08,9.45-16.69,20.23-25.79,29.66-24.5,25.4-68,42.52-89.79,58.06-28.85,20.59-47.54,53.42-78.48,70.39-11.49,6.3-23.9,10.81-35.4,17.09-14.71,8-27.71,18.84-40.6,29.56-4.73,3.94-17,10.69-19.33,16.36-2.8,6.74,2.85,10.77,7.12,16.11,5.45,6.83,11.09,13.53,16.68,20.27,4.18,6.17,8.35,12.35,12.65,18.42,3.95,5.58,6.26,12.12,13.5,11.3,6.1-.69,16-10.58,21.08-14,13.88-9.41,27.86-18.9,39.66-30.81,9.22-9.31,17-20,26.24-29.26,25.11-25.26,62.58-33.69,90.23-56.36C387.1,262.85,413.88,225,445,207.29c11.4-6.48,23.73-11.18,35.14-17.63,14.59-8.26,27.42-19.25,40.14-30.17,4.67-4,16.82-11,19.08-16.65C542.06,136.06,536.35,132.11,532,126.83Z"/><rect class="cls-8" x="120.3" y="234.02" width="75.31" height="298.27" rx="22.34" transform="translate(-200.07 174.39) rotate(-37.35)"/><path class="cls-9" d="M71.82,261.29l-1.24.94A68.69,68.69,0,0,1,88.7,271.6C98.93,279,106.89,289.07,114.64,299q16.83,21.63,33.2,43.59c14.8,19.9,29.42,40.32,38.43,63.42,3.35,8.59,5.93,17.72,5.25,26.92s-5.06,18.5-13,23.21a21.88,21.88,0,0,1-10,3L199,499A32.17,32.17,0,0,0,244.08,505l8.69-6.63a32.18,32.18,0,0,0,6.06-45.12L116.94,267.35A32.19,32.19,0,0,0,71.82,261.29Z"/><rect class="cls-8" x="72.95" y="304.38" width="59.38" height="234.62" rx="17.59" transform="translate(-234.78 148.73) rotate(-37.35)"/><path class="cls-9" d="M34.89,325.82l-1,.74a53.91,53.91,0,0,1,14.26,7.36c8,5.83,14.31,13.73,20.41,21.58q13.25,17,26.12,34.29c11.64,15.65,23.14,31.71,30.22,49.89,2.63,6.76,4.65,13.95,4.11,21.19s-4,14.57-10.25,18.29a17.25,17.25,0,0,1-7.85,2.35l23.9,31.32a25.36,25.36,0,0,0,35.54,4.73l6.85-5.23a25.36,25.36,0,0,0,4.82-35.53L70.43,330.55A25.34,25.34,0,0,0,34.89,325.82Z"/><g class="cls-10"><path class="cls-4" d="M29.93,358.67c3,4.28,6.24,8.33,9.51,12.38l46.35,57.43a17.33,17.33,0,0,0,5,4.7c2,1.07,4.74,1.21,6.47-.3,3.09-2.7,1-7.75-1.45-11.07-15.45-21.24-37-38.64-46.58-63.11-1.81-4.62-3.21-9.52-6.27-13.42C32.27,331.7,21.89,347.1,29.93,358.67Z"/></g><g class="cls-10"><path class="cls-4" d="M64.69,305.28C76.07,323,89.17,339.53,102.25,356L157.67,426a13.06,13.06,0,0,0,4.31,4c1.78.85,4.21.7,5.4-.88,1.51-2,.34-4.81-1-6.94-3.91-6.38-8.75-12.14-13.48-17.94a697.24,697.24,0,0,1-60.29-86.58c-2.88-4.88-5.75-9.94-6.63-15.54-.59-3.71-.27-7.51-.66-11.25-1-9.52-11.09-21.5-21.43-14.35C54,283.38,59.71,297.53,64.69,305.28Z"/></g><path class="cls-1" d="M510.61,66.64H571.8a0,0,0,0,1,0,0v58.22a0,0,0,0,1,0,0H510.61a8.31,8.31,0,0,1-8.31-8.31V74.94a8.31,8.31,0,0,1,8.31-8.31Z" transform="translate(1022.07 -153.95) rotate(142.65)"/><rect class="cls-8" x="433.67" y="-1.75" width="75.31" height="298.27" rx="22.34" transform="translate(935.43 -21.38) rotate(142.65)"/><path class="cls-9" d="M376.5,32.15l1.24-.94A69.09,69.09,0,0,0,382,51.15C386.45,63,394.05,73.3,401.62,83.42Q418,105.35,434.9,126.94c15.28,19.53,31.12,39,51,53.81,7.4,5.5,15.53,10.39,24.58,12.17s19.18,0,25.82-6.4a22,22,0,0,0,5.5-8.82l30.38,39.81a32.2,32.2,0,0,1-6.06,45.12l-8.69,6.63a32.19,32.19,0,0,1-45.12-6.06L370.44,77.27A32.2,32.2,0,0,1,376.5,32.15Z"/><rect class="cls-8" x="493.39" y="-13.11" width="59.38" height="234.62" rx="17.59" transform="matrix(-0.79, 0.61, -0.61, -0.79, 1002.13, -130.3)"/><path class="cls-9" d="M448.49,13.56l1-.74a54.15,54.15,0,0,0,3.33,15.7c3.5,9.3,9.48,17.43,15.43,25.38q12.91,17.25,26.19,34.24c12,15.36,24.48,30.69,40.15,42.31,5.82,4.32,12.22,8.17,19.35,9.56S569,140,574.25,135a17.19,17.19,0,0,0,4.34-6.95l23.9,31.32a25.34,25.34,0,0,1-4.81,35.52l-6.85,5.23a25.34,25.34,0,0,1-35.54-4.73L443.67,49.09A25.36,25.36,0,0,1,448.49,13.56Z"/><g class="cls-10"><path class="cls-4" d="M481.49,17.44c3.34,4,6.39,8.22,9.43,12.44l43.16,59.86a17.1,17.1,0,0,1,3.22,6c.51,2.24-.07,4.89-2,6.16-3.42,2.27-7.73-1.11-10.29-4.31C508.61,77.11,497.51,51.71,476.44,36c-4-3-8.34-5.61-11.3-9.59C454.85,12.58,472.45,6.63,481.49,17.44Z"/></g><g class="cls-10"><path class="cls-4" d="M420.82,36.89c14.08,15.64,26.57,32.64,39,49.61l52.82,71.91a13.19,13.19,0,0,1,2.72,5.21c.35,1.95-.43,4.25-2.27,5-2.31.93-4.73-1-6.44-2.76-5.13-5.46-9.4-11.65-13.75-17.74a697.67,697.67,0,0,0-67.59-81c-4-4.07-8.08-8.17-13.24-10.5-3.43-1.54-7.18-2.24-10.68-3.6-8.92-3.48-17.82-16.38-8.19-24.46C402.52,20.77,414.65,30,420.82,36.89Z"/></g></g></g></svg>