<svg xmlns="http://www.w3.org/2000/svg" viewBox="0 0 499.81 455.01"><defs><style>.cls-1{fill:#4893a8;}.cls-2{font-size:31.87px;letter-spacing:0em;}.cls-2,.cls-4{fill:#ffece0;}.cls-11,.cls-2,.cls-5{font-family:LifeSavers-Regular, LifeSavers Regular;}.cls-3{letter-spacing:0em;}.cls-11,.cls-5{font-size:21px;}.cls-6{letter-spacing:0.01em;}.cls-7{fill:#9c563d;}.cls-8{fill:#d1bb78;}.cls-9{fill:#f2ba9a;}.cls-10{fill:#1a191f;}.cls-11{letter-spacing:-0.03em;}.cls-12{letter-spacing:0em;}.cls-13{fill:#357587;}.cls-14{fill:#a89048;}.cls-15{letter-spacing:0em;}.cls-16{fill:#245b6b;}.cls-17{letter-spacing:-0.01em;}.cls-18{letter-spacing:-0.01em;}.cls-19{letter-spacing:-0.01em;}.cls-20{letter-spacing:0em;}.cls-21{fill:#c99577;}.cls-22{fill:#ad654a;}.cls-23{fill:none;stroke:#9c563d;stroke-linecap:round;stroke-miterlimit:10;stroke-width:3px;}</style></defs><g id="Calque_2" data-name="Calque 2"><g id="objects"><path class="cls-1" d="M306.39,67.26C265.63,70.33,201.6,70,183.91,70S153.53,68,155.45,46.88,163,14.19,171,6.88,208.52-.81,239.67.73s89.78,5.65,100.18,6.73c12.88,1.35,13.37,13,10.95,25-5.19,25.76-5.57,33.26-25,33.26-10.38,18.07-14.61,21-17.69,21S307,71.68,306.39,67.26Z"/><text class="cls-2" transform="translate(190.96 47.59)">A<tspan class="cls-3" x="19.41" y="0">bout me</tspan></text><path class="cls-4" d="M5.2,154.09C-11,110.46,11.93,65.41,56.83,54.19s89.54,42.15,86.8,80.81-37.79,56.37-73,56.13S13.41,176.19,5.2,154.09Z"/><text class="cls-5" transform="translate(40.27 172.59)"><tspan class="cls-6">G</tspan><tspan x="13.73" y="0">amer</tspan></text><path class="cls-7" d="M45.68,107.41C33,109.53,23.45,114.5,26.13,129.25S40.89,147.07,49.32,144s10.34-13.41,12.84-13.6,19.16-2.49,19.92-2.49,5,11.11,18.78,8.62,15.52-16.48,10.73-25.87-10.15-10.92-20.69-9.38S51.43,106.45,45.68,107.41Z"/><path class="cls-8" d="M39.86,115.67c-.45,3.09,1.43,7.19.86,7.19s-6.92-.12-6.92,1.79-.39,4.79,2.3,4.79,5.28-.94,5.55.58c.94,5.27-.29,6.44,2.59,6.63s3.59-.72,3.16-3.57c0-1.34-.34-4.43.43-4.62s5.75-.41,5.82-1.44c.15-2.11.65-5.44-2.61-5s-4.93.55-4.93-.41,0-6.3-.62-6.87S40.05,114.33,39.86,115.67Z"/><path class="cls-9" d="M61.05,118c.36,1.73.72,2.73,2.81,2.44,2.66-.36,2.47-1.34,2.29-2.87-.28-2.59-1.79-2.49-2.94-2.3S60.56,115.68,61.05,118Z"/><path class="cls-9" d="M72,116.39c.36,1.72.72,2.73,2.81,2.44,2.66-.37,2.47-1.34,2.3-2.87-.29-2.59-1.8-2.49-3-2.3S71.48,114,72,116.39Z"/><path class="cls-8" d="M87.83,116.8c-2.3.09-5.36,5.17-.38,5.74S92.43,116.6,87.83,116.8Z"/><path class="cls-4" d="M94.54,108c-2.83.64-5.18,5.75.77,6.13S98.75,107,94.54,108Z"/><path class="cls-8" d="M99.52,119.09c.76,4.18,7.28,2.3,6.71-1S98.75,114.88,99.52,119.09Z"/><path class="cls-10" d="M71.16,103.82c-1.54-8.15-11.81-10.25-18-13.77-5.2-3-8-7.45-9.09-13.34C43.5,73.42,44,68.93,46,66.37c.4-.5-.3-1.21-.71-.71-4.9,6.15-2.17,16.82,2.87,21.93,3.28,3.32,7.88,5.09,12,7s9,4.41,10,9.48c.12.63,1.08.36,1-.27Z"/><path class="cls-4" d="M94,128.1c1,3.12,6.9,3.26,6.14-1.15S92.81,124.46,94,128.1Z"/><path class="cls-10" d="M28.32,121.12c-.75,6.06,1.84,11.94,6,16.29a18.44,18.44,0,0,0,7.53,4.76c3.28,1.11,6.44-.22,9.27-1.86a.5.5,0,0,0-.51-.87c-3,1.73-5.76,2.7-9.12,1.56a17.59,17.59,0,0,1-6.94-4.79,19.08,19.08,0,0,1-5.19-15.09c.08-.63-.92-.63-1,0Z"/><path class="cls-10" d="M83.89,126.38c2,3.47,5.16,5.48,8.78,7,3.94,1.7,8.22.7,12-.81.59-.24.33-1.21-.27-1-4,1.61-8,2.33-12.11.55a15.42,15.42,0,0,1-7.58-6.32.5.5,0,0,0-.86.51Z"/><path class="cls-4" d="M7.21,316.86c-6.3-19.57.8-73.28,45.73-85.67,54.64-15.07,86.42,37.56,83.66,76.5s-34.67,53.13-70.1,52.88S14.5,339.47,7.21,316.86Z"/><text class="cls-11" transform="translate(57.69 340.33)">F<tspan class="cls-12" x="9.68" y="0">it</tspan></text><path class="cls-13" d="M23.25,292.77c-.46-1.37,1.16-1.92,2.28-2.19,32.49-7.78,80.17-17.09,84.55-17.94,1.83-.18,3.84,6.41,2,7.14S31,297.26,28.83,298.17c-1.56.64-3.66,1-4.21-1C24.11,295.3,23.64,294,23.25,292.77Z"/><path class="cls-14" d="M25.63,276.21c1.36,5.2,7,24.89,8.05,28.46s1.46,5.67,3.38,5.58,5.13-.73,5.22-1.92-8.6-33.76-9.15-34.5-1.83-1.28-3.94-.46S25.17,274.47,25.63,276.21Z"/><path class="cls-8" d="M30.48,268.62c1,3.84,10,37.33,11.52,41.86s2.61,5.63,5.49,4.53,3.16-2.2,1.65-7.14-11-39.25-11.39-40.49S37.06,264.91,34,266,30.06,267.38,30.48,268.62Z"/><path class="cls-14" d="M103.79,260.84c1.34,5.2,6,25.12,6.82,28.77s1.49,5.67-.24,6.53-4.83,1.85-5.49.86-8.92-33.68-8.8-34.59,1-2,3.22-2.31S103.35,259.09,103.79,260.84Z"/><path class="cls-8" d="M95.86,256.56c1,3.83,9.42,37.49,10.31,42.18s.46,6.19-2.59,6.63-3.83-.38-4.92-5.43S89.15,260.31,88.91,259s-.61-2.5,2.56-3S95.62,255.29,95.86,256.56Z"/><path class="cls-10" d="M30.82,272.29c0,1.8.9,3.32,1.52,5,.93,2.47,1.61,5,2.39,7.55,1.5,4.82,1.75,10.07,3.61,14.78.24.59,1.2.34,1-.26-1.74-4.4-2.18-9.35-3.36-13.92-.58-2.28-1.32-4.57-2.07-6.81-.67-2-2-4.16-2-6.31a.5.5,0,0,0-1,0Z"/><path class="cls-10" d="M98,267.63a19,19,0,0,0,1.52,6c1.13,2.9,1.54,6.08,2.23,9.11s1.42,6,2.07,9a33.72,33.72,0,0,0,1.58,6.37c.26.59,1.12.08.86-.5a32,32,0,0,1-1.47-6.13c-.58-2.71-1.25-5.4-1.88-8.09s-1.12-5.5-1.86-8.22c-.69-2.52-1.91-4.81-2.05-7.47,0-.65-1-.65-1,0Z"/><path class="cls-4" d="M141.3,410.58c-6.41-19.89,3.31-67.91,49.27-79.4s81.19,30.64,78.38,70.21-31.4,53.87-67.4,53.61S148.7,433.56,141.3,410.58Z"/><text class="cls-5" transform="translate(176.17 429.95)"><tspan class="cls-15">R</tspan><tspan x="11.38" y="0">eader</tspan></text><path class="cls-13" d="M184,349c-2.17-.17-5.83-.17-4.83,4s7.33,34.83,8.5,40.17,2.66,12.66,6.66,12.5,39.67-8.84,42-9.5,2.34-2,1.17-6.17-12.67-43.33-13.33-45.33S222,342,219.32,343c-.33-2-1-3-3.83-2.17s-15,4.34-20,5.17S184.49,347,184,349Z"/><path class="cls-16" d="M235.49,393.21c-.88.12-1.5-2.88-2.75-3.88s-1.88-.25-4.75.63-24.13,5.75-29.63,7c-5.23,1.19-8.19,2.38-8.36,4.64,1,2.39,2.37,4.11,4.32,4,4-.17,39.67-8.84,42-9.5,1.36-.39,1.92-1,1.93-2.27C237.79,392.85,236.19,393.11,235.49,393.21Z"/><path class="cls-9" d="M200.74,402.71c4.61-.82,28.62-6.5,31.75-7.75s4-1,2.87-4.88S222,344.33,222,344.33h-1.63s10.5,42.25,11.25,44.88-.25,2.75-4.62,3.87-22.5,5-26.63,5.75-7.5,1.5-6.62,3.5S198.61,403.08,200.74,402.71Z"/><path class="cls-10" d="M183.51,349.09C185,357,187,364.76,189.05,372.5c1.39,5.26,2.9,10.49,4.16,15.79.68,2.88,1,6.23,2.35,8.92.28.58,1.14.07.86-.5-1.37-2.81-1.71-6.41-2.42-9.42-1.2-5.06-2.65-10-4-15.06-2.06-7.73-4-15.54-5.54-23.4-.12-.64-1.08-.37-1,.26Z"/><path class="cls-7" d="M201.11,399.83c.13,2.75,1.38,7.38,2.13,8.38,1.5.75,1.12-2.63,1.62-2.75s1.5,2.87,2.38,2.62c1.12-1-1.38-9.25-1.38-9.25A21.58,21.58,0,0,0,201.11,399.83Z"/><path class="cls-10" d="M202.51,356.11c-2.76,2.42-2.83,5.66-3.5,9a5.39,5.39,0,0,1-1.9,3.38c-2.45-.1-3.35-1-2.68-2.7a6,6,0,0,1,1.29-2.23,8.4,8.4,0,0,1,7.74-3c3.48.65,4.51,5.33,1.39,7.07-1.31.79-2.13.09-2.48-2.09a5.19,5.19,0,0,1,1-1.31,10.33,10.33,0,0,1,2.73-1.89,18.83,18.83,0,0,1,4.14-1.87c3.9-1,.49,5.25-.2,6.31l.91.39a11.82,11.82,0,0,1,1.53-3.49c.45-.74,1.34-2.26,2.27-.89a2.77,2.77,0,0,0,1.16,1.14c1.37.63,3.41-1.91,2.92-3.15-.24-.6-1.21-.34-1,.26.64,1.6-1.82,1.87-2.58.74a1.81,1.81,0,0,0-.69-.57,1.62,1.62,0,0,0-1.65.38,9.64,9.64,0,0,0-3,5.31.5.5,0,0,0,.91.39c1.19-1.81,3.93-6,1.17-7.69-2-1.25-5.68,1.39-7.37,2.37-2.1,1.22-5.15,4.22-2.74,6.58,2.14,2.09,5.45-1.37,5.81-3.34.66-3.64-3.2-5.92-6.3-5.77-3.36.16-7.92,3.28-8.2,6.89-.22,2.86,2.57,5.06,4.92,2.55,3.23-3.44,1.27-8.84,5-12.12.48-.42-.23-1.13-.71-.7Z"/><path class="cls-4" d="M336.39,379.82c-17.23-53.95,14.05-114.2,66.1-123.28,72.67-12.67,98.15,39.84,95.33,108.67-2.09,51-48.82,63.92-88.55,63.59S345.72,409,336.39,379.82Z"/><text class="cls-5" transform="translate(358.55 398.77)">Guitar pl<tspan class="cls-17" x="75.35" y="0">a</tspan><tspan class="cls-18" x="85.3" y="0">y</tspan><tspan x="94.98" y="0">er</tspan></text><path class="cls-13" d="M434.61,294c1.5-1.25,4-3.13,3.38-4.13s-2.63-1.75.75-3.37,13.37-7.13,17.5-8.38,7.75-1.62,9.37,1.5-.37,6.88-3.5,6.38-3.12-1.25-4.87,2.12-3.88,8.75-9.63,7.75-7.25-.5-9.37,1.75S434.61,294,434.61,294Z"/><path class="cls-16" d="M440.64,281.35c1.52,1.78,1.93,4.21,2.92,6.28.28.58,1.14.07.86-.51-1-2.17-1.47-4.61-3.08-6.47-.42-.49-1.12.22-.7.7Z"/><path class="cls-16" d="M447,278.73c1.69,1.45,1.34,4.18,2.75,5.87.41.5,1.12-.21.71-.7-1.42-1.71-1-4.36-2.75-5.88-.49-.42-1.2.29-.71.71Z"/><path class="cls-16" d="M454.11,274.87a16.62,16.62,0,0,0,.9,3.39c.24.86,1,1.82,1,2.72a.5.5,0,0,0,1,0v-.23a.5.5,0,0,0-1,0V281a.5.5,0,0,0,1,0,6.75,6.75,0,0,0-.72-2.24,14.64,14.64,0,0,1-1.16-3.87c0-.64-1-.64-1,0Z"/><path class="cls-16" d="M439.61,277.25c-3,1.18-1.12,4.75,1.5,3.87A2.08,2.08,0,1,0,439.61,277.25Z"/><path class="cls-16" d="M445.86,275.25a1.88,1.88,0,1,0,1.88,3.25C450.36,277.12,448.86,274,445.86,275.25Z"/><path class="cls-16" d="M453.11,271.75a2.07,2.07,0,1,0,1.75,3.75C457.74,274.37,456.24,270.37,453.11,271.75Z"/><path class="cls-7" d="M409.82,326.21c-3.43-3.44-7.16-7.17-4.66-13s2-13-6.17-9.33-10.17,9.33-13,16.16-5.33,9-13.83,11.5-18.34,4.83-16.67,21S377,382.87,393,376.37s5.67-16.16,17.83-24.49,18.5-10.17,17-15.5-9.16,1-13.33-1S414.16,330.54,409.82,326.21Z"/><path class="cls-16" d="M396.11,329.62c2.88-2.37,30.63-29.75,37.13-35.5,1.37-1.37,1.62-1.5,3.12.13s2.63,2.5,3,3.12.38,1.25-1.12,2.88S426.11,314,421.49,318.87s-12.13,12.63-14.13,14.88-2.37,4-4.12,2.5-5-3.63-5.63-4.13S394.74,330.87,396.11,329.62Z"/><path class="cls-9" d="M368.66,347.29c-1.17-5.33,2.66-6.17,9.5-9.33s8.5-4.17,9-9.83,3.16-8.84,6.83-8,3.17,6,8.83,10.83,13.84,10.5,6,13.5-9.5,3.33-11.16,9.5-2.09,12.25-6.92,13.91-9.42-5.58-10.58-8.24S370.49,353,368.66,347.29Z"/><path class="cls-14" d="M390.86,358.5c2.33-1.82-.5-4.63-3.25-3.38S386.86,361.62,390.86,358.5Z"/><path class="cls-14" d="M391.24,363.5c1.21-1.34-1.63-3.43-2.88-1.5C387,364.12,389,366,391.24,363.5Z"/><path class="cls-16" d="M377.24,345.31a40.75,40.75,0,0,1,5.29,5c.76.79,2,2.52,3.21,2.59.64,0,.64-1,0-1-.43,0-1.18-1-1.48-1.25-.56-.55-1.1-1.12-1.64-1.69a37.07,37.07,0,0,0-4.88-4.49c-.52-.38-1,.49-.5.87Z"/><path class="cls-16" d="M382.89,340.35a45.12,45.12,0,0,1,4.2,4c1.29,1.33,2.72,2.48,4.05,3.77.46.45,1.17-.25.7-.7-1.18-1.16-2.46-2.19-3.63-3.36a51.78,51.78,0,0,0-4.62-4.39c-.5-.4-1.21.3-.7.7Z"/><path class="cls-16" d="M388.36,336.56c2.65,1.89,4.57,4.57,7,6.73.47.42,1.18-.28.7-.71-2.48-2.22-4.46-4.94-7.18-6.89-.53-.37-1,.5-.51.87Z"/><path class="cls-16" d="M393.51,332c2.36,2.14,4.71,4.3,7.1,6.41.48.42,1.19-.28.71-.71-2.4-2.1-4.74-4.27-7.1-6.41-.48-.43-1.19.27-.71.71Z"/><path class="cls-13" d="M410.49,319.43a20.7,20.7,0,0,1,2.16,1.81,5.4,5.4,0,0,0,2.08,1.37c.63.13.9-.83.27-1a5.35,5.35,0,0,1-2-1.38,18.4,18.4,0,0,0-2.05-1.69c-.54-.36-1,.51-.5.86Z"/><path class="cls-13" d="M417.39,312.35a18.8,18.8,0,0,0,3.35,3.08c.55.34,1.05-.52.5-.86a19,19,0,0,1-3.15-2.92.5.5,0,0,0-.7.7Z"/><path class="cls-13" d="M405,324.85a19.15,19.15,0,0,0,3.35,3.08c.55.34,1.05-.52.51-.86a18.56,18.56,0,0,1-3.15-2.92.5.5,0,0,0-.71.7Z"/><path class="cls-13" d="M424,305.75c.67,0,1.16.64,1.57,1.11a7.86,7.86,0,0,0,1.43,1.45c.53.36,1-.51.5-.87-1.25-.84-1.78-2.6-3.5-2.69-.64,0-.64,1,0,1Z"/><path class="cls-13" d="M431,299.31a12.74,12.74,0,0,1,2.77,2.67c.45.46,1.16-.25.71-.71a14,14,0,0,0-3-2.83c-.57-.3-1.07.56-.5.87Z"/><path class="cls-16" d="M373.32,349.75a105.61,105.61,0,0,1,8,7.38c1.34,1.5,1.63,2.24-.54,4.41s-3.89.2-7.08-2.79a51.67,51.67,0,0,1-4.92-5.21C367.57,352.25,370.82,347.58,373.32,349.75Z"/><path class="cls-10" d="M366.47,366.48c7.82,6.52,17.76,11.65,27.64,6.34,4.23-2.27,6.48-6,7.77-10.51a27,27,0,0,1,2.81-7.32,24.87,24.87,0,0,1,6.22-6.1c.51-.38,0-1.25-.51-.86-3.06,2.32-5.81,4.8-7.6,8.25-2.2,4.24-2.06,9.06-5.43,12.78-4,4.44-10.37,5.79-16,4.62-5.34-1.09-10.06-4.49-14.15-7.91-.5-.41-1.21.3-.71.71Z"/><path class="cls-10" d="M376.64,360.65c1.8,1.43,4.1-.3,4.18-2.36,0-.64-1-.64-1,0,0,1.11-1.37,2.53-2.48,1.65-.5-.4-1.21.3-.7.71Z"/><path class="cls-10" d="M439.74,294.56c3.68-1.85,8.36,1.37,11.69-1.44a13.15,13.15,0,0,0,2.7-3.53,11.36,11.36,0,0,1,6.49-5.32c.6-.22.34-1.19-.26-1a16.51,16.51,0,0,0-4.86,2.6c-1.4,1.14-2.17,3.13-3.12,4.63-3.17,5-8.71.93-13.14,3.15-.58.29-.07,1.15.5.87Z"/><path class="cls-4" d="M370.65,148.71c-4.25-21.33,2.16-75.29,48.45-87.28s87.06,34,79.89,90.94c-4.33,34.39-31.39,43-67.65,42.71S376.39,177.49,370.65,148.71Z"/><text class="cls-5" transform="translate(394.48 167.85)"><tspan class="cls-15">D</tspan><tspan x="14.07" y="0">og l</tspan><tspan class="cls-19" x="46.75" y="0">o</tspan><tspan class="cls-18" x="58.13" y="0">v</tspan><tspan class="cls-20" x="68.02" y="0">er</tspan></text><path class="cls-7" d="M423.66,100.09c-4.08-1-5.82-5-11.83-7s-13.76,4.65-16.48,13.77-.77,8.33-3.1,16.08,1.55,8.92,8.53,3.3,11.44-12.4,12-18c7,1.17,9.5.58,9.5.58Z"/><path class="cls-10" d="M412.39,102.9c0,2.37.34,4.81-.7,7-.28.58.58,1.09.86.5,1.13-2.4.87-4.94.84-7.52a.5.5,0,0,0-1,0Z"/><path class="cls-7" d="M445.07,99.9c4.08-1,5.82-5,11.83-7s13.76,4.65,16.48,13.76.77,8.34,3.1,16.09-1.55,8.92-8.53,3.3-11.44-12.41-12-18c-7,1.16-9.5.58-9.5.58Z"/><path class="cls-10" d="M455.33,102.71c0,2.58-.28,5.12.85,7.52.27.58,1.13.07.86-.51-1-2.21-.73-4.65-.71-7a.5.5,0,0,0-1,0Z"/><path class="cls-7" d="M433.54,97.65c-8.27,1-18.22,2.71-20.35,20.37s11,23.6,24,22.88,19.58-13.15,18.42-22.34S449.82,95.67,433.54,97.65Z"/><path class="cls-9" d="M451,133.87c.1-3.71-2.41-5.79-5.05-8.11-3.3-2.88-7.95-5.94-6.59-13.15,1.2-6.4,2.86-10.81,1.86-14.62a21.5,21.5,0,0,0-7.68-.34,48.46,48.46,0,0,0-5.54.92c.54,5.36,3.22,9.73,3.22,14.94,0,5.95-1.36,6.31-7,11-4.29,3.58-7,6.84-5.36,11.31,4.68,4,11.54,5.47,18.34,5.09A18.73,18.73,0,0,0,451,133.87Z"/><path class="cls-10" d="M424.51,119.87c-1.11-.36-.05-1.94.69-2.17a.38.38,0,0,1,.42.1A1.48,1.48,0,0,1,426,119c-.17,1-2,.88-1.82-.1.12-.81,1.05-.7,1.3,0,.11.3.13,1.44-.43,1.12a.63.63,0,0,1,.09-1.2c.17-.07.27-.1.32,0a1.6,1.6,0,0,1,0,.58c0,.07-.08.3,0,.27s0,0-.07,0a.74.74,0,0,1-.25-.2c-.07-.1-.08-.26-.1-.14,0-.09,0,0,0,0a.56.56,0,0,1,.26-.07c.21,0,.5.47.16.4s-.46-.45-.52-.69a.75.75,0,0,1,.07-.34s-.1,0-.06,0a1.55,1.55,0,0,1,.7,1,.25.25,0,0,1,0,.18c.05-.09,0,0-.18,0a1.2,1.2,0,0,1-.72-.19c-.33-.27.49-.87.67-1,.57-.31.06-1.17-.5-.86a2,2,0,0,0-1.18,2c.19.85,1.41,1.08,2.14.93,1.42-.29.61-2.14-.09-2.72a1.06,1.06,0,0,0-1.48-.08,1.71,1.71,0,0,0,.19,2.26c.71.83,2.29.5,2.12-.74a1.39,1.39,0,0,0-2.08-1c-1.24.71.25,2.61,1.38,2.1.7-.31.71-1.39.56-2a1.16,1.16,0,0,0-1.62-.72,1.64,1.64,0,0,0,.44,3.22c.83,0,1.21-.85,1.29-1.53a2.1,2.1,0,0,0-1-2.07c-1.66-.9-3.08,1.48-1.82,2.69a2.07,2.07,0,0,0,2.78,0,2.15,2.15,0,0,0,.12-2.67c-1.53-2.61-5.61,2.35-2.34,3.4.61.2.88-.77.26-1Z"/><path class="cls-10" d="M445.13,120.54c1.58-.51,1.37-2.16.53-3.24a2.25,2.25,0,0,0-1.59-.91c-.75-.06-1.23.58-1.49,1.19a1.94,1.94,0,0,0,1,2.64,2,2,0,0,0,2.55-1,1.71,1.71,0,0,0-.7-2,1.66,1.66,0,0,0-2.24.64,2.28,2.28,0,0,0,0,2.25,1.25,1.25,0,0,0,1.92.33,1.58,1.58,0,0,0,.52-2.09,1.76,1.76,0,0,0-1.74-.89c-1.44.29-1.17,3.3.44,2.88a1.56,1.56,0,0,0,1.09-1.17A1.1,1.1,0,0,0,444,118c-.87.08-1.7,1.36-.92,2.06s2,0,2.29-.89a1.37,1.37,0,0,0-.62-1.75,1.3,1.3,0,0,0-1.33.51c-.65.69-1.14,2.35.25,2.54.77.11,1.83-.17,2-1a2,2,0,0,0-1.2-2c-.56-.3-1.07.56-.5.87a1.37,1.37,0,0,1,.71.77c.11.34-.55.38-.77.39a.36.36,0,0,1-.21,0c.08,0,0,0,0,0a.93.93,0,0,1,.16-.56,1.62,1.62,0,0,1,.37-.46.49.49,0,0,1,.19-.11s-.1,0-.07,0,0,.52-.11.75-.37.43-.5.25.24-.39.37-.37.22.1.18,0,0-.1,0,0a.77.77,0,0,1-.31.31c-.09,0-.13,0,0,0s0,0-.06-.15-.07-.76,0-.8c.36-.15.89.41.79.81-.06.19-.39.54-.61.5s-.28-.44-.29-.62a1.08,1.08,0,0,1,.52-1.1.63.63,0,0,1,.85.58c0,.6-.69.83-1.17.73-.81-.18-.73-1-.43-1.62s1-.18,1.36.31.65,1.3-.1,1.54-.36,1.17.26,1Z"/><path class="cls-10" d="M427.87,130.29c.92,1.44,3,3.35,4.85,2.51,1.7-.76,2.2-3.22,2.19-4.89l-.93.25c1,1.76,1.58,3.63,3.71,4.24s4-1.8,4.81-3.46c.29-.58-.57-1.08-.86-.51-.85,1.67-2.56,4.3-4.91,2.39-.9-.73-1.31-2.2-1.89-3.17a.5.5,0,0,0-.93.26,7.63,7.63,0,0,1-.44,2.46c-.86,2.63-3.76.95-4.73-.58-.35-.54-1.21,0-.87.5Z"/><path class="cls-7" d="M436.89,123.31c-1.17,0-7-.31-5.81,2,.32.63,1.1,1,1.65,1.5s.94,1.1,1.65,1.1c1.18.15,3-1.58,3.61-2.52s.24-2.43-1.1-2"/><path class="cls-7" d="M436.89,122.81a15.2,15.2,0,0,0-5.16.46c-1.75.63-1.5,2.33-.16,3.32,1,.75,1.72,1.83,3.07,1.86,1.1,0,2.2-1,2.92-1.73s1.44-1.56,1.23-2.55a1.56,1.56,0,0,0-2-1.26c-.63.11-.36,1.08.27,1,.78.37,1,.8.53,1.31a5.18,5.18,0,0,1-.71.84,5,5,0,0,1-2.06,1.4c-.73.23-3.87-2.25-3.2-2.94s2.12-.61,2.93-.66,1.58,0,2.37,0a.5.5,0,0,0,0-1Z"/><path class="cls-4" d="M188.11,296.61c-23.88-18-54.82-71.08-32.72-127.35S220,80.22,281.76,94.8,373,191.16,353.4,240.91,313.48,313,261.2,317.78C223.46,321.2,188.11,296.61,188.11,296.61Z"/><path class="cls-14" d="M234.07,230.29c4-2.17,9.25-3.33,24.75-4.16s19.17,1.08,21.92,5.58c-4.5,11.33-12.5,12.66-14.83,12.91S228.24,244.13,234.07,230.29Z"/><path class="cls-14" d="M328.53,286.88c-.89-30.05-9-39.32-23.46-44.51-16-5.75-32-9.25-50.75-8.25s-26,4.5-46.5,13c-19.15,7.95-21.08,28.26-21,48.42.18.17.39.36.63.56l.66.51s35.35,24.59,73.09,21.17C293.27,314.87,313.31,305.3,328.53,286.88Z"/><path class="cls-9" d="M272.44,245.51c0,5-16.33,11.28-23.87,11.28-10.55,0-8.53-8.36-8.53-13.35l.16-32.59a9,9,0,0,1,9-9h14.67a9,9,0,0,1,9,9Z"/><path class="cls-21" d="M263.91,201.81H249.24a9,9,0,0,0-9,9l-.1,19.53a33.32,33.32,0,0,0,32.67-7.09l.19-12.44A9,9,0,0,0,263.91,201.81Z"/><path class="cls-9" d="M247,130c-10.82.34-30.29,9.65-29.56,30s1.76,19.68,1.33,31,7.42,34.54,30,34.65,29.59-22.57,29.69-31.61c13.35-.75,15.65-8.2,15.63-14.24S279.6,126.42,247,130Z"/><path class="cls-22" d="M278.66,181.79l-4.34-2c-1,6.33-3.37,15-10.37,18s-10.13-5.58-17.38-5.88c-11.49-.46-13.16-.49-16.12,5.63-1.88,3.87-9.51,2.46-11.65-6.55v0c0,.44,0,.9,0,1.38l-.13-.39c-.84,7,1.33,21.67,6.16,26.33,4.57,4.41,15.52,9.4,28.66,7a26.91,26.91,0,0,0,6.7-1.87c9.87-3.77,15.63-11.3,17.43-22.82a30.68,30.68,0,0,0,.91-6.59A112,112,0,0,0,278.66,181.79Z"/><path class="cls-23" d="M262.09,166.83c-4.31-3-8.45-3.16-13.22-1.41"/><path class="cls-23" d="M221,168.13c2.55-2.43,5.48-3.29,9.88-2.56"/><path class="cls-10" d="M227.51,179.91a3.08,3.08,0,1,0,1.79-4A3.09,3.09,0,0,0,227.51,179.91Z"/><path class="cls-10" d="M253.26,179a3.08,3.08,0,1,0,1.79-4A3.08,3.08,0,0,0,253.26,179Z"/><path class="cls-7" d="M227.16,145.62c-2.84,5.84,5.16,10.5,15.83,3.17.5,5.5,4.17,7.83,24.83,2.83-.66,11.17,6.87,12,6.38,16.57-1.5,13.83-.49,15.25,4.5,15.25.19-13.38,10.31-14.63,14.37-8.94,5-20.5,2.46-37.71-11.91-38.21-7.25-17.62-24-26-35.34-26.17-17.94-.26-17.33,12.17-12.83,15.34-8.92-1.38-24,.66-25,12.33C207.32,145.79,215.53,154.75,227.16,145.62Z"/><path class="cls-14" d="M246,259.63c1.39-2,4.64-11.34,11.44-13.5s14.76-6.59,17.54-18.26c4.33-1.83,7.78,7.92,9,9.25-3.4,11-7.55,18.67-8.94,23s-4.64,2.51-10.51-.16-11.13-4-13.14-1.5S246,259.63,246,259.63Z"/><path class="cls-14" d="M238,229.21c-3.75.41-5.24.79-9.56,9.13S226,257.22,226.89,259c.91,1.55,3.93-8.4,20.13-.18,2.52-9.1-5.69-8.88-6.61-15.15S238,229.21,238,229.21Z"/><path class="cls-10" d="M247,256c-.41,1.84-.5,3.73-.93,5.56-.59,2.61-2.87,3.55-4.42,5.43-2.54,3.07-2.25,8.86-2.38,12.56-.22,5.83.13,11.67.12,17.51,0,2.77-.19,5.52-.39,8.28s.06,5.62-1,8.16c-.25.6.72.86,1,.27a14.64,14.64,0,0,0,.85-5.8c0-2.66.45-5.32.54-8,.2-5.84-.15-11.68-.13-17.52,0-5-.67-12.92,3.78-16.34,3.38-2.6,3.11-6,4-9.86.14-.63-.82-.9-1-.27Z"/><path class="cls-10" d="M250.6,256.54c3.11-4.49,7.37,2.56,8.36,5,.6,1.55.91,3.19,2.13,4.39,2,2,5.47-2.3,6.49-3.52,3.53-4.2,6.84-8.59,10.36-12.81,2.95-3.54,6-7.45,6.42-12.19.06-.64-.94-.64-1,0-.5,5.39-4.64,9.69-7.94,13.65s-6.21,8.11-9.63,11.89a11,11,0,0,1-2.34,2c-1.9,1.21-2.75-1.41-3.17-2.67a16.67,16.67,0,0,0-3-5.58c-2.15-2.54-5.44-3.83-7.59-.73-.37.53.5,1,.87.5Z"/><path class="cls-10" d="M244.32,255.33c0-3.47-3.93-3.94-6.6-3.29-4.78,1.15-7.44,7.16-11.17,9.93l.73.3c-.89-3.8-.37-7.56-.08-11.39.24-3.09.24-6.23.77-9.29.11-.63-.85-.9-1-.26a92.23,92.23,0,0,0-.81,9.55c-.26,3.94-.8,7.76.12,11.66a.49.49,0,0,0,.73.29c2.71-2,4.62-4.74,7-7.13a9.63,9.63,0,0,1,4.45-2.81c1.88-.46,4.88,0,4.86,2.44a.5.5,0,0,0,1,0Z"/><path class="cls-10" d="M247.34,272.44a1.28,1.28,0,0,1-.58-1.24.74.74,0,0,1,.89-.48,2,2,0,0,1,1.24.81.43.43,0,0,1,.06.55,1.71,1.71,0,0,1-1.34.59c-.53,0-.9-.19-.81-.75s-.85-.9-1-.26a1.64,1.64,0,0,0,1.7,2,2.44,2.44,0,0,0,2.43-1.45c.41-1.38-1.48-2.56-2.63-2.51a1.7,1.7,0,0,0-1.54,1.23,2.18,2.18,0,0,0,.84,2.21c.49.41,1.2-.3.7-.71Z"/><path class="cls-10" d="M246.66,292c0-.75-.08-1.7.79-2a1.28,1.28,0,0,1,1.52.66,1,1,0,0,1-.61,1.36,1.59,1.59,0,0,1-1.52-.54c-.43-.48-1.14.23-.7.71a2.57,2.57,0,0,0,2.59.76,2,2,0,0,0,1.2-2.56,2.27,2.27,0,0,0-2.62-1.38,1.92,1.92,0,0,0-1.25.9,3.3,3.3,0,0,0-.4,2.09.5.5,0,0,0,1,0Z"/><path class="cls-10" d="M245.64,309.66c-.61-2.06,2.47-1.77,2.42,0,0,.69-1.08.81-1.57.81a1.71,1.71,0,0,1-1.69-1,.5.5,0,0,0-1,.27c.69,2.3,5.39,2.46,5.21-.34a2.52,2.52,0,0,0-2.72-2.22,2,2,0,0,0-1.66,2.72.5.5,0,0,0,1-.26Z"/><path class="cls-10" d="M297.76,291a87.35,87.35,0,0,1,.81,8.7c.17,3,.78,5.91.19,8.87-.13.63.84.89,1,.26.56-2.77.16-5.55-.09-8.34-.29-3.27-.4-6.51-.91-9.76-.1-.63-1.06-.36-1,.27Z"/><path class="cls-10" d="M209.49,291.29c0,2.53.35,5,.37,7.56,0,2.81-.49,5.62-.54,8.44a.5.5,0,0,0,1,0c0-2.51.32-5,.5-7.5.21-2.82-.28-5.67-.33-8.5a.5.5,0,0,0-1,0Z"/><path class="cls-10" d="M263.94,282.61c7.62,1.88,15.4.34,23.13.76l-.5-.5c.91,6.89-1.45,13.64-1,20.5,0,.64,1.05.65,1,0-.45-6.86,1.91-13.61,1-20.5a.51.51,0,0,0-.5-.5c-7.64-.42-15.33,1.13-22.86-.73a.5.5,0,0,0-.27,1Z"/><path class="cls-10" d="M262.84,283.74c-.71,2.83-.26,6-.44,8.92a43,43,0,0,0,.18,8.41c.62,4.39,3.49,6.87,7.61,8a.5.5,0,0,0,.27-1c-4.75-1.34-6.72-4.3-7.1-9.09a52.88,52.88,0,0,1,.09-7.23c.15-2.56-.27-5.33.36-7.81a.5.5,0,0,0-1-.27Z"/><path class="cls-10" d="M273.44,310.11c5.72,1.25,12.84-1.64,13.63-8,.08-.63-.92-.63-1,0-.71,5.68-7.36,8.12-12.36,7-.63-.14-.9.83-.27,1Z"/><path class="cls-10" d="M264.59,285.26c.92,5.35,4.28,8.15,9.48,9.23s10.57-4,12.24-8.48c.22-.61-.75-.87-1-.27-1.65,4.41-6.69,8.67-11.63,7.65a9.59,9.59,0,0,1-8.15-8.4c-.11-.63-1.08-.36-1,.27Z"/><path class="cls-10" d="M273.43,289.52c-.72-.75.32-1.36,1-1.52,1.3-.3,1.74.76,1.63,1.87.09-.14.17-.28.25-.43a1.89,1.89,0,0,1-2,.25c-.58-.26-1.09.6-.5.87a2.84,2.84,0,0,0,2.63,0c.76-.37.7-1,.59-1.77a2.12,2.12,0,0,0-2-1.79c-1.73-.18-3.84,1.64-2.31,3.26.44.47,1.15-.24.71-.71Z"/><path class="cls-10" d="M285.32,242.62c3.78-.34,7.39,1.61,10.78,3,3.88,1.6,7.82,3.28,11.84,4.49a.5.5,0,0,0,.27-1c-4-1.21-7.93-2.93-11.84-4.48-3.53-1.39-7.14-3.39-11.05-3-.63.06-.64,1.06,0,1Z"/><path class="cls-10" d="M313.19,247.14c-9.51,2.58-10.55,13.72-12.1,21.85-.12.63.84.9,1,.27,1.46-7.72,2.32-18.7,11.4-21.15a.5.5,0,0,0-.27-1Z"/><path class="cls-10" d="M211.39,247.87c-2,2.71-2.35,5.94-3,9.12a79.66,79.66,0,0,0-1.77,11.38c0,.65,1,.64,1,0a64.05,64.05,0,0,1,1.73-11.11c.8-3.11,1-6.2,2.95-8.88.38-.53-.48-1-.86-.51Z"/><path class="cls-10" d="M227.31,149c-2-8.32,8.65-10.63,14.48-11.55a.5.5,0,0,0,0-1c-3.27-.49-1.61-3,0-4.09,1.78-1.26,4.37-1,6.28-.28.61.22.87-.75.27-1-3.09-1.11-6.59-.72-8.73,1.94-1.71,2.12-.45,4,2,4.36v-1c-3.93.61-8.38,1.09-11.55,3.79-2.67,2.29-4.5,5.41-3.63,9,.15.63,1.12.36,1-.27Z"/><path class="cls-10" d="M277.06,160c1.27,2.59,3.53,3.42,6,1.72,3.12-2.16,3.28-6.4,3.28-9.8l-.75.43c1.83,1.31,3.47,2.58,5.48,1,2.25-1.79,2.12-5.06.54-7.16-.38-.51-1.25,0-.87.5a4.36,4.36,0,0,1-.38,6c-1.28,1.42-3.3-.45-4.26-1.14a.51.51,0,0,0-.76.43,20.49,20.49,0,0,1-.57,5.63c-.91,3.25-4.83,6-6.83,1.95-.28-.58-1.15-.07-.86.5Z"/><path class="cls-10" d="M238.7,174.62a54.17,54.17,0,0,1-1.13,7.82c-.28,1.55-.83,3.58-.59,5.17.33,2.13,4.28,3.26,6.09,3.14.64,0,.65-1,0-1a7.53,7.53,0,0,1-3.39-.91c-2.38-1-1.62-3.25-1.29-5.31a72.48,72.48,0,0,0,1.31-8.91c0-.64-1-.64-1,0Z"/><path class="cls-10" d="M236.22,198.6c4.23,4,9.62,2.29,12.66-2.22.36-.54-.51-1-.86-.51-2.67,4-7.32,5.61-11.09,2-.47-.45-1.18.26-.71.7Z"/><path class="cls-10" d="M236.51,232.83c-1.72,4.42-.45,11.06,3.29,14.15.5.41,1.21-.3.71-.71-3.49-2.88-4.64-9.05-3-13.18.24-.6-.73-.86-1-.26Z"/><path class="cls-10" d="M274.56,230c-1.83,3-3.44,6.19-5.76,8.9-.41.49.29,1.2.71.71,2.38-2.78,4-6,5.91-9.11.34-.55-.53-1-.86-.5Z"/></g></g></svg>