<svg xmlns="http://www.w3.org/2000/svg" viewBox="0 0 408.49 437.5"><defs><style>.cls-1{fill:#ebebeb;}.cls-2{fill:#37474f;}.cls-10,.cls-3{fill:#fff;}.cls-4{fill:#455a64;}.cls-5{fill:#ffc727;}.cls-11,.cls-6{opacity:0.5;}.cls-13,.cls-7{opacity:0.1;}.cls-15,.cls-8{fill:#263238;}.cls-9{fill:#fefefe;}.cls-10{fill-rule:evenodd;}.cls-12{fill:#ad6359;}.cls-14{fill:#ff97b8;}.cls-15{opacity:0.2;}</style></defs><g id="Calque_2" data-name="Calque 2"><g id="Background_Complete" data-name="Background Complete"><path class="cls-1" d="M408.49,144.21H296.35s11.12-30.37,28.23-30.37,22.48,21,22.48,21,11.54-11.38,21-11.38,17.73,15,17.73,15S399.21,130.37,408.49,144.21Z"/><path class="cls-1" d="M345.73,39.29H293.32s11.71-17,20.94-17,11.95,11.31,11.95,11.31,6.51-5.28,12.54-4.34S345.73,39.29,345.73,39.29Z"/><path class="cls-1" d="M104,256.08H51.63s11.71-17,20.93-17,12,11.31,12,11.31,6.51-5.28,12.54-4.34S104,256.08,104,256.08Z"/><path class="cls-1" d="M102.08,135.17H0S14,104,28.93,102,51,125.2,51,125.2s9.64-8.89,17.23-8.89S81.7,128,81.7,128,96.87,120,102.08,135.17Z"/><path class="cls-1" d="M173.82,58H104.87S116.71,35.35,129.56,35s19.61,17.11,19.61,17.11S169.15,36.1,173.82,58Z"/><path class="cls-1" d="M338,274.16H269s11.85-22.61,24.7-22.94,19.6,17.11,19.6,17.11S333.31,252.29,338,274.16Z"/></g><g id="Shadow"><ellipse class="cls-1" cx="204.25" cy="423.66" rx="129.16" ry="13.85"/></g><g id="Plants"><path class="cls-2" d="M131.34,335c-5,.18-10.59.46-14.73-2.79-3.83-3-7.25-7.46-6.74-12.59.14-1.46.48-2.36,2-1.74,2.39.95,4.23,3.59,5.88,5.43a51,51,0,0,0,7,6.59c1.78,1.37,3.7,2.55,5.51,3.87.23.16.46.33.68.51a2.48,2.48,0,0,1,.26.19h.15a.23.23,0,0,1,.2.1.36.36,0,0,1,0,.09A.27.27,0,0,1,131.34,335Z"/><path class="cls-3" d="M131.59,334.62c-4.4-.08-9.15.12-12.67-2.86a20.59,20.59,0,0,1-4.09-5c-.51-.83-2-3.3-1.4-4.28,1.14-1.78,6.39,5.47,7.11,6.16a21.5,21.5,0,0,0,9.72,5.05c.23.16.46.33.68.51a23.88,23.88,0,0,1-7.29-2.81c-3.13-1.86-4.87-4.61-7.31-7.19-.53-.56-2.12-2.43-2.72-1.26-.4.77,1.08,3.18,1.39,3.7a20.45,20.45,0,0,0,3.87,4.72c3.51,3.07,8.24,3,12.67,3.14A.36.36,0,0,1,131.59,334.62Z"/><path class="cls-2" d="M134.1,338l-.12.58v0a.13.13,0,0,1-.09.1.21.21,0,0,1-.27-.1.24.24,0,0,1,0-.12l0-.08,0-.17h0s0,0,0-.06c-.89-3.31-1.24-6.76-2.17-10.07-.89-3.16-2-6.27-2.64-9.5-.41-2-1.83-12.25,2.68-11,2,.57,3.36,3.46,4.11,5.18a20.91,20.91,0,0,1,1.66,7.34C137.65,326.36,135.37,332,134.1,338Z"/><path class="cls-3" d="M135.55,325.28a24.51,24.51,0,0,0-.73-6.93c-.2-.78-1.18-4.54-2.45-4.45-.82.06-1,1.68-1,2.22-.29,2.27.45,4.59.89,6.8a95.1,95.1,0,0,1,1.66,13.65c0,.28-.09.58-.12.87s-.06.48-.09.72c0,.08,0,.16,0,.25a1.37,1.37,0,0,1,0,.19.22.22,0,0,0,.27.1c0-.18.05-.37.07-.56,0,.16,0,.31,0,.46a0,0,0,0,1,0,0l.09-.48a.43.43,0,0,0,0-.11c0-.25,0-.51,0-.76A102.75,102.75,0,0,0,135.55,325.28ZM134,335.6q-.19-4-.77-8c-.31-2.15-.71-4.27-1.16-6.38a21,21,0,0,1-.57-3.61c0-.94.09-4.38,1.87-2.25,1.28,1.56,1.59,4.85,1.74,6.76a34.45,34.45,0,0,1-.12,6.34C134.78,330.85,134.38,333.22,134,335.6Z"/><path class="cls-2" d="M136.8,351.74h0l-.19,0c-4.57-.24-10.67.19-14.48-2.84-2.81-2.23-5.58-6.65-4.69-10.41,1-4.22,6.72.85,8.23,2.07a140.78,140.78,0,0,1,11.22,10.92l.06.08v0C137,351.68,136.9,351.72,136.8,351.74Z"/><path class="cls-3" d="M137,351.61c-.27-.16-.53-.33-.79-.5-3-1.89-5.95-3.92-8.77-6.08-.71-.55-5.86-5.13-6.64-3.49-.47,1,1.23,3,1.78,3.69a14.09,14.09,0,0,0,3.48,3.1c3,1.91,6.75,2.32,10.2,3.23a4.43,4.43,0,0,1,.49.13.26.26,0,0,0,.09.05h0C136.9,351.72,137,351.68,137,351.61ZM127.9,349a14.26,14.26,0,0,1-4-2.67c-.77-.73-3.48-3.47-2.75-4.59.38-.6.69-.28,1.42.07a10.21,10.21,0,0,1,1,.56c.77.51,1.48,1.1,2.19,1.66,1.26,1,2.53,2,3.84,2.93,2.12,1.55,4.31,3,6.55,4.4C133.42,350.52,130.52,350.18,127.9,349Z"/><path class="cls-2" d="M145.16,342.31A27,27,0,0,1,137.32,356l-.09.05A.21.21,0,0,1,137,356a.19.19,0,0,1,0-.27l.23-.23c.76-6.22,1.6-12.41,2.24-18.65.15-1.47,1.3-10.83,4.18-9.31,1.77.94,1.89,4.78,2,6.5A26.85,26.85,0,0,1,145.16,342.31Z"/><path class="cls-3" d="M143.5,334c-.15-.52-.42-1.06-1-.69-1.11.7-1.56,5.1-1.74,6.31-.77,5-2,9.85-3.17,14.77l-.3,1.25L137,356a.18.18,0,0,0,.23.08s0-.08,0-.12.26-.33.37-.5h0a32,32,0,0,0,4.53-8.83,30.24,30.24,0,0,0,1.34-6.16C143.73,338.52,144.08,335.85,143.5,334Zm-5.87,21.12-.17.25.15-.5a89.46,89.46,0,0,0,2.8-11.43c.34-2,.55-3.94,1-5.89.17-.82.57-3.17,1.26-3.55s.66.53.73,1.06.05,1.07.06,1.43A31.56,31.56,0,0,1,137.63,355.09Z"/><path class="cls-2" d="M138.08,369.44h-.92c0-.81,0-1.62,0-2.42-.11-3.25-.24-6.5-.44-9.75-.11-1.86-.24-3.7-.43-5.52a1.11,1.11,0,0,1,0-.19c0-.14,0-.29-.05-.45l-.06-.48A39.36,39.36,0,0,0,133,338.68c-.58-1.27-1.22-2.5-1.88-3.73a4,4,0,0,1-.2-.35.41.41,0,0,0,0-.09c-.06-.12-.13-.24-.2-.36s-.11-.18-.16-.28c-2.12-3.72-4.54-7.28-6.84-10.87-.66-1-1.32-2.06-2-3.09a.94.94,0,0,1-.12-.18l-.15-.23c-2.88-4.56-5.72-9.15-8.72-13.62-.12-.16.16-.31.26-.15,2,3,4.13,5.88,6.21,8.82l.83,1.17c.55.78,1.09,1.54,1.63,2.32q1.64,2.32,3.21,4.68a131.6,131.6,0,0,1,8.43,13.64c.18.36.35.71.52,1.08s.22.45.31.67l.36.79a42.38,42.38,0,0,1,3.08,14.42l.06,1,0,.48a2.11,2.11,0,0,0,0,.25c0,.11,0,.22,0,.34h0c0,.07,0,.16,0,.24,0,.3,0,.59,0,.9.13,3.25.22,6.5.29,9.75C138,367.36,138,368.4,138.08,369.44Z"/><path class="cls-2" d="M110.75,310.52c-2.51-3.37-5.72-10.32-2-13.94a3.94,3.94,0,0,1,5.24-.38c2,1.41,2.83,4.08,3.46,6.29,1.69,5.89,2.81,11.9,4.93,17.68a5.67,5.67,0,0,1,.23.62c0,.12-.15.17-.19,0l-.21-.56C118.18,317.38,113.72,314.52,110.75,310.52Z"/><path class="cls-3" d="M122.38,320.18l-.06-.1a40.61,40.61,0,0,1-2.34-4.36,81,81,0,0,1-3.6-9.66c-.41-1.26-2.21-7.45-4.42-5-.93,1-.8,2.88-.65,4.16a15.52,15.52,0,0,0,1.92,5.8c2,3.58,5.08,6.29,8.32,8.7l.44.33.1.15a.6.6,0,0,0,.06.11l0,0a.15.15,0,0,0,.2-.08A.1.1,0,0,0,122.38,320.18Zm-1-.68a33.33,33.33,0,0,1-7.05-7.08,17.34,17.34,0,0,1-2.3-4.69,14.32,14.32,0,0,1-.49-2.27,10.11,10.11,0,0,1-.11-1.74c0-1.27.57-2.66,1.32-2.79.94-.17,1.25.37,1.86,1.44a9.67,9.67,0,0,1,.55,1.12,30.92,30.92,0,0,1,1,2.93c.52,1.64,1,3.27,1.64,4.88.39,1.1.82,2.19,1.29,3.25a44.8,44.8,0,0,0,2.74,5.34Z"/><path class="cls-2" d="M277.58,320c-.42,3.34-1.06,6.65-1.73,9.94-.38,1.87-.79,3.74-1.17,5.61-.41,2.06-1,4.16-.47,6.24h0a1,1,0,0,1,0,.29l0,0a.25.25,0,0,1-.43-.07l0-.14,0-.05a7.9,7.9,0,0,1-.72-1.73,45.09,45.09,0,0,1-1.66-4.83,41.75,41.75,0,0,1-1.62-10.3,35,35,0,0,1,1-9.29c.59-2.42,1.44-6,3.25-7.9,1.64-1.68,3,1,3.48,2.37C278.48,313.22,278,316.78,277.58,320Z"/><path class="cls-3" d="M274.58,312.86c-1.21,0-2.1,3.93-2.53,5.63a33.82,33.82,0,0,0-1,8.2,43.8,43.8,0,0,0,2.52,14.56c.06.18.12.38.19.56l0,.05a.65.65,0,0,1,0,.13.26.26,0,0,0,.44.08c-.08-.41-.14-.81-.19-1.23s-.08-.73-.11-1.1a57.94,57.94,0,0,1,.75-12.05C275.27,323,276.2,312.86,274.58,312.86Zm-.87,27.67c.06.54.14,1.07.25,1.6-.13-.39-.25-.77-.37-1.16a48.88,48.88,0,0,1-2.3-12.85,35.44,35.44,0,0,1,.54-7.34,31.66,31.66,0,0,1,.95-3.84c.17-.53,1.05-3.82,1.8-3.66.53.12.66,3.08.66,3.15,0,.59,0,1.18,0,1.78,0,1.23-.1,2.45-.2,3.67-.24,2.65-.62,5.29-.94,7.93A46.35,46.35,0,0,0,273.71,340.53Z"/><path class="cls-2" d="M296.76,329.17c-2.24,4.37-6,7.71-9.89,10.57-2.09,1.54-4.25,3-6.36,4.45a34.31,34.31,0,0,0-5.5,4.23l-.21.23a9.1,9.1,0,0,0-1.14,1.57.11.11,0,0,1-.1.06,1.67,1.67,0,0,1-.08.2s-.09,0-.08,0,0-.15,0-.22v0a.13.13,0,0,1,0-.16.43.43,0,0,1,0-.07l0-.22c.64-5.1,4.21-10.25,7.22-14.18s6.74-7.4,11.4-9.19c1.17-.45,3.83-1.69,5-.74S297.24,328.25,296.76,329.17Z"/><path class="cls-3" d="M293.31,329.19c-1.07-1.06-4.2,1.56-5,2.18a52,52,0,0,0-6.47,6.29,46.52,46.52,0,0,0-8.27,12h0l-.11.14,0,.22a.43.43,0,0,0,0,.07.14.14,0,0,0,0,.17l.15-.18c.39-.48.8-.95,1.22-1.41l.21-.22a102.5,102.5,0,0,1,9.68-8.55,47.64,47.64,0,0,0,6.44-6.26C291.62,333,294.2,330.09,293.31,329.19Zm-1,2.34c-2.64,4.38-7.21,7.58-11.09,10.77a53,53,0,0,0-7.37,7,49.46,49.46,0,0,1,7.65-10.76,65.38,65.38,0,0,1,5.25-5.41,27,27,0,0,1,3.19-2.55,11,11,0,0,1,2.16-1.17C293.6,329,292.78,330.78,292.33,331.53Z"/><path class="cls-2" d="M273,360.61a.3.3,0,0,1-.22.13l0,.07c0,.05,0,.09,0,.11a.07.07,0,0,1-.11,0c-4.13-4.2-8.12-9.32-10.18-14.89a23,23,0,0,1-1.47-7.34c-.05-1.71-.14-5.17,1.33-6.42,3-2.51,5.65,8.15,6.05,9.76.73,2.93,1.21,5.92,1.89,8.86.74,3.22,1.71,6.39,2.68,9.55A.2.2,0,0,1,273,360.61Z"/><path class="cls-3" d="M273,360.61l-.46-.83a49.62,49.62,0,0,1-5.33-14.33,44.4,44.4,0,0,0-2-7.45c-.24-.59-1-2.87-2-1.72-.5.6-.08,4.91.12,6a31.87,31.87,0,0,0,2.4,7.32,51.39,51.39,0,0,0,6.78,11,3.25,3.25,0,0,0,.23.29.08.08,0,0,0,0-.11s0,0,0-.07A.28.28,0,0,0,273,360.61Zm-6-9.17a36.42,36.42,0,0,1-2.85-7.11,27.33,27.33,0,0,1-.62-3,15.92,15.92,0,0,1-.2-2.38c0-1.95.17-2.45.5-2.52s.48.17,1,1.33a12.58,12.58,0,0,1,.83,2.37c.31,1.15.57,2.3.82,3.47.5,2.32,1,4.65,1.65,6.93a38.4,38.4,0,0,0,4.11,9.32A59,59,0,0,1,267,351.44Z"/><path class="cls-2" d="M286.22,350.38A14.63,14.63,0,0,1,283.5,356c-2.45,3.39-5.59,6.21-8.27,9.41-.4.48-.79,1-1.17,1.47,0,.05-.35.76-.34.7s0-.28.13-.74h0c.43-2.25,1.84-9,3.6-12.49a30.22,30.22,0,0,1,3.91-6.13c.76-.86,2.55-2.72,3.89-2.31S286.42,349.31,286.22,350.38Z"/><path class="cls-3" d="M284,349c-1.44-.89-5.14,5.72-5.63,6.57a42.38,42.38,0,0,0-4.23,10.09c-.11.39-.21.79-.32,1.19s-.13.72-.13.74.31-.65.34-.71l.2-.25c.32-.42.64-.82,1-1.21,1.61-2.4,3.26-4.79,4.82-7.23a38.94,38.94,0,0,0,3-5.5C283.22,352.27,284.66,349.4,284,349Zm-.41,1.86c-2,5.75-6.21,10.29-9.39,15.39-.06.09-.1.17-.16.25.05-.15.09-.3.13-.45a48,48,0,0,1,3.38-8.4,46.26,46.26,0,0,1,2.84-4.73,22.53,22.53,0,0,1,1.77-2.46c.3-.33,1.14-1.19,1.43-1S283.75,350.49,283.62,350.87Z"/><path class="cls-2" d="M300.63,302.91c-4.26,9.8-15.46,14.37-20.31,23.82l0,0c-.15.28-.29.58-.42.88a.19.19,0,0,1-.32,0,.13.13,0,0,1,0-.16,2,2,0,0,1,.1-.21,50.88,50.88,0,0,1,6-17.16c2.45-4.52,5.81-8.74,10.46-11.12,1.14-.59,3.38-1.83,4.66-.86S301.16,301.7,300.63,302.91Z"/><path class="cls-3" d="M296.79,303.33c-.54-.4-1.37.09-1.83.33a16.27,16.27,0,0,0-3.24,2.21,26.9,26.9,0,0,0-5.16,6.14,55.47,55.47,0,0,0-6.08,12.33c-.33,1-.62,2-.85,3,0,.13-.05.25-.09.37a.2.2,0,0,0,.33,0c.12-.3.26-.57.4-.86a.43.43,0,0,0,0-.07,33,33,0,0,1,3.05-5.59,78.23,78.23,0,0,1,6.38-7.58C290.61,312.6,298.67,304.71,296.79,303.33Zm-.68,2.27c-1.3,2.3-3.31,4.18-5.06,6.14s-3.57,3.93-5.3,5.94a36.92,36.92,0,0,0-3.74,5.1,28.64,28.64,0,0,0-2.33,4.71,40.94,40.94,0,0,1,1.66-4.9l0-.06a74.56,74.56,0,0,1,4.13-8.24l.06-.1a34,34,0,0,1,4.72-6.59,18.71,18.71,0,0,1,3.36-2.85c1.4-.91,2.63-1.5,3-1.05S296.5,304.92,296.11,305.6Z"/><path class="cls-2" d="M285.73,314.4c-1.28,2.76-2.51,5.57-3.72,8.38-.57,1.31-1.14,2.63-1.7,4a.43.43,0,0,1,0,.07c-.2.48-.41,1-.61,1.43-1.85,4.3-3.88,8.7-5,13.26a40,40,0,0,0-1,7.36c0,.26,0,.52,0,.77h0c0,.14,0,.28,0,.42v.23c-.08,2.15-.05,4.31,0,6.41.05,2.92.3,5.82.58,8.72a2.46,2.46,0,0,0,0,.26c0,.13,0,.26,0,.39l0,.2,0,.38c.09.93.18,1.86.25,2.8h-.89a59.17,59.17,0,0,1-1.08-8.63v-.18c0-.28,0-.57-.05-.85s0-.69-.05-1c0-.84-.05-1.67-.07-2.49a61.39,61.39,0,0,1,1-14.45l.09-.39a.94.94,0,0,1,0-.16,2.3,2.3,0,0,1,.06-.28l.12-.44c.07-.27.14-.53.22-.79a2,2,0,0,0,.07-.23,94.59,94.59,0,0,1,4.93-11.9c.33-.71.65-1.4,1-2.1.18-.39.37-.78.56-1.17.28-.58.58-1.17.86-1.75l0-.06c1.36-2.75,2.78-5.47,4.13-8.24C285.57,314.17,285.79,314.27,285.73,314.4Z"/><path class="cls-2" d="M115.85,369.17H53.2s.15-9.32,6.31-11.8a8.4,8.4,0,0,1,9.82,2.36s2.51-17.15,14-17.15,17,14.79,17,14.79,2.57-4.47,8.94-3.64S115.85,369.17,115.85,369.17Z"/><path class="cls-2" d="M401.83,369.17s-1.92-9-5.76-10.34-6.17,2.64-6.17,2.64-.9-8.56-6.34-11.12S374,353,374,353s-4.17-10.86-11.63-10.86-11.22,15.89-11.22,15.89-4.39-4.74-8.91-2.06-4.51,13.17-4.51,13.17Z"/><path class="cls-4" d="M64.43,369.17H6.66s1.91-8.14,5.74-8.72,5.61,3.2,5.61,3.2-.17-11.36,7-13.29,13.15,8.1,13.15,8.1,4.49-5.73,10.6-5.36,7.67,9.82,7.67,9.82S62,359.64,64.43,369.17Z"/><path class="cls-4" d="M341.91,369.17H306.42s.08-5.28,3.57-6.68a4.75,4.75,0,0,1,5.57,1.33s1.42-9.71,7.92-9.71,9.62,8.38,9.62,8.38a5,5,0,0,1,5.06-2.07C341.77,360.9,341.91,369.17,341.91,369.17Z"/></g><g id="Tree"><path class="cls-5" d="M141.38,113.86c0,9.58,0,55.31,43,62.76,0,0,.71,4.83,2.07,12.38,1.65,9.16,4.26,22.32,7.73,35.71a.2.2,0,0,0,0,.09c1.21,4.61,2.51,9.24,3.91,13.74a.43.43,0,0,0,0,.11c.14.42.26.84.4,1.26a234.63,234.63,0,0,1,6.7,26.16c13.22,68.4-14.95,103.37-14.95,103.37h59.2s14.68-64-16.46-128.23c-5.76-11.89,17.14-21.56,27.16-43.67,8.49-18.74,8.25-110.91,4.13-116.85s-10.7-4.46-10.7,3.72,0,84.71-5.77,99.57-30.38,32.7-30.38,32.7-12.65-20.7-19.74-66v0c-3.33-21.32-5.42-48.07-4.4-80.68,0,0,0,0,0,0q.32-10.35,1.09-21.48c.59-8.51-8.25-4.78-11.2,2.67s-7.08,50.52-1.18,108.49c0,0-29.47-4.15-29.47-50.53C152.58,100.56,141.38,104.28,141.38,113.86Z"/><path class="cls-6" d="M141.38,113.86c0,9.58,0,55.31,43,62.76,0,0,.71,4.83,2.07,12.38,1.65,9.16,4.26,22.32,7.73,35.71a.2.2,0,0,0,0,.09c1.21,4.61,2.51,9.24,3.91,13.74a.43.43,0,0,0,0,.11c.14.42.26.84.4,1.26a234.63,234.63,0,0,1,6.7,26.16c13.22,68.4-14.95,103.37-14.95,103.37h59.2s14.68-64-16.46-128.23c-5.76-11.89,17.14-21.56,27.16-43.67,8.49-18.74,8.25-110.91,4.13-116.85s-10.7-4.46-10.7,3.72,0,84.71-5.77,99.57-30.38,32.7-30.38,32.7-12.65-20.7-19.74-66v0c-3.33-21.32-5.42-48.07-4.4-80.68,0,0,0,0,0,0q.32-10.35,1.09-21.48c.59-8.51-8.25-4.78-11.2,2.67s-7.08,50.52-1.18,108.49c0,0-29.47-4.15-29.47-50.53C152.58,100.56,141.38,104.28,141.38,113.86Z"/><g class="cls-7"><path d="M220.14,240.58c3.4,11.58,8.05,22.86,11.43,34.48a235.52,235.52,0,0,1,7.62,35.67,183.67,183.67,0,0,1,1.16,35c-.52,8-2.36,15.83-3.75,23.71H242c6.41-18.34,5.54-39,2.25-57.51a262,262,0,0,0-9.48-35.81c-4-12-7.77-24.3-12.82-36C221.51,239.15,219.84,239.51,220.14,240.58Z"/><path d="M196.32,171.49c2.37,24.44,13.19,48.17,20.94,71.5a192,192,0,0,1,9.31,72.86c0,.58-1,.59-1,0-.25-13.35-.47-26.79-3.23-40-2.48-11.89-6.41-23.56-10.36-35.11-3.87-11.33-8.17-22.57-11.36-34.08a157.82,157.82,0,0,1-5.42-35.22C195.16,170.82,196.26,170.84,196.32,171.49Z"/><path d="M196.44,369.44h6c1.66-3.34,3.14-6.73,4.56-10a142.72,142.72,0,0,0,9.31-30.25c3.85-20.39,3-40.61-1.65-60.82-.14-.57-1.06-.32-1,.23a154.15,154.15,0,0,1-2.17,61.06,169.92,169.92,0,0,1-9.36,28.58A124.12,124.12,0,0,1,196.44,369.44Z"/><path d="M218.62,343.07c1.37-4.5,2.2-10,4.51-14.21a5.33,5.33,0,0,1,4.24-2.86,1.08,1.08,0,0,1,.41-.05,5.63,5.63,0,0,1,.61.08,6.65,6.65,0,0,1,1.12.25c.73.25,1.55.75,1.68,1.52a.5.5,0,0,0,0,.12c2.63,3.75,1.65,11.77,1.29,14.72-.57,4.6-1.94,16.66-9.94,15.58C214.79,357.17,217.29,347.43,218.62,343.07Z"/><path d="M186.47,189c1.65,9.16,4.26,22.32,7.73,35.71a.2.2,0,0,0,0,.09c.45,1.53.9,3,1.36,4.57.91,3.06,1.78,6.11,2.55,9.17a.43.43,0,0,0,0,.11c.14.42.26.84.4,1.26a234.63,234.63,0,0,1,6.7,26.16c1.36-11.48-.83-22.88-4.21-34.32C196.77,217.28,192,203.09,186.47,189Z"/><path d="M258.8,159.46a4.8,4.8,0,0,1,.56-2.42,2,2,0,0,1,1.91-.83,1.92,1.92,0,0,1,1.6,1.24c0,.08.05.17.08.25a1.27,1.27,0,0,1,.27.56,3.79,3.79,0,0,1,0,1.11,2.4,2.4,0,0,1-.69,2.83,2.2,2.2,0,0,1-3.2-.38A3,3,0,0,1,258.8,159.46Z"/><path d="M225.27,219.3c13.95-14.9,30.37-32.37,30.32-53,0-.52.79-.48.86,0,3.17,22.68-12.91,39.51-30,54.09C225.67,221.06,224.58,220,225.27,219.3Z"/><path d="M227.4,229.29c.69-3.71,3.91-6.89,6.62-9.6,3.65-3.65,7.62-7,10.72-11.05.41-.54,1.34-.07,1,.51a64.55,64.55,0,0,1-8.1,10.12c-3.17,3.41-5.75,7.38-9.08,10.62A.68.68,0,0,1,227.4,229.29Z"/><path d="M261.91,93.87c0-.41.63-.38.69,0,2.68,18.12,3.11,37.47-.58,55.52-.12.58-1.12.43-1.12-.14C260.91,130.82,261.89,112.33,261.91,93.87Z"/><path d="M257.54,121.91a.13.13,0,0,1,.25,0c.1,12,.11,24.92-2.83,36.63a.71.71,0,0,1-1.36-.16C253.71,146.32,256.07,133.9,257.54,121.91Z"/><path d="M151.6,140.87c3.05,7.94,6.37,15.07,13.47,20.82a52.24,52.24,0,0,0,10.7,6.77c3.72,1.74,7.88,2.54,11.53,4.36.54.27.23.9-.29,1-8.72.93-18.68-5.45-24.34-10.88C156.53,157,151,149.26,150.44,141,150.39,140.38,151.39,140.32,151.6,140.87Z"/><path d="M150.31,122.92c1.76,14.81,10.46,27.32,21.81,37.69.32.29-.09.81-.49.58-14.15-8.48-21.08-23.39-21.59-38.27C150,122.76,150.29,122.77,150.31,122.92Z"/><path d="M183.71,90.51c.06-.55,1-.57,1,0-.66,32.91,6.44,65.25,9.2,98,.05.55-1,.68-1.07.13-3.19-16-5.66-32.32-7.65-48.53C183.14,123.59,182,107,183.71,90.51Z"/><path d="M188.18,109.63a130.93,130.93,0,0,0,9.56,41c-3.33-21.32-5.42-48.07-4.4-80.68a112.9,112.9,0,0,0-3.73,13.89A101.94,101.94,0,0,0,188.18,109.63Z"/><path d="M184.1,72.33c.49-2.93,1.88-5.62,2.5-8.52.13-.61,1.27-.63,1.38,0,.45,2.53-.43,4.65-1.16,7.09-1,3.43-1.23,6.93-1.72,10.43a.59.59,0,0,1-1.16,0A35.22,35.22,0,0,1,184.1,72.33Z"/><path d="M223.3,232.62c8.19,12.72,13.25,26.45,16.35,40.82a.51.51,0,0,1-1,.25C233.58,260,227.78,246.54,222.42,233,222.23,232.48,223,232.2,223.3,232.62Z"/><path d="M208.6,244.1c2.63,4.91,5.61,12.13,4.41,17.66,0,.11-.21.13-.27,0-1.43-2.46-1.8-5.33-2.52-8-.83-3.11-1.89-6.17-2.71-9.27A.6.6,0,0,1,208.6,244.1Z"/><path d="M226.7,367.45A35.7,35.7,0,0,0,234,351.27c1.36-7,2.84-14.58,1.42-21.68-1.16-5.82-3.4-11.33-4.27-17.23a82.28,82.28,0,0,1-.27-21.15c.05-.45.81-.47.79,0a80.9,80.9,0,0,0,2.61,24.32c1.78,6.59,4.65,13,4.61,19.82-.06,10.47-1.82,25.47-11.11,32.83C227.22,368.6,226.23,368,226.7,367.45Z"/><path d="M214.13,369.44h3.51a12.18,12.18,0,0,0-.46-5.26c-1.17-4.08-3.5-8.58-2.81-12.9,0-.23-.34-.44-.47-.18C211,357.16,213.33,363.28,214.13,369.44Z"/><path d="M215.05,347.39s0,0,0,0a2.71,2.71,0,0,0-.44,1.7h0A2.72,2.72,0,0,1,215.05,347.39Z"/></g></g><g id="Floor"><polygon class="cls-8" points="0 369.44 51.06 369.19 102.12 369.11 204.25 368.94 306.37 369.11 357.43 369.19 408.49 369.44 357.43 369.68 306.37 369.77 204.25 369.94 102.12 369.77 51.06 369.68 0 369.44"/></g><g id="Social_Icons" data-name="Social Icons"><circle class="cls-2" cx="337.81" cy="218.52" r="22.51" transform="translate(-64.39 208.41) rotate(-31.46)"/><path class="cls-3" d="M348.76,212.44c-.55-5.48-4.32-10.93-11-10.93s-10.39,5.45-10.94,10.93c-.84,8.45,4.86,16.11,10.94,23.1C343.89,228.55,349.6,220.89,348.76,212.44Zm-11,6.08a6,6,0,1,1,6-6A6,6,0,0,1,337.8,218.52Z"/><circle class="cls-4" cx="201.4" cy="47.5" r="47.5" transform="translate(109.77 233.03) rotate(-76.99)"/><path class="cls-3" d="M200.24,34.34c-.1,3,0,6.08,0,9.35H212c-.51,3.89-.94,7.48-1.51,11.05,0,.36-.94.79-1.44.82-2.84.08-5.69,0-8.78,0V95A46.65,46.65,0,0,1,187.76,93V55.67H177.43V43.8h10.11c0-.9.11-1.62.11-2.3.07-3.13,0-6.26.25-9.36.65-6.8,4.82-11.58,11.55-12.52,4.17-.57,8.53-.11,12.92-.11v10.8c-1.55,0-3.13,0-4.68,0a19.06,19.06,0,0,0-4.14.29A3.88,3.88,0,0,0,200.24,34.34Z"/><circle class="cls-4" cx="114.83" cy="177.2" r="47.5" transform="translate(-91.67 133.1) rotate(-45)"/><path class="cls-3" d="M88.89,199.49A26.48,26.48,0,0,0,106,194.22c-7.08-2.15-9.9-4.31-10.93-8.34l4.75-.23c-5.59-2.15-8.87-5.9-9.3-12l4.89,1.29c-5.13-6.45-6.17-11.45-3.1-16.12a35.28,35.28,0,0,0,25.1,12.56c0-.8-.09-1.4-.11-2-.21-5.29,2-9.29,6.72-11.62s9.27-1.69,13.34,1.62a2.46,2.46,0,0,0,2.69.55c1.91-.72,3.82-1.41,5.93-2.18a12.22,12.22,0,0,1-4.66,6l.13.34,5.87-1.51.23.24c-1.51,1.52-3,3.12-4.57,4.55a3.15,3.15,0,0,0-1.28,2.62,34.33,34.33,0,0,1-31.26,34.42,34.81,34.81,0,0,1-20.38-4.16C89.66,200,89.28,199.73,88.89,199.49Z"/><circle class="cls-4" cx="213.81" cy="227.54" r="33.31" transform="translate(-38.55 411.4) rotate(-82.86)"/><g id="_2dqxSk.tif" data-name="2dqxSk.tif"><path class="cls-3" d="M200.75,210.07a.37.37,0,0,0,.14,0,4.22,4.22,0,0,1-.74,8.4,4.2,4.2,0,0,1-3.79-3.86c0-.06,0-.13-.06-.15v-.37c.07,0,.06-.09.07-.15s0-.24,0-.36a4.16,4.16,0,0,1,1-2.17,4.06,4.06,0,0,1,2.81-1.34.43.43,0,0,0,.14,0Z"/><path class="cls-3" d="M215.73,224.76l.1-.14a8.07,8.07,0,0,1,1.23-1.44,7.57,7.57,0,0,1,3.39-1.82,10.48,10.48,0,0,1,3.17-.24,9.49,9.49,0,0,1,3.58.89,6.17,6.17,0,0,1,2.68,2.55,10.14,10.14,0,0,1,.89,2.25,12.69,12.69,0,0,1,.32,1.63,7.53,7.53,0,0,1,.07.83c0,.51.06,1,.09,1.54v0c0,.49,0,1,0,1.47,0,1.64,0,3.28,0,4.92,0,2.48,0,5,0,7.44,0,.28,0,.29-.29.29h-6.09l-.47,0h-.07c-.35,0-.36-.1-.36-.36,0-2.06,0-4.11,0-6.17s0-4.08,0-6.12a7.75,7.75,0,0,0-.3-2.29,4.41,4.41,0,0,0-.56-1.23,2.84,2.84,0,0,0-1.85-1.22,3.57,3.57,0,0,0-.87-.1c-.31,0-.62,0-.93,0a3.47,3.47,0,0,0-3,2.13,6.58,6.58,0,0,0-.46,1.74,13.51,13.51,0,0,0-.12,1.91V244.8c0,.12-.06.16-.18.17h-6l-.66,0H209c-.3,0-.32-.11-.32-.32V221.92c0-.17.07-.23.24-.24h6.51c.16,0,.22.06.22.23s0,.56,0,.84,0,.83,0,1.25c0,.19,0,.39,0,.59v.16Z"/><path class="cls-3" d="M196.92,233.32V222a1.21,1.21,0,0,1,0-.19.13.13,0,0,1,.14-.13h6.83c.25,0,.32.07.32.33v22.56a1,1,0,0,1,0,.24.17.17,0,0,1-.17.16l-.51,0h-5.76l-.43,0h-.1c-.24,0-.31-.06-.31-.33V233.32Z"/></g><circle class="cls-5" cx="310.11" cy="150.67" r="47.46" transform="translate(92.85 418.39) rotate(-76.85)"/><path class="cls-3" d="M338.41,135c0-7.7-4.84-12.68-12.48-12.76q-15.84-.15-31.69,0c-7.48.08-12.32,5-12.43,12.49-.07,5.27,0,10.55,0,15.82s0,10.32,0,15.48c.07,7.88,4.87,12.91,12.67,13q15.67.16,31.35,0c7.65-.08,12.54-5.11,12.58-12.72Q338.49,150.7,338.41,135Zm-5.05,31.39c-.06,4.87-2.68,7.56-7.55,7.6q-15.69.09-31.36,0c-4.89,0-7.54-2.72-7.57-7.57q-.06-15.81,0-31.63c0-4.82,2.72-7.6,7.55-7.63q15.68-.11,31.35,0c4.83,0,7.52,2.79,7.58,7.61.06,5.27,0,10.54,0,15.81S333.42,161.16,333.36,166.43Z"/><path class="cls-3" d="M310.14,135.82a14.79,14.79,0,1,0,14.7,15A14.77,14.77,0,0,0,310.14,135.82ZM310,160.46a10,10,0,0,1-9.7-9.74,9.86,9.86,0,0,1,19.72,0A10,10,0,0,1,310,160.46Z"/><path class="cls-3" d="M329.33,135.47a3.06,3.06,0,0,1-3.52,3.06,3.1,3.1,0,0,1-3.22-3.69c.15-2.07,1.5-3,3.57-3.14C328.26,132.05,329.5,133.25,329.33,135.47Z"/><circle class="cls-5" cx="280.57" cy="228.85" r="32.09" transform="translate(-7.34 448.39) rotate(-76.53)"/><polygon class="cls-3" points="268.6 241.17 268.6 216.53 297.98 228.85 268.6 241.17"/><circle class="cls-2" cx="156.16" cy="236.5" r="22.76" transform="translate(-77.71 76.43) rotate(-22.17)"/><path class="cls-3" d="M168.85,239.4c-3.76,7.57-12.7,12.07-12.7,12.07s-8.93-4.5-12.68-12.07c-3.13-6.32-1.14-13.15,3.79-14.64,7.08-2.14,8.89,10.19,8.89,10.19s1.82-12.33,8.9-10.19C170,226.25,172,233.08,168.85,239.4Z"/><circle class="cls-2" cx="284.08" cy="65.33" r="33.31" transform="translate(37.01 220.01) rotate(-45)"/><g id="QfoS7x.tif"><path class="cls-9" d="M293.79,51.7a8.64,8.64,0,0,0,.57.91l.05,0A8,8,0,0,1,293.79,51.7Zm.64,1h0l.35.24Zm5.65,6.06V56.11a9.05,9.05,0,0,1-1-.24,8.5,8.5,0,0,1-1.69-.67,8.59,8.59,0,0,1-1.5-1,8.42,8.42,0,0,1-.7-.64l-.1-.11-.08-.09a4.8,4.8,0,0,1-.55-.71.89.89,0,0,1-.25-.16,8.67,8.67,0,0,1-1-1.06,9.22,9.22,0,0,1-1.23-1.92,10.77,10.77,0,0,1-.76-2.15c-.06-.26-.12-.54-.18-.81h0v0h0v-.07h-5.08c-.11,0-.13,0-.13.14V72.81c0,.4-.05.8-.09,1.2a9.43,9.43,0,0,1-.27,1.5,2.57,2.57,0,0,1-.31.62A5.44,5.44,0,0,1,284,77.49a5.09,5.09,0,0,1-1,.74,5.49,5.49,0,0,1-1.63.59,6,6,0,0,1-.61.08c-.21,0-.41,0-.62,0a5.72,5.72,0,0,1-2.07-.43,5.13,5.13,0,0,1-1.32-.77,4.05,4.05,0,0,1-1.07-1.31,8.64,8.64,0,0,1-.44-1.15,5.39,5.39,0,0,0,.41,1.1.09.09,0,0,1,0,0h0a2.49,2.49,0,0,1-.43-.29l0,0a3.47,3.47,0,0,1-.46-.4,4.44,4.44,0,0,1-.93-1.51,6,6,0,0,1-.28-1,7.5,7.5,0,0,1-.11-.81c0-.16,0-.33,0-.49a6.22,6.22,0,0,1,.26-1.71,5.34,5.34,0,0,1,.8-1.6,4.91,4.91,0,0,1,1.45-1.31,5.58,5.58,0,0,1,1.68-.67,6.35,6.35,0,0,1,.78-.12,7.08,7.08,0,0,1,1.22,0,4.91,4.91,0,0,1,.86.08c.12,0,.14,0,.14-.12V60.87c-.42,0-.85,0-1.27,0a14.71,14.71,0,0,0-1.47.17,12.77,12.77,0,0,0-1.62.4c-.37.13-.74.27-1.11.44a10.93,10.93,0,0,0-1.6.9c-.37.25-.72.52-1.06.8a12,12,0,0,0-1,.93,11.26,11.26,0,0,0-1.05,1.32,12.75,12.75,0,0,0-1,1.74,14.05,14.05,0,0,0-.58,1.39,13.38,13.38,0,0,0-.55,2c-.06.33-.1.66-.14,1a12.81,12.81,0,0,0-.09,2,11,11,0,0,0,.09,1.13,11.72,11.72,0,0,0,.32,1.77,12.23,12.23,0,0,0,1.65,3.66,4,4,0,0,1,.28.43s.52.62.81.94c-.21-.24-.42-.48-.62-.73,0,0,0,0,0-.06l.09.06.24.2,0,0a11.5,11.5,0,0,0,1.07.76,12.28,12.28,0,0,0,1.46.81,15.7,15.7,0,0,0,2,.76,8.54,8.54,0,0,0,1,.21c.3.06.61.1.92.15a3,3,0,0,0,.42,0,13.07,13.07,0,0,0,1.39.07c.4,0,.8,0,1.2-.09a10.74,10.74,0,0,0,1.38-.23,11,11,0,0,0,2-.65A11.33,11.33,0,0,0,285.93,82a11.71,11.71,0,0,0,1.47-1.35,9.91,9.91,0,0,0,1-1.19,13.11,13.11,0,0,0,1.06-1.82,13.77,13.77,0,0,0,.82-2.22c.12-.42.21-.85.3-1.28s.1-.62.15-.94c0-.17,0-.35,0-.53.15-2.41,0-4.82.07-7.23s0-4.83,0-7.25V58l.25.21a10.79,10.79,0,0,0,1.24.89,12.73,12.73,0,0,0,1.21.65,15.43,15.43,0,0,0,2.21.83c.55.16,1.11.3,1.67.41s.85.16,1.28.22l.8.07.52,0c.09,0,.11,0,.11-.11C300.07,60.38,300.08,59.55,300.08,58.73ZM270.48,81h0Zm.09.07s0,0,0,0h0S270.58,81.09,270.57,81.08Zm.65.8.06.06Zm16.6-35.42h0Zm3.15,0v0Z"/><path class="cls-4" d="M301.67,62.91c0,.1,0,.12-.12.12-.37,0-.75-.05-1.12-.09l-.9-.12c-.34,0-.67-.12-1-.2a16.26,16.26,0,0,1-1.93-.54,13.79,13.79,0,0,1-1.5-.6,11.58,11.58,0,0,1-1.75-1,7.92,7.92,0,0,1-.91-.71s0,0,0,0c0,1,0,2,0,3q0,5.34,0,10.66a8,8,0,0,1-.08,1.09c0,.24-.05.48-.09.72s-.12.69-.2,1a11.5,11.5,0,0,1-.39,1.39,13.35,13.35,0,0,1-.65,1.62,14,14,0,0,1-1.08,1.83c-.19.27-.4.53-.61.78s-.39.44-.59.65a10.34,10.34,0,0,1-.92.82,10,10,0,0,1-.91.65,10.65,10.65,0,0,1-1.67.88,12.84,12.84,0,0,1-1.59.52c-.32.08-.65.14-1,.19s-.67.09-1,.13c-.09,0-.19,0-.28,0H280s-.06,0-.09,0c-.36,0-.72-.06-1.08-.11L278,85.6a8.46,8.46,0,0,1-1.85-.51c-.36-.13-.71-.28-1.06-.44a13.69,13.69,0,0,1-1.71-1c-.32-.21-.63-.44-.93-.68a11.86,11.86,0,0,1-1.1-1l0,0,0,0-.06-.06c-.29-.32-.82-.92-.81-.94a2.51,2.51,0,0,1,.28.21l.24.2,0,0a11.5,11.5,0,0,0,1.07.76,12.28,12.28,0,0,0,1.46.81,15.7,15.7,0,0,0,2,.76,8.54,8.54,0,0,0,1,.21c.3.06.61.1.92.15a3,3,0,0,0,.42,0,13.07,13.07,0,0,0,1.39.07c.4,0,.8,0,1.2-.09a10.74,10.74,0,0,0,1.38-.23,11,11,0,0,0,2-.65A11.33,11.33,0,0,0,285.93,82a11.71,11.71,0,0,0,1.47-1.35,9.91,9.91,0,0,0,1-1.19,13.11,13.11,0,0,0,1.06-1.82,13.77,13.77,0,0,0,.82-2.22c.12-.42.21-.85.3-1.28s.1-.62.15-.94c0-.17,0-.35,0-.53.15-2.41,0-4.82.07-7.23s0-4.83,0-7.25V58l.25.21a10.79,10.79,0,0,0,1.24.89,12.73,12.73,0,0,0,1.21.65,15.43,15.43,0,0,0,2.21.83c.55.16,1.11.3,1.67.41s.85.16,1.28.22l.8.07.52,0c.09,0,.11,0,.11-.11,0-.83,0-1.66,0-2.48V56.11h0a2.49,2.49,0,0,0,.46.09c.25,0,.49.07.74.09.1,0,.2,0,.31,0s.07,0,.06.08v6.53Z"/><path class="cls-5" d="M280.61,60.87h0c-.42,0-.85,0-1.27,0a14.71,14.71,0,0,0-1.47.17,12.77,12.77,0,0,0-1.62.4c-.37.13-.74.27-1.11.44a10.93,10.93,0,0,0-1.6.9c-.37.25-.72.52-1.06.8a12,12,0,0,0-1,.93,11.26,11.26,0,0,0-1.05,1.32,12.75,12.75,0,0,0-1,1.74,14.05,14.05,0,0,0-.58,1.39,13.38,13.38,0,0,0-.55,2c-.06.33-.1.66-.14,1a12.81,12.81,0,0,0-.09,2,11,11,0,0,0,.09,1.13,11.72,11.72,0,0,0,.32,1.77,12.23,12.23,0,0,0,1.65,3.66,4,4,0,0,1,.28.43l-.27-.23a12.11,12.11,0,0,1-1.21-1.36,12.47,12.47,0,0,1-1-1.53,12.68,12.68,0,0,1-.89-2.12,11.77,11.77,0,0,1-.39-1.66c-.06-.33-.09-.66-.13-1a1.09,1.09,0,0,0,0-.4V71.08a.07.07,0,0,0,0-.07c0-.32.05-.63.08-.94a13.17,13.17,0,0,1,.37-1.85,13.49,13.49,0,0,1,.56-1.62,12.79,12.79,0,0,1,1.35-2.46,12.08,12.08,0,0,1,.75-1,10.2,10.2,0,0,1,1-1,10.32,10.32,0,0,1,1.88-1.4,10.44,10.44,0,0,1,2.26-1,10,10,0,0,1,1.7-.4l.95-.12a12.85,12.85,0,0,1,1.52,0,9.71,9.71,0,0,1,1.2.1,2.57,2.57,0,0,0,.4.05c.08,0,.1,0,.1.12Z"/><path class="cls-5" d="M291,46.46h-5.08c-.11,0-.13,0-.13.14V72.81c0,.4-.05.8-.09,1.2a9.43,9.43,0,0,1-.27,1.5,2.57,2.57,0,0,1-.31.62A5.44,5.44,0,0,1,284,77.49a5.09,5.09,0,0,1-1,.74,5.49,5.49,0,0,1-1.63.59,6,6,0,0,1-.61.08c-.21,0-.41,0-.62,0a5.72,5.72,0,0,1-2.07-.43,5.13,5.13,0,0,1-1.32-.77,4.05,4.05,0,0,1-1.07-1.31l.25.14a5.49,5.49,0,0,0,1.48.55,5.6,5.6,0,0,0,1.73.13,5.53,5.53,0,0,0,2.14-.6,5.31,5.31,0,0,0,1-.69,5.79,5.79,0,0,0,1.18-1.38,3.51,3.51,0,0,0,.52-1.37c0-.34.1-.68.14-1a4.21,4.21,0,0,0,.05-.62c0-.35,0-.71,0-1.06q0-12.75,0-25.5a.33.33,0,0,0,0-.1c0-.06,0-.09.08-.08h6.41c.16,0,.17,0,.17.17a7,7,0,0,0,.13,1.36A.57.57,0,0,1,291,46.46Z"/><path class="cls-4" d="M282.21,62.4v5.72c0,.14,0,.14-.15.11a3.12,3.12,0,0,0-.44,0c-.22,0-.44,0-.66,0a7.11,7.11,0,0,0-1.72.16,5.21,5.21,0,0,0-1.53.56,4.88,4.88,0,0,0-.92.64,4.82,4.82,0,0,0-1.12,1.42,5.45,5.45,0,0,0-.54,1.51c-.05.22-.07.44-.1.66a6,6,0,0,0,0,.85,4.65,4.65,0,0,0,.14,1l.06.26a8.64,8.64,0,0,0,.44,1.15h0a2.93,2.93,0,0,1-.45-.3,3.47,3.47,0,0,1-.46-.4,4.44,4.44,0,0,1-.93-1.51,6,6,0,0,1-.28-1,7.5,7.5,0,0,1-.11-.81c0-.16,0-.33,0-.49a6.22,6.22,0,0,1,.26-1.71,5.34,5.34,0,0,1,.8-1.6,4.91,4.91,0,0,1,1.45-1.31,5.58,5.58,0,0,1,1.68-.67,6.35,6.35,0,0,1,.78-.12,7.08,7.08,0,0,1,1.22,0,4.91,4.91,0,0,1,.86.08c.12,0,.14,0,.14-.12V60.87h0a.44.44,0,0,0,.16,0,8.78,8.78,0,0,1,1.15.11,1.2,1.2,0,0,0,.2,0c.08,0,.09,0,.09.09Z"/><path class="cls-8" d="M294.43,52.67h0a.89.89,0,0,1-.25-.16,8.67,8.67,0,0,1-1-1.06,9.22,9.22,0,0,1-1.23-1.92,10.77,10.77,0,0,1-.76-2.15c-.06-.26-.12-.54-.18-.81h0v0h0v-.08h1.36c.07,0,.08,0,.08.08a9.23,9.23,0,0,0,.09,1.18,12.27,12.27,0,0,0,.42,1.89,10.88,10.88,0,0,0,.61,1.59c.08.18.17.34.25.49h0a8,8,0,0,0,.62.95h0v0h0Z"/><path class="cls-5" d="M300.1,54.7v1.4h0a9.05,9.05,0,0,1-1-.24,8.5,8.5,0,0,1-1.69-.67,8.59,8.59,0,0,1-1.5-1,8.42,8.42,0,0,1-.7-.64l-.1-.11a5.9,5.9,0,0,1-.63-.79h0l.35.25.05,0a8.56,8.56,0,0,0,1.32.74,8,8,0,0,0,.92.37,10.38,10.38,0,0,0,1.75.42c.4.06.8.11,1.2.13C300.09,54.62,300.1,54.65,300.1,54.7Z"/></g><circle class="cls-2" cx="211.08" cy="144.18" r="47.5" transform="translate(21.19 315.31) rotate(-76.36)"/><path class="cls-3" d="M180.78,174.5c1.31-4.74,2.48-9.14,3.78-13.5a4.85,4.85,0,0,0-.37-3.9c-9.16-18.48,3-40.81,23.54-43.32,18.88-2.31,34.86,11.93,34.46,30.71-.33,15.4-13.4,28.67-28.85,29.36A32.77,32.77,0,0,1,198.23,171a4.91,4.91,0,0,0-2.89-.22C190.6,171.9,185.9,173.17,180.78,174.5Zm7.38-7.17c3-.78,5.56-1.52,8.14-2.06a4.36,4.36,0,0,1,2.69.35,27.14,27.14,0,0,0,12.28,3.2c15.69.27,28.32-14.3,25.34-29.58-2.07-10.56-8.57-17.5-19.05-19.9-10.77-2.46-19.92,1-26.43,9.89-6.36,8.7-6.53,18.06-1.33,27.54a4.75,4.75,0,0,1,.38,3C189.68,162.19,188.91,164.58,188.16,167.33Z"/><path class="cls-3" d="M198.24,131.51c2.07-2.79,4.85-2.24,6.3.84.57,1.21.7,1.61,1.26,3,.83,2.07.65,3.46-.85,4.8-1.09,1-1,1.83-.23,3A21.4,21.4,0,0,0,214,150.9a2,2,0,0,0,2.8-.63c2.67-3.19,2.71-3.16,6.49-1.38l1.3.62c2.9,1.39,3.34,4,1,6.3a8.48,8.48,0,0,1-8.52,2.07c-8.15-2.06-14-7.19-18.5-14a11.8,11.8,0,0,1-2.32-6.9A10.23,10.23,0,0,1,198.24,131.51Z"/><circle class="cls-4" cx="67.32" cy="119.75" r="22.51" transform="translate(-40.22 34.27) rotate(-22.18)"/><g id="xsrjP0"><path class="cls-10" d="M63.91,129.73c-.67-.42-1.26-1-2.16-.94-.34,0-.27-.25-.27-.43q0-5.07,0-10.14c0-.24,0-.44.28-.58,2.57-1.31,3.69-3.87,5.26-6.06a10.1,10.1,0,0,0,1.84-7.67c-.11-.76.25-1.1.93-1.26a1.69,1.69,0,0,1,1.93.6,13.67,13.67,0,0,1,1.49,4.42,15.87,15.87,0,0,1-.46,3.8c-.11.92-.33,1.84-.5,2.78.23.16.49.08.73.08l8.56,0c1.2,0,1.79.33,2,1.13a2.28,2.28,0,0,1-1.23,2.48c-.21.11-.6,0-.62.35s.37.3.57.44c1,.7.84,2.16-.35,3-.28.21-.84.11-.86.54s.52.33.76.56a1.94,1.94,0,0,1-.82,3,3.7,3.7,0,0,0-.5.19c-.14.1-.28.21,0,.4a1.69,1.69,0,0,1,0,3l-.37.27a2.39,2.39,0,0,1-1.5.33l-13.42.05A1.57,1.57,0,0,1,63.91,129.73Z"/><path class="cls-10" d="M51.17,123.82c0-2.15,0-4.29,0-6.44,0-.43,0-.65.57-.64,2.62,0,5.23,0,7.85,0,.52,0,.6.17.59.63q0,6.48.05,12.95c0,.55-.14.71-.7.7-2.53,0-5.07,0-7.61,0-.63,0-.72-.21-.71-.76C51.2,128.11,51.17,126,51.17,123.82Z"/></g><circle class="cls-5" cx="174.38" cy="199.17" r="11.27"/><g id="K0pxJE"><path class="cls-3" d="M174.19,191.34a4.67,4.67,0,0,1,2.9.82,4,4,0,0,1,1.5,2.09,3.46,3.46,0,0,1,.14.91,10.59,10.59,0,0,1,0,1.38c0,.38,0,.76-.07,1.14,0,.16,0,.19.16.25a1,1,0,0,0,.67,0l.34-.13a.75.75,0,0,1,.84.17.37.37,0,0,1,0,.53,1.69,1.69,0,0,1-.65.4,5.71,5.71,0,0,0-.58.21,1.83,1.83,0,0,0-.34.18.72.72,0,0,0-.27.86,4.4,4.4,0,0,0,.55,1.08,5.12,5.12,0,0,0,1.6,1.61,3.9,3.9,0,0,0,1.36.53c.16,0,.22.13.15.28a.62.62,0,0,1-.31.31,3.72,3.72,0,0,1-1.06.37l-.62.11a.25.25,0,0,0-.22.19c-.08.21-.11.44-.17.66s-.12.28-.36.25-.58-.1-.88-.13a2.74,2.74,0,0,0-2,.55,7.65,7.65,0,0,1-.93.64,3.13,3.13,0,0,1-1.7.41,3.32,3.32,0,0,1-1.8-.63c-.31-.22-.61-.45-.93-.64a2.22,2.22,0,0,0-1-.32,4.75,4.75,0,0,0-1.41.12h0c-.33,0-.37,0-.44-.27s-.09-.38-.14-.57a.3.3,0,0,0-.28-.26,5.12,5.12,0,0,1-1.54-.43,1,1,0,0,1-.26-.16.5.5,0,0,1-.17-.23.19.19,0,0,1,.15-.25,3.82,3.82,0,0,0,1.05-.35,4.78,4.78,0,0,0,1.63-1.37,6,6,0,0,0,.79-1.31,2,2,0,0,0,.1-.35.76.76,0,0,0-.36-.73A2.07,2.07,0,0,0,169,199a2.29,2.29,0,0,1-.74-.35.57.57,0,0,1-.16-.15.37.37,0,0,1,.06-.56.68.68,0,0,1,.76-.1,1.43,1.43,0,0,0,.72.18.71.71,0,0,0,.4-.11.12.12,0,0,0,.07-.12l-.09-1.57a7.62,7.62,0,0,1,0-1.17,3,3,0,0,1,.16-.9,4.12,4.12,0,0,1,2.53-2.51A4.22,4.22,0,0,1,174.19,191.34Z"/></g><circle class="cls-4" cx="259.89" cy="106.05" r="11.27"/><circle class="cls-3" cx="259.89" cy="101.79" r="3.75"/><path class="cls-3" d="M266.38,112.14v1.37h-13v-1.37a6.49,6.49,0,0,1,13,0Z"/><path class="cls-4" d="M90.69,94.83a34.82,34.82,0,0,0,58.2,22l17.43,2.56-8.72-15.07A34.46,34.46,0,0,0,160,87.58a34.84,34.84,0,1,0-69.3,7.25Z"/><path class="cls-5" d="M101.11,66.05a34.85,34.85,0,0,1,29.19-9.69,35.06,35.06,0,0,1,14.87,5.58,35.28,35.28,0,0,1,13.06,42.67l0-.6,8.67,15.1.64,1.12-1.27-.2-17.41-2.67.41-.13A35.12,35.12,0,0,1,132,125.74a30.2,30.2,0,0,1-4.82.5,35.07,35.07,0,0,1-22.63-7,40.32,40.32,0,0,1-3.67-3.12,38.74,38.74,0,0,1-3.16-3.63,35.06,35.06,0,0,1,3.39-46.44Z"/><path class="cls-8" d="M105.92,92.26A4.22,4.22,0,1,0,110.13,88,4.21,4.21,0,0,0,105.92,92.26Z"/><path class="cls-8" d="M121,92.26A4.22,4.22,0,1,0,125.25,88,4.22,4.22,0,0,0,121,92.26Z"/><path class="cls-8" d="M136.14,92.26A4.22,4.22,0,1,0,140.36,88,4.22,4.22,0,0,0,136.14,92.26Z"/><path class="cls-4" d="M363.55,83.23a22.38,22.38,0,0,1-37.41,14.16L314.94,99l5.6-9.68a22.4,22.4,0,1,1,43-6.12Z"/><path class="cls-4" d="M363.55,83.23A22.46,22.46,0,0,1,359,94.58a23.52,23.52,0,0,1-2,2.33,23.84,23.84,0,0,1-2.36,2,22,22,0,0,1-5.4,3,22.39,22.39,0,0,1-6,1.44,21.53,21.53,0,0,1-3.11.06,19,19,0,0,1-3.1-.32,22.57,22.57,0,0,1-11.08-5.47l.27.08L315,99.43l-.81.12.41-.71,5.57-9.71,0,.39a22.65,22.65,0,0,1,28.07-30.08,22.87,22.87,0,0,1,8.64,5.29A22.5,22.5,0,0,1,363.55,83.23Z"/><path class="cls-3" d="M353.76,81.58a2.71,2.71,0,1,1-2.71-2.71A2.71,2.71,0,0,1,353.76,81.58Z"/><path class="cls-3" d="M344.05,81.58a2.71,2.71,0,1,1-2.71-2.71A2.71,2.71,0,0,1,344.05,81.58Z"/><path class="cls-3" d="M334.33,81.58a2.71,2.71,0,1,1-2.71-2.71A2.71,2.71,0,0,1,334.33,81.58Z"/><circle class="cls-5" cx="132.24" cy="30.74" r="22.51"/><g class="cls-11"><path d="M142.65,24.52A4.56,4.56,0,1,1,138.09,20,4.56,4.56,0,0,1,142.65,24.52Z"/><path d="M146,37.1v1.67H130.19V37.1a7.9,7.9,0,0,1,15.79,0Z"/></g><path class="cls-3" d="M131,27.27a4.56,4.56,0,1,1-4.56-4.56A4.57,4.57,0,0,1,131,27.27Z"/><path class="cls-3" d="M134.29,39.85v1.67H118.5V39.85a7.9,7.9,0,0,1,15.79,0Z"/><circle class="cls-4" cx="250.42" cy="189.03" r="11.27" transform="translate(8.68 389.05) rotate(-76.65)"/><path class="cls-3" d="M246.07,192.8h-.92a1,1,0,0,1,0-2.07h1.28l.6-3.48h-1.16a1,1,0,0,1,0-2.07h1.52l.4-2.38a1,1,0,0,1,1-.85,1.06,1.06,0,0,1,1,1.21l-.35,2h3.13l.4-2.38a1,1,0,0,1,1.06-.85,1,1,0,0,1,1,1.21l-.34,2h.92a1,1,0,1,1,0,2.07h-1.27l-.6,3.48H255a1,1,0,0,1,1,1,1,1,0,0,1-1,1h-1.49l-.42,2.46a1,1,0,0,1-1,.85,1,1,0,0,1-1-1.21l.38-2.1h-3.13l-.42,2.46a1,1,0,0,1-1.06.85,1,1,0,0,1-1-1.21Zm5.61-2.07.6-3.48h-3.11l-.6,3.48Z"/><circle class="cls-2" cx="97.94" cy="46.56" r="11.27" transform="translate(-7.68 21.96) rotate(-12.31)"/><path class="cls-3" d="M97.08,39.16A7.45,7.45,0,1,0,98.83,54a6.67,6.67,0,0,0,1.77-.45.59.59,0,0,0,.4-.34.6.6,0,0,0,0-.49.53.53,0,0,0-.24-.34.7.7,0,0,0-.57,0,5.42,5.42,0,0,1-1.5.34A6.13,6.13,0,1,1,104,45.83a5.78,5.78,0,0,1-.34,2.86,2.07,2.07,0,0,1-1,1.11l-.14,0c-.19,0-.25,0-.25,0a1.36,1.36,0,0,1-.18-.39c-.18-.72-.36-3-.36-3l0-.27A3.86,3.86,0,1,0,94.1,47a4,4,0,0,0,4.33,3.6,3.6,3.6,0,0,0,2.4-1.33l0,.34a2,2,0,0,0,.49,1,1.59,1.59,0,0,0,1.37.47,2.17,2.17,0,0,0,.45-.1,3.52,3.52,0,0,0,1.73-1.79s0-.05,0-.05l0,0a7.28,7.28,0,0,0,.38-3.46A7.45,7.45,0,0,0,97.08,39.16Zm1.19,10.08a2.59,2.59,0,0,1-2.8-2.4,2.63,2.63,0,0,1,2.16-3,2.66,2.66,0,0,1,2.82,2.41A2.62,2.62,0,0,1,98.27,49.24Z"/></g><g id="Character"><path class="cls-12" d="M104.17,426.83c.74-2.08,38.83-50.29,41.38-51.18.29-.12,16.62,12,16.62,12,.66.92,32.3-5.08,32.3-5.08l-.47,38-57.36-2.42s-7.85,4.4-15,8h0a86.2,86.2,0,0,1-9.42,4.33C109.3,431.15,103.42,428.9,104.17,426.83Z"/><path class="cls-3" d="M112.18,430.48a84.2,84.2,0,0,0,9.42-4.33h0c7.16-3.57,15-8,15-8l12.76.54,20.67-31.84c-4.41.68-7.69,1.08-7.9.78,0,0-16.32-12.13-16.62-12-2.55.89-40.64,49.1-41.38,51.18S109.3,431.16,112.18,430.48Z"/><path class="cls-5" d="M103.83,426.89c.77-2.14,39-50.31,41.65-51.23,1-.35,9,4.82,16.69,12l-24.7,31S115,430,112.05,430.68,103.06,429,103.83,426.89Z"/><path class="cls-8" d="M106.31,427.72c6.61-7.91,32.53-40.48,38.46-48.81,0-.07,0-.1-.05,0-6.72,7.71-32.38,40.48-38.55,48.75C106,427.79,106.17,427.89,106.31,427.72Z"/><path class="cls-8" d="M116.25,429a8.28,8.28,0,0,0,1.86-6.4,8,8,0,0,0-2.88-5.22s-.12.05-.07.09a9.59,9.59,0,0,1,1,11.45A.06.06,0,1,0,116.25,429Z"/><path class="cls-8" d="M134.64,420.59c2.62-3.2,4.45-7.85,3.4-12,0-.16-.26-.1-.29,0a57,57,0,0,1-3.55,11.66A.26.26,0,0,0,134.64,420.59Z"/><path class="cls-8" d="M131.69,422.31c2.61-3.19,4.45-7.85,3.4-12,0-.16-.27-.1-.29,0a57.29,57.29,0,0,1-3.55,11.66A.26.26,0,0,0,131.69,422.31Z"/><path class="cls-8" d="M128.74,424c2.61-3.19,4.44-7.85,3.39-11.95,0-.16-.26-.1-.29,0a56.67,56.67,0,0,1-3.55,11.66A.26.26,0,0,0,128.74,424Z"/><path class="cls-8" d="M125.78,425.76c2.61-3.2,4.45-7.85,3.4-12,0-.16-.27-.1-.29,0a57.67,57.67,0,0,1-3.55,11.66A.26.26,0,0,0,125.78,425.76Z"/><path class="cls-8" d="M150.81,387.06c2.87-3.63-2.78-8.1-5.65-4.46S147.94,390.7,150.81,387.06Z"/><path class="cls-8" d="M140.5,430.93c2.65-.56,3-3.67,2.36-5.8a21.76,21.76,0,0,0-5.94-9.5.1.1,0,0,0-.17,0,.5.5,0,0,0-.72.37c-.24,3.57-.93,7.35-.07,10.88C136.47,429,138,431.46,140.5,430.93Zm-3.73-9.42c.08-1.76.24-3.5.25-5.26,1.15,1.86,2.37,3.66,3.34,5.63a23.33,23.33,0,0,1,1.24,2.91c.51,1.55.69,6.87-3.08,4.4C136.44,427.83,136.69,423.6,136.77,421.51Z"/><path class="cls-8" d="M142.1,406.65c-2.67,2.47-4.17,6-5.94,9.11a.51.51,0,0,0,.4.71c0,.07,0,.14.13.12a21.68,21.68,0,0,0,10.18-4.66c1.68-1.44,3.14-4.21,1.23-6.14S143.66,405.2,142.1,406.65Zm3.39-.49c4.51,0,1.43,4.35.15,5.36a23.21,23.21,0,0,1-2.64,1.75,65.14,65.14,0,0,1-5.89,2.85c1-1.47,1.79-3,2.69-4.52C140.88,409.81,143,406.15,145.49,406.16Z"/><path class="cls-2" d="M196.34,373.55l25.87-2s37.36-10.83,59-5.16c24.75,6.5,28.24,35.42,3.08,47-24.9,11.46-134.51,7.24-134.51,7.24l23.49-34.81s36.09-8.47,67.69-6.75l-44.74,5.15Z"/><path class="cls-8" d="M196.6,380.91c3.85-.63,7.74-.94,11.62-1.31s7.84-.64,11.77-.89c7.82-.49,15.69-.65,23.52-.36.74,0,1.47.08,2.21.12a3.72,3.72,0,0,1,.48-.11c.38-.08.76-.17,1.14-.23.71-.13,1.42-.21,2.14-.31,1.48-.19,3-.32,4.46-.57.09,0,.12.13,0,.14-1.49.3-3,.7-4.45,1l-1.29.25c2.87.21,5.74.49,8.6.81.09,0,.09.15,0,.14-3.9-.31-7.84-.42-11.75-.43s-7.77,0-11.65.13c-7.85.28-15.71.82-23.54,1.48-4.39.37-8.8.82-13.2.91C196.26,381.68,196.16,381,196.6,380.91Z"/><path class="cls-8" d="M161,419.81c1.45-2.22,2.7-4.59,4-6.88l4-6.88c2.68-4.57,12.26-19.94,13.2-21,.06-.07.17,0,.14.09-.46,1.2-6.45,11.38-7.83,13.65-2.75,4.54-5.64,9-8.49,13.46-.81,1.28-1.66,2.54-2.48,3.82s-1.7,2.52-2.46,3.82C161,420,160.9,419.88,161,419.81Z"/><path class="cls-12" d="M289.64,433.84c-.64-2.11-36.41-52.07-38.91-53.08-.29-.14-17.17,11.22-17.17,11.22-.71.89-32-6.6-32-6.6l-1.32,38,57.41.31s7.62,4.76,14.61,8.66h0a83.64,83.64,0,0,0,9.2,4.77C284.31,437.92,290.29,435.94,289.64,433.84Z"/><path class="cls-3" d="M281.46,437.1a83.64,83.64,0,0,1-9.2-4.77h0c-7-3.9-14.61-8.66-14.61-8.66l-12.78-.07-19.13-32.79c4.36.9,7.62,1.45,7.85,1.16,0,0,16.88-11.35,17.17-11.21,2.5,1,38.27,51,38.91,53.08S284.31,437.92,281.46,437.1Z"/><path class="cls-5" d="M290,433.91c-.67-2.16-36.6-52.1-39.18-53.14-1-.4-9.21,4.39-17.23,11.21l23.21,32.16s21.87,12.34,24.81,13.18S290.65,436.08,290,433.91Z"/><path class="cls-8" d="M287.46,434.63c-6.23-8.22-30.58-42-36.11-50.58,0-.07,0-.1.05,0,6.36,8,30.43,42,36.2,50.51C287.72,434.72,287.59,434.81,287.46,434.63Z"/><path class="cls-8" d="M277.47,435.4a8.3,8.3,0,0,1-1.56-6.48,8,8,0,0,1,3.13-5.09s.11.06.07.1a9.57,9.57,0,0,0-1.53,11.39A.07.07,0,0,1,277.47,435.4Z"/><path class="cls-8" d="M259.49,426.16c-2.45-3.31-4.07-8.05-2.82-12.1,0-.16.27-.09.29.05a56.92,56.92,0,0,0,3,11.82A.26.26,0,0,1,259.49,426.16Z"/><path class="cls-8" d="M262.36,428c-2.45-3.32-4.07-8.06-2.82-12.11,0-.16.27-.09.29.05a56.3,56.3,0,0,0,3,11.82A.26.26,0,0,1,262.36,428Z"/><path class="cls-8" d="M265.23,429.89c-2.45-3.32-4.07-8.06-2.83-12.11.05-.16.28-.09.3.05a56.3,56.3,0,0,0,3,11.82A.26.26,0,0,1,265.23,429.89Z"/><path class="cls-8" d="M268.1,431.75c-2.45-3.32-4.07-8.06-2.83-12.11.05-.16.28-.09.3.05a56.3,56.3,0,0,0,3,11.82A.26.26,0,0,1,268.1,431.75Z"/><path class="cls-8" d="M244.93,391.91c-2.69-3.77,3.16-8,5.86-4.19S247.63,395.68,244.93,391.91Z"/><path class="cls-8" d="M257.88,432.42c1-3.49.52-7.3.45-10.87a.5.5,0,0,0-.7-.41.12.12,0,0,0-.18,0,21.68,21.68,0,0,0-6.37,9.21c-.71,2.1-.55,5.22,2.08,5.91C255.64,436.87,257.28,434.45,257.88,432.42Zm-2.67,2.15c-3.88,2.29-3.45-3-2.86-4.54a23.31,23.31,0,0,1,1.37-2.85c1.06-1.92,2.37-3.66,3.61-5.46-.07,1.76,0,3.51,0,5.26C257.31,429.08,257.36,433.31,255.21,434.57Z"/><path class="cls-8" d="M246.76,410.74c-2,1.84-.68,4.68.93,6.2a21.66,21.66,0,0,0,9.95,5.14.12.12,0,0,0,.14-.12.51.51,0,0,0,.43-.69c-1.62-3.18-3-6.79-5.5-9.39C251.22,410.37,248.65,409,246.76,410.74Zm8,6.2c.83,1.55,1.58,3.13,2.47,4.65a65,65,0,0,1-5.74-3.13,23.63,23.63,0,0,1-2.56-1.87c-1.23-1.07-4.1-5.55.4-5.36C251.83,411.34,253.77,415.1,254.77,416.94Z"/><path class="cls-2" d="M200.11,373.68,174.35,373s-26.59-13.67-48.42-9c-25,5.32-29.05,36.48-10.75,48,23.19,14.63,128.08,14.7,128.08,14.7l-21.64-39s-34.66-8.26-66.3-8l44.44,7.26Z"/><path class="cls-8" d="M223.06,390.2a1.42,1.42,0,0,1,0-.2l0-.16-.09-.38c-.07-.26-.15-.5-.24-.76l-.3-.74a7,7,0,0,0-.41-.69s0,0-.06,0l0,0,0,0-.06,0c-3.82-.81-29.77-5.23-33.63-5.78s-7.8-1-11.7-1.45c-7.8-.86-15.65-1.39-23.49-1.47h-2.2l-.48-.13-1.13-.29c-.7-.15-1.41-.27-2.12-.4-1.48-.27-3-.46-4.43-.78-.09,0-.13.12,0,.14,1.48.37,2.92.84,4.4,1.2l1.28.31c-2.88.07-5.76.22-8.63.4-.09,0-.1.15,0,.14,3.91-.12,7.85-.05,11.76.12s7.76.36,11.63.68c7.83.66,15.65,1.57,23.44,2.6,4.37.57,30.83,5.15,35.22,5.46h.06a1.82,1.82,0,0,0,.11.3c.12.25.23.48.36.72s.23.46.37.68l.21.32.1.16c0,.05.1.12.11.17S223.12,390.29,223.06,390.2Z"/><path class="cls-8" d="M235.15,424.14c-1.34-2.29-2.47-4.71-3.7-7.06s-2.45-4.71-3.68-7.07c-2.46-4.69-11.3-20.5-12.18-21.61-.06-.07-.18,0-.15.09.4,1.21,5.9,11.67,7.17,14,2.54,4.67,5.21,9.24,7.85,13.85.75,1.32,1.53,2.62,2.29,3.93s1.58,2.6,2.28,3.94C235.07,424.29,235.2,424.22,235.15,424.14Z"/><path class="cls-2" d="M150.64,266.82l3.94,29.59c.21.88-.29,1.52-1.12,1.42l-14.84-1.7a2.42,2.42,0,0,1-1.88-1.77l-3.94-29.59c-.22-.88.29-1.51,1.12-1.42l14.83,1.7A2.44,2.44,0,0,1,150.64,266.82Z"/><path class="cls-4" d="M148.88,266.6l3.94,29.59c.21.88-.29,1.52-1.12,1.42l-14.84-1.7a2.42,2.42,0,0,1-1.88-1.77L131,264.55c-.21-.88.29-1.51,1.12-1.42L147,264.84A2.41,2.41,0,0,1,148.88,266.6Z"/><path class="cls-8" d="M144.66,267.45A1.27,1.27,0,1,0,146,266.3,1.27,1.27,0,0,0,144.66,267.45Z"/><path class="cls-12" d="M193.62,313.87c-10.3,17-31.88,38.1-39.64,38.85-3.71.36-10.41.51-14.83-4.27-9.65-10.44-16.66-29.2-17.39-39.59-.26-3.7,18.22-9.69,20.51-6.46,5.37,7.57,11,21.89,12.11,21.92,4,.12,19.08-10.34,31.34-17.74C200.21,297.84,197.73,307.09,193.62,313.87Z"/><path class="cls-12" d="M123.3,290.07c2.65-7.17,4.43-8.6,3.45-15.84-.64-4.75,2.12-7.19,5-3.13,4.73,6.64,3.25,16.6,1.75,19.91Z"/><path class="cls-12" d="M122.28,312.11s-2.2-10.61-.13-18.53c1.43-5.47,5.86-17,22.1-21.67,3.85-1.1,10.12.07,4.48,4.15-4,2.9-7.42,3.52-9.44,5.63,0,0,7.79,2.43,8.74,6.34a73.84,73.84,0,0,1,1.76,10.37,14.69,14.69,0,0,1-1.91.5s.77,3.68-2.4,8.45Z"/><path class="cls-12" d="M124.35,288.58c2.45-1.67,7.7-5.12,13-6.45,5.86-1.48,17.56-2.74,18.6,1.6.77,3.18-3.65,4.06-3.65,4.06s4.94.49,5,3.52c.06,2.76-3.4,3.23-3.4,3.23s3,.82,2.49,3.48c-.55,3.21-6.64,1-10,3.74C145.62,302.38,124.35,288.58,124.35,288.58Z"/><path class="cls-8" d="M137.86,288.58a24.14,24.14,0,0,1,14.33-.89c.12,0,.16.15,0,.14a59.17,59.17,0,0,0-14.36.81S137.83,288.6,137.86,288.58Z"/><path class="cls-8" d="M139.52,294.46c2.31-.8,9.08-1.75,14.36,0,.12,0,.15.15,0,.13a63.75,63.75,0,0,0-14.38,0A0,0,0,0,1,139.52,294.46Z"/><path class="cls-5" d="M180.63,332.51l-21.81-10.75s20.82-13.64,30.5-17.7c10.1-4.23,13.47-1.92,5.22,10S180.63,332.51,180.63,332.51Z"/><path class="cls-3" d="M184.35,327.93l-.09.12a44.89,44.89,0,0,0-4-2.2,21.6,21.6,0,0,0-4.12-1.57l-.32-.08-.44-.1a13.08,13.08,0,0,0-5.14-.12,14.9,14.9,0,0,0-4,1.44l-.29-.15a15.68,15.68,0,0,1,4.29-1.52,13.16,13.16,0,0,1,5.23.15l.58.14.32.08a22.74,22.74,0,0,1,4,1.58A44.23,44.23,0,0,1,184.35,327.93ZM197.69,308a18.09,18.09,0,0,0-4.22,3.1,18.65,18.65,0,0,0-3.14,4.2,31.77,31.77,0,0,0-2.18,5,1.07,1.07,0,0,0-.07.19c-.52,1.49-1,3-1.46,4.51.17-.23.35-.46.52-.7.4-1.26.79-2.52,1.23-3.76a1.39,1.39,0,0,1,.06-.19,31.56,31.56,0,0,1,2.14-4.92,17.92,17.92,0,0,1,7.23-7.24l.36-.19.15-.34Zm-9.26,12.36-.08,0-.2,0a13.3,13.3,0,0,0-5,.1,16.84,16.84,0,0,0-4.82,2.05,18.71,18.71,0,0,0-2.25,1.6l-.19.16a19.68,19.68,0,0,0-1.64,1.53,23.43,23.43,0,0,0-2.1,2.58l.22.11a23.58,23.58,0,0,1,2.07-2.51,21,21,0,0,1,1.77-1.63l.19-.16a19.8,19.8,0,0,1,2.07-1.46,16.31,16.31,0,0,1,4.74-2,13,13,0,0,1,4.9-.14l.24,0h.05c.45.08.9.17,1.35.29l.13-.17C189.38,320.53,188.91,320.42,188.43,320.34Z"/><path class="cls-8" d="M181,328c-.49-.32-1-.56-1.54-.83l-1.59-.83c-1.07-.57-2.15-1.11-3.24-1.65-2.16-1.08-4.33-2.16-6.51-3.2-.6-.29-1.2-.57-1.81-.84s-1.3-.52-1.94-.81c0,0-.06.05,0,.07.53.28,1,.6,1.56.89l1.63.86,3.25,1.61c2.14,1.05,4.28,2.1,6.44,3.1l1.82.83c.63.29,1.26.62,1.91.86C181,328.1,181,328.05,181,328Z"/><path class="cls-13" d="M194.54,314.05c-8.3,12-13.91,18.46-13.91,18.46L171,327.74l26.87-25.44C200.28,303.14,199.55,306.83,194.54,314.05Z"/><path class="cls-5" d="M169.25,373.42c.89,1.05,60.6.36,60.93,0,.88-1-9.56-52.49-20.05-68.2-3.55-5.3-14.8-6.38-18.73-1.24C180.12,318.74,168.48,372.49,169.25,373.42Z"/><path class="cls-3" d="M221.81,335.18l0,0a18.82,18.82,0,0,1-3.8,2.72,20.37,20.37,0,0,1-4.88,1.88,15.81,15.81,0,0,1-5.22.37,20.26,20.26,0,0,1-5.1-1.14,34.49,34.49,0,0,1-4.76-2.15c-1.69-.92-3.32-1.94-4.93-3l-.26-.17c-1.22-.8-2.42-1.62-3.63-2.43s-2.39-1.62-3.61-2.41l-.24-.15c-1.36-.87-2.74-1.7-4.18-2.44a1,1,0,0,1,.05-.16c1.44.75,2.82,1.58,4.18,2.46l.24.16c1.23.79,2.43,1.62,3.63,2.44s2.41,1.66,3.64,2.46a1.92,1.92,0,0,0,.26.17l.43.29c1.46.94,3,1.84,4.47,2.67a32.59,32.59,0,0,0,4.76,2.12A19.16,19.16,0,0,0,207.9,340a15.67,15.67,0,0,0,5.15-.39,20,20,0,0,0,4.82-1.9,17.75,17.75,0,0,0,3.53-2.52.94.94,0,0,0,.18-.17.64.64,0,0,0,.15-.14c0,.05,0,.09,0,.14S221.8,335.13,221.81,335.18Zm-11.05-29a20.13,20.13,0,0,0-3-.49,4.58,4.58,0,0,0-.53,0,2.36,2.36,0,0,0-.38,0,14.82,14.82,0,0,0-4.3.41,19.83,19.83,0,0,0-4.88,1.89,18.09,18.09,0,0,0-4.22,3.1,18.65,18.65,0,0,0-3.14,4.2,31.77,31.77,0,0,0-2.18,5,1.07,1.07,0,0,0-.07.19c-.53,1.51-1,3-1.48,4.57-.37,1.18-.76,2.37-1.2,3.54a.58.58,0,0,0-.05.14,24,24,0,0,1-3,5.73,16,16,0,0,1-2.89,3l-.25.2-.56.41a15.44,15.44,0,0,1-1.4.86l-.12.43a18.39,18.39,0,0,0,1.7-1c.27-.19.53-.38.78-.59l.26-.21a16.73,16.73,0,0,0,2.72-2.86,23.89,23.89,0,0,0,3-5.76s0-.08,0-.13c.46-1.19.85-2.41,1.24-3.61.49-1.54,1-3.09,1.49-4.61a1.39,1.39,0,0,1,.06-.19,31.56,31.56,0,0,1,2.14-4.92,17.92,17.92,0,0,1,7.23-7.24,19.41,19.41,0,0,1,4.82-1.89,14.66,14.66,0,0,1,4.07-.45h.38l.7,0a19.42,19.42,0,0,1,3.11.52ZM209.07,304a16.35,16.35,0,0,0-2.2,1.7l-.18.16q-.47.44-.9.9a18.77,18.77,0,0,0-3,4.33,52.74,52.74,0,0,0-3.3,9.92c-.33,1.2-.67,2.4-1.07,3.58a.57.57,0,0,1,0,.14,23.18,23.18,0,0,1-2.78,5.86,16.37,16.37,0,0,1-2.73,3.08.27.27,0,0,1-.08.07c-.24.21-.48.41-.73.6a20.17,20.17,0,0,1-4.51,2.52,13.64,13.64,0,0,1-5.06.9,20.36,20.36,0,0,1-2.7-.24c-.14,0-.27,0-.41-.06q-.84-.13-1.68-.33l-.06.22c.49.11,1,.22,1.49.31l.4.07a20.9,20.9,0,0,0,3,.29,13.78,13.78,0,0,0,5.16-.89,19.64,19.64,0,0,0,4.59-2.55c.28-.21.55-.44.81-.67l.08-.07a16.54,16.54,0,0,0,2.71-3.08,23.45,23.45,0,0,0,2.8-5.87s0-.09,0-.14c.41-1.21.75-2.44,1.09-3.66a51.7,51.7,0,0,1,3.27-9.87,18.59,18.59,0,0,1,2.91-4.28,12.11,12.11,0,0,1,1.08-1.07.8.8,0,0,1,.18-.15,15.6,15.6,0,0,1,2-1.56A1.29,1.29,0,0,0,209.07,304Zm12.74,31.2c0-.05,0-.1,0-.15a.61.61,0,0,1-.19,0h-.14a19.71,19.71,0,0,1-5.11-.89,34.76,34.76,0,0,1-4.84-1.91q-2.34-1.16-4.59-2.48c-1.5-.89-3-1.81-4.45-2.74-1.23-.77-2.47-1.54-3.73-2.28a2.26,2.26,0,0,0-.26-.16,50.72,50.72,0,0,0-5.12-2.67,21.27,21.27,0,0,0-4.91-1.56l-.08,0-.2,0a13.24,13.24,0,0,0-4.86.07c0,.09-.07.17-.1.26a13,13,0,0,1,4.89-.14l.24,0h.05a21.76,21.76,0,0,1,4.9,1.53,50.05,50.05,0,0,1,5.15,2.65l.26.16c1.25.73,2.48,1.48,3.71,2.24,3,1.82,5.91,3.68,9.05,5.22a33.42,33.42,0,0,0,4.85,1.95,19.75,19.75,0,0,0,5.11.92h.42A0,0,0,0,0,221.81,335.18Zm3.91,15a18.48,18.48,0,0,0-4.51,2.31,52.17,52.17,0,0,0-7.68,7.09c-.86.89-1.74,1.78-2.66,2.63l-.11.1a23.58,23.58,0,0,1-5.27,3.79,16.32,16.32,0,0,1-4.9,1.57l-.12,0a20.32,20.32,0,0,1-5.05,0,13.08,13.08,0,0,1-3.91-1.17l-.34-.16-.61-.32a23.68,23.68,0,0,1-4.16-3.1c-2.22-2-4.24-4.22-6.53-6.16l-.16-.14c-.32-.27-.65-.53-1-.79a20,20,0,0,0-4.49-2.67l-.65-.25-.13,0s0,0,0,.08l0,0,.72.29a20.35,20.35,0,0,1,4.44,2.7l.94.76.16.14c2.27,2,4.29,4.2,6.51,6.24a23.85,23.85,0,0,0,4.18,3.15l.45.24.34.17a13.28,13.28,0,0,0,4.16,1.31,19.64,19.64,0,0,0,5.25,0h0l.11,0a16.76,16.76,0,0,0,4.87-1.59,23.59,23.59,0,0,0,5.28-3.79l.11-.1c.94-.87,1.84-1.78,2.71-2.69a52.5,52.5,0,0,1,7.63-7.06,18.74,18.74,0,0,1,4.43-2.27A2.68,2.68,0,0,0,225.72,350.14Zm-10,20.63c-.89-1.5-1.73-3-2.58-4.54-.71-1.27-1.42-2.55-2.16-3.8l-.15-.26a49.8,49.8,0,0,0-3.21-4.82,21,21,0,0,0-3-3.29,1.2,1.2,0,0,0-.21-.19l-.36-.31a13.25,13.25,0,0,0-4.61-2.46,16.66,16.66,0,0,0-5.21-.53,19.23,19.23,0,0,0-5.16.92,17.34,17.34,0,0,0-1.7.63,1.08,1.08,0,0,0-.28.11,37.5,37.5,0,0,0-7.2,4.24l-.19.14-.13.09a76.58,76.58,0,0,1-8.31,5.61l-.05,0a.65.65,0,0,1,0,.13.17.17,0,0,1,0,.07l.05,0,.12-.06a78.18,78.18,0,0,0,8.4-5.61l.13-.09.15-.11a37.07,37.07,0,0,1,7.39-4.27l.27-.11c.48-.19,1-.37,1.47-.52a20.17,20.17,0,0,1,5.1-.91,16.37,16.37,0,0,1,5.13.49,13,13,0,0,1,4.55,2.4,4.38,4.38,0,0,1,.34.29,1.24,1.24,0,0,1,.22.19,20.9,20.9,0,0,1,3,3.26,50.47,50.47,0,0,1,3.23,4.81l.15.26c.74,1.24,1.46,2.5,2.17,3.75,1.43,2.52,2.84,5.06,4.42,7.49h.14C217,372.78,216.36,371.78,215.76,370.77Zm-13.51-.5c-.51-.78-1-1.57-1.49-2.36a2.61,2.61,0,0,1-.17-.28c-.38-.6-.74-1.19-1.11-1.79-.77-1.24-1.53-2.48-2.32-3.7l-.17-.25a49.78,49.78,0,0,0-3.4-4.68,20.91,20.91,0,0,0-3.77-3.63,14.65,14.65,0,0,0-2.14-1.32l-.3-.14a12.24,12.24,0,0,0-2.27-.8,16.7,16.7,0,0,0-5.23-.31,19.09,19.09,0,0,0-5.11,1.13q-.65.24-1.26.51l0,.2s0,0,0,.08,0,0,0,0l0,0a.27.27,0,0,1,.11-.05c.42-.19.84-.36,1.27-.51a19.76,19.76,0,0,1,5-1.12,16.18,16.18,0,0,1,5.15.27,12.25,12.25,0,0,1,2,.69l.31.14a14,14,0,0,1,2.29,1.37,21.19,21.19,0,0,1,3.75,3.58A51.14,51.14,0,0,1,196.9,362c0,.08.1.17.16.25.79,1.21,1.56,2.44,2.32,3.66l1.09,1.75.18.28c1.27,2,2.57,4.06,4,6h.14Q203.46,372.14,202.25,370.27Zm23.32-20.77a15,15,0,0,0-3.74-1.2,20,20,0,0,0-5.23-.25,18,18,0,0,0-5.12,1.12,18.67,18.67,0,0,0-4.57,2.56,26.74,26.74,0,0,0-2.49,2.14l-.15.14c-1.68,1.62-3.19,3.4-4.73,5.14-.83.93-1.67,1.86-2.55,2.74l-.09.1a23.8,23.8,0,0,1-5.11,4l-.62.33-.29.14a16,16,0,0,1-3.92,1.31,19.83,19.83,0,0,1-5.16.25,13.35,13.35,0,0,1-4.93-1.44,23.53,23.53,0,0,1-4.29-2.92c-.46-.38-.91-.77-1.36-1.16l0,0a.17.17,0,0,1,0,.07.85.85,0,0,1,0,.17l1.31,1.13a23.8,23.8,0,0,0,4.31,3,13.77,13.77,0,0,0,5,1.5,19.58,19.58,0,0,0,5.24-.24,16.51,16.51,0,0,0,4.21-1.44l.29-.15c.15-.07.29-.15.43-.23a23.55,23.55,0,0,0,5.12-4l.1-.1c.9-.91,1.76-1.85,2.59-2.8,1.55-1.75,3.07-3.54,4.74-5.14l.14-.14a27.14,27.14,0,0,1,2.45-2.1,18.35,18.35,0,0,1,4.5-2.54,18.09,18.09,0,0,1,5-1.14,19.9,19.9,0,0,1,5.17.22,14.75,14.75,0,0,1,3.83,1.22A1.74,1.74,0,0,0,225.57,349.5Z"/><path class="cls-12" d="M216.43,308.13c24.75,21,46.6,49,43.94,57.41-2.82,8.91-21.34,18-37.27,19.09-3.27.23-11.87-24.13-8.49-25,2.64-.7,14.59-3.34,16.09-4.86,1.05-1.07-16.44-25.44-21.57-39.2C203.75,301.16,209.81,302.5,216.43,308.13Z"/><path class="cls-12" d="M221.33,359.29s-10,.4-16.44,1c-3.62.32-9.78,1.42-12.34,2.87-3.82,2.17-18.41,13.69-15.69,17.28,2.45,3.26,6.74-1.41,6.74-1.41s-5.16,4.67-1.73,7.15,8.45-4.12,8.45-4.12-5.82,4.57-1.91,6.87c3.4,2,10-5,10-5S191.75,388,195,390.4c3.63,2.64,14.8-6.62,14.8-6.62,8.41,1.45,13.65,1.18,19.71-.14C230.66,383.4,221.33,359.29,221.33,359.29Z"/><path class="cls-8" d="M188.73,383.59c.42-.5.84-1,1.26-1.5a32.33,32.33,0,0,1,2.54-2.82c.9-.86,1.83-1.67,2.79-2.45s2.11-1.56,3.09-2.41a.07.07,0,1,1,.1.11,33.6,33.6,0,0,0-2.81,2.66c-.9.89-1.79,1.79-2.68,2.7s-1.79,1.69-2.68,2.55q-.66.65-1.29,1.32a11.17,11.17,0,0,1-1.24,1.24.05.05,0,0,1-.08-.07A8.57,8.57,0,0,1,188.73,383.59Z"/><path class="cls-8" d="M182.54,380a49.55,49.55,0,0,1,4.61-5.35,34.55,34.55,0,0,1,5.5-4.45c.07,0,.15.06.09.11-1.68,1.67-3.38,3.31-5.09,4.95-.83.8-4.49,4.56-4.93,4.91C182.62,380.25,182.48,380.1,182.54,380Z"/><path class="cls-8" d="M194.46,387.13a51,51,0,0,1,4.42-5,45.21,45.21,0,0,1,5.57-3.89c.07,0,.15.06.09.11-1.75,1.43-3.52,2.83-5.2,4.35-.81.74-3.9,3.87-4.74,4.51C194.52,387.31,194.41,387.2,194.46,387.13Z"/><path class="cls-5" d="M218.24,336.44l23.53-6.12s-17.63-17.57-26.3-23.5c-9-6.19-12.8-4.6-7.13,8.74S218.24,336.44,218.24,336.44Z"/><path class="cls-3" d="M220.56,310.73q-1.42-.9-2.91-1.71a33.4,33.4,0,0,0-4.76-2.16,19.89,19.89,0,0,0-5.11-1.13,4.58,4.58,0,0,0-.53,0,2.36,2.36,0,0,0-.38,0c-.39,0-.79,0-1.18,0a1.15,1.15,0,0,0,0,.19c.34,0,.68,0,1,0h.38l.7,0a20.08,20.08,0,0,1,5.07,1.11,34.75,34.75,0,0,1,4.75,2.12c1.19.65,2.36,1.34,3.51,2.05Zm-11-7.09a17.4,17.4,0,0,0-2.72,2l-.18.16q-.47.44-.9.9l-.09.1c0,.12,0,.25,0,.38a3.31,3.31,0,0,1,.25-.3,12.11,12.11,0,0,1,1.08-1.07.8.8,0,0,1,.18-.15,17.2,17.2,0,0,1,2.62-2Zm27.89,22.48a17.53,17.53,0,0,1-6.18,6.2,17.93,17.93,0,0,1-3,1.51l1.37-.35c.61-.29,1.21-.61,1.79-1a18.48,18.48,0,0,0,4.09-3.28,17.69,17.69,0,0,0,2.17-2.92Z"/><path class="cls-3" d="M229.74,318.81c-.24.68-.46,1.36-.68,2.05a52.18,52.18,0,0,1-3.72,9.76,18.43,18.43,0,0,1-3.14,4.2,2.4,2.4,0,0,1-.24.22,15.55,15.55,0,0,0,2-.1l-1,.26c-.4,0-.81,0-1.22,0a6.2,6.2,0,0,1-.48.43l-.59.16a6.44,6.44,0,0,0,.69-.6,20.33,20.33,0,0,1-4.18-.65,1.51,1.51,0,0,0-.09-.18,19.72,19.72,0,0,0,4.31.66h.14a5.36,5.36,0,0,0,.43-.4,18.35,18.35,0,0,0,3.08-4.14,52.07,52.07,0,0,0,3.7-9.72c.23-.72.46-1.45.72-2.17Z"/><path class="cls-8" d="M218.77,332c.54-.21,1.12-.35,1.68-.51l1.72-.49c1.16-.33,2.33-.65,3.5-1,2.34-.61,4.68-1.24,7-1.81.64-.16,1.29-.32,1.94-.46s1.38-.25,2.06-.4c0,0,.05,0,0,.06-.57.17-1.13.39-1.71.57l-1.77.5-3.51.93c-2.31.59-4.61,1.19-6.93,1.73l-1.95.45c-.67.16-1.36.35-2.05.45C218.76,332,218.74,332,218.77,332Z"/><path class="cls-8" d="M210.09,322.1a0,0,0,0,1,.08-.05,18,18,0,0,1,1.7,2.26c-.18-.4-.37-.79-.54-1.18-.57-1.28-1.11-2.57-1.68-3.84a0,0,0,0,1,.07,0c1.14,2.16,2.38,4.27,3.46,6.46s2.16,4.37,3.2,6.58c.58,1.21,1.2,2.76,1.77,4,.7-.08,1.57-.33,2.32-.43.07,0,.08.1,0,.11-.77.21-1.66.6-2.49.74-.11,0-4-7.77-5.73-11.53C211.51,324.15,210.78,323.14,210.09,322.1Z"/><path class="cls-12" d="M194.87,313.46c3.37,1,9.52-3.9,12.07-8,.17-.28-.11-3.36-.26-7.11-.09-2.29-.13-4.83,0-7.15,0-.48-14.76,2.73-14.76,2.73a37.14,37.14,0,0,1,.91,9,6.6,6.6,0,0,1-.15.94.76.76,0,0,0,0,.16C192.25,305.82,191.61,312.49,194.87,313.46Z"/><path class="cls-8" d="M205.78,291.21c-.9,3.89-3.86,13.24-11.64,13a9.26,9.26,0,0,1-1.49-.17.76.76,0,0,1,0-.16,5.43,5.43,0,0,0,.15-.94,37.06,37.06,0,0,0-.91-9S202.58,291.61,205.78,291.21Z"/><path class="cls-12" d="M208.61,274.05c1.33,5.24-2.1,20-5.93,23.19-5.55,4.58-14.29,4.63-18.09-2-3.68-6.39,1.13-25.6,5.37-28.43C196.22,262.67,206.64,266.31,208.61,274.05Z"/><path class="cls-12" d="M208.61,274.05c1.33,5.24-2.1,20-5.93,23.19-5.55,4.58-14.29,4.63-18.09-2-3.68-6.39,1.13-25.6,5.37-28.43C196.22,262.67,206.64,266.31,208.61,274.05Z"/><path class="cls-8" d="M193.34,282.66s.06.07,0,.11c-.25,1-.38,2.17.45,2.7,0,0,0,.07,0,.06C192.75,285.12,192.93,283.56,193.34,282.66Z"/><path class="cls-8" d="M194.46,281.82c1.64.24,1,3.49-.48,3.27S193.1,281.62,194.46,281.82Z"/><path class="cls-8" d="M187.7,281.64s-.09,0-.09.08c-.16,1-.51,2.14-1.48,2.31,0,0,0,.05,0,.06C187.27,284.14,187.72,282.63,187.7,281.64Z"/><path class="cls-8" d="M187,280.43c-1.6-.43-2.33,2.79-.85,3.19S188.34,280.78,187,280.43Z"/><path class="cls-8" d="M196.43,279.26c-.45-.12-.85-.3-1.28-.46a2.19,2.19,0,0,1-1.21-.72.69.69,0,0,1,.12-.84,1.74,1.74,0,0,1,1.75-.17,2.52,2.52,0,0,1,1.45,1.11A.74.74,0,0,1,196.43,279.26Z"/><path class="cls-8" d="M186,278.73a12.26,12.26,0,0,0,1.35-.1,2.15,2.15,0,0,0,1.36-.36.7.7,0,0,0,.12-.84,1.74,1.74,0,0,0-1.64-.64,2.54,2.54,0,0,0-1.7.67A.75.75,0,0,0,186,278.73Z"/><path class="cls-8" d="M193.28,292.32c-.29.19-.59.47-1,.43a2.7,2.7,0,0,1-1-.45s-.07,0,0,0a1.37,1.37,0,0,0,1.17.79,1.11,1.11,0,0,0,1-.75C193.39,292.33,193.32,292.29,193.28,292.32Z"/><path class="cls-8" d="M192.78,289.11a3.48,3.48,0,0,1-2.57,1.1A4.36,4.36,0,0,1,189,290l-.23-.07-.21-.08a.24.24,0,0,1-.16-.26h0a.22.22,0,0,1,0-.1h0l0-.08c.12-.78.41-1.95.41-1.95-.31.09-1.87.47-1.77.07a52.71,52.71,0,0,1,3.25-10.11.1.1,0,0,1,.18.06c-.66,3.21-1.89,6.29-2.61,9.5a6.26,6.26,0,0,1,1.71-.19c.1.06-.61,2.24-.64,2.6v0a4.86,4.86,0,0,0,3.75-.45C192.79,289,192.86,289,192.78,289.11Z"/><path class="cls-8" d="M189.5,289.73a4.1,4.1,0,0,0,1.39,1.56,1.87,1.87,0,0,0,1.1.28c.84-.06,1-.8,1-1.45a4.28,4.28,0,0,0-.18-1A5.38,5.38,0,0,1,189.5,289.73Z"/><path class="cls-14" d="M190.89,291.29a1.87,1.87,0,0,0,1.1.28c.84-.06,1-.8,1-1.45A1.91,1.91,0,0,0,190.89,291.29Z"/><path class="cls-15" d="M208,285c-.95-.39-2.51-4.28-3.19-5.84s.44-8.78.73-10.4a10.91,10.91,0,0,1,3.12,5.21C209.28,276.33,208.93,280.64,208,285Z"/><path class="cls-8" d="M192,271.66a5.21,5.21,0,0,0,4.31,2.69,5.3,5.3,0,0,0,4.65-2.28,0,0,0,0,1,.07.05,5.28,5.28,0,0,1-4.74,2.66,5.37,5.37,0,0,1-4.4-3.06C191.82,271.65,191.93,271.59,192,271.66Z"/><path class="cls-8" d="M199.85,260.15a8.18,8.18,0,0,1,6,5.11,5.82,5.82,0,0,1-.21,3.85s-.12,0-.1,0a6.42,6.42,0,0,0-1.8-6.29,8.27,8.27,0,0,0-7-2.34,5.2,5.2,0,0,0-3.21,1.64c-.08.09-.29,0-.22-.12C194.49,260.28,197.19,259.53,199.85,260.15Z"/><path class="cls-8" d="M181.34,263a6.72,6.72,0,0,1,3.51-2.94c2.05-.75,4.06-.16,6.06.47a0,0,0,1,1,0,.08,9.12,9.12,0,0,0-5.21-.47,6.47,6.47,0,0,0-3.61,2.51,6.37,6.37,0,0,0,1,8.29,6.44,6.44,0,0,0,4.9,1.55c.07,0,.1.09,0,.1a6.52,6.52,0,0,1-6.64-9.59Z"/><path class="cls-8" d="M209,277.09s3.88-4.73,2.15-8.27c-1-2-5.45-2.67-5.45-2.67a8.18,8.18,0,0,0-4.41-4.4c-3.53-1.59-8.36-.32-8.36-.32s-3.11-2.72-6.78-1.5c-5.12,1.7-5.95,8.81-1.79,12,2.93,2.24,7.91.25,7.91.25.41.14,4.23,3.63,8.28.42,0,0,2.19,2.91,4.92,1.73A3.93,3.93,0,0,0,209,277.09Z"/><path class="cls-12" d="M204.85,286.06s3.69-4.59,5.8-3.24-.9,8.17-3.53,8.95a2.63,2.63,0,0,1-3.41-1.64Z"/><path class="cls-8" d="M209.74,284.75a0,0,0,0,1,0,.07c-1.85.61-2.91,2.22-3.69,3.9a1.45,1.45,0,0,1,2.18-.25s0,.11-.05.1a1.61,1.61,0,0,0-1.81.44,7.56,7.56,0,0,0-.94,1.37c-.1.16-.38.05-.31-.13l0,0C205.26,287.91,207.26,284.82,209.74,284.75Z"/><path class="cls-8" d="M208.68,306.58a68.26,68.26,0,0,1-5.2,5.55,11.15,11.15,0,0,1-6.27,3.22c-2.31.19-4.62-.3-5.45-3.14a17,17,0,0,1-.09-7.42c0-.13-.16-.16-.18,0-.55,3.7-1.16,9.42,2.19,10.73,3.74,1.46,7.45-.44,10.12-3a35.16,35.16,0,0,0,4.95-5.85S208.71,306.54,208.68,306.58Z"/></g></g></svg>