<svg xmlns="http://www.w3.org/2000/svg" viewBox="0 0 284.74 340.3"><defs><style>.cls-1{fill:#005f93;}.cls-2{fill:#0966a3;}.cls-3{fill:#0d68a1;}.cls-4{fill:#157eb7;}.cls-5{fill:#146eaa;}.cls-6{fill:#30a8da;}.cls-7{fill:#238bc8;}.cls-8{fill:#024f85;}.cls-9{fill:#004772;}.cls-10{fill:#3ebde5;}</style></defs><g id="Calque_2" data-name="Calque 2"><g id="layer"><polygon class="cls-1" points="195.85 81.12 180.83 81.56 203.91 65.01 195.85 81.12"/><polygon class="cls-1" points="180.83 81.56 169.73 83.08 169.73 73.5 180.83 81.56"/><polygon class="cls-2" points="180.83 81.56 203.91 65.01 169.73 73.5 180.83 81.56"/><polygon class="cls-3" points="195.85 81.12 180.83 81.56 194.33 96.58 195.85 81.12"/><polygon class="cls-4" points="195.85 81.12 203.91 65.01 194.33 96.58 195.85 81.12"/><polygon class="cls-5" points="154.5 82.46 169.73 83.08 169.73 73.5 154.5 82.46"/><polygon class="cls-1" points="154.5 82.46 169.73 83.08 154.08 88.38 154.5 82.46"/><polygon class="cls-5" points="184.58 62.21 203.91 65.01 169.73 73.5 184.58 62.21"/><polygon class="cls-4" points="184.58 62.21 171.75 62.79 169.73 73.5 184.58 62.21"/><polygon class="cls-6" points="184.58 62.21 188.25 55.38 171.75 62.79 184.58 62.21"/><polygon class="cls-7" points="159.06 74.25 171.75 62.79 169.73 73.5 159.06 74.25"/><polygon class="cls-4" points="159.06 74.25 154.5 82.46 169.73 73.5 159.06 74.25"/><polygon class="cls-6" points="159.06 74.25 153.38 71.19 171.75 62.79 159.06 74.25"/><polygon class="cls-7" points="159.06 74.25 154.5 82.46 147.25 74.13 159.06 74.25"/><polygon class="cls-4" points="184.58 62.21 203.91 65.01 188.25 55.38 184.58 62.21"/><polygon class="cls-7" points="201.33 58.04 203.91 65.01 188.25 55.38 201.33 58.04"/><polygon class="cls-6" points="201.33 58.04 201.92 53.71 188.25 55.38 201.33 58.04"/><polygon class="cls-4" points="201.33 58.04 203.91 65.01 201.92 53.71 201.33 58.04"/><polygon class="cls-5" points="205 80.75 203.91 65.01 194.33 96.58 205 80.75"/><polygon class="cls-1" points="205 80.75 213.63 94.38 194.33 96.58 205 80.75"/><polygon class="cls-4" points="187.25 109.63 180.83 81.56 194.33 96.58 187.25 109.63"/><polygon class="cls-5" points="154.5 82.46 147.25 79.88 154.08 88.38 154.5 82.46"/><polygon class="cls-4" points="154.5 82.46 147.25 79.88 147.25 74.13 154.5 82.46"/><polygon class="cls-6" points="137.63 81.75 147.25 79.88 138.75 97.25 137.63 81.75"/><polygon class="cls-6" points="142.56 172.46 141.78 168.7 162.02 182.97 142.56 172.46"/><polygon class="cls-6" points="21.59 154.67 15.1 147.21 42.99 147.05 21.59 154.67"/><polygon class="cls-6" points="166.25 276.64 169.5 270.13 182.44 274.54 166.25 276.64"/><polygon class="cls-6" points="70.25 317.63 80 314.13 83.5 325.13 70.25 317.63"/><polygon class="cls-4" points="149.88 108.25 147.25 79.88 144.83 94.71 149.88 108.25"/><polygon class="cls-7" points="149.88 108.25 146.38 118.75 138.75 97.25 149.88 108.25"/><polygon class="cls-4" points="154.38 100.38 147.25 79.88 154.08 88.38 154.38 100.38"/><polygon class="cls-5" points="154.38 100.38 147.25 79.88 149.88 108.25 154.38 100.38"/><polygon class="cls-4" points="154.38 100.38 156.35 120.95 149.88 108.25 154.38 100.38"/><polygon class="cls-5" points="146.38 118.75 156.35 120.95 149.88 108.25 146.38 118.75"/><polygon class="cls-5" points="146.38 118.75 149.83 129.88 152.5 124.04 146.38 118.75"/><polygon class="cls-7" points="156.35 120.95 149.83 129.88 152.5 124.04 156.35 120.95"/><polygon class="cls-6" points="156.35 120.95 149.83 129.88 165.67 130.88 156.35 120.95"/><polygon class="cls-7" points="150 141.88 149.83 129.88 159.67 141.54 150 141.88"/><polygon class="cls-4" points="165.67 130.88 149.83 129.88 159.67 141.54 165.67 130.88"/><polygon class="cls-6" points="165.67 130.88 168.83 146.21 159.67 141.54 165.67 130.88"/><polygon class="cls-1" points="155.17 148.88 168.83 146.21 159.67 141.54 155.17 148.88"/><polygon class="cls-7" points="165.67 130.88 168.83 146.21 169.83 139.21 165.67 130.88"/><polygon class="cls-8" points="226.25 106.88 213.63 94.38 194.33 96.58 226.25 106.88"/><polygon class="cls-1" points="226.25 106.88 213.63 94.38 236.86 101.12 226.25 106.88"/><polygon class="cls-3" points="236.86 90.81 213.63 94.38 236.86 101.12 236.86 90.81"/><polygon class="cls-4" points="236.86 90.81 213.63 94.38 222.75 72.38 236.86 90.81"/><polygon class="cls-2" points="205 80.75 213.63 94.38 203.91 65.01 205 80.75"/><polygon class="cls-8" points="196.81 131.22 187.25 109.63 194.33 96.58 196.81 131.22"/><polygon class="cls-3" points="196.81 131.22 187.25 109.63 189.54 124 196.81 131.22"/><polygon class="cls-7" points="203.91 65.01 213.63 94.38 222.75 72.38 203.91 65.01"/><polygon class="cls-6" points="203.91 65.01 201.92 53.71 222.75 72.38 203.91 65.01"/><polygon class="cls-7" points="220.39 55.57 201.92 53.71 222.75 72.38 220.39 55.57"/><polygon class="cls-4" points="220.39 55.57 201.92 53.71 200.16 41.02 220.39 55.57"/><polygon class="cls-5" points="220.39 55.57 222.27 51.53 200.16 41.02 220.39 55.57"/><polygon class="cls-8" points="232.93 52.13 222.27 51.53 215.53 43.41 232.93 52.13"/><polygon class="cls-1" points="232.93 52.13 214.3 34.59 215.53 43.41 232.93 52.13"/><polygon class="cls-1" points="200.16 41.02 222.27 51.53 215.53 43.41 200.16 41.02"/><polygon class="cls-5" points="200.16 41.02 214.3 34.59 215.53 43.41 200.16 41.02"/><polygon class="cls-1" points="200.16 41.02 214.3 34.59 194.61 23.95 200.16 41.02"/><polygon class="cls-6" points="216.97 25.11 214.3 34.59 212 22.25 216.97 25.11"/><polygon class="cls-4" points="207.69 25.69 214.3 34.59 212 22.25 207.69 25.69"/><polygon class="cls-5" points="207.69 25.69 214.3 34.59 194.61 23.95 207.69 25.69"/><polygon class="cls-4" points="232.93 52.13 214.3 34.59 235.81 43.83 232.93 52.13"/><polygon class="cls-7" points="216.97 25.11 214.3 34.59 235.81 43.83 216.97 25.11"/><polygon class="cls-4" points="216.97 25.11 237.3 37.83 235.81 43.83 216.97 25.11"/><polygon class="cls-6" points="236.61 27.81 237.3 37.83 239.29 37.77 236.61 27.81"/><polygon class="cls-7" points="236.61 27.81 237.3 37.83 230.11 27.8 236.61 27.81"/><polygon class="cls-6" points="216.97 25.11 237.3 37.83 230.11 27.8 216.97 25.11"/><polygon class="cls-7" points="216.97 25.11 223.03 19.01 230.11 27.8 216.97 25.11"/><polygon class="cls-4" points="230.65 22.28 223.03 19.01 230.11 27.8 230.65 22.28"/><polygon class="cls-5" points="230.65 22.28 236.61 27.81 230.11 27.8 230.65 22.28"/><polygon class="cls-8" points="230.65 22.28 236.61 27.81 236.42 22.67 230.65 22.28"/><polygon class="cls-7" points="230.65 22.28 223.03 19.01 236.42 22.67 230.65 22.28"/><polygon class="cls-5" points="231.58 16.35 223.03 19.01 236.42 22.67 231.58 16.35"/><polygon class="cls-7" points="231.58 16.35 234.85 12.17 236.42 22.67 231.58 16.35"/><polygon class="cls-4" points="231.58 16.35 234.85 12.17 225.44 5.98 231.58 16.35"/><polygon class="cls-1" points="231.58 16.35 223.03 19.01 225.44 5.98 231.58 16.35"/><polygon class="cls-1" points="216.97 25.11 223.03 19.01 212 22.25 216.97 25.11"/><polygon class="cls-1" points="207.69 25.69 194.61 23.95 212 22.25 207.69 25.69"/><polygon class="cls-5" points="198.67 12.59 194.61 23.95 212 22.25 198.67 12.59"/><polygon class="cls-1" points="212 22.25 210.56 5.38 207.34 11.78 212 22.25"/><polygon class="cls-5" points="223.03 19.01 210.56 5.38 212 22.25 223.03 19.01"/><polygon class="cls-1" points="223.03 19.01 210.56 5.38 220.71 10.95 223.03 19.01"/><polygon class="cls-5" points="223.03 19.01 225.44 5.98 220.71 10.95 223.03 19.01"/><polygon class="cls-6" points="210.56 5.38 225.44 5.98 220.71 10.95 210.56 5.38"/><polygon class="cls-3" points="177.98 19.16 194.61 23.95 179.31 27.14 177.98 19.16"/><polygon class="cls-8" points="177.98 19.16 194.61 23.95 195.86 20.47 177.98 19.16"/><polygon class="cls-1" points="177.98 19.16 184.29 14.95 195.86 20.47 177.98 19.16"/><polygon class="cls-1" points="126.21 17.63 132.46 8.63 134.96 10.87 126.21 17.63"/><polygon class="cls-1" points="122.28 81.18 122.21 79.16 127.99 79.5 122.28 81.18"/><polygon class="cls-1" points="150.34 189.84 150.35 182.56 165.78 189.9 150.34 189.84"/><polygon class="cls-1" points="97.25 269.87 100.25 253.13 104.53 269.9 97.25 269.87"/><polygon class="cls-1" points="0 274.04 12.01 269.27 25.28 276.39 0 274.04"/><polygon class="cls-1" points="184.75 300.63 195.25 300.88 197 311.13 184.75 300.63"/><polygon class="cls-8" points="177.98 19.16 161.43 21.92 179.31 27.14 177.98 19.16"/><polygon class="cls-7" points="159.21 35.28 165.26 26.98 179.31 27.14 159.21 35.28"/><polygon class="cls-7" points="138.38 4.75 147.5 5.38 155.5 14.38 138.38 4.75"/><polygon class="cls-7" points="184.88 10.63 186.75 4.25 192.13 13.75 184.88 10.63"/><polygon class="cls-5" points="159.21 35.28 179.01 37.69 179.31 27.14 159.21 35.28"/><polygon class="cls-1" points="194.61 23.95 179.01 37.69 179.31 27.14 194.61 23.95"/><polygon class="cls-4" points="159.21 35.28 165.26 26.98 155.24 18.58 159.21 35.28"/><polygon class="cls-4" points="151 21.04 148.67 13.54 137.17 17.04 151 21.04"/><polygon class="cls-4" points="147.47 68.75 139.41 63.21 133.17 66.71 147.47 68.75"/><polygon class="cls-4" points="80.34 168.45 71.29 166.86 69.1 176.43 80.34 168.45"/><polygon class="cls-4" points="236.06 209.92 220.5 210.94 216 214.88 236.06 209.92"/><polygon class="cls-4" points="136.39 120.61 126.67 122.07 122.09 118.56 136.39 120.61"/><polygon class="cls-4" points="187.33 128.54 180.67 119.71 178.83 130.38 187.33 128.54"/><polygon class="cls-4" points="142.53 147.92 127.43 150.01 136.99 155.55 142.53 147.92"/><polygon class="cls-4" points="86.67 127.38 53.33 116.71 62.04 123.84 86.67 127.38"/><polygon class="cls-4" points="263.47 74 255.33 65.13 257.5 74.13 263.47 74"/><polygon class="cls-4" points="105.33 30.71 87.52 25.76 90 31.38 105.33 30.71"/><polygon class="cls-4" points="213.5 245.38 202.76 233.11 205 245.38 213.5 245.38"/><polygon class="cls-4" points="168.35 4.27 164.07 0.32 162.28 3.4 168.35 4.27"/><polygon class="cls-1" points="170.33 15.01 184.29 14.95 161.43 21.92 170.33 15.01"/><polygon class="cls-5" points="170.33 15.01 157.53 11.04 161.43 21.92 170.33 15.01"/><polygon class="cls-6" points="170.33 15.01 157.53 11.04 184.29 14.95 170.33 15.01"/><polygon class="cls-8" points="194.61 23.95 179.01 37.69 188.21 35.44 194.61 23.95"/><polygon class="cls-9" points="170.28 43.69 179.01 37.69 188.21 35.44 170.28 43.69"/><polygon class="cls-8" points="170.28 43.69 179.01 37.69 159.21 35.28 170.28 43.69"/><polygon class="cls-9" points="170.28 43.69 146.33 40.88 159.81 39.41 170.28 43.69"/><polygon class="cls-1" points="170.28 43.69 159.21 35.28 159.81 39.41 170.28 43.69"/><polygon class="cls-5" points="146.33 40.88 159.21 35.28 159.81 39.41 146.33 40.88"/><polygon class="cls-4" points="146.33 40.88 159.21 35.28 142.22 33.86 146.33 40.88"/><polygon class="cls-10" points="141.8 24.25 151.02 31.34 142.22 33.86 141.8 24.25"/><polygon class="cls-10" points="115.84 62.66 125.06 69.75 114.5 66.69 115.84 62.66"/><polygon class="cls-10" points="205.75 0 204.52 5.09 195.72 7.61 205.75 0"/><polygon class="cls-10" points="255.92 57.06 256.74 60.71 250.75 57.96 255.92 57.06"/><polygon class="cls-10" points="114.47 20.91 125.83 21.21 121.3 25.06 114.47 20.91"/><polygon class="cls-6" points="236.86 90.81 220.39 55.57 222.75 72.38 236.86 90.81"/><polygon class="cls-8" points="226.25 106.88 227.75 116.13 236.86 101.12 226.25 106.88"/><polygon class="cls-2" points="226.25 106.88 227.75 116.13 194.33 96.58 226.25 106.88"/><polygon class="cls-2" points="196.81 131.22 208.5 115.88 194.33 96.58 196.81 131.22"/><polygon class="cls-4" points="227.75 116.13 208.5 115.88 194.33 96.58 227.75 116.13"/><polygon class="cls-1" points="227.75 116.13 208.5 115.88 196.81 131.22 227.75 116.13"/><polygon class="cls-7" points="196.81 131.22 179 156.13 188.84 135.6 196.81 131.22"/><polygon class="cls-4" points="196.81 131.22 179 156.13 196 157.38 196.81 131.22"/><polygon class="cls-6" points="173 162.63 179 156.13 196 157.38 173 162.63"/><polygon class="cls-7" points="173 162.63 170 173.13 196 157.38 173 162.63"/><polygon class="cls-3" points="173.5 184.63 170 173.13 182.75 186.38 173.5 184.63"/><polygon class="cls-1" points="216.93 195.17 170 173.13 182.75 186.38 216.93 195.17"/><polygon class="cls-4" points="204 181.88 170 173.13 196 157.38 204 181.88"/><polygon class="cls-3" points="204 181.88 170 173.13 216.93 195.17 204 181.88"/><polygon class="cls-9" points="173.5 184.63 206.02 195.97 182.75 186.38 173.5 184.63"/><polygon class="cls-8" points="173.5 184.63 182.62 194.74 206.02 195.97 173.5 184.63"/><polygon class="cls-9" points="181.3 227.73 182.62 194.74 206.02 195.97 181.3 227.73"/><polygon class="cls-1" points="162.25 205.13 182.62 194.74 171.43 192.58 162.25 205.13"/><polygon class="cls-2" points="162.25 205.13 182.62 194.74 181.3 227.73 162.25 205.13"/><polygon class="cls-7" points="162.25 205.13 152.86 228.22 164.5 219.63 162.25 205.13"/><polygon class="cls-4" points="162.25 205.13 181.3 227.73 164.5 219.63 162.25 205.13"/><polygon class="cls-2" points="169.17 244.54 181.3 227.73 164.5 219.63 169.17 244.54"/><polygon class="cls-1" points="169.17 244.54 149.33 236.88 164.5 219.63 169.17 244.54"/><polygon class="cls-9" points="169.17 244.54 152 255.38 165.67 249.71 169.17 244.54"/><polygon class="cls-8" points="169.17 244.54 152 255.38 149.33 236.88 169.17 244.54"/><polygon class="cls-7" points="134.83 242.71 132.5 257.38 149.33 236.88 134.83 242.71"/><polygon class="cls-6" points="134.83 242.71 132.5 257.38 117.67 264.88 134.83 242.71"/><polygon class="cls-2" points="152 255.38 132.5 257.38 149.33 236.88 152 255.38"/><polygon class="cls-1" points="152 255.38 132.5 257.38 138.83 268.88 152 255.38"/><polygon class="cls-8" points="114.17 279.21 132.5 257.38 138.83 268.88 114.17 279.21"/><polygon class="cls-2" points="114.17 279.21 132.5 257.38 117.67 264.88 114.17 279.21"/><polygon class="cls-7" points="114.17 279.21 99.33 295.04 108.42 280.09 114.17 279.21"/><polygon class="cls-1" points="114.17 279.21 113.67 291.38 138.83 268.88 114.17 279.21"/><polygon class="cls-8" points="114.17 279.21 113.67 291.38 99.33 295.04 114.17 279.21"/><polygon class="cls-9" points="110.44 302.53 113.67 291.38 99.33 295.04 110.44 302.53"/><polygon class="cls-6" points="99.67 286.71 108.42 280.09 99.33 295.04 99.67 286.71"/><polygon class="cls-10" points="99.67 286.71 87.54 289.98 99.33 295.04 99.67 286.71"/><polygon class="cls-1" points="91.66 305.58 87.54 289.98 99.33 295.04 91.66 305.58"/><polygon class="cls-8" points="91.66 305.58 110.44 302.53 99.33 295.04 91.66 305.58"/><polygon class="cls-7" points="98.66 318.49 108.44 302.53 102.67 329.01 98.66 318.49"/><polygon class="cls-1" points="98.66 318.49 110.44 302.53 91.66 305.58 98.66 318.49"/><polygon class="cls-8" points="98.66 318.49 97.81 329.73 91.66 305.58 98.66 318.49"/><polygon class="cls-1" points="98.66 318.49 97.81 329.73 104.67 329.01 98.66 318.49"/><polygon class="cls-8" points="107.2 338.2 97.81 329.73 104.67 329.01 107.2 338.2"/><polygon class="cls-1" points="107.2 338.2 97.81 329.73 104.61 340.3 107.2 338.2"/><polygon class="cls-9" points="97.64 336.1 97.81 329.73 104.61 340.3 97.64 336.1"/><polygon class="cls-8" points="97.64 336.1 97.81 329.73 89.59 321 97.64 336.1"/><polygon class="cls-1" points="91.66 305.58 97.81 329.73 89.59 321 91.66 305.58"/><polygon class="cls-8" points="82.66 305.58 74.5 302.95 70.19 296.43 82.66 305.58"/><polygon class="cls-4" points="227.75 116.13 221.82 140.6 196.81 131.22 227.75 116.13"/><polygon class="cls-2" points="196 157.38 209.94 148.32 196.81 131.22 196 157.38"/><polygon class="cls-1" points="221.82 140.6 209.94 148.32 196.81 131.22 221.82 140.6"/><polygon class="cls-2" points="221.82 140.6 209.94 148.32 218.28 157.52 221.82 140.6"/><polygon class="cls-4" points="196 157.38 209.94 148.32 218.28 157.52 196 157.38"/><polygon class="cls-7" points="204 181.88 218.28 157.52 196 157.38 204 181.88"/><polygon class="cls-6" points="204 181.88 218.28 157.52 227.3 160.95 204 181.88"/><polygon class="cls-7" points="204 181.88 248.91 184.22 227.3 160.95 204 181.88"/><polygon class="cls-1" points="204 181.88 248.91 184.22 216.93 195.17 204 181.88"/><polygon class="cls-6" points="256.8 176.5 248.91 184.22 227.3 160.95 256.8 176.5"/><polygon class="cls-3" points="246.8 198.38 248.91 184.22 216.93 195.17 246.8 198.38"/><polygon class="cls-8" points="246.8 198.38 257.16 206.39 216.93 195.17 246.8 198.38"/><polygon class="cls-1" points="246.8 198.38 248.91 184.22 272.74 209.94 246.8 198.38"/><polygon class="cls-9" points="246.8 198.38 257.16 206.39 272.74 209.94 246.8 198.38"/><polygon class="cls-7" points="276.18 196.36 248.91 184.22 272.74 209.94 276.18 196.36"/><polygon class="cls-6" points="276.18 196.36 248.91 184.22 265.51 181.9 276.18 196.36"/><polygon class="cls-7" points="256.8 176.5 248.91 184.22 265.51 181.9 256.8 176.5"/><polygon class="cls-4" points="276.18 196.36 284.74 200.21 272.74 209.94 276.18 196.36"/><polygon class="cls-10" points="276.18 196.36 284.74 200.21 265.51 181.9 276.18 196.36"/><polygon class="cls-3" points="282.88 208.47 284.74 200.21 272.74 209.94 282.88 208.47"/><polygon class="cls-1" points="282.88 208.47 263.5 228.88 272.74 209.94 282.88 208.47"/><polygon class="cls-8" points="257.16 206.39 263.5 228.88 272.74 209.94 257.16 206.39"/><polygon class="cls-9" points="257.16 206.39 235.39 222.28 256.08 212.52 257.16 206.39"/><polygon class="cls-1" points="263.5 228.88 235.39 222.28 256.08 212.52 263.5 228.88"/><polygon class="cls-4" points="263.5 228.88 235.39 222.28 245.22 238.72 263.5 228.88"/><polygon class="cls-9" points="226.69 242.83 235.39 222.28 236.02 235.48 226.69 242.83"/><polygon class="cls-8" points="245.22 238.72 235.39 222.28 236.02 235.48 245.22 238.72"/><polygon class="cls-3" points="263.5 228.88 250.59 241.91 245.22 238.72 263.5 228.88"/><polygon class="cls-8" points="226.69 242.83 250.59 241.91 245.22 238.72 226.69 242.83"/><polygon class="cls-1" points="226.69 242.83 233.9 249.28 215.75 257.77 226.69 242.83"/><polygon class="cls-3" points="226.69 242.83 233.9 249.28 250.59 241.91 226.69 242.83"/><polygon class="cls-8" points="206.91 276.27 233.9 249.28 215.75 257.77 206.91 276.27"/><polygon class="cls-9" points="206.91 276.27 205.41 267.4 215.75 257.77 206.91 276.27"/><polygon class="cls-3" points="200.91 276.27 199.41 267.4 191.09 272.43 200.91 276.27"/><polygon class="cls-1" points="206.91 276.27 233.9 249.28 250.59 241.91 206.91 276.27"/><polygon class="cls-4" points="206.91 276.27 227.64 265.69 250.59 241.91 206.91 276.27"/><polygon class="cls-3" points="206.91 276.27 227.64 265.69 221.66 275.98 206.91 276.27"/><polygon class="cls-1" points="206.91 276.27 208.91 292.56 221.66 275.98 206.91 276.27"/><polygon class="cls-1" points="188.75 281.06 192.91 277.97 208.91 292.56 188.75 281.06"/><polygon class="cls-9" points="188.75 281.06 189.5 286.36 208.91 292.56 188.75 281.06"/><polygon class="cls-3" points="226.75 297.9 208.91 292.56 221.66 275.98 226.75 297.9"/><polygon class="cls-7" points="226.75 297.9 208.91 292.56 235.18 308.63 226.75 297.9"/><polygon class="cls-4" points="236.06 313.5 208.91 292.56 235.18 308.63 236.06 313.5"/><polygon class="cls-3" points="236.06 313.5 208.91 292.56 224.64 311.71 236.06 313.5"/><polygon class="cls-1" points="214.05 305.02 208.91 292.56 224.64 311.71 214.05 305.02"/><polygon class="cls-9" points="233.25 120.38 227.75 116.13 236.86 101.12 233.25 120.38"/><polygon class="cls-8" points="233.25 120.38 242.37 116.79 246.36 131.73 233.25 120.38"/><polygon class="cls-1" points="233.25 120.38 242.37 116.79 236.86 101.12 233.25 120.38"/><polygon class="cls-4" points="249.32 113.66 242.37 116.79 236.86 101.12 249.32 113.66"/><polygon class="cls-9" points="254.67 131.38 242.37 116.79 246.36 131.73 254.67 131.38"/><polygon class="cls-8" points="254.67 131.38 242.37 116.79 249.32 113.66 254.67 131.38"/><polygon class="cls-9" points="254.67 131.38 265.47 116.09 259.39 112.1 254.67 131.38"/><polygon class="cls-1" points="254.67 131.38 249.32 113.66 259.39 112.1 254.67 131.38"/><polygon class="cls-6" points="265.65 94.03 249.32 113.66 259.39 112.1 265.65 94.03"/><polygon class="cls-4" points="265.65 94.03 273.99 96.81 259.39 112.1 265.65 94.03"/><polygon class="cls-8" points="265.47 116.09 273.99 96.81 259.39 112.1 265.47 116.09"/><polygon class="cls-9" points="265.65 94.03 273.99 96.81 278.68 88.99 265.65 94.03"/><polygon class="cls-8" points="265.65 94.03 271.38 76.14 278.68 88.99 265.65 94.03"/><polygon class="cls-1" points="283.54 82.74 271.38 76.14 278.68 88.99 283.54 82.74"/><polygon class="cls-8" points="283.54 82.74 271.38 76.14 284.23 75.09 283.54 82.74"/><polygon class="cls-4" points="274.68 65.71 271.38 76.14 284.23 75.09 274.68 65.71"/><polygon class="cls-6" points="274.68 65.71 271.38 76.14 268.43 70.75 274.68 65.71"/><polygon class="cls-4" points="264.95 78.22 271.38 76.14 265.65 94.03 264.95 78.22"/><polygon class="cls-5" points="149.88 108.25 138.75 97.25 144.83 94.71 149.88 108.25"/><polygon class="cls-8" points="212 22.25 198.67 12.59 207.34 11.78 212 22.25"/><polygon class="cls-4" points="100.77 95.14 92.65 95.32 107.71 82.05 100.77 95.14"/><polygon class="cls-4" points="117.47 218.58 110 218.38 134.94 205.79 117.47 218.58"/><polygon class="cls-4" points="61.5 281.63 56.25 283.63 74.5 295.13 61.5 281.63"/></g></g></svg>