<svg xmlns="http://www.w3.org/2000/svg" viewBox="0 0 200 200"><defs><style>.cls-1{fill:#fbfafa;}.cls-2{fill:#5a595f;}.cls-3{fill:#dacdc0;}.cls-4{fill:#4b474d;}.cls-5{fill:#6a696e;}.cls-6{fill:#605f65;}.cls-7{fill:#f0f0ee;}.cls-8{fill:#353138;}.cls-9{fill:#f3f3f4;}.cls-10{fill:#24231c;}.cls-11{fill:#262227;}.cls-12{fill:#646369;}.cls-13{fill:#b4c240;}.cls-14{fill:#aec804;}.cls-15{fill:#b4c914;}.cls-16{fill:#c1cf04;}</style></defs><g id="Calque_2" data-name="Calque 2"><g id="Calque_1-2" data-name="Calque 1"><path class="cls-1" d="M199.92,114c0,27.58-.06,55.15.08,82.72,0,2.8-.61,3.31-3.34,3.3-31.89-.12-63.77-.08-95.66-.08l5.1-3.62c1.46-.5,3-.81,3.93-2.28a209.92,209.92,0,0,0,20-10.82l1.34-.94-.05.08.4,0,.25-.31c1.92-.2,1.76-1.35,1.22-2.66,2-.77,4.15.15,6.21-1,6.11-3.29,12.34-6.33,18.53-9.47.78.2,1.12-.27,1.34-.91l.37,0,.26-.25c2.46-1.18,5.51-1.22,7.24-3.79l.41,0,.37-.19c2.14,0,3.5-1.58,5.08-2.68,2.76-1.5,6.61-1.18,8.07-4.85A29.1,29.1,0,0,0,184,156c6.92-1.68,8.74-3.56,8.76-9l.25-2c2.84-1.43,2.21-3.21.53-5.1L194,137c1.83-.24,1.47-1.73,1.89-2.95,2.28-6.6.54-13.38,1.12-20Z"/><path class="cls-1" d="M96,199.92c-30.88,0-61.76,0-92.65.08C.65,200,0,199.54,0,196.71.15,172.47.08,148.22.08,124h2c-.25,4.32,2.76,8.26,1.31,12.81C3,138.12,4.59,138.88,6,139c0,1.16,0,2.31,0,3.46C6.82,152.92,6.86,153,17,156.16c2.19,1.18,3.86,3,6.28,4.06,7.34,3.22,14.52,6.87,21.63,10.59,6,3.14,11.72,6.81,18.16,9l.08.05c2.85,2.75,6.81,3.63,9.92,5.94,1.25,3.42,4.1,3.87,7.19,3.86v0c.1,1.71.73,2.68,2.63,1.86,4.73.24,8,3.88,12.14,5.36A4.27,4.27,0,0,1,96,199.92Z"/><path class="cls-1" d="M.08,40c0-12.33.09-24.65-.06-37C0,.56.58,0,3.08,0,34.06.1,65,.06,96,.06c-.94,2.18-3.58,1.62-5,3.08C84.62,5.51,78.48,8.64,71.7,10a8.07,8.07,0,0,0-5.93,3.93L60,16.06c-3-.5-5.77,0-7.92,2.41-4,1.23-8.07,2.33-11,5.66-6.81.35-12.58,4.13-19,5.75A4.88,4.88,0,0,0,18.91,32C12.28,33.82,6.33,37.27.08,40Z"/><path class="cls-2" d="M193.88,39.92a7.12,7.12,0,0,0-1.54-2.63c-3.38-1.93-6.83-3.71-10.34-5.4-3.34-.35-7,.25-9-3.69-3.77-1.5-7.54-3-11.33-4.5a3.82,3.82,0,0,1-1.95-1.52l-2.16-.9c-2.08-.87-4.15-1.78-6.23-2.68A7.07,7.07,0,0,1,144,16.23a6.37,6.37,0,0,0-3.81-.27c-2.67.22-5.31.31-7.31-2-4.58,1.35-8.31-2.95-12.84-1.95a5.11,5.11,0,0,0,4.09,3c1.79.21,3.59.66,3.9,2.94h3c1.77.42,4.35-1.18,5,2l5,2c6.89,1.34,14,2.2,19,8,0,.67,0,1.33,0,2,7.19-.46,13.89.8,19.35,5.9a9.89,9.89,0,0,0,6.19,2.24c4-.16,4.31,3.52,6.57,5,2.51,1.61-.55,3.83-1.34,4.91-1.47,2-.14-2-1.35-1.15s-2.42-1-3.51.15q0,8,.08,16c5.55-1,2.77,4.24,4.51,6.13,2.3-1.89.95-4.68,1.83-7.33a17.07,17.07,0,0,1,1.64,8.48c-.11,1.86-.06,3.68,1.86,4.76,1.66-5.3,2-10.78,2.15-16.29.05-1.73-1-4.15,2-4.74V47C195.68,46.55,193.44,44.38,193.88,39.92Z"/><path class="cls-2" d="M.08,40c6.25-2.77,12.2-6.22,18.83-8.07,4.42.23,8.65-2.24,13.15-.93-.08,1.75-1,3-2.71,3-6.3,0-10.08,6.73-16.59,6.13-1.19-.11-1.29,1.37-2,1.92C8.43,44,9.63,47.94,6.31,49.37c-.6.26.67,1.53,1.76,1.64l0,0,1,4-.22.4L9.08,55c1.66.1,3.93-.65,3.09,2.58A1.83,1.83,0,0,0,13.92,60c.27,6.34,1.53,12.61,1.13,19-3,.93-2-1.47-1.9-2.55.26-3.11-1-6.16-3.39-7s-2.39-2.76-3.15-4.51c-1.23,1.79.63,4.62-2.54,5.06a33,33,0,0,0,.87-4.34c.23-3.53.48-7.13-2.87-9.62a2.1,2.1,0,0,0-2-1V54c1.26-1,1.25-2,0-3Z"/><path class="cls-3" d="M192.34,37.29a7.12,7.12,0,0,1,1.54,2.63,4.49,4.49,0,0,1,1.47-.85C194.36,38.47,193.35,37.87,192.34,37.29Z"/><path class="cls-4" d="M132.83,14c-4.58,1.35-8.31-2.95-12.84-1.95-.32,0-.64,0-1,0-.1-1.72-1.63-3.24-2.58-3.3-5.64-.32-10.25-4-15.7-4.58C99.07,4,96.57,3,96,6.09l-3,0c.17-1.53-1.31-1.95-2-2.93,1.39-1.46,4-.9,5-3.08h10c-.2,4.2,2.92,3.89,5.63,4.15l1.23.53c.75,1.88,2.4,1.38,3.83,1.47,1.51-.13,2.34,1.21,3.59,1.66l1.35.34.23.18c.81,2.61,3.08,1.41,4.73,1.83l1.28.43C128.64,13.08,131.83,11.91,132.83,14Z"/><path class="cls-3" d="M107,.13c.2,2.86,4.67.94,4.62,4.08l1.23.53c1.58-.28,3.43-1.31,3.83,1.47,1.51-.13,2.34,1.21,3.59,1.66.2-.38.41-1.08.59-1.07.88,0,.81.77.76,1.41l.23.18c1.6.56,4.2-1.5,4.73,1.83l1.28.43,1.15-.59c0-.41,0-.82,0-1.23C121.75,5.69,114.45,2.69,107,.13Z"/><path class="cls-5" d="M195.79,77.05c1.66-5.3,2-10.78,2.15-16.29.05-1.73-1-4.15,2-4.74V76c-1.55,1.72-1.44,3.94-1.86,6s1.05,4.74-1.57,6.31c-.71-3.36-1.8-6.69-.82-10.19Z"/><path class="cls-3" d="M.08,92V68c2.47.37,1.82,2.49,2.26,4a4,4,0,0,0,.57,3.92c.36,3.71-.39,7.45.84,11.18A3.56,3.56,0,0,1,1.07,92,4.1,4.1,0,0,1,.08,92Z"/><path class="cls-3" d="M196.49,88.33c2.62-1.57,1.15-4.18,1.57-6.31s.31-4.29,1.86-6V94a7.16,7.16,0,0,0-2,5.93l-1.65.29a8.29,8.29,0,0,0-.86-.21Q195.93,94.18,196.49,88.33Z"/><path class="cls-6" d="M2.34,72c-.44-1.51.21-3.63-2.26-4V65c3.22-1.67,3.17-3.33,0-5V58a1.8,1.8,0,0,0,2-2c3.35,2.49,3.1,6.09,2.87,9.62A33,33,0,0,1,4.07,70c0,.67,0,1.34,0,2Z"/><path class="cls-4" d="M199.91,42c-1.49-1-3-2-4.56-2.91a4.49,4.49,0,0,0-1.47.85c-.44,4.46,1.8,6.63,6,7.11V42Z"/><path class="cls-7" d="M.08,92a4.1,4.1,0,0,0,1,0,3.65,3.65,0,0,0,0,1c1.3,6,1,12,.91,18L.08,111Z"/><path class="cls-8" d="M96,199.92a4.27,4.27,0,0,0-1-3,2.37,2.37,0,0,1,3.73-.12c1.64,1.57,2.45.55,3.26-.83,1.42-.56,2.92-2,4.09.36l-5.1,3.62Z"/><path class="cls-7" d="M.08,118v-5L2,112c.8,1.16.92,3,2.86,3.06v2.9L3,118Z"/><path class="cls-7" d="M199.92,114l-2.9,0c0-1.68,0-3.36,0-5l2.85,0Z"/><path class="cls-5" d="M107,.13l-.2-.07H106c-.2,4.2,2.92,3.89,5.63,4.15C111.68,1.07,107.21,3,107,.13Z"/><path class="cls-9" d="M197.87,99.93a7.16,7.16,0,0,1,2-5.93v7A2.15,2.15,0,0,1,197.87,99.93Z"/><path class="cls-9" d="M199.92,109l-2.85,0c.26-1.29.53-2.59.79-3.88a2.15,2.15,0,0,1,2.06-1.1Z"/><path class="cls-7" d="M199.92,104a2.16,2.16,0,0,0-2.06,1.09l-1.76-.34.12-4.52,1.65-.29a2.15,2.15,0,0,0,2,1.06Z"/><path class="cls-5" d="M.08,60c3.17,1.67,3.22,3.33,0,5Z"/><path class="cls-7" d="M2.06,124h-2v-2c1-.59,1.41-2.15,2.93-2C3.09,121.39,3.5,122.9,2.06,124Z"/><path class="cls-1" d="M3,120c-1.52-.13-1.89,1.43-2.93,2v-4H3C3,118.63,3,119.29,3,120Z"/><path class="cls-5" d="M2.07,56a1.8,1.8,0,0,1-2,2V55A2.1,2.1,0,0,1,2.07,56Z"/><path class="cls-1" d="M2,112,.08,113v-2L2,111A3.35,3.35,0,0,1,2,112Z"/><path class="cls-5" d="M.08,51c1.25,1,1.26,2,0,3Z"/><path class="cls-10" d="M168,163.91l-.37.19-.41,0c-.88-.4-2.22-.57-2.56-1.24-2.16-4.16-3.35-1.5-4.23.64-.53,1.3-.32,2.92-.45,4.39l-.26.25-.37,0L158,169c-6.19,3.14-12.42,6.18-18.53,9.47-2.06,1.11-4.22.19-6.21,1-1.27-2.34-3.17-.9-4.17-.18-5.33,3.83-7.57,3.86-12.07-.4,1.47-5,6.51-5.56,10-8.06a6.68,6.68,0,0,0,5.14-2.67l0,.07c5.78-2,10.81-5.52,16.27-8.17,2.18-.54,3.18-3.17,5.65-3.2,8-2.8,15.51-6.8,23-10.8.3-.33.6-.65.91-1,1.79.12,2.71-.62,2.79-2.51.29-6.84.65-13.68,1-20.52q.14-3,.25-6a1,1,0,0,0,.11-.95l.82-3.17.37-.19-.33-.59c.05-1.74.11-3.47.17-5.21h1.76c1.82.64.87,5.61,3.21,3.55,3.68-3.25,4-.09,5.2,1.9l1.6-2.35a24.91,24.91,0,0,1-.23,8c-1.65.61-4.72.71-4.42,2.42,1,6.13-4.2,10.59-3.52,16.76.74,6.61-3.54,11.58-9.88,13.06,5,.71,3,4.75,4.26,7.16-1.46,3.67-5.31,3.35-8.07,4.85-1.83-2.1-4.1-.4-6-.29C165.86,161,168.49,162.59,168,163.91Zm-3.22-6.57a1.21,1.21,0,0,0-1.28-1.15,1.15,1.15,0,0,0-1.26,1.15,1.2,1.2,0,0,0,1.49,1.36C164.46,158.6,164.68,158,164.73,157.34Zm2.5,0a1.5,1.5,0,0,0-.43-.13s-.08.22-.13.34a1.36,1.36,0,0,0,.42.13S167.18,157.46,167.23,157.34Z"/><path class="cls-11" d="M181.1,156.38c-1.25-2.41.78-6.45-4.26-7.16,6.34-1.48,10.62-6.45,9.88-13.06-.68-6.17,4.56-10.63,3.52-16.76-.3-1.71,2.77-1.81,4.42-2.42v2c-2.89,3-2.76,6.42-1.71,10a1.92,1.92,0,0,0,0,.89c-1.47,1.91-2.13,3.71.71,5l.31,2c-.15,1-.3,1.93-.44,2.89l-.84,4.08c-1.64,0-3.37-.26-4.14,1.77-.23.61-.61,1.3.08,1.76,1.49,1,2.81.15,4.12-.53,0,5.43-1.84,7.31-8.76,9A29.1,29.1,0,0,1,181.1,156.38Z"/><path class="cls-11" d="M117,178.84c4.5,4.26,6.74,4.23,12.07.4,1-.72,2.9-2.16,4.17.18.54,1.31.7,2.46-1.22,2.66l-.57-.49-.08.75.05-.08a1.26,1.26,0,0,0-1.34.94A209.92,209.92,0,0,1,110,194c-.16-2.09-1.75-1.89-3.21-2.2a4.46,4.46,0,0,1-3.5-4.23c-.15-2.24,2.07-1.54,3.38-1.66,2.83-.25,2.15-2.36,2.31-4.05a6.59,6.59,0,0,0,3.15-2.95,2.12,2.12,0,0,0,.79-.18C114.28,179.21,115.66,177.69,117,178.84Zm-6.21,11.72c1.47-2.54,2.89-3.46,4.64-4a1.54,1.54,0,0,0,1-2.32c-.64-1.16-2-1.73-2.88-.89C111.89,184.86,109.44,186.19,110.77,190.56Z"/><path class="cls-10" d="M109,181.88c-.16,1.69.52,3.8-2.31,4.05-1.31.12-3.53-.58-3.38,1.66a4.46,4.46,0,0,0,3.5,4.23c1.46.31,3.05.11,3.21,2.2-.89,1.47-2.47,1.78-3.93,2.28-1.17-2.33-2.67-.92-4.09-.36-4.71-1.66-6.09-4.25-2.38-8.34.3-.32.28-.93.41-1.4C103.07,184.83,105.65,182.54,109,181.88Z"/><path class="cls-3" d="M193,130a1.92,1.92,0,0,1,0-.89c1.83-3.13,1.31-6.67,1.71-10v-2a24.91,24.91,0,0,0,.23-8l.11-1-.06-.94-.12-2,1.28-.22,1.76.34c-.26,1.3-.53,2.6-.79,3.89,0,1.68,0,3.36,0,5-.58,6.66,1.16,13.44-1.12,20-.42,1.22-.06,2.71-1.89,2.95-.1-.67-.21-1.35-.31-2C193.65,133.27,194.77,131.4,193,130Z"/><path class="cls-8" d="M159.93,167.85c.13-1.47-.08-3.09.45-4.39.88-2.14,2.07-4.8,4.23-.64.34.67,1.68.84,2.56,1.24C165.44,166.63,162.39,166.67,159.93,167.85Z"/><path class="cls-10" d="M192.79,147c-1.31.68-2.63,1.52-4.12.53-.69-.46-.31-1.15-.08-1.76.77-2,2.5-1.78,4.14-1.77l.31,1Z"/><path class="cls-8" d="M168,163.91c.54-1.32-2.09-2.89-.9-3,1.88-.11,4.15-1.81,6,.29C171.45,162.33,170.09,163.86,168,163.91Z"/><path class="cls-3" d="M193,145l-.31-1,.84-4.08C195.25,141.78,195.88,143.56,193,145Z"/><path class="cls-8" d="M158,169l1.34-.91C159.08,168.72,158.74,169.19,158,169Z"/><path class="cls-10" d="M131.35,182.34l.08-.75.57.49-.25.31Z"/><path class="cls-10" d="M130.06,183.2a1.26,1.26,0,0,1,1.34-.94Z"/><path class="cls-11" d="M100,186.2c-.13.47-.11,1.08-.41,1.4-3.71,4.09-2.33,6.68,2.38,8.34-.81,1.38-1.62,2.4-3.26.83a2.37,2.37,0,0,0-3.73.12c-4.19-1.48-7.41-5.12-12.14-5.36a3.09,3.09,0,0,0-2.63-1.86v0c-1.84-2.32-4.55-3-7.19-3.86-3.11-2.31-7.07-3.19-9.92-5.94,2.07-.45,5.09,1.77,6.21-2.4-2.55.19-4.63.66-6.29,2.35-6.44-2.23-12.17-5.9-18.16-9-7.11-3.72-14.29-7.37-21.63-10.59-2.42-1.06-4.09-2.88-6.28-4.06l.09-1.19c.07-.14.14-.28.2-.42l-.23.39c-1.17-1.2-1.51-3-3.94-3.17a4.11,4.11,0,0,1-3.91-5.26c1.08-4-.36-7.83-.23-11.75.07-2.14,0-4.73-2.72-5.78l-1.39-11V115a3.72,3.72,0,0,0,.44-2.54c-.84-4.43-1.91-8.91-1.19-13.5a43.53,43.53,0,0,0,12.08,7.94c1,.4.87,1.28.92,2.09.67,10.61,1.36,21.22,2,31.84.11,2-.08,3.85,2.29,4.94,8.81,4,17.55,8.24,26.31,12.38L91,180.92c2.35,2.07,5.25,3.19,8,4.58Z"/><path class="cls-10" d="M6.26,129C9,130,9.05,132.62,9,134.76c-.13,3.92,1.31,7.73.23,11.75a4.11,4.11,0,0,0,3.91,5.26c2.43.16,2.77,2,3.94,3.17l0,0L17,156.16C6.86,153,6.82,152.92,6.07,142.45,6,141.3,6,140.15,6,139l0-2.06a1,1,0,0,0-.06-.9Z"/><path class="cls-3" d="M6.26,129,5.93,136a3.64,3.64,0,0,0-.37.27,6.38,6.38,0,0,0,.43.63L6,139c-1.44-.11-3.08-.87-2.66-2.2,1.45-4.55-1.56-8.49-1.31-12.81,1.44-1.08,1-2.59.95-4,0-.67,0-1.33,0-2l1.87,0Q5.56,123.45,6.26,129Z"/><path class="cls-3" d="M73.07,185.84c2.64.84,5.35,1.54,7.19,3.86C77.17,189.71,74.32,189.26,73.07,185.84Z"/><path class="cls-3" d="M80.25,189.67a3.09,3.09,0,0,1,2.63,1.86C81,192.35,80.35,191.38,80.25,189.67Z"/><path class="cls-6" d="M93,6.07l3,0,1,2c-1.16.73-1,1.9-1,3-6,.51-12.44,2.31-16.44,5.57-4.49,3.64-11.61.66-14.15,7a4.65,4.65,0,0,0-1.29-.43A19.73,19.73,0,0,0,51,28c-3.44-.22-6.35.62-8,4h-3v-5c2.44-.78,5.61.18,7-3,1.13-1.08,2.14-2.39,4-2,4.22-.16,7.63-1.54,9-6l5.73-2.13c2.45,1.39,5.42,2,7.62.7C79.59,10.91,86.56,9.12,93,6.07Z"/><path class="cls-2" d="M93,6.07c-6.44,3-13.41,4.84-19.61,8.56-2.2,1.32-5.17.69-7.62-.7A8.07,8.07,0,0,1,71.7,10C78.48,8.64,84.62,5.51,91,3.14,91.69,4.12,93.17,4.54,93,6.07Z"/><path class="cls-5" d="M40,27.06v3q-4.56-4-8,1c-4.5-1.31-8.73,1.16-13.15.93a4.88,4.88,0,0,1,3.2-2.09c6.43-1.62,12.2-5.4,19-5.75l.22.24Z"/><path class="cls-4" d="M60,16.06c-1.35,4.46-4.76,5.84-9,6,.35-1.2.71-2.4,1.06-3.59C54.27,16,57,15.56,60,16.06Z"/><path class="cls-5" d="M52.12,18.47c-.35,1.19-.71,2.39-1.06,3.59-1.87-.4-2.88.91-4,2l-5.71.32-.22-.24C44.05,20.8,48.12,19.7,52.12,18.47Z"/><path class="cls-12" d="M32.06,31q3.42-5,8-1c0,.67,0,1.34,0,2-2,2.88-4.29,5.42-8.32,4.34A2.86,2.86,0,0,0,28.06,38a3.49,3.49,0,0,1-3.2,2c-.92,0-2.26-.21-2.29,1.2a2.62,2.62,0,0,0,2.18,2.42,18.68,18.68,0,0,0,4.43.36q24.72,0,49.42,0c7.45,0,15,1.15,22.31.64,16.46-1.15,32.9-.77,49.29-.33,7.62.21,15.14-1.28,22.72-.35,1.14.14,2.45.08,2.83-1.4s-.36-2-1.56-2.67c-2.57-1.42-4.77-3.13-8.12-3.09A5.94,5.94,0,0,1,160,32.05v0c7.19-.46,13.89.8,19.35,5.9a9.89,9.89,0,0,0,6.19,2.24c4-.16,4.31,3.52,6.57,5,2.51,1.61-.55,3.83-1.34,4.91-1.47,2-.14-2-1.35-1.15s-2.42-1-3.51.15l-1-.42c.57-2,1.49-4.49-2.19-2.59-4.39,2.26-10.08,2-13.09,7.06a2.53,2.53,0,0,1-4.26,0c-1.09-1.55,0-2.76,1.72-3.25.67-.19,1.1-.67.91-1.28-4.8-2.24-5.92,1.14-7.06,4.49-2-1.23-4.15-1-6.3-1H35.4c-2.18,0-4.59-.36-4.36,3.06L13.92,48V60a1.83,1.83,0,0,1-1.75-2.43C13,54.37,10.74,55.12,9.08,55h0l-1-4,.22-.44L8.07,51C7,50.9,5.71,49.63,6.31,49.37c3.32-1.43,2.12-5.39,4.48-7.28.68-.55.78-2,2-1.92,6.51.6,10.29-6.12,16.59-6.13C31,34,32,32.79,32.06,31Z"/><path class="cls-3" d="M136.78,12.25l-5-2.2a3.71,3.71,0,0,1,.1.48c2.19,2.65,6.61,1.92,8.23,5.43a6.37,6.37,0,0,1,3.81.27,9.14,9.14,0,0,0,1.81,0Z"/><path class="cls-4" d="M195.79,77.05c0,.37-.08.73-.11,1.09-3.39,1.1-1.32,4.3-2.32,6.4s-2.37,2.51-4.15,2.75c-2.35.33-2.19-1.48-2.27-2.92S186.4,82.15,185,82a1.06,1.06,0,0,1,0-1,3.7,3.7,0,0,0,.1-4.9c-.75-3.77.29-7.41.82-11.09,5.55-1,2.77,4.24,4.51,6.13,2.3-1.89.95-4.68,1.83-7.33a17.07,17.07,0,0,1,1.64,8.48C193.82,74.15,193.87,76,195.79,77.05Z"/><path class="cls-13" d="M185,81a1.09,1.09,0,0,0,0,1c-1.42,7.92-1.45,15.94-1.87,23.93-.06,1.74-.12,3.47-.17,5.21a.68.68,0,0,0,0,.78c-.27,1.06-.55,2.12-.82,3.18-.14-1.42-.05-3-2.11-3.11-.19-1.36.39-2.91-1-4l0-1.9a2.22,2.22,0,0,0,1.94-2.42c.26-5.22.59-10.43.89-15.65l.06-6c2.08-3.15.61-6.66,1-10l0-2a4.74,4.74,0,0,0,0-6c0-.67,0-1.34,0-2,2.78-8,1.61-9.94-6-10,2.21-2.17,5.18-2.58,8-3.41l1,.42q0,8,.08,16c-.53,3.68-1.57,7.32-.82,11.09C185.09,77.74,185.06,79.37,185,81Z"/><path class="cls-12" d="M136,20.06l5,2c5.16,5.45,12.45,5.84,19,8,0,.67,0,1.33,0,2v0c-8.39,1.3-15.44-2.51-22.3-6.33-3.91-2.17-9.23-2-11.67-6.68a2.12,2.12,0,0,1,2-1h3C132.65,21.87,134,22.39,136,20.06Z"/><path class="cls-3" d="M159.68,22.18a3.82,3.82,0,0,0,1.95,1.52c3.79,1.48,7.56,3,11.33,4.5q.34,0,.69-.12C169,26.06,164.35,24.13,159.68,22.18Z"/><path class="cls-6" d="M128,18a2.12,2.12,0,0,0-2,1h-2c-.12-2-1.56-2-3-2-3.35-.52-5.92-2.82-9-4,0-1,0-2,0-3l7,2c.33,0,.65,0,1,0a5.11,5.11,0,0,0,4.09,3C125.87,15.31,127.67,15.76,128,18Z"/><path class="cls-6" d="M160,30c-6.54-2.15-13.83-2.54-19-8C147.85,23.39,154.94,24.25,160,30Z"/><path class="cls-5" d="M179.86,30.88h-3.62V29.23l-2.59-1.15q-.35.08-.69.12c2,3.94,5.7,3.34,9,3.69Z"/><path class="cls-5" d="M131.91,10.53c2.19,2.65,6.61,1.92,8.23,5.43-2.67.22-5.31.31-7.31-2-1-2.09-4.19-.92-5-3.35l1.15-.59Z"/><path class="cls-5" d="M145.76,16.21a9.14,9.14,0,0,1-1.81,0,7.07,7.07,0,0,0,7.34,2.37C149.45,17.8,147.6,17,145.76,16.21Z"/><path class="cls-6" d="M136,20.06c-2,2.33-3.32,1.81-5-2C132.74,18.47,135.32,16.87,136,20.06Z"/><path class="cls-1" d="M13.92,60V48L31,55.08,41.91,60.6c-1.55.68-2.23,1.78-.57,2.83,1.91,1.22,2.61-.16,2.82-1.9l3.89,1.35L51.21,65c-3.68,1.2,0,2.71-.17,4.05l-1.3.5L51,70a2.09,2.09,0,0,0,2,1c1.08,4.53,3.67,9.43-3,12-1.54-2.25-5.66-.15-6.36-3.8a8.2,8.2,0,0,0,1.87-.52c1.08-.56,2.73-.84,1.92-2.72-.38-.87-.8-2-2-1.76-2.62.46.71,2-.48,2.93a7.77,7.77,0,0,0-1.38,2c-.43.89-1,.72-1.57.17a5.43,5.43,0,0,0-4.82-5.89c-3.69-.57-.23,2.76-1.47,3.8a1.88,1.88,0,0,0-.33.36c-1.75,2.69-1.14,6.58,1.48,9.45l.58,6,.81,16-.3,3c-.68-.08-1.25-1.8-1.7-.7-.55,1.38-.71,3.38,1.76,3.71.32,4,1.17,8,.83,11.89-.52,5.86,1.23,9.84,7,11.72-1.45,1-4.5-1.05-4.7,2.39-.25,4.23,2.79,2.27,4.65,2.39,7.13.43,8.27,1.32,7.78,8.2-.13,1.73.26,3.66-.5,5.38h0c-2,.16-1.75-2-2.93-2.73-.78-.46-2.08.33-1.82.52,2.27,1.65-1.4,2.16-.58,3.44C39,154,30.21,149.84,21.4,145.8c-2.37-1.09-2.18-2.94-2.29-4.94-.63-10.62-1.32-21.23-2-31.84-.05-.81.06-1.69-.92-2.09Q16.08,100,16,93c.4-4.71-.47-9.34-.92-14C15.45,72.64,14.19,66.37,13.92,60ZM31.06,148l-.42-.23.42.23c.36.38.57,1.29,1.3.37Zm4.07-2.12L39.52,150C38.72,146.83,38.72,146.83,35.13,145.84Zm1-44.64c-.39.49-.82.79-.85,1.12s.21,1.06.47,1.14c.74.24,1.15-.31,1.11-1C36.86,102.11,36.48,101.76,36.14,101.2Zm5.64-28.76-.36.82c.28.12.61.39.81.31s.25-.5.37-.78Zm-7.19,37.27c-.16.27-.41.5-.42.74s.22.51.34.76c.15-.23.41-.46.43-.7S34.73,110,34.59,109.71ZM35,94.53l-.4-.76c-.15.24-.41.47-.42.71s.23.5.35.76Zm.44-33-.73-.06c.11.09.22.25.34.26S35.29,61.62,35.43,61.55Z"/><path class="cls-4" d="M15.05,79c.45,4.66,1.32,9.29.92,14-2.16-2-3.13-5-5.74-6.77-.93-.65-2.79,2.45-2.05-.48C9.49,80.54,5.9,76.63,5.07,72h-1c0-.67,0-1.34,0-2,3.17-.44,1.31-3.27,2.54-5.06.76,1.75.64,3.62,3.15,4.51s3.65,3.9,3.39,7C13.06,77.54,12.08,79.94,15.05,79Z"/><path class="cls-12" d="M9.08,55l-.22.41.22-.4Z"/><path class="cls-2" d="M119,12l-7-2c-5.1.17-9.63-4-15-2l-1-2C96.57,3,99.07,4,100.74,4.15c5.45.61,10.06,4.26,15.7,4.58C117.39,8.79,118.92,10.31,119,12Z"/><path class="cls-5" d="M121.86,8.39c1.6.56,4.2-1.5,4.73,1.83C124.94,9.8,122.67,11,121.86,8.39Z"/><path class="cls-5" d="M112.86,4.74c1.58-.28,3.43-1.31,3.83,1.47C115.26,6.12,113.61,6.62,112.86,4.74Z"/><path class="cls-5" d="M120.28,7.87c.2-.38.41-1.08.59-1.07.88,0,.81.77.76,1.41Z"/><path class="cls-8" d="M183.12,105.88c.42-8,.45-16,1.87-23.93,1.41.2,1.88,1.08,1.95,2.42s-.08,3.25,2.27,2.92c1.78-.24,3.15-.64,4.15-2.75s-1.07-5.3,2.32-6.4c-1,3.5.1,6.83.81,10.19q-.57,5.85-1.13,11.68c-1.14.19-1.29,1.12-1.5,2h-6.93c-.21-.69-.22-1.93-1.27-1.38-1.35.7-.59,2.23-.72,3.41l-.07,1.85Z"/><path class="cls-8" d="M5.07,72c.83,4.62,4.42,8.53,3.11,13.75-.74,2.93,1.12-.17,2.05.48C12.84,88.05,13.81,91,16,93q.12,7,.23,13.92A43.53,43.53,0,0,1,4.12,99V96c.74-.15,1.73-.19,1.53-1.25-.29-1.55-1.58-1.68-2.88-1.65L1.08,93a3.65,3.65,0,0,1,0-1,3.56,3.56,0,0,0,2.68-4.89c-1.23-3.73-.48-7.47-.84-11.18C5.79,75.82,4.87,73.61,5.07,72Z"/><path class="cls-2" d="M5.07,72c-.2,1.6.72,3.81-2.16,3.93A4,4,0,0,1,2.34,72H5.07Z"/><path class="cls-2" d="M193.86,102c.21-.89.36-1.82,1.5-2a8.29,8.29,0,0,1,.86.21l-.12,4.52-1.28.22C193.57,104.28,194,103.06,193.86,102Z"/><path class="cls-3" d="M4.13,96v3c-.72,4.59.35,9.07,1.19,13.5A3.72,3.72,0,0,1,4.87,115c-1.94-.1-2.06-1.9-2.86-3.06a3.35,3.35,0,0,0,0-1c.11-6,.39-12.07-.91-18l1.7.09A4.55,4.55,0,0,0,4.13,96Z"/><path class="cls-14" d="M180,111.94c2.06.12,2,1.69,2.11,3.11a1,1,0,0,1-.11.94c-3,2.06-3.59,4.73-2.09,8q-.94,6-1.9,12c-1.54,1.4-.5,1.77.81,2l-.05,3.94a1.86,1.86,0,0,0-1.82,2.06l-3-.06a17.9,17.9,0,0,0,0-2.43c-.16-1.29.61-3.42-1.75-3.18-1.65.16-2.14,2-2.1,3.41a21.3,21.3,0,0,0,1,4.23l-.11.08c-.6.4-2.14-1.13-1.92.94-4.24,1.08-7,5.82-12,5-2.66-1.25-3.05-4.77-6-5.84-3.51-1.28-1.22-2.87.2-3.63,2-1,4.1-1.1,5.57,1.33,2,3.36,4.14,2.68,7,.54,5.34-4,0-6.42-.93-9.49q.09-6.45.16-12.9c3.85-.43,5.28,1.66,4.63,5.07-.43,2.24-.47,4,1.54,5.54a25,25,0,0,0,.72-15.86c-.43-1.69,1.09-4.64-2.16-4.54-2.79.08-1.51,2.75-1.85,4.35-.09.45-.14.9-.26,1.61-1-1.37-1.89-2.56-3.61-2.24l-.09-.08-.06-.9c-2.6-1.89-5-1-6.8,1a4.85,4.85,0,0,1-4.1,2c-1.6-.43-4.22,1-4.67-1.33-.55-2.89,2.23-2.42,4.06-2.81,2.66-.55,3.45-3.29,1.63-4.15-3.72-1.78-.87-3.81-1-5.67,2-1.82,5.95-.65,6.69-4.39v.15l1.13-1.07-.07-.07A6.77,6.77,0,0,0,163.9,100a1.79,1.79,0,0,0,2-2l0-7.93c1.05-.65,1.08-1.32.05-2,0-1.33,0-2.66,0-4,3.43-2.61,5-7.15,9.42-8.86,1-.4.76-2.55-1-2.94s-3.83-.63-5,1a10.65,10.65,0,0,1-5.76,4.28.5.5,0,0,1-.69-.17c-.21-1.63,1.24-2.08,2.34-3.06-1.8-.05-3.23-1.36-4.9-.55-3.93,1.89-6.85,5.35-10.91,7.07-.39.16-.27,1.51-.39,2.31l-1,1c-.68-3.32-3.3-2-5.19-2S140.07,84.54,138,84c-1-.14-2.39-1.2-1.72-1.61,5-3.1,1.23-5.63-.29-8.32,2.4.12,3.3-1,2.87-3.35a2.07,2.07,0,0,1,1.89-1c6.61,1.13,13.23.22,19.85.09,1.39,0,1.77-1.93,1-2.7-1.45-1.45-.82-3.84-2.61-5,3.6.31,5.84-1,5.89-4.92l5.81-.32c2.21,1.66,1.12,3.67-.3,4.51-2.36,1.42-4.64,2.47-2.34,5.5s3.94-.78,6-.86c1.2,0,1.24-.87,1.51-2,1-3.87,4.07-4.6,7.43-2,0,.66,0,1.33,0,2a4.48,4.48,0,0,0,0,6l0,2c-5.67-.08-1.12-5.67-3.91-7.33-2.51,6.49-1.3,13.64,2.9,17.31,0,2,0,4,0,6-1.68,0-3.44.56-2.78,2.43,1.86,5.29-.42,10.44-.06,15.64,0,.63,0,1.27,0,1.9a6.41,6.41,0,0,0-1.09,4c-3.89-.57-4.29,1.8-4,4.74.13,1.2-.25,3.31,1.55,2.87,2.76-.67,2.4-3.4,2.43-5.65,0-.65,0-1.3,0-2Zm-11.38-3.86c1.46-.77,4.46,1.27,4.72-1.59.23-2.58-2.47-2.71-4.49-2.46-1.72.21-4.58-1.18-4.63,2C164.16,108.91,166.87,107.61,168.6,108.08Z"/><path class="cls-15" d="M162.9,134.92c1,3.07,6.27,5.52.93,9.49-2.87,2.14-5,2.82-7-.54-1.47-2.43-3.59-2.37-5.57-1.33-1.42.76-3.71,2.35-.2,3.63,2.92,1.07,3.31,4.59,6,5.84,0,2.22-4,2-3,4.8-2.47,0-3.47,2.66-5.66,3.2-7.16-.75-12.48,2.18-16.26,8.17l0-.07c-2.53-.69-4.23.22-5.14,2.67-3.49,2.5-8.53,3.07-10,8.06-1.32-1.15-2.7.37-4-.09.63-1.52-1.74-4.07.15-4.42,5.5-1,7.62-6.6,12.45-8.31,3.74-1.32,3-3.87,1.21-6.12-2.51-3.11-5.86-2-8.83-.81-1.55.64-3.43,1.33-3.6-.44-.44-4.65-.15-9.36-.15-14.05,2.29,2.12,1.74,4.31,1.76,6.41s.86,3.09,3,2.93a2,2,0,0,0,2.54,1.91c.44-.48.8-1.13,1.35-1.41q14.49-7.29,29-14.49l5.14,0c1,1.79,2.63,2.68,4.78,3.75-.1-2.49,1.51-4.87-1.81-5.79C160,136,161.69,135.71,162.9,134.92Z"/><path class="cls-13" d="M154.07,156.81c-1.06-2.85,3-2.58,3-4.8,5,.79,7.73-3.95,12-5a2,2,0,0,0,1.92-.94L171,146c1.46,0,2.83-.07,2.92-2l3,.06.12,2C169.58,150,162.11,154,154.07,156.81Z"/><path class="cls-11" d="M193.86,102c.12,1-.29,2.26,1,2.94l.12,2a2.43,2.43,0,0,0-.36.26,7.74,7.74,0,0,0,.42.68l-.11,1c-.45.66-.89,1.32-1.6,2.35-1.17-2-1.52-5.15-5.2-1.9-2.34,2.06-1.39-2.91-3.21-3.55l.06-1.85a1.9,1.9,0,0,0,2-2Z"/><path class="cls-13" d="M178,136q.94-6,1.9-12l1.84-1.95c-.33,6.84-.69,13.68-1,20.52-.08,1.89-1,2.63-2.79,2.51.26-1,.53-2.07.79-3.11,0-1.31,0-2.63.05-3.94A1.85,1.85,0,0,0,178,136Z"/><path class="cls-13" d="M132.15,168.18c3.78-6,9.1-8.92,16.26-8.17C143,162.66,137.93,166.17,132.15,168.18Z"/><path class="cls-15" d="M181.73,122,179.89,124c-1.5-3.24-.87-5.91,2.09-8Q181.86,119,181.73,122Z"/><path class="cls-8" d="M164.73,157.34c0,.69-.27,1.26-1,1.36a1.2,1.2,0,0,1-1.49-1.36,1.15,1.15,0,0,1,1.26-1.15A1.21,1.21,0,0,1,164.73,157.34Z"/><path class="cls-13" d="M127,170.78c.91-2.45,2.61-3.36,5.14-2.67A6.68,6.68,0,0,1,127,170.78Z"/><path class="cls-15" d="M178.75,141.93c-.26,1-.53,2.07-.79,3.11-.31.32-.61.64-.91,1l-.12-2A1.86,1.86,0,0,1,178.75,141.93Z"/><path class="cls-8" d="M167.23,157.34c0,.12-.09.33-.14.34a1.36,1.36,0,0,1-.42-.13c.05-.12.09-.33.13-.34A1.5,1.5,0,0,1,167.23,157.34Z"/><path class="cls-8" d="M182.91,111.87a.68.68,0,0,1,0-.78l.33.59Z"/><path class="cls-10" d="M194.67,119c-.4,3.37.12,6.91-1.71,10C191.91,125.44,191.78,122,194.67,119Z"/><path class="cls-10" d="M193,130c1.78,1.45.66,3.32.71,5C190.86,133.66,191.52,131.86,193,130Z"/><path class="cls-16" d="M118.91,153.94c-2.11.16-2.94-.81-3-2.93s.53-4.29-1.76-6.41c0,4.69-.29,9.4.15,14.05.17,1.77,2,1.08,3.6.44,3-1.22,6.32-2.3,8.83.81,1.83,2.25,2.53,4.8-1.21,6.12-4.83,1.71-7,7.3-12.45,8.31-1.89.35.48,2.9-.15,4.42a2.12,2.12,0,0,1-.79.18c-2.48-1.59-4.71-1.7-6.08,1.34-.59,1.32-1.42,1.81-2.71,1.49-1.55-.37-1.42-1.62-1.25-2.8a10.6,10.6,0,0,0,.47-2.4c-1.51-14.93-.23-29.89-.62-44.82,0-1.25-.42-2.75,1.16-3.51,7.05-3.44,14.22-6.66,21.1-10.4,2.76-1.51,6.86-.54,8.34-3.25,2-3.67,4.68-4.7,8.36-4.61,3.14,1,4.87,2.12.53,4.17-2.06,1-2.16,3-.11,3.52,3.44.91,2.37,3.38,2.68,5.45-.4.93-1.3.78-2,1-.43-2.75-3.32-2.75-3.93-1.71-1.81,3.08-5,2.75-7.42,3.4-3.17.84-2.76,2-1.71,4.09-3.66.74-6.74,2.22-7.89,6.18h0c-3.23-.25-4.24,1.47-3.39,4.26C119,144.78,119,149.34,118.91,153.94Zm-3.37-25.14c3.1,1.53,5.24,2.25,7.72.48C121,127.68,118.78,127.66,115.54,128.8Z"/><path class="cls-13" d="M140.93,110c-3.68-.09-6.35.94-8.36,4.61-1.48,2.71-5.58,1.74-8.34,3.25-6.88,3.74-14,7-21.1,10.4-1.58.76-1.19,2.26-1.16,3.51.39,14.93-.89,29.89.62,44.82a10.6,10.6,0,0,1-.47,2.4c-.17,1.18-.3,2.43,1.25,2.8,1.29.32,2.12-.17,2.71-1.49,1.37-3,3.6-2.93,6.08-1.34a6.59,6.59,0,0,1-3.15,2.95c-3.36.66-5.94,3-9,4.32L99,185.5q.12-29.1.23-58.19c8.86-3.13,16.7-8.33,25-12.53,4-2,8.66-3.17,11.85-6.74a2.68,2.68,0,0,0,.84-.13l4-.73C141,108.11,140.94,109,140.93,110Z"/><path class="cls-10" d="M110.77,190.56c-1.33-4.37,1.12-5.7,2.79-7.21.93-.84,2.24-.27,2.88.89a1.54,1.54,0,0,1-1,2.32C113.66,187.1,112.24,188,110.77,190.56Z"/><path class="cls-2" d="M195,107.94a7.74,7.74,0,0,1-.42-.68,2.43,2.43,0,0,1,.36-.26Z"/><path class="cls-9" d="M53,157c.76-1.72.37-3.65.5-5.38.49-6.88-.65-7.77-7.78-8.2-1.86-.12-4.9,1.84-4.65-2.39.2-3.44,3.25-1.36,4.7-2.39,10.29,4.46,20.21,9.69,30,15.11,3.93,2.17,4.4,1.06,4.19-2.62s-.09-7.29-.21-10.94S78.08,134,74,133.94c-2.74,0-5.89.73-6.78-3.29-.23-1-1.42-.53-2.12-.82-3.92-1.62-7.92-3.23-6.16-8.82l0-1.05L58.7,115V106.7l8.21,3.59,10,5.12c.8,1.06,1.92.9,3,.75,3.92,4.1,9.45,5.42,14.13,8.2L98,127c-2.09,1.42-2,3.54-2,5.75,0,10.44,0,20.88,0,31.32,0,6.16.92,12.5-5,16.86l-43.3-22.74c-.82-1.28,2.85-1.79.58-3.44-.26-.19,1-1,1.82-.52,1.18.69,1,2.89,2.93,2.73.09.64.09,1.38.94,1.49.16,0,.57-.38.55-.55C54.42,157,53.68,157.05,53,157ZM80,126.16a19.24,19.24,0,0,1,4.49.4c2.16.64,3.33-.32,1.2-2C84,123.18,82,124.13,80,126.16Zm9.76,50.17c-.12.27-.39.61-.31.8s.5.26.77.38c.12-.27.4-.61.32-.8S90,176.45,89.74,176.33Z"/><path class="cls-7" d="M91,180.92c5.93-4.36,5-10.7,5-16.86-.06-10.44,0-20.88,0-31.32,0-2.21-.07-4.33,2-5.75l1.22.32q-.12,29.1-.23,58.19C96.26,184.11,93.36,183,91,180.92Z"/><path class="cls-10" d="M63.07,179.85c1.66-1.69,3.74-2.16,6.29-2.35-1.12,4.17-4.14,1.95-6.21,2.4Z"/><path class="cls-10" d="M17.06,154.94l.23-.39c-.06.14-.13.28-.2.42Z"/><path class="cls-1" d="M6,136.93a6.38,6.38,0,0,1-.43-.63,3.64,3.64,0,0,1,.37-.27A1,1,0,0,1,6,136.93Z"/><path class="cls-5" d="M124,19h2c2.44,4.71,7.76,4.51,11.67,6.68,6.86,3.82,13.91,7.63,22.3,6.33a5.94,5.94,0,0,0,6.12,4.79c3.35,0,5.55,1.67,8.12,3.09,1.2.67,1.9,1.34,1.56,2.67s-1.69,1.54-2.83,1.4c-7.58-.93-15.1.56-22.72.35-16.39-.44-32.83-.82-49.29.33-7.27.51-14.86-.63-22.31-.64q-24.7,0-49.42,0a18.68,18.68,0,0,1-4.43-.36,2.62,2.62,0,0,1-2.18-2.42c0-1.41,1.37-1.16,2.29-1.2a3.49,3.49,0,0,0,3.2-2,2.86,2.86,0,0,1,3.67-1.66c4,1.08,6.29-1.46,8.32-4.34h3c2.44,0,4.89,0,7.33,0,1.2,0,2.31-.18,2.52-1.68S52.39,28.21,51,28a19.73,19.73,0,0,1,13.08-4.89,4.65,4.65,0,0,1,1.29.43c2.54-6.3,9.66-3.32,14.15-7,4-3.26,10.47-5.06,16.44-5.57,3.49,4.66,9.51,2.06,13.8,4.78,1.59,1,2.19-1.21,2.19-2.77,3.07,1.17,5.64,3.47,9,4C121.09,19.07,122.53,19.07,124,19Z"/><path class="cls-12" d="M112,13.06c0,1.56-.6,3.78-2.19,2.77-4.29-2.72-10.31-.12-13.8-4.78,0-1.1-.15-2.27,1-3,5.34-1.94,9.87,2.19,15,2C112,11.07,112,12.06,112,13.06Z"/><path class="cls-12" d="M51,28c1.35.17,2.06.87,1.86,2.3S51.58,32,50.38,32c-2.44,0-4.89,0-7.33,0C44.69,28.66,47.6,27.82,51,28Z"/><path class="cls-2" d="M41.34,24.37l5.71-.32c-1.4,3.19-4.57,2.23-7,3Z"/><path class="cls-2" d="M170.67,56.84l-5.81.32c-3,2.31-6.92,1.19-10.08,2.82-2.75.16-4.82,1.29-5.82,4l-.06,0c-5.15,1.44-11,.43-15.27,5-2.71,2.9-8.15.93-9.65-3-1.16-3.68-4.15-1.58-6.31-1.88C116.42,64,116,65,117,66c-.8,3-2.54,6.51,3.23,6a1.2,1.2,0,0,1,1.3,1.62c-.22.85.18,2.2-1.35,2.23-2.28,0-5,.72-6.32-1.74-2.39-4.29-5.81-3.5-9.45-2.45-2.34.67-4.61,1.92-7.16.48-5.74-3.23-11.49,1.1-17.33.15-1.37-.22-3.7,1.41-4,3.81L57.12,67.77l-4-2L51.21,65l-3.16-2.08L49,59h0c1.73.76,3.42-2.18,4.13-1,1.82,2.91,4.45,2,6.67,2,26.64.11,53.28-.12,79.92.2,7.1.09,13.29-2.49,19.8-4.28,1.53-.42,1.3-1.71,1.39-2.84,1.14-3.35,2.26-6.73,7.06-4.49.19.61-.24,1.09-.91,1.28-1.77.49-2.81,1.7-1.72,3.25a2.53,2.53,0,0,0,4.26,0c3-5.05,8.7-4.8,13.09-7.06,3.68-1.9,2.76.61,2.19,2.59-2.78.83-5.75,1.24-8,3.41C173.25,51.53,171.71,53.86,170.67,56.84Z"/><path class="cls-6" d="M161,53c-.09,1.13.14,2.42-1.39,2.84-6.51,1.79-12.7,4.37-19.8,4.28-26.64-.32-53.28-.09-79.92-.2-2.22,0-4.85.94-6.67-2-.71-1.14-2.4,1.8-4.13,1l-.4-.22L49,59l-1,3.86-3.89-1.34-2.25-.94L31,55.08C30.81,51.66,33.22,52,35.4,52H154.65C156.8,52,159,51.8,161,53Z"/><path class="cls-2" d="M8.07,51l.24-.41L8.09,51Z"/><path class="cls-8" d="M185,81c0-1.63.06-3.26.1-4.9A3.7,3.7,0,0,1,185,81Z"/><path class="cls-15" d="M170.67,56.84c1-3,2.58-5.31,6.29-4.81,7.6,0,8.77,2,6,10-3.36-2.6-6.45-1.87-7.43,2-.27,1.1-.31,1.92-1.51,2-2,.08-3.67,3.9-6,.86s0-4.08,2.34-5.5C171.79,60.51,172.88,58.5,170.67,56.84Z"/><path class="cls-15" d="M181.89,82c-4.2-3.67-5.41-10.82-2.9-17.31,2.79,1.66-1.76,7.25,3.91,7.33C182.5,75.33,184,78.84,181.89,82Z"/><path class="cls-15" d="M179,106.05c-.36-5.2,1.92-10.35.06-15.64-.66-1.87,1.1-2.44,2.78-2.43-.31,5.22-.64,10.43-.9,15.65A2.22,2.22,0,0,1,179,106.05Z"/><path class="cls-15" d="M182.93,70a4.48,4.48,0,0,1,0-6A4.74,4.74,0,0,1,182.93,70Z"/><path class="cls-15" d="M177.93,112a6.41,6.41,0,0,1,1.09-4c1.35,1.08.77,2.63,1,4l-2,0Z"/><path class="cls-12" d="M124,19c-1.46,0-2.9,0-3-2C122.43,17,123.87,17,124,19Z"/><path class="cls-11" d="M58.89,121c-1.76,5.59,2.24,7.2,6.16,8.82.7.29,1.89-.18,2.12.82.89,4,4,3.26,6.78,3.29,4.13.05,5.72,2.47,5.85,6.2s0,7.3.21,10.94-.26,4.79-4.19,2.62c-9.8-5.42-19.72-10.65-30-15.11-5.73-1.88-7.48-5.86-7-11.72C39.19,123,38.34,119,38,115L38,112l.3-3c2.58.38,5.27.44,7.73,1.21,4.32,1.35,10-.78,12.71,4.79l.15,4.95c-.62.1-1.56.16-1.44.89C57.59,121.93,58.37,121,58.89,121Z"/><path class="cls-9" d="M57.12,67.77,76,76.19,84,81c.08.88-.25,2,.79,2.44s1.23-.57,1.54-1.25l2.6,1.1c-.3.7-1.08,1.51-.42,2.18,1.21,1.19,2.35,0,3.49-.43l5.13,2.55c-2.23,5.87-.64,12.18-2.1,18.13-3.13.26-4.5-2.84-7-3.69a5.15,5.15,0,0,0-1.21-4l-2.06,2.14c-2.63-.55-4.75-2.15-7-3.42a4.65,4.65,0,0,0-1.31-4.54c-1.53-1.64-2.2-.69-2.28,1.1L73,94.71,69.06,92.9l-1.29-1.57c.64-.34,1.61-.27,1.71-1.27,0-.16-.36-.53-.52-.51-1,.11-.93,1.06-1.26,1.71C61.43,89.32,55.72,86.18,50,83c6.68-2.57,4.09-7.47,3-12h0C55,70.69,56.85,70.22,57.12,67.77ZM85.29,86.54c-.27-.16-.5-.42-.74-.42s-.51.22-.76.34c.23.15.46.41.7.43S85,86.68,85.29,86.54Z"/><path class="cls-8" d="M77.71,96.71c2.28,1.27,4.4,2.87,7,3.42L88,102c2.55.85,3.92,4,7,3.69.07.19.15.38.22.56-.48,1.27-1.33,1.59-2.7,1.51-5.7-.34-11.41-.52-17.11-.78-.82,0-1.85.1-2.4-.32-5.22-4.05-5.88-.56-6.16,3.64L58.7,106.7V115c-2.72-5.57-8.39-3.44-12.71-4.79-2.46-.77-5.15-.83-7.73-1.21l-.81-16c2.7-.79,2.5,3.38,5.13,2.94,5.21-.88,11,2,15.68-2.44a2.85,2.85,0,0,1,3.72.08c2.66,2.11,4.87.92,7.08-.73L73,94.71a1.76,1.76,0,0,0,2.26,1.19Z"/><path class="cls-4" d="M69.06,92.9c-2.21,1.65-4.42,2.84-7.08.73a2.85,2.85,0,0,0-3.72-.08C53.53,98,47.79,95.11,42.58,96c-2.63.44-2.43-3.73-5.13-2.94l-.58-6c0-1.29.11-2.57.08-3.86-.14-5.68-.15-5.68,5.06-3.86.6.55,1.14.72,1.57-.17l.08.09c.71,3.65,4.83,1.55,6.37,3.8,5.69,3.17,11.4,6.31,17.67,8.25l.07.07Z"/><path class="cls-9" d="M42,79.29c-5.21-1.82-5.2-1.82-5.06,3.86,0,1.29-.05,2.57-.08,3.86-2.62-2.87-3.23-6.76-1.48-9.45a1.88,1.88,0,0,1,.33-.36c1.24-1-2.22-4.37,1.47-3.8A5.43,5.43,0,0,1,42,79.29Z"/><path class="cls-9" d="M43.58,79.12a7.77,7.77,0,0,1,1.38-2c1.19-.9-2.14-2.47.48-2.93,1.22-.22,1.64.89,2,1.76.81,1.88-.84,2.16-1.92,2.72a8.2,8.2,0,0,1-1.87.52Z"/><path class="cls-9" d="M51.21,65l1.92.78C53,67.2,53.21,68.87,51,69h0C51.21,67.67,47.53,66.16,51.21,65Z"/><path class="cls-9" d="M41.91,60.6l2.25.94c-.21,1.73-.91,3.11-2.82,1.89C39.68,62.38,40.36,61.28,41.91,60.6Z"/><path class="cls-9" d="M35.13,145.84c3.59,1,3.59,1,4.39,4.16Z"/><path class="cls-9" d="M38,112l.06,3c-2.47-.33-2.31-2.33-1.76-3.71C36.71,110.17,37.28,111.89,38,112Z"/><path class="cls-9" d="M36.14,101.2c.34.56.72.91.73,1.27,0,.68-.37,1.23-1.11,1-.26-.08-.5-.76-.47-1.14S35.75,101.69,36.14,101.2Z"/><path class="cls-9" d="M41.78,72.44l.82.35c-.12.28-.18.7-.37.78s-.53-.19-.81-.31Z"/><path class="cls-9" d="M34.59,109.71c.14.29.36.55.35.8s-.28.47-.43.7c-.12-.25-.35-.51-.34-.76S34.43,110,34.59,109.71Z"/><path class="cls-9" d="M35,94.53l-.47.71c-.12-.26-.36-.51-.35-.76s.27-.47.42-.71Z"/><path class="cls-7" d="M31.06,148l1.3.37c-.73.92-.94,0-1.3-.37Z"/><path class="cls-9" d="M53,71a2.09,2.09,0,0,1-2-1l0,0a2.07,2.07,0,0,1,2,1Z"/><path class="cls-9" d="M51,70l-1.28-.52L51,69h0c0,.32,0,.65,0,1Z"/><path class="cls-9" d="M35.43,61.55c-.14.07-.27.21-.39.2s-.23-.17-.34-.26Z"/><path class="cls-7" d="M31.06,148l-.42-.23.42.23Z"/><path class="cls-10" d="M186.93,102a1.9,1.9,0,0,1-2,2c.13-1.18-.63-2.71.72-3.41C186.71,100.08,186.72,101.32,186.93,102Z"/><path class="cls-11" d="M4.13,96a4.55,4.55,0,0,1-1.35-2.9c1.3,0,2.59.1,2.88,1.65C5.86,95.8,4.87,95.84,4.13,96Z"/><path class="cls-4" d="M97.16,87.55,92,85,89,83.25l-2.6-1.1A2.52,2.52,0,0,0,84,81L76,76.19c.28-2.4,2.61-4,4-3.81,5.84,1,11.59-3.38,17.33-.15,2.55,1.44,4.82.19,7.16-.48,3.64-1,7.06-1.84,9.45,2.45,1.36,2.46,4,1.79,6.32,1.74,1.53,0,1.13-1.38,1.35-2.23a1.2,1.2,0,0,0-1.3-1.62c-5.77.46-4-3-3.23-6h7c1.5,3.95,6.94,5.92,9.65,3,4.31-4.62,10.12-3.61,15.27-5-1.24,4-6.09,2.85-8.17,5.67a2.06,2.06,0,0,0-1.89,1c-7.76,1.22-14.27,5.33-20.91,9.13-5.49.8-9.62,3.88-13.23,7.85a2.07,2.07,0,0,0-.93.32c-1.65-.8-3,.88-4.56.61Z"/><path class="cls-16" d="M103.77,88a2.07,2.07,0,0,1,.93-.32c2,.47,4,.57,5.16-1.65s3.18-2,5.15-2c4.19,1.49,5-3.56,8.49-4.45A46.58,46.58,0,0,0,136,74.07c1.52,2.69,5.3,5.22.29,8.32-.67.41.7,1.47,1.72,1.61-.51,2.45-2.87,3-4.57,3.74-1.9.78-2.6,1.62-2.35,3.5l-1,.81c-3.59.08-8.17-1.48-8,4.82-1.63.84-3.76.7-4.87,2.53-3.14-.4-5,2.63-7.9,2.89-2.76-.6-7.16.94-7-3.78C102.3,95.06,101.3,91.21,103.77,88Zm6.73,2.16c-.26.15-.81.29-1,.62-.26.57.25.94.74.92a1.51,1.51,0,0,0,1.15-.55C111.69,90.63,111.18,90.36,110.5,90.19Z"/><path class="cls-4" d="M148,84.14l1-1c3.83,0,6.58-2.59,9.81-4l1.18,1c-.61,2.33-1.91,4.66.09,7-.07,1.66-.13,3.31-.19,5-5.64-4.65-12.17,1.3-16.87-.6-1.67-3.58,4.63-2.26,2-6.17C146,84.86,147.34,85.38,148,84.14Z"/><path class="cls-15" d="M140.93,110c0-.93,0-1.86,0-2.79l5.07-2.13c2.22,2.52,3.11-1.59,5-1,.18,1.86-2.67,3.89,1,5.67,1.82.86,1,3.6-1.63,4.15-1.83.39-4.61-.08-4.06,2.81.45,2.31,3.07.9,4.67,1.33l0,2c-2.07,1.66-4.26,3-7,3.09-.31-2.07.76-4.54-2.68-5.45-2-.54-1.95-2.55.11-3.52C145.8,112.09,144.07,111,140.93,110Z"/><path class="cls-10" d="M146,105.05,141,107.18l-4,.73c3.82-5.21,10-6.86,15.34-9.5,3.29-1.63,5.36-4,7.63-6.4l.18-5c3-2.35,3.06-4.68-.08-7l-1.18-1c.83-1.81,2.36-2,4-1.73a.51.51,0,0,0,.7.17.4.4,0,0,0,.07.57c-1.45,3.64-.8,7.46-.73,11.16.08,4-.37,7.35-4.18,9.43l.07.07a1.09,1.09,0,0,0-1.13,1.07v-.15C153.21,100.19,149,101.27,146,105.05Z"/><path class="cls-15" d="M140.73,69.68c2.08-2.82,6.93-1.64,8.17-5.67l.06,0,3.82-.18c2.51,1.05,3.94-1.83,6.19-1.71,1.79,1.15,1.16,3.54,2.61,5,.77.77.39,2.67-1,2.7C154,69.9,147.34,70.81,140.73,69.68Z"/><path class="cls-15" d="M162.07,116c1.72-.32,2.62.87,3.61,2.24.12-.71.17-1.16.26-1.61.34-1.6-.94-4.27,1.85-4.35,3.25-.1,1.73,2.85,2.16,4.54a25,25,0,0,1-.72,15.86c-2-1.58-2-3.3-1.54-5.54.65-3.41-.78-5.5-4.63-5.07Z"/><path class="cls-13" d="M162.07,116l1,6.07q-.08,6.45-.16,12.9c-1.21.79-2.88,1.12-3,3-1.43,0-2.86.06-3,2l-5.14,0c2.86-3.23,8.85-3.46,9-9.3.09-3.64.09-7.28.15-10.92,0-2.37-.91-2.49-3.07-2-2.36.59-4.12,2.93-6.83,2.24l0-2a4.85,4.85,0,0,0,4.1-2c1.84-2.07,4.2-2.91,6.8-1-.12.09-.36.24-.35.27a6.16,6.16,0,0,0,.41.63Z"/><path class="cls-15" d="M136,74.07a46.58,46.58,0,0,1-12.47,5.5c-3.52.89-4.3,5.94-8.49,4.45,1-1.36,3.28-1.84,2.92-4.16,6.64-3.8,13.15-7.91,20.91-9.13C139.27,73,138.37,74.19,136,74.07Z"/><path class="cls-13" d="M158.75,98.68c3.81-2.08,4.26-5.46,4.18-9.43-.07-3.7-.72-7.52.73-11.16,4.86.38.05,4.52,2.29,5.91,0,1.34,0,2.67,0,4-1,.65-1,1.32-.05,2l0,7.93c-1.26.1-3-.33-2,2A6.77,6.77,0,0,1,158.75,98.68Z"/><path class="cls-15" d="M166,84c-2.24-1.39,2.57-5.53-2.29-5.91a.4.4,0,0,1-.07-.57,10.66,10.66,0,0,0,5.75-4.28c1.21-1.67,3.27-1.44,5-1s2,2.54,1,2.94C170.93,76.85,169.38,81.39,166,84Z"/><path class="cls-15" d="M162.89,77.35c-1.69-.22-3.22-.08-4,1.73-3.23,1.45-6,4-9.81,4,.12-.8,0-2.15.39-2.31,4.06-1.72,7-5.18,10.91-7.07,1.67-.81,3.1.5,4.9.55C164.13,75.27,162.68,75.72,162.89,77.35Z"/><path class="cls-15" d="M148,84.14c-.67,1.24-2,.72-3,1.1a56.94,56.94,0,0,0-11.94,5.9l-2,.1c-.25-1.88.45-2.72,2.35-3.5,1.7-.69,4.06-1.29,4.57-3.74,2.09.54,3.07-1.92,4.84-1.88S147.33,80.82,148,84.14Z"/><path class="cls-13" d="M159,62.08c-2.25-.12-3.68,2.76-6.19,1.71-.11-1.67,2.5-1.92,2-3.81,3.16-1.63,7.1-.51,10.08-2.82C164.81,61.09,162.57,62.39,159,62.08Z"/><path class="cls-15" d="M168.6,108.08c-1.73-.47-4.44.83-4.4-2,.05-3.19,2.91-1.8,4.63-2,2-.25,4.72-.12,4.49,2.46C173.06,109.35,170.06,107.31,168.6,108.08Z"/><path class="cls-15" d="M177.94,112c0,.65,0,1.3,0,2,0,2.25.33,5-2.43,5.65-1.8.44-1.42-1.67-1.55-2.87-.31-2.94.09-5.31,4-4.74Z"/><path class="cls-15" d="M173.94,143.93c-.09,2-1.46,2-2.92,2a21.3,21.3,0,0,1-1-4.23c0-1.44.45-3.25,2.1-3.41,2.36-.24,1.59,1.89,1.75,3.18A17.9,17.9,0,0,1,173.94,143.93Z"/><path class="cls-13" d="M146,105.05c3-3.78,7.17-4.86,11.64-5.38-.74,3.74-4.69,2.57-6.69,4.39C149.15,103.46,148.26,107.57,146,105.05Z"/><path class="cls-15" d="M163.9,100c-1-2.36.76-1.93,2-2A1.79,1.79,0,0,1,163.9,100Z"/><path class="cls-15" d="M165.89,90c-1-.69-.95-1.36.05-2C167,88.69,166.94,89.36,165.89,90Z"/><path class="cls-15" d="M178,136a1.85,1.85,0,0,1,.81,2C177.49,137.73,176.45,137.36,178,136Z"/><path class="cls-15" d="M170.91,146A2,2,0,0,1,169,147C168.77,144.91,170.31,146.44,170.91,146Z"/><path class="cls-15" d="M162,115.87a6.16,6.16,0,0,1-.41-.63s.23-.18.35-.27Z"/><path class="cls-13" d="M157.69,99.82a1.09,1.09,0,0,1,1.13-1.07Z"/><path class="cls-10" d="M151.05,120c2.71.69,4.47-1.65,6.83-2.24,2.16-.54,3.1-.42,3.07,2-.06,3.64-.06,7.28-.15,10.92-.13,5.84-6.12,6.07-9,9.3q-14.52,7.23-29,14.49c-.55.28-.91.93-1.35,1.41-2.62-6.56-.22-13.21-.4-19.82h0c4.22-1.09,7.66-3.62,11.15-6l9.8-5.91c.74-.19,1.64,0,2-1C146.79,123.05,149,121.68,151.05,120Zm-14.4,12.07c-.2,3.36-9.13-.57-5.28,6.66.33.62-.56,1.09-1.24,1.18-1.64.23-2.84,1.6-1.83,2.63a12.88,12.88,0,0,0,5.72,3.15c1.74.48,2-1.33,1.93-2.7,0-2.29.68-3.81,3.24-4.12,1.88-.23,2-1.6,1.2-2.95S139.47,132.27,136.65,132.09ZM153.42,126c1.47-.14,3.28.31,3.37-2,.08-1.89-1.33-1.94-2.72-2-1.92-.13-3.5.54-3.59,2.52S152.35,125.68,153.42,126Z"/><path class="cls-13" d="M121.05,136c.18,6.61-2.22,13.26.4,19.82a2,2,0,0,1-2.54-1.91c.13-4.6.11-9.16-1.25-13.65C116.81,137.5,117.82,135.78,121.05,136Z"/><path class="cls-14" d="M157,140c.11-2,1.54-2,3-2,3.32.92,1.71,3.3,1.81,5.79C159.59,142.66,158,141.77,157,140Z"/><path class="cls-15" d="M142,124.08l-9.8,5.91-3.26-.13c-1.05-2-1.46-3.25,1.71-4.09,2.45-.65,5.61-.32,7.42-3.4C138.67,121.33,141.56,121.33,142,124.08Z"/><path class="cls-13" d="M128.93,129.86l3.26.13c-3.49,2.43-6.93,5-11.15,6C122.19,132.08,125.27,130.6,128.93,129.86Z"/><path class="cls-15" d="M115.54,128.8c3.24-1.14,5.41-1.12,7.72.48C120.78,131.05,118.64,130.33,115.54,128.8Z"/><path class="cls-8" d="M133.08,91.14A56.94,56.94,0,0,1,145,85.24c2.66,3.91-3.64,2.59-2,6.17,4.7,1.9,11.23-4,16.87.6-2.27,2.44-4.34,4.77-7.63,6.4-5.34,2.64-11.52,4.29-15.34,9.5a2.68,2.68,0,0,1-.84.13L131,106c-1.06-3.15-2.6-2.41-4.2-.47-.72.87-1,2.27-2.37,2.33-1.55.06-3.52.87-4.21-1.39-.4-1.3.27-2.48,1.73-2.37,5,.37,3.73-3.31,4-6,2.37-1.36,4.65-2.93,7.13-4C135.7,92.87,132.89,92.09,133.08,91.14Z"/><path class="cls-10" d="M131,106l5.14,2.05c-3.19,3.57-7.81,4.71-11.85,6.74-8.34,4.2-16.18,9.4-25,12.53L98,127l-4-2.63a9,9,0,0,0,2.72-9.93c-1-2.83-.72-4.68,1.27-6.59l1.7.1c2.36.31,3.87-1.83,6-2.09L107,107c-.08.14-.15.28-.22.42l.23-.4c2.63-.61,1,4.08,4,3.15,2.15-.67,2.77.86,3.48,2.54.46,1.09.18,3.8,2.48,2.62,1.6-.81,4.82-.13,4.49-3.4-.18-1.84,1.1-2.32,2-1.83,4.1,2.2,5.37.83,5-3.39A13.47,13.47,0,0,1,131,106Zm-27.6,17.9a3.3,3.3,0,0,0,2.82-3.32c0-2-1.34-2.64-3.32-2.62-2.53,0-2.93,1.42-2.87,3.49C100.05,123.35,101,124.05,103.37,123.89Z"/><path class="cls-11" d="M98,107.84c-2,1.91-2.28,3.76-1.27,6.59a9,9,0,0,1-2.72,9.93c-4.68-2.78-10.21-4.1-14.13-8.2.21-1,1.66-2.17.11-2.84s-2.57.65-3.13,2.09l-10-5.12c.28-4.2.94-7.69,6.16-3.64.55.42,1.58.28,2.4.32,5.7.26,11.41.44,17.11.78,1.37.08,2.22-.24,2.7-1.51A3.92,3.92,0,0,1,98,107.84Z"/><path class="cls-7" d="M80,126.16c2-2,4-3,5.69-1.61,2.13,1.69,1,2.65-1.2,2A19.24,19.24,0,0,0,80,126.16Z"/><path class="cls-8" d="M76.9,115.41c.56-1.44,1.47-2.82,3.13-2.09s.1,1.87-.11,2.84C78.82,116.31,77.7,116.47,76.9,115.41Z"/><path class="cls-1" d="M53,157c.64.1,1.38.09,1.49.94,0,.17-.39.58-.55.55-.85-.11-.85-.85-.94-1.49Z"/><path class="cls-7" d="M89.74,176.33c.28.12.7.18.78.38s-.2.53-.32.8c-.27-.12-.69-.18-.77-.38S89.62,176.6,89.74,176.33Z"/><path class="cls-8" d="M58.89,121c-.52,0-1.3.92-1.48-.16-.12-.73.82-.79,1.44-.89Z"/><path class="cls-1" d="M51.06,70c0-.33,0-.66,0-1,2.17-.15,2-1.82,2.09-3.28l4,2C56.85,70.22,55,70.69,53,71A2.07,2.07,0,0,0,51.06,70Z"/><path class="cls-6" d="M124,66h-7c-1-1.08-.59-2.06.66-1.88C119.83,64.46,122.82,62.36,124,66Z"/><path class="cls-4" d="M154.78,60c.5,1.89-2.11,2.14-2,3.81L149,64C150,61.27,152,60.14,154.78,60Z"/><path class="cls-2" d="M49,59l-.4-.22L49,59Z"/><path class="cls-7" d="M98,107.84a3.92,3.92,0,0,0-2.76-1.6c-.07-.18-.15-.37-.22-.56,1.46-6-.13-12.26,2.1-18.13l2,1.09c.41,6.43-.68,12.9.53,19.3Z"/><path class="cls-7" d="M77.71,96.71l-2.48-.81c-.61-.78.13-2.13-1.11-2.63.08-1.79.75-2.74,2.28-1.1A4.65,4.65,0,0,1,77.71,96.71Z"/><path class="cls-7" d="M88,102l-3.27-1.86L86.8,98A5.15,5.15,0,0,1,88,102Z"/><path class="cls-7" d="M89,83.25,92,85c-1.14.4-2.28,1.62-3.49.43C87.88,84.76,88.66,84,89,83.25Z"/><path class="cls-7" d="M84,81a2.52,2.52,0,0,1,2.33,1.19c-.31.68-.61,1.63-1.54,1.25S84.11,81.84,84,81Z"/><path class="cls-4" d="M74.12,93.27c1.24.5.5,1.85,1.11,2.63A1.76,1.76,0,0,1,73,94.71Z"/><path class="cls-7" d="M67.7,91.26c.33-.65.26-1.6,1.26-1.71.16,0,.53.35.52.51-.1,1-1.07.93-1.71,1.27Z"/><path class="cls-7" d="M85.29,86.54c-.29.14-.55.36-.8.35s-.47-.28-.7-.43c.25-.12.51-.35.76-.34S85,86.38,85.29,86.54Z"/><path class="cls-13" d="M99.74,107.94c-1.21-6.4-.12-12.87-.53-19.3,1.58.27,2.91-1.41,4.56-.61-2.47,3.18-1.47,7-1.54,10.48-.11,4.72,4.29,3.18,7,3.78,0,2.33-2.53,2.18-3.5,3.56C103.61,106.11,102.1,108.25,99.74,107.94Z"/><path class="cls-13" d="M117.93,79.86c.36,2.32-1.91,2.8-2.92,4.16-2,0-4-.2-5.15,2s-3.11,2.12-5.16,1.65C108.31,83.74,112.44,80.66,117.93,79.86Z"/><path class="cls-11" d="M105.78,105.85c1-1.38,3.49-1.23,3.5-3.56,2.89-.26,4.76-3.29,7.9-2.9,3.28,2,6.55,3.89,8.76-1.31-.29,2.7,1,6.38-4,6-1.46-.11-2.13,1.07-1.73,2.37.69,2.26,2.66,1.45,4.21,1.39,1.39-.06,1.65-1.46,2.37-2.33,1.6-1.94,3.14-2.68,4.2.47a13.47,13.47,0,0,0-2.53.7c.37,4.22-.9,5.59-5,3.39-.92-.49-2.2,0-2,1.83.33,3.27-2.89,2.59-4.49,3.4-2.3,1.18-2-1.53-2.48-2.62-.71-1.68-1.33-3.21-3.48-2.54-3,.93-1.34-3.76-4-3.15v0Z"/><path class="cls-10" d="M125.94,98.08c-2.21,5.2-5.48,3.32-8.76,1.31,1.11-1.82,3.24-1.68,4.86-2.52,3.55-.16,5.72-2.65,8.06-4.82l1-.81,2-.1c-.19,1,2.62,1.73,0,2.9C130.59,95.15,128.31,96.72,125.94,98.08Z"/><path class="cls-13" d="M130.1,92.05c-2.34,2.17-4.51,4.66-8.06,4.82C121.93,90.57,126.51,92.13,130.1,92.05Z"/><path class="cls-13" d="M110.5,90.19c.68.17,1.19.44.92,1a1.51,1.51,0,0,1-1.15.55c-.49,0-1-.35-.74-.92C109.69,90.48,110.24,90.34,110.5,90.19Z"/><path class="cls-8" d="M160,80.09c3.14,2.28,3.1,4.61.08,7C158.11,84.75,159.41,82.42,160,80.09Z"/><path class="cls-11" d="M136.65,132.09c2.82.18,2.91,2.38,3.74,3.85s.68,2.72-1.2,2.95c-2.56.31-3.28,1.83-3.24,4.12,0,1.37-.19,3.18-1.93,2.7a12.88,12.88,0,0,1-5.72-3.15c-1-1,.19-2.4,1.83-2.63.68-.09,1.57-.56,1.24-1.18C127.52,131.52,136.45,135.45,136.65,132.09Z"/><path class="cls-11" d="M153.42,126c-1.07-.3-3,.65-2.94-1.47s1.67-2.65,3.59-2.52c1.39.09,2.8.14,2.72,2C156.7,126.29,154.89,125.84,153.42,126Z"/><path class="cls-11" d="M103.37,123.89c-2.35.16-3.32-.54-3.37-2.45-.06-2.07.34-3.46,2.87-3.49,2,0,3.3.62,3.32,2.62A3.3,3.3,0,0,1,103.37,123.89Z"/><path class="cls-11" d="M107,107l-.23.4c.07-.14.14-.28.22-.42Z"/></g></g></svg>